<?xml version="1.0" encoding="utf-8"?>
<!-- Generator: Adobe Illustrator 26.3.1, SVG Export Plug-In . SVG Version: 6.00 Build 0)  -->
<svg version="1.1" id="Capa_1" xmlns="http://www.w3.org/2000/svg" xmlns:xlink="http://www.w3.org/1999/xlink" x="0px" y="0px"
	 viewBox="0 0 80.6 80.6" style="enable-background:new 0 0 80.6 80.6;" xml:space="preserve">
<style type="text/css">
	.st0{clip-path:url(#SVGID_00000078760482348986424250000017099650906547606189_);}
	.st1{fill:#005BAA;}
</style>
<g id="Grupo_33" transform="translate(0 0)">
	<g>
		<defs>
			<rect id="SVGID_1_" x="17.8" width="45" height="80.6"/>
		</defs>
		<clipPath id="SVGID_00000029007998811180060650000001231993280578643090_">
			<use xlink:href="#SVGID_1_"  style="overflow:visible;"/>
		</clipPath>
		<g style="clip-path:url(#SVGID_00000029007998811180060650000001231993280578643090_);">
			<g id="Grupo_17" transform="translate(0 0)">
				<path id="Trazado_6" class="st1" d="M62,42.6c-0.1-0.8-0.1-1.6,0-2.3c-0.1-7.6,1.1-15.6-5.8-21c-0.3-0.2-0.4-0.8-0.6-1.2
					c-0.9-0.7-1.8-1.5-2.6-2.3c-3.5-4.7-4.7-5-10-3c-0.5-2.8,0.3-5.6,2.1-7.7c1.3-1.5,1.6-3.5-0.1-4.7c-1.7-1.3-2.6,0.7-3.4,1.9
					c-2.2,3-2.4,6.8-2.7,10.4c-6.2-1.7-12.4,0.6-14.6,5.6c-1.3,3.1-2.5,6.2-3.8,9.3c-1.4,5.4-3.4,10.6-2.5,16.3
					c0.2,2.3,0.3,4.6,0.2,6.9c0.1,5.6-0.3,11.4,2.9,16.4c2.2,1.5,4.1,3.6,5.3,5.9c1.8,3.4,4.4,4,7.3,3.3c1.8-0.4,2.8,0.4,4.2,1.1
					c3,1.6,6.4,4,9.6,2.4c2.5-1.2,5.4-2.4,7.4-4.7c1.9-2.5,2.1-5.8,3.4-8.6C61.8,59.1,64,51.3,62,42.6 M30.2,70.1
					c-1.5-3.5-4.3-5.6-6.8-8.2c-0.7-0.8-1.1-2-0.9-3.1c0.1-1.5-0.3-2.9-0.3-4.3c0.4-8-1.9-16.2,1.7-23.9c1.3-2.8,2.9-5.3,3.4-8.4
					c0.4-1.6,1.7-2.9,3.4-3.1c0.6-0.1,1.2-0.2,1.9-0.4c1-0.2,1.4-2.6,2.7-1.1c0.7,0.8-1,1.8-1.1,2.8c-0.5,3.1-3.2,4.6-4.5,7.1
					c-2.8,5.5-2.7,11.5-3.1,17.6c-0.5,8,2.5,15,5,22.1c0.3,1.2,0.6,2.5,0.8,3.8C31.5,71.3,30.6,70.9,30.2,70.1 M55.6,62.1
					c-0.3,0.6-1.1,1-1.2,1.5c-0.5,4.8-2.4,7.7-7,9.8c-3.1,1.4-5-0.3-7-1c-2.6-1-4.4-3.4-4.7-6.2c-0.4-3.5-2-6.5-3.3-9.7
					C30,50.9,30.6,44.8,31,38.8c0.3-3.8,0.8-7.9,4.7-10c0.7-0.4,0.7-1.3,0.9-2.1c0.8-3.3,2.1-6.1,6-6.2c1.1,0,1.4-1.2,2.2-1.8
					c1.4-1.2,3.2-1.9,4.2-0.2c2,3.5,5,5.9,7.7,8.6c1,1,0.9,2.5,0.7,4.6c2.3,4.3-0.1,9.7,1.1,15C59.7,51.9,57.9,57.3,55.6,62.1"/>
				<path id="Trazado_7" class="st1" d="M47,54.5c0.3-3.4-0.6-6.1-1.3-8.4c-1.2-4.4-0.3-8.9-1.3-13.2c-0.6-2.5,0-5.2,1.7-7.2
					c0.8-1,2.1-1.7,3-0.4c0.7,1,0.2,1.9-1,2.6c-2,1-1.7,3.2-1.4,5c0.5,2.2,0.6,4.4,0.3,6.6c-0.3,1.3,0,2.7,0.9,3.8
					c0.9,1.1,0.4,2.3,0.7,3.3c0.8,3.7,0.2,7.7,1.6,11.2c0.5,1.1,1.5,2,2.6,2.2c1.2,0.3,1.3,1.4,0.9,2.4c-0.5,1.1-1.3,0.7-2.2,0.4
					C48.8,61.7,47,58,47,54.5"/>
				<path id="Trazado_8" class="st1" d="M41.5,55.2c-0.1,1.1,0,2.2,0.4,3.2c0.9,2.5,0.9,5.3-0.2,7.8c-0.3,0.8-0.4,2-1.6,1.5
					c-0.9-0.3-0.8-1.3-0.5-2c0.8-2.6,1.3-5.2-0.7-7.5c-0.5-0.6,0-1.5,0.1-2.2c0.3-2.2,0.6-4.4-1.9-5.7c-1.1-0.5-1-1.7-0.3-2.5
					c0.8-1,1.8-0.5,2.5,0.3C41.1,50.1,41.5,52.6,41.5,55.2"/>
			</g>
		</g>
	</g>
</g>
</svg>
