<?xml version="1.0" encoding="UTF-8"?><svg id="Capa_1" xmlns="http://www.w3.org/2000/svg" xmlns:xlink="http://www.w3.org/1999/xlink" viewBox="0 0 44.96 80.58"><defs><style>.cls-1{fill:none;}.cls-2{clip-path:url(#clippath);}.cls-3{fill:#005baa;}</style><clipPath id="clippath"><rect class="cls-1" width="44.96" height="80.58"/></clipPath></defs><g id="Grupo_33" transform="translate(0 0)"><g class="cls-2"><g id="Grupo_17" transform="translate(0 0)"><path id="Trazado_6" class="cls-3" d="M44.18,42.64c-.09-.78-.09-1.56-.02-2.33-.1-7.58,1.1-15.56-5.8-21.05-.3-.24-.4-.76-.6-1.16-.94-.69-1.81-1.48-2.6-2.34-3.55-4.67-4.65-5.04-10.02-2.97-.51-2.76,.28-5.59,2.15-7.69,1.31-1.53,1.57-3.47-.07-4.69-1.7-1.27-2.58,.7-3.43,1.87-2.23,3.04-2.38,6.76-2.72,10.41-6.15-1.74-12.44,.65-14.59,5.56-1.34,3.07-2.51,6.22-3.75,9.33C1.36,32.93-.63,38.19,.2,43.91c.23,2.3,.3,4.61,.23,6.92,.07,5.59-.34,11.4,2.88,16.42,2.23,1.51,4.05,3.55,5.3,5.94,1.81,3.45,4.37,4.02,7.3,3.35,1.81-.41,2.78,.36,4.16,1.1,3.02,1.63,6.42,3.97,9.63,2.45,2.52-1.19,5.36-2.42,7.43-4.67,1.94-2.5,2.11-5.79,3.38-8.58,3.5-7.71,5.72-15.57,3.67-24.21m-31.78,27.51c-1.45-3.5-4.31-5.64-6.79-8.16-.74-.85-1.06-1.99-.9-3.1,.07-1.45-.34-2.94-.28-4.28,.42-7.97-1.88-16.21,1.7-23.87,1.29-2.76,2.9-5.29,3.45-8.42,.39-1.65,1.74-2.89,3.42-3.13,.62-.14,1.24-.23,1.86-.37,.99-.23,1.41-2.64,2.68-1.13,.67,.79-.96,1.76-1.13,2.8-.51,3.08-3.2,4.58-4.46,7.09-2.75,5.52-2.69,11.55-3.1,17.59-.54,8.05,2.46,14.98,4.96,22.15,.34,1.24,.6,2.49,.78,3.76-.86,.26-1.79-.13-2.2-.93m25.37-8c-.27,.58-1.1,.99-1.16,1.54-.48,4.8-2.39,7.72-7.03,9.76-3.15,1.39-4.98-.27-7.01-.98-2.61-.99-4.44-3.38-4.7-6.16-.44-3.46-1.95-6.53-3.28-9.71-2.36-5.66-1.81-11.82-1.35-17.8,.29-3.85,.77-7.88,4.68-9.99,.68-.37,.72-1.29,.9-2.06,.8-3.33,2.1-6.15,5.98-6.2,1.11-.01,1.44-1.2,2.15-1.83,1.37-1.22,3.21-1.88,4.17-.2,2.01,3.52,4.96,5.92,7.73,8.58,.99,.95,.9,2.45,.68,4.6,2.32,4.3-.1,9.67,1.14,15.02,1.19,5.17-.6,10.56-2.88,15.44"/><path id="Trazado_7" class="cls-3" d="M29.2,54.46c.34-3.38-.63-6.07-1.26-8.39-1.2-4.42-.3-8.88-1.33-13.2-.64-2.53-.02-5.21,1.66-7.2,.79-.95,2.06-1.67,2.97-.4,.67,.95,.24,1.93-1.03,2.58-2.05,1.03-1.69,3.18-1.37,5.01,.55,2.15,.63,4.39,.26,6.58-.31,1.33,.02,2.72,.87,3.78,.88,1.06,.43,2.26,.65,3.31,.81,3.71,.24,7.65,1.64,11.2,.46,1.13,1.45,1.95,2.64,2.19,1.22,.28,1.32,1.36,.88,2.38-.48,1.13-1.35,.74-2.17,.41-2.63-1.05-4.46-4.74-4.42-8.25"/><path id="Trazado_8" class="cls-3" d="M23.69,55.2c-.14,1.1,.02,2.23,.44,3.25,.94,2.53,.88,5.32-.15,7.82-.33,.76-.38,1.98-1.59,1.54-.86-.32-.77-1.32-.54-2.03,.84-2.63,1.3-5.15-.69-7.51-.53-.62-.01-1.49,.09-2.25,.3-2.23,.59-4.44-1.94-5.67-1.11-.54-.97-1.72-.31-2.52,.8-.96,1.81-.49,2.5,.26,1.81,1.97,2.19,4.49,2.19,7.11"/></g></g></g></svg>