<?xml version="1.0" encoding="utf-8"?>
<!-- Generator: Adobe Illustrator 23.0.3, SVG Export Plug-In . SVG Version: 6.00 Build 0)  -->
<svg version="1.1" id="Layer_1" xmlns="http://www.w3.org/2000/svg" xmlns:xlink="http://www.w3.org/1999/xlink" x="0px" y="0px"
	 viewBox="0 0 702.1 731" style="enable-background:new 0 0 702.1 731;" xml:space="preserve">
<style type="text/css">
	.st0{opacity:0.22;}
	.st1{fill:#F7A152;}
	.st2{fill:none;stroke:#FFB127;stroke-width:1.0938;stroke-miterlimit:10;}
	.st3{fill:none;stroke:#FFB127;stroke-width:1.0938;stroke-miterlimit:10;stroke-dasharray:3.2977,3.2977;}
	.st4{opacity:0.84;}
	.st5{opacity:0.41;fill:#F7A152;}
	.st6{opacity:0.6;}
	.st7{opacity:0.4;}
	.st8{fill:#CCDCEC;}
	.st9{fill:#B2CAE2;}
	.st10{fill:#99B9D8;}
	.st11{fill:#FCF2EB;}
	.st12{fill:#FFBB88;}
	.st13{opacity:0.45;fill:#B03D44;enable-background:new    ;}
	.st14{fill:#004F9F;}
	.st15{fill:#C3ECFE;}
	.st16{fill:#FFFFFF;}
	.st17{opacity:0.25;fill:#0964AF;enable-background:new    ;}
	.st18{fill:none;stroke:#F7A152;stroke-miterlimit:10;}
	.st19{fill:#0964AF;}
	.st20{opacity:0.15;}
	.st21{fill:none;stroke:#0964AF;stroke-width:2.113;stroke-linecap:round;stroke-linejoin:round;}
	
		.st22{opacity:0.45;fill:none;stroke:#F48431;stroke-width:0.9947;stroke-linecap:round;stroke-linejoin:round;stroke-miterlimit:10;}
	.st23{opacity:0.25;fill:#FCCCB1;}
	.st24{fill:#FCCCB1;}
	.st25{fill:none;stroke:#E5936A;stroke-width:0.9947;stroke-linecap:round;stroke-linejoin:round;stroke-miterlimit:10;}
	.st26{opacity:0.45;}
	.st27{fill:none;stroke:#E5936A;stroke-width:1.0922;stroke-linecap:round;stroke-linejoin:round;stroke-miterlimit:10;}
	.st28{fill:#FFE0C7;}
	.st29{fill:none;stroke:#FFB127;stroke-width:1.0938;stroke-miterlimit:10;stroke-dasharray:3.2815;}
	.st30{fill:#FFFDFD;}
	.st31{fill:none;stroke:#1B227A;stroke-width:16;stroke-linecap:round;stroke-linejoin:round;}
	.st32{opacity:0.64;fill:#FFFFFF;}
	.st33{fill:none;stroke:#1B227A;stroke-width:16;}
</style>
<g id="hero-vector">
	<g id="bg" class="st0">
		<path class="st1" d="M555.6,265c-12.1-14.6-35.9-23.2-44.1-36.6c-24.5-39.8,71.2-51.7,60.7-122c-4.3-29.3-47.2-62.4-80.9-83.3
			c-27-16.8-59.8-21.6-91.7-22C362.1,0.6,322,7,293.9,32c-23.5,20.9-35.9,52.4-60.7,71.7c-31.5,24.7-74.1,24.4-110.8,36.3
			c-31.7,10.2-76.4,37.5-78.8,74.6c0,0.4,0,0.8-0.1,1.1c-0.8,19.2,10.9,37,25.5,49.4c14.6,12.4,32.2,20.8,48.5,30.9
			c15.7,9.7,32.1,25.7,27.7,43.6c-3.3,13.6-17,21.4-27.5,30.5C89.3,394.6,80,438.7,96.2,472.6s56.3,54.3,93.2,47.5
			c13.8-2.5,30.5-7.7,40.2,2.5c-23.4,1.4-23.4,19.7-10.9,24.8c5.1,2.1,19.7,4.2,25.2,4.6c41.1,2.5,82.3,3.7,123.5,3
			c40.3-0.7,82.2-1.1,121.5-11.1c13.2-3.3,42.8-10.8,40.7-29.4c-1.6-14.4-37.9-51.6-51.5-56.4c-13.6-4.8-3.5-13.2-1.1-27.5
			c1-6,0,0,4.3-4.2c22.7-22.1-12.1-22.8,19.3-26.8c17.2-2.2,16.4-33.5,33.2-37.8c16.8-4.3,33.5-14.1,40.3-30.1
			C584.9,306.5,572.1,284.8,555.6,265z"/>
	</g>
	<g id="bg-plane">
		<g>
			<g>
				<path class="st2" d="M531.4,52.4c-0.5,0.2-1,0.5-1.5,0.7"/>
				<path class="st3" d="M526.9,54.3c-16.5,6.4-35.5,6.4-53.5,4.8c-19.7-1.8-39.4-5.5-59.1-4.2c-19.7,1.3-40.3,8.7-50.5,24
					c-3.4,5.1-5.5,11.5-3.1,17c3.1,7.2,12.2,10.3,19.9,13.7c11.9,5.3,23.4,15.5,21.4,27.3c-1.9,11.4-14.9,17.9-24.5,25.5
					c-8.3,6.6-15.1,15.7-14.9,25.7c0.3,14.1,14.4,25.2,29.1,30.2c28.7,9.8,63.6,2.4,84.8-17.5"/>
				<path class="st2" d="M477.6,199.6c0.4-0.4,0.8-0.8,1.1-1.2"/>
			</g>
		</g>
		<g class="st4">
			<g>
				<path class="st5" d="M580.3,418.5c-2.3,5.7-8.8,8.5-14.6,6.3c-5.7-2.3-8.5-8.8-6.3-14.6c2.3-5.7,8.8-8.5,14.6-6.3
					C579.8,406.2,582.6,412.7,580.3,418.5z"/>
				<polyline class="st1" points="565.1,413 567.6,418.6 576,413.4 				"/>
			</g>
			<g>
				<path class="st1" d="M637,547.3c-0.3,6.2-5.6,10.9-11.8,10.6c-6.2-0.3-10.9-5.6-10.6-11.8c0.3-6.2,5.6-10.9,11.8-10.6
					C632.6,535.8,637.3,541.1,637,547.3z"/>
				<polyline class="st1" points="620.8,546.9 625,551.4 631.3,543.8 				"/>
			</g>
			<g>
				<path class="st1" d="M659.2,366.2c2,4.6-0.2,10-4.8,11.9c-4.6,2-10-0.2-11.9-4.8c-2-4.6,0.2-10,4.8-11.9
					C651.9,359.4,657.3,361.6,659.2,366.2z"/>
				<polyline class="st1" points="647.4,371.7 652,373.5 653.9,365.7 				"/>
			</g>
			<path class="st1" d="M551,33.6c0,2.8-2.3,5-5,5c-2.8,0-5-2.3-5-5c0-2.8,2.3-5,5-5C548.7,28.6,551,30.9,551,33.6z"/>
			<path class="st1" d="M590.9,506.9c0,1.8-1.5,3.3-3.3,3.3c-1.8,0-3.3-1.5-3.3-3.3c0-1.8,1.5-3.3,3.3-3.3
				C589.4,503.5,590.9,505,590.9,506.9z"/>
			<g>
				<g>
					<path class="st1" d="M669.1,48.5c-1.1,0-2.1-0.9-2.1-2.1V31.9c0-1.1,0.9-2.1,2.1-2.1c1.1,0,2.1,0.9,2.1,2.1v14.6
						C671.2,47.6,670.3,48.5,669.1,48.5z"/>
				</g>
				<g>
					<path class="st1" d="M676.4,41.3h-14.6c-1.1,0-2.1-0.9-2.1-2.1c0-1.1,0.9-2.1,2.1-2.1h14.6c1.1,0,2.1,0.9,2.1,2.1
						C678.5,40.3,677.5,41.3,676.4,41.3z"/>
				</g>
			</g>
			<g>
				<g>
					<path class="st1" d="M511,113.5c-0.6,0-1.1-0.5-1.1-1.1v-7.5c0-0.6,0.5-1.1,1.1-1.1c0.6,0,1.1,0.5,1.1,1.1v7.5
						C512.1,113.1,511.6,113.5,511,113.5z"/>
				</g>
				<g>
					<path class="st1" d="M514.8,109.8h-7.5c-0.6,0-1.1-0.5-1.1-1.1c0-0.6,0.5-1.1,1.1-1.1h7.5c0.6,0,1.1,0.5,1.1,1.1
						C515.9,109.3,515.4,109.8,514.8,109.8z"/>
				</g>
			</g>
			<g>
				<g>
					<path class="st1" d="M666,584.7c-0.8,0-1.4-0.6-1.4-1.4V573c0-0.8,0.6-1.4,1.4-1.4c0.8,0,1.4,0.6,1.4,1.4v10.2
						C667.4,584,666.8,584.7,666,584.7z"/>
				</g>
				<g>
					<path class="st1" d="M671.1,579.6h-10.2c-0.8,0-1.4-0.6-1.4-1.4c0-0.8,0.6-1.4,1.4-1.4h10.2c0.8,0,1.4,0.6,1.4,1.4
						C672.5,578.9,671.9,579.6,671.1,579.6z"/>
				</g>
			</g>
		</g>
		<g class="st4">
			<g class="st6">
				<g class="st7">
					<path class="st1" d="M454,551c-13.4,7.5-30.4,2.7-37.9-10.7c-7.5-13.4-2.7-30.4,10.7-37.9c13.4-7.5,30.4-2.7,37.9,10.7
						C472.2,526.5,467.4,543.5,454,551z M428.8,506.1c-11.3,6.4-15.4,20.8-9,32.1c6.4,11.3,20.8,15.4,32.1,9
						c11.3-6.4,15.4-20.8,9-32.1C454.6,503.8,440.2,499.8,428.8,506.1z"/>
				</g>
				<g>
					<path class="st1" d="M455.2,518.4L455.2,518.4c-0.4-0.7-0.1-1.5,0.5-1.9l2.1-1.2c0.7-0.4,1.5-0.1,1.9,0.5l0,0
						c0.4,0.7,0.1,1.5-0.5,1.9l-2.1,1.2C456.5,519.3,455.6,519.1,455.2,518.4z"/>
					<path class="st1" d="M420.9,537.6L420.9,537.6c-0.4-0.7-0.1-1.5,0.5-1.9l2.1-1.2c0.7-0.4,1.5-0.1,1.9,0.5l0,0
						c0.4,0.7,0.1,1.5-0.5,1.9l-2.1,1.2C422.2,538.5,421.3,538.3,420.9,537.6z"/>
				</g>
				<g>
					<path class="st1" d="M448.7,541.6L448.7,541.6c0.7-0.4,1.5-0.1,1.9,0.5l1.2,2.1c0.4,0.7,0.1,1.5-0.5,1.9l0,0
						c-0.7,0.4-1.5,0.1-1.9-0.5l-1.2-2.1C447.8,542.8,448,542,448.7,541.6z"/>
					<path class="st1" d="M429.5,507.3L429.5,507.3c0.7-0.4,1.5-0.1,1.9,0.5l1.2,2.1c0.4,0.7,0.1,1.5-0.5,1.9l0,0
						c-0.7,0.4-1.5,0.1-1.9-0.5l-1.2-2.1C428.5,508.5,428.8,507.7,429.5,507.3z"/>
				</g>
				<g>
					<path class="st1" d="M435.7,543.1L435.7,543.1c0.7,0.2,1.2,1,1,1.7l-0.7,2.3c-0.2,0.7-1,1.2-1.7,1l0,0c-0.7-0.2-1.2-1-1-1.7
						l0.7-2.3C434.2,543.3,435,542.9,435.7,543.1z"/>
					<path class="st1" d="M446.4,505.3L446.4,505.3c0.7,0.2,1.2,1,1,1.7l-0.7,2.3c-0.2,0.7-1,1.2-1.7,1l0,0c-0.7-0.2-1.2-1-1-1.7
						l0.7-2.3C444.9,505.5,445.7,505.1,446.4,505.3z"/>
				</g>
				<g>
					<path class="st1" d="M424,522.1L424,522.1c-0.2,0.7-1,1.2-1.7,1l-2.3-0.7c-0.7-0.2-1.2-1-1-1.7l0,0c0.2-0.7,1-1.2,1.7-1
						l2.3,0.7C423.7,520.6,424.2,521.3,424,522.1z"/>
					<path class="st1" d="M461.8,532.8L461.8,532.8c-0.2,0.7-1,1.2-1.7,1l-2.3-0.7c-0.7-0.2-1.2-1-1-1.7l0,0c0.2-0.7,1-1.2,1.7-1
						l2.3,0.7C461.6,531.2,462,532,461.8,532.8z"/>
				</g>
			</g>
			<g class="st6">
				<path class="st1" d="M442.4,525.6c0.6,1.1,0.2,2.5-0.9,3.1c-1.1,0.6-2.5,0.2-3.1-0.9c-0.6-1.1-0.2-2.5,0.9-3.1
					C440.3,524.1,441.7,524.5,442.4,525.6z"/>
				<path class="st1" d="M438.9,524.2L438.9,524.2c-0.2,0.1-0.5,0-0.6-0.2l-5.8-10.3c-0.1-0.2,0-0.5,0.2-0.6l0,0
					c0.2-0.1,0.5,0,0.6,0.2l5.8,10.3C439.2,523.8,439.2,524.1,438.9,524.2z"/>
				<path class="st1" d="M443.1,525.2L443.1,525.2c-0.1-0.2,0-0.5,0.2-0.6l6.8-3.8c0.2-0.1,0.5,0,0.6,0.2l0,0c0.1,0.2,0,0.5-0.2,0.6
					l-6.8,3.8C443.5,525.5,443.3,525.4,443.1,525.2z"/>
			</g>
		</g>
		<g>
			<polygon class="st8" points="550.5,48.5 495.3,56.8 516.6,64.4 			"/>
			<polygon class="st9" points="516.2,64.3 517.4,74.5 550.5,48.5 			"/>
			<polygon class="st10" points="523,68.1 517.4,74.5 550.5,48.5 			"/>
			<polygon class="st8" points="550.5,48.5 536.1,80.4 523,68.1 			"/>
		</g>
	</g>
	<g id="board_1_">
		<path id="Path_1_1_" class="st11" d="M460.5,670.2c0,5.3-103.1,9.6-230.3,9.6S0,675.5,0,670.2c0-5.3,103.1-9.6,230.3-9.6
			S460.5,664.9,460.5,670.2z"/>
		<path id="Path_2_1_" class="st12" d="M234.6,0c-12.8,0-23.1,10.3-23.1,23.1v29.6h46.2V23.1C257.7,10.3,247.4,0,234.6,0z
			 M234.6,36.4c-7.2,0-13-5.8-13-13c0-7.2,5.8-13,13-13c7.2,0,13,5.8,13,13c0,0,0,0,0,0C247.6,30.6,241.8,36.4,234.6,36.4z"/>
		<path id="Path_3_1_" class="st13" d="M247.6,23.4c0-7.2-5.8-13-13-13c-0.7,0-1.3,0.1-1.9,0.2c1.9-0.8,2-1.3,5.3-1.3
			c7.2,0,13,5.8,13,13v0c0,6.5-3.3,10-8.3,11.3C245.6,31.1,247.4,27.4,247.6,23.4z M218.6,49.8V20.1c0-8,3.5-15.1,9.7-19.2
			c-9.9,2.8-16.8,11.9-16.8,22.2v29.6h46.2v-3H218.6z"/>
		<path id="Rectangle_1_1_" class="st14" d="M22.2,54.3h416.1c5.4,0,9.7,4.4,9.7,9.7v596.3c0,5.4-4.4,9.7-9.7,9.7H22.2
			c-5.4,0-9.7-4.4-9.7-9.7V64C12.5,58.6,16.8,54.3,22.2,54.3z"/>
		<rect id="Rectangle_2_1_" x="37.7" y="78.4" class="st15" width="385.1" height="567.5"/>
		<rect id="Rectangle_3_1_" x="52.5" y="95.8" class="st16" width="355.4" height="532.8"/>
		<path id="Rectangle_4_1_" class="st12" d="M97.2,48.2h266.1c3.9,0,7,3.1,7,7c0,0,0,0,0,0v32.4l0,0H90.2l0,0V55.2
			C90.2,51.4,93.3,48.2,97.2,48.2C97.2,48.2,97.2,48.2,97.2,48.2z"/>
		<path id="Path_4_1_" class="st13" d="M101,81.8V65.1c0-6.2,2.5-12.1,7-16.3C97.6,51,90.2,60.2,90.2,70.9v16.8h280.2v-5.8H101z"/>
		<g id="Group_13_1_" transform="translate(1162.938 326.261)">
			<g id="Group_1_1_" transform="translate(0 0)">
				<circle id="Ellipse_1_1_" class="st17" cx="-1039.2" cy="-157.2" r="45.7"/>
				<circle id="Ellipse_2_1_" class="st18" cx="-1039.2" cy="-157.2" r="53.1"/>
				<path id="Path_5_1_" class="st16" d="M-1030.3-156.5c7.6-5,9.8-15.2,4.8-22.8c-5-7.6-15.2-9.8-22.8-4.8
					c-7.6,5-9.8,15.2-4.8,22.8c1.2,1.9,2.9,3.6,4.8,4.8c-10.5,2.5-17.9,11.8-17.9,22.6v13.7c16,11.7,37.7,11.7,53.7,0V-134
					C-1012.4-144.7-1019.8-154.1-1030.3-156.5z"/>
			</g>
			<g id="Group_3_1_" transform="translate(130.745 21.661)">
				<path id="Path_6_1_" class="st19" d="M-1095.8-221l2.2,4.5l5,0.7l-3.6,3.5l0.8,4.9l-4.4-2.3l-4.4,2.3l0.8-4.9l-3.6-3.5l5-0.7
					L-1095.8-221z"/>
				<path id="Path_7_1_" class="st19" d="M-1074.2-221l2.2,4.5l5,0.7l-3.6,3.5l0.8,4.9l-4.4-2.3l-4.4,2.3l0.8-4.9l-3.6-3.5l5-0.7
					L-1074.2-221z"/>
				<path id="Path_8_1_" class="st19" d="M-1052.6-221l2.2,4.5l5,0.7l-3.6,3.5l0.8,4.9l-4.4-2.3l-4.4,2.3l0.8-4.9l-3.6-3.5l5-0.7
					L-1052.6-221z"/>
				<path id="Path_9_1_" class="st19" d="M-1031-221l2.2,4.5l5,0.7l-3.6,3.5l0.8,4.9l-4.4-2.3l-4.4,2.3l0.8-4.9l-3.6-3.5l5-0.7
					L-1031-221z"/>
				<path id="Path_10_1_" class="st19" d="M-1009.4-221l2.2,4.5l5,0.7l-3.6,3.5l0.8,4.9l-4.4-2.3l-4.4,2.3l0.8-4.9l-3.6-3.5l5-0.7
					L-1009.4-221z"/>
				<g id="Group_2_1_" transform="translate(2.386 25.493)" class="st20">
					<line id="Line_1_1_" class="st21" x1="-1103" y1="-221" x2="-1057" y2="-221"/>
					<line id="Line_2_1_" class="st21" x1="-953.8" y1="-202.6" x2="-918.8" y2="-202.6"/>
					<line id="Line_3_1_" class="st21" x1="-1103" y1="-202.6" x2="-969" y2="-202.6"/>
					<line id="Line_4_1_" class="st21" x1="-1103" y1="-184.2" x2="-918.8" y2="-184.2"/>
					<line id="Line_5_1_" class="st21" x1="-977.4" y1="-165.8" x2="-918.8" y2="-165.8"/>
					<line id="Line_6_1_" class="st21" x1="-1103" y1="-165.8" x2="-991.9" y2="-165.8"/>
					<line id="Line_7_1_" class="st21" x1="-1041.9" y1="-221" x2="-918.8" y2="-221"/>
				</g>
			</g>
			<g id="Group_4_1_" transform="translate(3.974 133.058)">
				<circle id="Ellipse_3_1_" class="st17" cx="-1043.2" cy="-161.2" r="45.7"/>
				<path id="Path_11_1_" class="st16" d="M-1034.2-160.5c7.6-5,9.8-15.2,4.8-22.8c-5-7.6-15.2-9.8-22.8-4.8
					c-7.6,5-9.8,15.2-4.8,22.8c1.2,1.9,2.9,3.6,4.8,4.8c-10.5,2.5-17.9,11.8-17.9,22.6v13.7c16,11.7,37.7,11.7,53.7,0V-138
					C-1016.4-148.7-1023.8-158.1-1034.2-160.5z"/>
			</g>
			<g id="Group_6_1_" transform="translate(130.745 150.744)">
				<path id="Path_12_1_" class="st19" d="M-1095.8-221l2.2,4.5l5,0.7l-3.6,3.5l0.8,4.9l-4.4-2.3l-4.4,2.3l0.8-4.9l-3.6-3.5l5-0.7
					L-1095.8-221z"/>
				<path id="Path_13_1_" class="st19" d="M-1074.2-221l2.2,4.5l5,0.7l-3.6,3.5l0.8,4.9l-4.4-2.3l-4.4,2.3l0.8-4.9l-3.6-3.5l5-0.7
					L-1074.2-221z"/>
				<path id="Path_14_1_" class="st19" d="M-1052.6-221l2.2,4.5l5,0.7l-3.6,3.5l0.8,4.9l-4.4-2.3l-4.4,2.3l0.8-4.9l-3.6-3.5l5-0.7
					L-1052.6-221z"/>
				<path id="Path_15_1_" class="st17" d="M-1031-221l2.2,4.5l5,0.7l-3.6,3.5l0.8,4.9l-4.4-2.3l-4.4,2.3l0.8-4.9l-3.6-3.5l5-0.7
					L-1031-221z"/>
				<path id="Path_16_1_" class="st17" d="M-1009.4-221l2.2,4.5l5,0.7l-3.6,3.5l0.8,4.9l-4.4-2.3l-4.4,2.3l0.8-4.9l-3.6-3.5l5-0.7
					L-1009.4-221z"/>
				<g id="Group_5_1_" transform="translate(2.386 25.493)" class="st20">
					<line id="Line_8_1_" class="st21" x1="-1103" y1="-221" x2="-1021.2" y2="-221"/>
					<line id="Line_9_1_" class="st21" x1="-1054.6" y1="-202.6" x2="-918.8" y2="-202.6"/>
					<line id="Line_10_1_" class="st21" x1="-1103" y1="-202.6" x2="-1069.7" y2="-202.6"/>
					<line id="Line_11_1_" class="st21" x1="-1103" y1="-184.2" x2="-918.8" y2="-184.2"/>
					<line id="Line_12_1_" class="st21" x1="-956.5" y1="-165.8" x2="-918.8" y2="-165.8"/>
					<line id="Line_13_1_" class="st21" x1="-1103" y1="-165.8" x2="-971.1" y2="-165.8"/>
					<line id="Line_14_1_" class="st21" x1="-1006.1" y1="-221" x2="-918.8" y2="-221"/>
				</g>
			</g>
			<g id="Group_7_1_" transform="translate(4.114 262.282)">
				<circle id="Ellipse_4_1_" class="st17" cx="-1043.4" cy="-161.4" r="45.7"/>
				<path id="Path_17_1_" class="st16" d="M-1034.4-160.7c7.6-5,9.8-15.2,4.8-22.8s-15.2-9.8-22.8-4.8c-7.6,5-9.8,15.2-4.8,22.8
					c1.2,1.9,2.9,3.6,4.8,4.8c-10.5,2.5-17.9,11.8-17.9,22.6v13.7c16,11.7,37.7,11.7,53.7,0v-13.7
					C-1016.5-148.9-1023.9-158.2-1034.4-160.7z"/>
			</g>
			<g id="Group_9_1_" transform="translate(130.745 279.828)">
				<path id="Path_18_1_" class="st19" d="M-1095.8-221l2.2,4.5l5,0.7l-3.6,3.5l0.8,4.9l-4.4-2.3l-4.4,2.3l0.8-4.9l-3.6-3.5l5-0.7
					L-1095.8-221z"/>
				<path id="Path_19_1_" class="st19" d="M-1074.2-221l2.2,4.5l5,0.7l-3.6,3.5l0.8,4.9l-4.4-2.3l-4.4,2.3l0.8-4.9l-3.6-3.5l5-0.7
					L-1074.2-221z"/>
				<path id="Path_20_1_" class="st19" d="M-1052.6-221l2.2,4.5l5,0.7l-3.6,3.5l0.8,4.9l-4.4-2.3l-4.4,2.3l0.8-4.9l-3.6-3.5l5-0.7
					L-1052.6-221z"/>
				<path id="Path_21_1_" class="st19" d="M-1031-221l2.2,4.5l5,0.7l-3.6,3.5l0.8,4.9l-4.4-2.3l-4.4,2.3l0.8-4.9l-3.6-3.5l5-0.7
					L-1031-221z"/>
				<path id="Path_22_1_" class="st17" d="M-1009.4-221l2.2,4.5l5,0.7l-3.6,3.5l0.8,4.9l-4.4-2.3l-4.4,2.3l0.8-4.9l-3.6-3.5l5-0.7
					L-1009.4-221z"/>
				<g id="Group_8_1_" transform="translate(2.386 25.493)" class="st20">
					<line id="Line_15_1_" class="st21" x1="-1103" y1="-221" x2="-1057" y2="-221"/>
					<line id="Line_16_1_" class="st21" x1="-1018.6" y1="-202.6" x2="-918.8" y2="-202.6"/>
					<line id="Line_17_1_" class="st21" x1="-1103" y1="-202.6" x2="-1033.8" y2="-202.6"/>
					<line id="Line_18_1_" class="st21" x1="-1103" y1="-184.2" x2="-918.8" y2="-184.2"/>
					<line id="Line_19_1_" class="st21" x1="-1061.1" y1="-165.8" x2="-918.8" y2="-165.8"/>
					<line id="Line_20_1_" class="st21" x1="-1103" y1="-165.8" x2="-1075.7" y2="-165.8"/>
					<line id="Line_21_1_" class="st21" x1="-1041.9" y1="-221" x2="-918.8" y2="-221"/>
				</g>
			</g>
			<g id="Group_10_1_" transform="translate(18.074 405.326)">
				<circle id="Ellipse_5_1_" class="st17" cx="-1057.3" cy="-175.3" r="45.7"/>
				<path id="Path_23_1_" class="st16" d="M-1048.3-174.6c7.6-5,9.8-15.2,4.8-22.8c-5-7.6-15.2-9.8-22.8-4.8s-9.8,15.2-4.8,22.8
					c1.2,1.9,2.9,3.6,4.8,4.8c-10.5,2.5-17.9,11.8-17.9,22.6v13.7c16,11.7,37.7,11.7,53.7,0v-13.7
					C-1030.5-162.8-1037.9-172.2-1048.3-174.6z"/>
			</g>
			<g id="Group_12_1_" transform="translate(130.745 408.912)">
				<path id="Path_24_1_" class="st19" d="M-1095.8-221l2.2,4.5l5,0.7l-3.6,3.5l0.8,4.9l-4.4-2.3l-4.4,2.3l0.8-4.9l-3.6-3.5l5-0.7
					L-1095.8-221z"/>
				<path id="Path_25_1_" class="st19" d="M-1074.2-221l2.2,4.5l5,0.7l-3.6,3.5l0.8,4.9l-4.4-2.3l-4.4,2.3l0.8-4.9l-3.6-3.5l5-0.7
					L-1074.2-221z"/>
				<path id="Path_26_1_" class="st19" d="M-1052.6-221l2.2,4.5l5,0.7l-3.6,3.5l0.8,4.9l-4.4-2.3l-4.4,2.3l0.8-4.9l-3.6-3.5l5-0.7
					L-1052.6-221z"/>
				<path id="Path_27_1_" class="st19" d="M-1031-221l2.2,4.5l5,0.7l-3.6,3.5l0.8,4.9l-4.4-2.3l-4.4,2.3l0.8-4.9l-3.6-3.5l5-0.7
					L-1031-221z"/>
				<path id="Path_28_1_" class="st19" d="M-1009.4-221l2.2,4.5l5,0.7l-3.6,3.5l0.8,4.9l-4.4-2.3l-4.4,2.3l0.8-4.9l-3.6-3.5l5-0.7
					L-1009.4-221z"/>
				<g id="Group_11_1_" transform="translate(2.386 25.493)" class="st20">
					<line id="Line_22_1_" class="st21" x1="-918.8" y1="-165.8" x2="-964.8" y2="-165.8"/>
					<line id="Line_23_1_" class="st21" x1="-1068" y1="-184.2" x2="-1103" y2="-184.2"/>
					<line id="Line_24_1_" class="st21" x1="-918.8" y1="-184.2" x2="-1052.9" y2="-184.2"/>
					<line id="Line_25_1_" class="st21" x1="-918.8" y1="-202.6" x2="-1103" y2="-202.6"/>
					<line id="Line_26_1_" class="st21" x1="-1044.5" y1="-221" x2="-1103" y2="-221"/>
					<line id="Line_27_1_" class="st21" x1="-918.8" y1="-221" x2="-1029.9" y2="-221"/>
					<line id="Line_28_1_" class="st21" x1="-979.9" y1="-165.8" x2="-1103" y2="-165.8"/>
				</g>
			</g>
		</g>
	</g>
	<g id="bg-plants">
		<g id="plant-l">
			<g>
				<path class="st1" d="M515.5,456.1c-10.2-28-36.4-54.1-62.2-69c-6.3-3.6-15.5-6.4-18.3,2.3c-1.9,5.6-8.4,4.1-12.1,1.5
					c-4.6-3.2-7.3-8.4-11.2-12.3c-3.1-3.1-7.1-5.5-11.5-6.3c-4.4-0.7-9.2,0.4-12.4,3.5c-2.4,2.3-3.9,5.6-6.6,7.6
					c-4.5,3.4-11.1,2.1-15.9-0.8c-4.8-3-8.6-7.3-13.3-10.5c-4.7-3.2-11-5.1-15.9-2.4c-6.6,3.6-7.2,13.1-4.4,20
					c1.7,4.3,4.5,10.5,7.7,13.9c4.7,4.8,11.4,7.9,17.9,9.2c4.8,0.9,9.7,0.9,14.4,2c1.7,0.4,3.7,1.1,4,3.1c0.5,2.8-3,4.6-5.1,5.6
					c-3.6,1.8-7.1,5.7-5.4,9.3c1,2.3,3.7,3.3,6.2,3.7c7.4,1.3,14.7-0.9,21.7-3c4.3-1.3,8-4,12.4-5.1c2.3-0.6,8.1-0.8,7.5,3
					c-0.2,1.2-1.1,2.2-2,3c-0.9,0.8-2,1.5-2.7,2.4c-3.4,4.1,0,8.9,4.4,10c3.4,0.8,6.9-0.1,10.3-0.8c22.2-5.2,45.5-7.2,67.8-2.7
					c4.8,1,10,2.6,12.4,6.8"/>
			</g>
			<path class="st22" d="M491.6,438.4c-16.3-15.1-38-25.1-60.6-27.9c-14.1-1.8-28.3-0.8-42.5-2.1c-14.1-1.2-28.8-5-39-14.4"/>
			<g>
				<path class="st23" d="M496.7,440.6c0,0-38.8-25.8-49.8-52c7.4,2,12.2,4.4,17.4,8.6c5.6,7.9,19,20.1,28,28
					C493.6,429.5,495,434.6,496.7,440.6z"/>
				<path class="st24" d="M495.2,431.7c-1.5-9.1-5.5-18.2-7.1-27.5c-2.5-14.9-2.9-29.8-0.2-44.6c2.3-12.6,6.2-25.8,2-38.5
					c-1.1-3.4-3.2-7-7.6-7c-1.8,0-3.4,0.7-4.7,1.9c-3.2,2.8-3.8,6.9-4.3,10.8l-1.7,13c-0.6,4.2-7,4.7-8.3,0.6c0,0,0-0.1,0-0.1
					c-1.1-3.5-0.9-7.1-0.6-10.7c0.6-7.8,1.6-15.6,0.4-23.3c-1.4-9.4-6.6-18.9-16.6-22.4c-3.5-1.2-7.5-1.4-11.1-0.4
					c-10,2.9-12,12.3-10,20.2c1.4,5.6,4.6,10.6,7.4,15.7c7,12.4,3.2,24.2,5,38C441.5,386.9,470.2,415.2,495.2,431.7z"/>
				<path class="st25" d="M440.4,300.6c21,25.4,13.4,85.3,50,117.7"/>
				<path class="st25" d="M481.3,330.4c2.4,12.8-5.9,27.2-7.8,35.2c-1.9,8-2.9,21.6-0.9,29.6"/>
			</g>
		</g>
		<g id="plant-r">
			<g>
				<path class="st24" d="M615.7,178.3c10.6-0.8,22.8-3.2,25.4-14.5c0.8-3.7-0.2-8,1.9-11.2c1.4-2.1,3.8-3.3,5.8-4.7
					c4.9-3.5,8.1-9.2,8.5-15.1c0.4-6.4-2.1-12.6-2.5-19.1c-0.3-5.2,0.8-10.6,3.4-15.2c-9.2-3.3-19.5-1.4-29.2-3.2
					c-7.4-1.3-14.3-4.7-21.8-5.7c-13.6-1.8-27.9,5.4-34.6,17.3c-5.4-3.2-12.4-3.4-18.1-0.6c-6,3-10.8,8.5-12.8,14.9
					c-8.1,26.6-4.9,52.4,2.5,78.6c-1.6-5.7,15.2-12.8,18.5-14.2c14.2-6.1,29.7-6.1,44.8-6.9C610.1,178.6,612.8,178.5,615.7,178.3z"
					/>
				<g class="st26">
					<path class="st27" d="M562.3,167.6c3.1-11.6,11.1-21.2,19.4-29.8c8.1-8.4,16.9-16.4,26.8-22.4c10-6.1,21.3-10.3,33-10.6"/>
					<path class="st27" d="M599.9,96.9c-4.9,9.5-8.6,21.8-9.6,32.5"/>
					<path class="st27" d="M593.5,126.5c14.1-3,33.3-0.9,46.5,4.9"/>
					<path class="st27" d="M565,117.9c11.5,10.9,4.5,31.3,2.8,37.1"/>
					<path class="st27" d="M576.3,143.7c13.3-3.6,33.6-4.5,43.7,2.5"/>
					<path class="st27" d="M562.8,166.6c12.3-6.3,38.5-8.7,48.6-1.7"/>
					<path class="st27" d="M625.1,100.4c-4.6,2.7-7.1,7-8,10.4"/>
					<path class="st27" d="M621.2,109.1c5.8-0.7,12.4,1.2,18.7,5.5"/>
				</g>
			</g>
			<g>
				<g>
					<path class="st1" d="M524.5,254.5c-3.5-17.6-0.2-38.7,11.3-52.5c9.2-11.2,20-22.4,32.1-30.4c10.8-7.1,15.8,2.6,26.1,3.9
						c6.6,0.8,12.5-4.1,16.3-9.6c3.6-5.3,6.2-11.5,11-15.9c3.5-3.3,9.3-5.8,14.1-4.3c6,1.9,6.9,9.7,14.2,9c3.4-0.4,6.5-2.3,9.1-4.5
						c6.3-5.1,12.6-9.9,19.6-13.9c6.4-3.6,15.1-6.3,20.5-1.3c5.1,4.8,3.3,13.4-0.1,19.6c-8.2,14.9-22.9,25.3-38.8,31.2
						c-4.3,1.6-8.9,3-12.6,5.8c-3.7,2.8-6.5,7.4-5.6,11.9c0.5,2.4,1.9,4.6,2.5,7c1.6,6.7-3.9,13.3-10.1,16.3
						c-16,7.8-30.4-4.5-46.8-3.2c-18.6,1.6-45.7,10.8-54.7,28.8"/>
				</g>
				<path class="st22" d="M538.6,235.2c13.7-20.3,34.3-36.3,57.7-45c14.6-5.4,30.1-8,44.9-12.9c14.8-4.9,29.5-12.5,38.1-25.1"/>
			</g>
			<g>
				<path class="st28" d="M558.9,265c7.2,5.7,12,14.2,19.4,19.6c2.3,1.6,4.7,3.1,7.4,3.8c2.7,0.7,5.7,0.6,8.1-0.9
					c2.4-1.4,4.2-4.1,7-4.7c1.8-0.3,3.7,0.4,5.5,0.7c4.4,0.9,9.1-0.3,12.5-3.1c3.7-3,5.7-7.6,9-11.1c2.7-2.9,6.1-4.9,9.9-5.9
					c-2.9-6.7-9.2-11.3-13.2-17.4c-3.1-4.7-4.8-10.1-8-14.7c-5.9-8.3-17.1-12.3-27-9.9c-1.1-4.5-4.5-8.5-8.9-10.1
					c-4.7-1.7-10.1-1.5-14.6,0.7c-32.3,16-41.6,42.3-41.6,42.3S543,252.4,558.9,265z"/>
				<g class="st26">
					<path class="st27" d="M551.5,247c7.8-4.3,17.1-4.8,26-4.7c8.7,0.1,17.4,0.8,25.8,3c8.4,2.3,16.4,6.3,22.6,12.4"/>
					<path class="st27" d="M609,231.2c-7.6,2.2-16.2,6.5-22.5,11.4"/>
					<path class="st27" d="M589.7,242.9c8.8,6.1,17.5,17.5,21.1,27.6"/>
					<path class="st27" d="M579.7,223.1c0,11.8-14.6,18.4-18.7,20.5"/>
					<path class="st27" d="M571.6,242.3c8.7,5.4,15.1,15.7,16.4,24.8"/>
					<path class="st27" d="M619.9,246.6c-3.8-1.1-7.4-0.3-9.7,1"/>
					<path class="st27" d="M613.2,248.9c3.3,2.8,5.7,7.3,6.6,12.9"/>
				</g>
			</g>
		</g>
	</g>
	<ellipse id="shadow-man" class="st11" cx="534.6" cy="715.8" rx="116.3" ry="14"/>
	<g id="bg-book">
		<path class="st29" d="M379.2,591.9c23.6,0.1,47.2,0.5,70.7-1.8c16.4-1.6,47.7,2.8,53-17.5c3.2-12.3-3.3-19.5-10.1-24
			c-5.8-3.9-21.5-11-20.2-19.9c1-6.7,10-7.9,16.7-7.5c0,0,33,2.9,43-4.1"/>
		<g>
			<path class="st1" d="M437.8,560.4l14.3,52.5l-35.6,19.8c0,0,2.2,4-2.9,5.1c-5.1,1.1-6.2-2.2-6.2-2.2l-39.6,0l-14-52.7l46.3,3.5
				L437.8,560.4z"/>
			<path class="st30" d="M434.1,560c0,0-22,11.7-26.8,14.3c-4.8,2.6-8.4,7.3-8.1,13.6c0,0-2.5-7.2-12.1-7.3c-12.8-0.2-32.3,0-32.3,0
				l14.7,46.6c0,0,39.4-1.2,42.7,4.3c0,0-5.6-7.2,34.8-23.8L434.1,560z"/>
			<path class="st8" d="M445.9,604.7l2.5,6.5l-36.4,20.4c0,0-1.5-6.6,3.7-9.5C420.9,619,445.9,604.7,445.9,604.7z"/>
			<path class="st8" d="M354.7,580.3l0.3,2.8l14.1,48l43,0.4c0,0,1.1-4.4-8.4-5.9c-9.5-1.5-34.1-1.1-34.1-1.1L354.7,580.3z"/>
			<g>
				<path class="st8" d="M412.1,631.5c-0.5,0.2-3.8-9.7-7.3-21.9c-3.5-12.3-5.9-22.3-5.4-22.5c0.5-0.2,3.8,9.7,7.3,21.9
					C410.2,621.3,412.6,631.4,412.1,631.5z"/>
			</g>
			<g>
				<g>
					<path class="st8" d="M428.9,572.5c0.3,0.5-3.6,3-8.6,5.7c-5,2.7-9.3,4.4-9.6,3.9c-0.3-0.5,3.6-3,8.6-5.7
						C424.4,573.8,428.7,572,428.9,572.5z"/>
				</g>
				<g>
					<path class="st8" d="M430.4,576.4c0.3,0.5-3.6,3-8.6,5.7c-5,2.7-9.3,4.4-9.6,3.9c-0.3-0.5,3.6-3,8.6-5.7
						C425.8,577.7,430.1,575.9,430.4,576.4z"/>
				</g>
				<g>
					<path class="st8" d="M431.4,580.7c0.3,0.5-3.6,3-8.6,5.7c-5,2.7-9.3,4.4-9.6,3.9c-0.3-0.5,3.6-3,8.6-5.7
						C426.9,582,431.2,580.2,431.4,580.7z"/>
				</g>
				<g>
					<path class="st8" d="M432.5,585c0.3,0.5-3.6,3-8.6,5.7c-5,2.7-9.3,4.4-9.6,3.9c-0.3-0.5,3.6-3,8.6-5.7
						C427.9,586.3,432.2,584.5,432.5,585z"/>
				</g>
				<g>
					<path class="st8" d="M433.6,589.3c0.3,0.5-3.6,3-8.6,5.7c-5,2.7-9.3,4.4-9.6,3.9c-0.3-0.5,3.6-3,8.6-5.7
						C429,590.5,433.3,588.8,433.6,589.3z"/>
				</g>
				<g>
					<path class="st8" d="M434.6,593.6c0.3,0.5-3.6,3-8.6,5.7c-5,2.7-9.3,4.4-9.6,3.9c-0.3-0.5,3.6-3,8.6-5.7
						C430.1,594.8,434.4,593.1,434.6,593.6z"/>
				</g>
				<g>
					<path class="st8" d="M435.7,597.8c0.3,0.5-3.6,3-8.6,5.7c-5,2.7-9.3,4.4-9.6,3.9c-0.3-0.5,3.6-3,8.6-5.7
						C431.2,599.1,435.4,597.3,435.7,597.8z"/>
				</g>
			</g>
			<g>
				<g>
					<path class="st8" d="M370.6,589.6c0-0.6,4.6-1.1,10.3-1.1c5.7-0.1,10.3,0.3,10.3,0.9s-4.6,1.1-10.3,1.1
						C375.2,590.5,370.6,590.1,370.6,589.6z"/>
				</g>
				<g>
					<path class="st8" d="M371.2,593.7c0-0.6,4.6-1.1,10.3-1.1c5.7-0.1,10.3,0.3,10.3,0.9c0,0.6-4.6,1.1-10.3,1.1
						C375.9,594.7,371.2,594.3,371.2,593.7z"/>
				</g>
				<g>
					<path class="st8" d="M372.3,598c0-0.6,4.6-1.1,10.3-1.1c5.7-0.1,10.3,0.3,10.3,0.9s-4.6,1.1-10.3,1.1
						C377,598.9,372.3,598.5,372.3,598z"/>
				</g>
				<g>
					<path class="st8" d="M373.4,602.3c0-0.6,4.6-1.1,10.3-1.1c5.7-0.1,10.3,0.3,10.3,0.9c0,0.6-4.6,1.1-10.3,1.1
						C378.1,603.2,373.4,602.8,373.4,602.3z"/>
				</g>
				<g>
					<path class="st8" d="M374.5,606.5c0-0.6,4.6-1.1,10.3-1.1c5.7-0.1,10.3,0.3,10.3,0.9s-4.6,1.1-10.3,1.1
						C379.2,607.5,374.5,607.1,374.5,606.5z"/>
				</g>
				<g>
					<path class="st8" d="M375.6,610.8c0-0.6,4.6-1.1,10.3-1.1c5.7-0.1,10.3,0.3,10.3,0.9c0,0.6-4.6,1.1-10.3,1.1
						C380.3,611.8,375.6,611.4,375.6,610.8z"/>
				</g>
				<g>
					<path class="st8" d="M376.7,615.1c0-0.6,4.6-1.1,10.3-1.1c5.7-0.1,10.3,0.3,10.3,0.9c0,0.6-4.6,1.1-10.3,1.1
						C381.4,616.1,376.8,615.6,376.7,615.1z"/>
				</g>
			</g>
		</g>
	</g>
	<g id="man">
		<g id="legs">
			<path class="st14" d="M566.9,451.5c0,0,12.1-35.3-4-82c-4-11.5-28.7-46.5-54.9-19.4c-16.6,17.1-9.4,52.7-9.4,52.7
				s-9.3,11.8-7.4,48.8H566.9z"/>
			<g id="left-leg">
				<path class="st14" d="M569.7,696.1c-1.1,4.4-0.7,5.9-1.2,8.8c-0.6,3.5-3.8,4.8-5.7,7.7c-2.1,3.2-5.3,8.3,7.4,8.6
					c13.6,0.3,21.7-0.7,19.4-8.4c-2.3-7.7-2.8-11.1-2.6-13.6c0.2-2.5,0-5.1-1.5-6.6C583.9,691.1,571.7,688.4,569.7,696.1z"/>
				<path class="st14" d="M552.3,551.2c-5.9-24.8,18.5-29.1,26.2-11.2c10.9,25.4,10,136.7,9.4,152.9c-0.1,2.1-1.2,1.7-2.4,1.3
					c-3.5-1.3-6.4-1.7-7.8-1.5c-2.7,0.6-8,3.3-8,3.3C567.6,674,558,575.2,552.3,551.2z"/>
				<path class="st14" d="M530.4,454.9c-2.6-30.8,9.2-54.7,27.6-44.5c7.7,4.3,7.2,12.8,8.3,20.9c1,8.1,10.1,91.8,12.1,106.9
					c4.5,34.1-21.5,24.9-24.3,15.5C547,529.8,531.8,471.7,530.4,454.9z"/>
			</g>
			<g id="right-leg">
				<path class="st14" d="M487.1,549.6c-1-23.1,18.4-21.8,26.2-3.8c16.8,38.8-0.1,121.3-3.6,160.3c-3.8-6.3-10.9-8.4-12.6-8.3
					c-2.7,0.2-4.2,2.4-4.2,2.4C493.4,652.4,488.1,574.3,487.1,549.6z"/>
				<path class="st14" d="M512.4,552.1c-2.9,9.4-27.7,20.3-25.1-14c1.1-15.2,4.2-99.3,4.8-107.4c0.6-8.1,1.9-20,5.9-21.4
					c19.6-7.4,38.6,16.8,33.4,47.2C527.9,476.8,518.3,532.5,512.4,552.1z"/>
				<path class="st14" d="M492.9,700.8c-1,2-5.9,6.6-12.8,9.7c-6.8,3-21.3,4.5-13.2,7.2c8,2.7,17.4,1.1,22.1,0.3
					c4.7-0.8,9.3-0.9,14.9-0.9c7.4,0,7.4-0.5,6.4-8.8C509,696.8,496.2,694.4,492.9,700.8z"/>
			</g>
		</g>
		<g id="upper-body">
			<g id="chest">
				<path class="st12" d="M563.6,326.9c-3.1,7.9-3.8,16.6-1.9,24.9c3.7,16.5-3.9,17.6-3.9,17.6s-43.3,35.3-65.5,8.7c0,0,0-0.2,0-0.2
					c0-0.9,0.2-1.8,0.1-2.6c-4.9-33.8,0.1-34-1.7-71.1c-0.4-8.5-4.1-13.3-5.6-20.2c-1.5-7.1-0.8-16.2,0-21.1
					c1.9-11.3,5.6-19.3,8.7-20.9c6.5-3.4,19.9-9,27.8-11.2c8-2.2,17.9-2.2,31.1,0.6c11.6,2.5,15.9,4.7,21.8,13.8
					c5.8,8.9,5.1,17.6,2.6,24.4c-3,8.3-5.4,9.9-6,14.6C569.2,299.8,567.6,316.6,563.6,326.9z"/>
				<path class="st1" d="M563.6,326.9c-3.1,7.9-3.8,16.6-1.9,24.9c3.7,16.5-3.9,17.6-3.9,17.6c-10.2,22.2-62.6,22.9-65.4,12.9
					c-0.3-1.1,0-4.4,0-4.4c0-0.9,0-1.8,0.1-2.6c4,0.4,13,0.8,26.3-0.7c10.3-1.2,19.6-4.1,25.8-6.5c4.5-1.7,7.2-6.4,6.3-11.2
					c-1.1-6.5-2.5-15.9-2.4-23.1c0.1-7.3,6-32.6,12-43.1c0,0,2.7-6.1,4.6-6.1c5.2,0,5.2,5.9,5.2,5.9
					C569,305.2,565.9,321.1,563.6,326.9z"/>
			</g>
			<g id="head">
				<path class="st14" d="M497.6,166.9c0,0-1.7,4.8,0.9,8.7l10.7-14.5l-7.5-0.1L497.6,166.9z"/>
				<path class="st8" d="M555.7,186c-0.5,18.7-16.6,29.5-16.6,29.5l1.1,17l-1.6,8.3l-5.8,6.1l-11.1-1.6c0,0-5.2-1-5.8-4.5
					c-0.2-1.4,1.7-5.3,1.7-5.3l-0.6-10.9c-0.1-2.5-2-4.7-4.5-5.2c-2.8-0.6-6.6-2.2-10.6-6.4c-0.2-0.3-0.5-0.5-0.7-0.8c0,0,0,0,0,0
					c-7.1-9.6-9.7-46.4,14.4-56.9C540.6,144.3,556.2,167.4,555.7,186z"/>
				<path class="st9" d="M528.6,229.4l0.7,10.2l3.4,7.4l-11.1-1.6c0,0-4.8-0.7-5.8-4.5c-0.3-1.4,1.7-5.3,1.7-5.3l-0.6-10.9
					c-0.1-2.5-2-4.7-4.5-5.2c-2.8-0.6-6.6-2.2-10.6-6.4c-0.2-0.3-0.5-0.5-0.7-0.8c0.5,0.3,6.3,3.7,15.2,4.7
					C523,217.5,528.1,222.8,528.6,229.4z"/>
				<path class="st14" d="M529.6,191.8c0.9,0.4,1.8-1.1,1.8-1.1s5.2-11.8,7-13.6c3.2-3.3,10.8-3,11.4,7.1
					c0.5,7.8-8.8,24.5-11.6,29.4c-0.4,0.8-0.3,1.8,0.5,2.4c0.3,0.2,0.7,0.3,1,0.4h0.1c0.4,0,0.9-0.1,1.2-0.4
					c6-5.2,32.2-30.4,11.4-54.1c0,0-16.6,1.1-19.1,9.1c-2.5,8-4.3,18.8-4.3,18.8S528.6,191.4,529.6,191.8z"/>
				<path class="st14" d="M497.6,166.9c0,0,14.5-11.3,36.5,2.5l18-4.6c0,0,0-0.2,0.4-2.9c1.5-11.4-46.8-10.4-42.8-29.5
					C509.7,132.3,489.3,154.6,497.6,166.9z"/>
			</g>
			<g id="cuello-corbata">
				<g>
					<path class="st14" d="M523.9,255.3l-6.1-0.5c0,0-1.5,67.3-4.2,108.2l9.9,13.6l6.8-17.1C531.7,324.7,529.5,289.7,523.9,255.3z"
						/>
					<path class="st14" d="M517.8,254.8l6.1,0.5c0,0,4.1-2.2,4.7-4.5c0.5-2.3-6.8-6.1-6.8-6.1l-0.9,0.4c-2.1,0.8-3.9,2.1-5.3,3.8
						l-0.1,0.1l0.2,0.9C516.2,251.6,516.9,253.2,517.8,254.8z"/>
				</g>
				<path id="Path_46_1_" class="st16" d="M540,229.7c2.6,1.7,4.9,3.8,6.9,6.2c-2.2,5.8-9,15.8-14.8,20.7
					c-3.3-7.5-10.4-11.6-10.4-11.6S538.9,240.4,540,229.7z"/>
				<path id="Path_47_1_" class="st16" d="M521.7,244.9c-4,2.1-7.1,5.5-9,9.6c0,0-1.6-9,0.4-16.9c0,0,2.9-5.6,4.3-5.8
					C517.1,238.3,521.7,244.9,521.7,244.9z"/>
			</g>
			<g id="arms-glass">
				<g id="glass_1_">
					<line id="Line_29_1_" class="st31" x1="382" y1="248.7" x2="457.8" y2="371.8"/>
					<g id="Ellipse_7_1_">
						<circle class="st32" cx="326.1" cy="169.9" r="99.5"/>
						<circle class="st33" cx="326.1" cy="169.9" r="91.5"/>
					</g>
				</g>
				<g id="arms">
					<g id="l-arms">
						<path id="Path_49_2_" class="st8" d="M478.6,346.2c0,0-7.1,0.7-10.8,1c-2.4,0.2-12.8-3.2-19.4-3c-3.2,0.1-6.6,0.5-9,2.5
							c-2.5,2-3.4,6.1-1.2,8.4c0.6,0.7,1.5,1.3,1.4,2.2c-0.1,0.4-0.3,0.9-0.6,1.2c-0.9,1.7-0.3,3.9,1.4,4.8c0.9,0.5,1.9,0.6,2.8,0.3
							c-0.5,3,1.3,5.9,4.3,6.7c0.1-1.6,1.1-3.1,2.6-3.8c1.4-0.6,3.1-0.2,4.6,0c2.8,0.3,5.5-0.4,7.8-1.9c1.6-1.1,3-2.5,4.5-3.7
							c3.2-2.5,7.1-3.9,11.1-3.9L478.6,346.2z"/>
						<path class="st12" d="M506.4,356.1c-14.5,0.2-32.4,3.1-32.4,3.1l-0.5-2.3l-4.2-11.2c0,0,35.8-9.9,49.9-18
							c6.8-4,13.7-5.8,19.2-6.7c0-0.4,0-0.8,0-1.2c0.3-16.2,4.8-33.2,6.7-44.5c0.9-5.5,3-10.7,6-15.2c2.1-3.1,4.7-5.8,7.7-8
							c4.8-3.5,10.3-5.7,15.4-2.7c1.9,1.1,3.3,2.8,4.1,4.7c0.9,2.1,1.2,4.6,0.7,7c-3.6,16.1-12.6,60.4-16.4,69.8
							c-0.7,1.6-1.5,3.1-2.4,4.3c-0.3,0.5-0.6,0.9-1,1.4C549.5,348.5,520.9,355.9,506.4,356.1z"/>
						<path class="st1" d="M506.4,356.1c-14.5,0.2-32.4,3.1-32.4,3.1l-0.5-2.3c0,0,19-3.3,27.3-4.1c12.6-1.2,22-2.7,31.8-5.6
							c9.7-3,23.4-13.7,25-18.9c1.6-5.2,6.2-30.6,6.9-35.6c0.7-5.1,0.3-40.7,10.3-40.6c1.6,0,2.8,1.2,3.6,2.1c0.9,2.1,1.2,4.6,0.7,7
							c-3.6,16.1-12.6,60.4-16.4,69.8c-0.7,1.6-1.5,3.1-2.4,4.3c-0.3,0.5-0.6,0.9-1,1.4C549.5,348.5,520.9,355.9,506.4,356.1z"/>
					</g>
					<g id="r-arms">
						<path class="st12" d="M430.4,304.2c-1.8-0.6-3.7-1.2-5.7-1.8l-10.4-15.1c9.6,0.4,25.4,0.8,33.1-0.6c6.1-1.1,11.6-0.6,15.9,0.2
							c0.1-0.3,0.2-0.6,0.3-0.9c4.6-11.8,12.3-23.1,16.7-30.9c2.1-3.8,5-7.1,8.5-9.5c2.4-1.7,5-3,7.8-3.8c4.4-1.3,9.1-1.4,12,2.1
							c1.1,1.3,1.7,2.9,1.8,4.5c0.1,1.8-0.4,3.7-1.4,5.3c-6.9,10.8-25.3,41-30.6,46.9c-0.9,1-1.9,1.9-2.9,2.5
							c-0.3,0.3-0.7,0.5-1.1,0.7C464.1,310,441.1,307.9,430.4,304.2z"/>
						<path class="st1" d="M424.7,302.4c1.9,0.6,3.8,1.2,5.7,1.8c10.7,3.7,33.7,5.8,44-0.4c0.4-0.3,0.7-0.5,1.1-0.7
							c1-0.7,2-1.5,2.9-2.5c5.3-5.9-0.5-6.7-3-3.3c-2.5,3.5-15.4,7.7-23.3,7.3c-7.9-0.4-15.2-1.9-24.8-4.3c-1.3-0.3-3-0.7-4.9-1.1
							L424.7,302.4z"/>
						<path id="Path_52_2_" class="st8" d="M410.7,309.2c-2.4,0.5-4.8-0.9-5.6-3.2c-0.1-0.5-0.3-0.9-0.5-1.3
							c-0.5-0.6-1.5-0.7-2.3-0.8c-3.1-0.5-5.4-3.4-6.5-6.3c-0.6-1.6-0.8-3.3-0.6-4.9c0.3-1.7,1.4-3.1,2.9-3.9c0.3-0.1,0.6-0.2,1-0.1
							c0.3,0.1,0.6,0.3,0.8,0.6c1.1,1.1,1.9,2.4,2.5,3.9c0.4,1,0.8,2.2,1.8,2.8c0.7,0.3,1.4,0.5,2.2,0.6c1.4,0.5,2.3,1.9,3,3.3
							C410.4,301.8,410,306.9,410.7,309.2"/>
						<path id="Path_53_2_" class="st8" d="M417.6,290.9c0.3-1.9-0.3-3.8-1.6-5.2c-1.3-1.3-2.8-2.3-4.5-2.8
							c-0.4-0.2-1.1-0.3-1.3,0.1c-0.1,0.3-0.1,0.7,0.1,1c0.6,1.1,2,1.6,2.7,2.7c0.2,0.4,0.4,0.8,0.6,1.3
							C414.4,289.5,415.9,290.6,417.6,290.9"/>
					</g>
				</g>
			</g>
		</g>
	</g>
	<path class="st14" d="M551.5,448.6"/>
</g>
</svg>
