<?xml version="1.0" encoding="utf-8"?>
<!-- Generator: Adobe Illustrator 23.0.1, SVG Export Plug-In . SVG Version: 6.00 Build 0)  -->
<svg version="1.1" id="Capa_1" xmlns="http://www.w3.org/2000/svg" xmlns:xlink="http://www.w3.org/1999/xlink" x="0px" y="0px"
	 viewBox="0 0 50 50" style="enable-background:new 0 0 50 50;" xml:space="preserve">
<style type="text/css">
	.st0{fill:#F4F7F6;}
</style>
<path class="st0" d="M22.2,9.4c-2.3,1.3-4.2,2.5-5.6,3.4c-1.4,0.9-2.9,2.2-4.4,3.8c-1.4,1.5-2.5,3-3.2,4.6c-0.7,1.6-1.3,3.7-1.6,6.3
	H11c3.1,0,5.5,0.7,7.2,2.3c1.8,1.5,2.6,3.7,2.6,6.6c0,2.1-0.8,4-2.3,5.8c-1.6,1.8-3.7,2.7-6.4,2.7c-4.2,0-7.3-1.4-9.1-4.2
	C1.3,38,0.4,34.4,0.4,29.8c0-3.2,0.7-6.1,2.1-8.8c1.4-2.6,3.1-5,5-7c2-2.1,4.2-3.9,6.5-5.4S18.1,6,19.6,5C19.6,5,22.2,9.4,22.2,9.4z
	 M49.6,9.4c-2.3,1.3-4.2,2.5-5.6,3.4c-1.4,0.9-2.9,2.2-4.4,3.8c-1.4,1.5-2.5,3.1-3.2,4.7c-0.7,1.6-1.2,3.7-1.5,6.2h3.5
	c3.1,0,5.5,0.7,7.2,2.3c1.8,1.5,2.6,3.7,2.6,6.6c0,2.1-0.8,4-2.3,5.8c-1.6,1.8-3.7,2.7-6.4,2.7c-4.2,0-7.3-1.4-9.1-4.2
	c-1.8-2.8-2.8-6.5-2.8-11c0-3.2,0.7-6.1,2.1-8.8c1.5-2.6,3.2-4.9,5.1-7c2-2.1,4.2-3.9,6.5-5.4S45.5,6,47,5C47,5,49.6,9.4,49.6,9.4z"
	/>
</svg>
