<?xml version="1.0" encoding="utf-8"?>
<!-- Generator: Adobe Illustrator 25.4.1, SVG Export Plug-In . SVG Version: 6.00 Build 0)  -->
<svg version="1.1" id="Layer_1" xmlns="http://www.w3.org/2000/svg" xmlns:xlink="http://www.w3.org/1999/xlink" x="0px" y="0px"
	 viewBox="0 0 500 500" style="enable-background:new 0 0 500 500;" xml:space="preserve">
<style type="text/css">
	.st0{opacity:0.18;clip-path:url(#SVGID_00000095327239337553251730000012524309640717283232_);}
</style>
<g>
	<g>
		<g>
			<g>
				<defs>
					<rect id="SVGID_1_" width="500" height="500"/>
				</defs>
				<clipPath id="SVGID_00000122000204473637096850000001874048287791727027_">
					<use xlink:href="#SVGID_1_"  style="overflow:visible;"/>
				</clipPath>
				<g style="opacity:0.18;clip-path:url(#SVGID_00000122000204473637096850000001874048287791727027_);">
					<g>
						<g>
							<path d="M281.3,245.1h-11.2c-0.8,0-1.5-0.5-1.8-1.2l-18.9-41.1l-18.7,41c-0.4,0.8-1.1,1.3-1.9,1.3h-11.2
								c-0.8,0-1.4-0.4-1.7-1c-0.4-0.6-0.4-1.4-0.1-1.9l31.7-72.4c0.3-0.8,1.1-1.4,1.9-1.4c0.9,0,1.6,0.6,1.9,1.4l31.9,72.4
								c0.3,0.7,0.2,1.5-0.2,2C282.7,244.7,282,245.1,281.3,245.1z M218.4,243.3L218.4,243.3C218.4,243.4,218.4,243.4,218.4,243.3z
								 M270.6,242.2h9.5l-30.7-69.6l-30.6,69.6h9.5l19.3-42.2c0.3-0.7,1.1-1.3,1.9-1.3s1.6,0.5,1.9,1.3L270.6,242.2z M248.6,201.2
								C248.6,201.2,248.7,201.3,248.6,201.2L248.6,201.2z M250.2,201.2L250.2,201.2L250.2,201.2z"/>
						</g>
						<g>
							<path d="M312.5,245h-12c-0.7,0-1.5-0.5-1.6-1.2l-30.4-71.7c-0.2-0.5-0.2-1.1,0.1-1.5c0.3-0.5,0.9-0.9,1.5-0.9h12
								c0.7,0,1.2,0.5,1.4,0.6l0.2,0.2l30.5,72.1c0.2,0.5,0.2,1.1-0.1,1.5C313.7,244.7,313.1,245,312.5,245z M311.4,243.7
								C311.4,243.7,311.4,243.8,311.4,243.7L311.4,243.7z M301.3,242.1h9.5l-29.4-69.5h-9.5L301.3,242.1z M271.1,170.9L271.1,170.9
								C271.2,171,271.2,171,271.1,170.9z"/>
						</g>
						<g>
							<path d="M198.6,245h-12c-0.6,0-1.2-0.3-1.5-0.9c-0.3-0.5-0.4-1.2-0.1-1.6l30.3-71.6c0.2-0.7,0.9-1.3,1.6-1.3h12
								c0.6,0,1.2,0.3,1.5,0.9c0.3,0.5,0.3,1.2,0.1,1.6l-30.5,72l-0.2,0.2C199.8,244.6,199.3,245,198.6,245z M187.7,243.7
								L187.7,243.7L187.7,243.7z M188.4,242.1h9.5l29.4-69.5h-9.5L188.4,242.1z M227.9,171L227.9,171L227.9,171z"/>
						</g>
					</g>
				</g>
				<g style="opacity:0.18;clip-path:url(#SVGID_00000122000204473637096850000001874048287791727027_);">
					<g>
						<g>
							<path d="M134.3,168.5h11.2c0.8,0,1.5,0.5,1.8,1.2l18.9,41.1l18.7-41c0.4-0.8,1.1-1.3,1.9-1.3h11.2c0.8,0,1.4,0.4,1.7,1
								c0.4,0.6,0.4,1.4,0.1,1.9l-31.7,72.4c-0.3,0.8-1.1,1.4-1.9,1.4c-0.9,0-1.6-0.6-1.9-1.4l-31.9-72.4c-0.3-0.7-0.2-1.5,0.2-2
								C133,168.9,133.6,168.5,134.3,168.5z M197.3,170.3L197.3,170.3C197.3,170.2,197.3,170.2,197.3,170.3z M145.1,171.4h-9.5
								l30.7,69.6l30.6-69.6h-9.5l-19.3,42.2c-0.3,0.7-1.1,1.3-1.9,1.3c-0.9,0-1.6-0.5-1.9-1.3L145.1,171.4z M167,212.4
								C167,212.4,166.9,212.3,167,212.4L167,212.4z M165.5,212.4L165.5,212.4L165.5,212.4z"/>
						</g>
					</g>
				</g>
				<g style="opacity:0.18;clip-path:url(#SVGID_00000122000204473637096850000001874048287791727027_);">
					<g>
						<g>
							<path d="M115.6,245.1h-11.2c-0.8,0-1.5-0.5-1.8-1.2l-18.9-41.1l-18.7,41c-0.4,0.8-1.1,1.3-1.9,1.3H51.8c-0.8,0-1.4-0.4-1.7-1
								c-0.4-0.6-0.4-1.4-0.1-1.9l31.7-72.4c0.3-0.8,1.1-1.4,1.9-1.4s1.6,0.6,1.9,1.4l31.9,72.4c0.3,0.7,0.2,1.5-0.2,2
								C116.9,244.7,116.3,245.1,115.6,245.1z M52.6,243.3L52.6,243.3C52.6,243.4,52.6,243.4,52.6,243.3z M104.8,242.2h9.5
								l-30.7-69.6l-30.6,69.6h9.5L81.8,200c0.3-0.7,1.1-1.3,1.9-1.3c0.9,0,1.6,0.5,1.9,1.3L104.8,242.2z M82.9,201.2
								C82.9,201.2,83,201.3,82.9,201.2L82.9,201.2z M84.4,201.2L84.4,201.2L84.4,201.2z"/>
						</g>
						<g>
							<path d="M146.7,245h-12c-0.7,0-1.5-0.5-1.6-1.2l-30.4-71.7c-0.2-0.5-0.2-1.1,0.1-1.5c0.3-0.5,0.9-0.9,1.5-0.9h12
								c0.7,0,1.2,0.5,1.4,0.6l0.2,0.2l30.5,72.1c0.2,0.5,0.2,1.1-0.1,1.5C147.9,244.7,147.3,245,146.7,245z M145.7,243.7
								C145.7,243.7,145.7,243.8,145.7,243.7L145.7,243.7z M135.5,242.1h9.5l-29.4-69.5h-9.5L135.5,242.1z M105.3,170.9L105.3,170.9
								C105.4,171,105.4,171,105.3,170.9z"/>
						</g>
						<g>
							<path d="M32.9,245h-12c-0.6,0-1.2-0.3-1.5-0.9c-0.3-0.5-0.4-1.2-0.1-1.6l30.3-71.6c0.2-0.7,0.9-1.3,1.6-1.3h12
								c0.6,0,1.2,0.3,1.5,0.9c0.3,0.5,0.3,1.2,0.1,1.6l-30.5,72l-0.2,0.2C34,244.6,33.5,245,32.9,245z M21.9,243.7L21.9,243.7
								L21.9,243.7z M22.6,242.1h9.5l29.4-69.5H52L22.6,242.1z M62.2,171L62.2,171L62.2,171z"/>
						</g>
					</g>
				</g>
				<g style="opacity:0.18;clip-path:url(#SVGID_00000122000204473637096850000001874048287791727027_);">
					<g>
						<g>
							<path d="M-31.4,168.5h11.2c0.8,0,1.5,0.5,1.8,1.2l18.9,41.1l18.7-41c0.4-0.8,1.1-1.3,1.9-1.3h11.2c0.8,0,1.4,0.4,1.7,1
								c0.4,0.6,0.4,1.4,0.1,1.9L2.4,243.8c-0.3,0.8-1.1,1.4-1.9,1.4s-1.6-0.6-1.9-1.4l-31.9-72.4c-0.3-0.7-0.2-1.5,0.2-2
								C-32.8,168.9-32.1,168.5-31.4,168.5z M31.5,170.3L31.5,170.3C31.5,170.2,31.5,170.2,31.5,170.3z M-20.7,171.4h-9.5L0.5,241
								l30.6-69.6h-9.5L2.3,213.6c-0.3,0.7-1.1,1.3-1.9,1.3s-1.6-0.5-1.9-1.3L-20.7,171.4z M1.3,212.4
								C1.3,212.4,1.2,212.3,1.3,212.4L1.3,212.4z M-0.3,212.4L-0.3,212.4L-0.3,212.4z"/>
						</g>
						<g>
							<path d="M-62.6,168.6h12c0.7,0,1.5,0.5,1.6,1.2l30.4,71.7c0.2,0.5,0.2,1.1-0.1,1.5c-0.3,0.5-0.9,0.9-1.5,0.9h-12
								c-0.7,0-1.2-0.5-1.4-0.6l-0.2-0.2L-64.2,171c-0.2-0.5-0.2-1.1,0.1-1.5C-63.8,168.9-63.2,168.6-62.6,168.6z M-61.5,169.9
								C-61.5,169.9-61.5,169.8-61.5,169.9L-61.5,169.9z M-51.4,171.5h-9.5l29.4,69.5h9.5L-51.4,171.5z M-21.2,242.7L-21.2,242.7
								C-21.3,242.6-21.3,242.6-21.2,242.7z"/>
						</g>
					</g>
				</g>
				<g style="opacity:0.18;clip-path:url(#SVGID_00000122000204473637096850000001874048287791727027_);">
					<g>
						<g>
							<path d="M301.1,168.5h11.2c0.8,0,1.5,0.5,1.8,1.2l18.9,41.1l18.7-41c0.4-0.8,1.1-1.3,1.9-1.3h11.2c0.8,0,1.4,0.4,1.7,1
								c0.4,0.6,0.4,1.4,0.1,1.9L335,243.8c-0.3,0.8-1.1,1.4-1.9,1.4s-1.6-0.6-1.9-1.4l-31.9-72.4c-0.3-0.7-0.2-1.5,0.2-2
								C299.7,168.9,300.4,168.5,301.1,168.5z M364.1,170.3L364.1,170.3C364.1,170.2,364.1,170.2,364.1,170.3z M311.8,171.4h-9.5
								L333,241l30.6-69.6h-9.5l-19.3,42.2c-0.3,0.7-1.1,1.3-1.9,1.3c-0.9,0-1.6-0.5-1.9-1.3L311.8,171.4z M333.8,212.4
								C333.8,212.4,333.7,212.3,333.8,212.4L333.8,212.4z M332.3,212.4L332.3,212.4L332.3,212.4z"/>
						</g>
						<g>
							<path d="M383.8,168.6h12c0.6,0,1.2,0.3,1.5,0.9c0.3,0.5,0.4,1.2,0.1,1.6l-30.3,71.6c-0.2,0.7-0.9,1.3-1.6,1.3h-12
								c-0.6,0-1.2-0.3-1.5-0.9c-0.3-0.5-0.3-1.2-0.1-1.6l30.5-72l0.2-0.2C382.7,169,383.1,168.6,383.8,168.6z M394.8,169.9
								L394.8,169.9L394.8,169.9z M394.1,171.5h-9.5L355.2,241h9.5L394.1,171.5z M354.5,242.6L354.5,242.6L354.5,242.6z"/>
						</g>
					</g>
				</g>
				<g style="opacity:0.18;clip-path:url(#SVGID_00000122000204473637096850000001874048287791727027_);">
					<g>
						<g>
							<path d="M448.2,245.1H437c-0.8,0-1.5-0.5-1.8-1.2l-18.9-41.1l-18.7,41c-0.4,0.8-1.1,1.3-1.9,1.3h-11.2c-0.8,0-1.4-0.4-1.7-1
								c-0.4-0.6-0.4-1.4-0.1-1.9l31.7-72.4c0.3-0.8,1.1-1.4,1.9-1.4s1.6,0.6,1.9,1.4l31.9,72.4c0.3,0.7,0.2,1.5-0.2,2
								C449.5,244.7,448.9,245.1,448.2,245.1z M385.2,243.3L385.2,243.3C385.2,243.4,385.2,243.4,385.2,243.3z M437.5,242.2h9.5
								l-30.7-69.6l-30.6,69.6h9.5l19.3-42.2c0.3-0.7,1.1-1.3,1.9-1.3c0.9,0,1.6,0.5,1.9,1.3L437.5,242.2z M415.5,201.2
								C415.5,201.2,415.6,201.3,415.5,201.2L415.5,201.2z M417,201.2L417,201.2L417,201.2z"/>
						</g>
						<g>
							<path d="M479.3,245h-12c-0.7,0-1.5-0.5-1.6-1.2l-30.4-71.7c-0.2-0.5-0.2-1.1,0.1-1.5c0.3-0.5,0.9-0.9,1.5-0.9h12
								c0.7,0,1.2,0.5,1.4,0.6l0.2,0.2l30.5,72.1c0.2,0.5,0.2,1.1-0.1,1.5C480.5,244.7,479.9,245,479.3,245z M478.3,243.7
								C478.3,243.7,478.3,243.8,478.3,243.7L478.3,243.7z M468.1,242.1h9.5l-29.4-69.5h-9.5L468.1,242.1z M437.9,170.9L437.9,170.9
								C438,171,438,171,437.9,170.9z"/>
						</g>
					</g>
				</g>
				<g style="opacity:0.18;clip-path:url(#SVGID_00000122000204473637096850000001874048287791727027_);">
					<g>
						<g>
							<path d="M467.9,168.5h11.2c0.8,0,1.5,0.5,1.8,1.2l18.9,41.1l18.7-41c0.4-0.8,1.1-1.3,1.9-1.3h11.2c0.8,0,1.4,0.4,1.7,1
								c0.4,0.6,0.4,1.4,0.1,1.9l-31.7,72.4c-0.3,0.8-1.1,1.4-1.9,1.4c-0.9,0-1.6-0.6-1.9-1.4L466,171.4c-0.3-0.7-0.2-1.5,0.2-2
								C466.6,168.9,467.3,168.5,467.9,168.5z M530.9,170.3L530.9,170.3C530.9,170.2,530.9,170.2,530.9,170.3z M478.7,171.4h-9.5
								l30.7,69.6l30.6-69.6H521l-19.3,42.2c-0.3,0.7-1.1,1.3-1.9,1.3s-1.6-0.5-1.9-1.3L478.7,171.4z M500.6,212.4
								C500.6,212.4,500.5,212.3,500.6,212.4L500.6,212.4z M499.1,212.4L499.1,212.4L499.1,212.4z"/>
						</g>
						<g>
							<path d="M550.7,168.6h12c0.6,0,1.2,0.3,1.5,0.9c0.3,0.5,0.4,1.2,0.1,1.6L534,242.7c-0.2,0.7-0.9,1.3-1.6,1.3h-12
								c-0.6,0-1.2-0.3-1.5-0.9c-0.3-0.5-0.3-1.2-0.1-1.6l30.5-72l0.2-0.2C549.5,169,550,168.6,550.7,168.6z M561.6,169.9
								L561.6,169.9L561.6,169.9z M560.9,171.5h-9.5L522,241h9.5L560.9,171.5z M521.3,242.6L521.3,242.6L521.3,242.6z"/>
						</g>
					</g>
				</g>
				<g style="opacity:0.18;clip-path:url(#SVGID_00000122000204473637096850000001874048287791727027_);">
					<g>
						<g>
							<path d="M281.3,326.6h-11.2c-0.8,0-1.5-0.5-1.8-1.2l-18.9-41.1l-18.7,41c-0.4,0.8-1.1,1.3-1.9,1.3h-11.2
								c-0.8,0-1.4-0.4-1.7-1c-0.4-0.6-0.4-1.4-0.1-1.9l31.7-72.4c0.3-0.8,1.1-1.4,1.9-1.4c0.9,0,1.6,0.6,1.9,1.4l31.9,72.4
								c0.3,0.7,0.2,1.5-0.2,2C282.7,326.2,282,326.6,281.3,326.6z M218.4,324.8L218.4,324.8C218.4,324.9,218.4,324.9,218.4,324.8z
								 M270.6,323.7h9.5l-30.7-69.6l-30.6,69.6h9.5l19.3-42.2c0.3-0.7,1.1-1.3,1.9-1.3s1.6,0.5,1.9,1.3L270.6,323.7z M248.6,282.7
								C248.6,282.7,248.7,282.8,248.6,282.7L248.6,282.7z M250.2,282.7L250.2,282.7L250.2,282.7z"/>
						</g>
						<g>
							<path d="M312.5,326.5h-12c-0.7,0-1.5-0.5-1.6-1.2l-30.4-71.7c-0.2-0.5-0.2-1.1,0.1-1.5c0.3-0.5,0.9-0.9,1.5-0.9h12
								c0.7,0,1.2,0.5,1.4,0.6l0.2,0.2l30.5,72.1c0.2,0.5,0.2,1.1-0.1,1.5C313.7,326.2,313.1,326.5,312.5,326.5z M311.4,325.2
								C311.4,325.2,311.4,325.3,311.4,325.2L311.4,325.2z M301.3,323.6h9.5l-29.4-69.5h-9.5L301.3,323.6z M271.1,252.4L271.1,252.4
								C271.2,252.5,271.2,252.5,271.1,252.4z"/>
						</g>
						<g>
							<path d="M198.6,326.5h-12c-0.6,0-1.2-0.3-1.5-0.9c-0.3-0.5-0.4-1.2-0.1-1.6l30.3-71.6c0.2-0.7,0.9-1.3,1.6-1.3h12
								c0.6,0,1.2,0.3,1.5,0.9c0.3,0.5,0.3,1.2,0.1,1.6l-30.5,72l-0.2,0.2C199.8,326.1,199.3,326.5,198.6,326.5z M187.7,325.2
								L187.7,325.2L187.7,325.2z M188.4,323.6h9.5l29.4-69.5h-9.5L188.4,323.6z M227.9,252.5L227.9,252.5L227.9,252.5z"/>
						</g>
					</g>
				</g>
				<g style="opacity:0.18;clip-path:url(#SVGID_00000122000204473637096850000001874048287791727027_);">
					<g>
						<g>
							<path d="M134.3,250h11.2c0.8,0,1.5,0.5,1.8,1.2l18.9,41.1l18.7-41c0.4-0.8,1.1-1.3,1.9-1.3h11.2c0.8,0,1.4,0.4,1.7,1
								c0.4,0.6,0.4,1.4,0.1,1.9l-31.7,72.4c-0.3,0.8-1.1,1.4-1.9,1.4c-0.9,0-1.6-0.6-1.9-1.4l-31.9-72.4c-0.3-0.7-0.2-1.5,0.2-2
								C133,250.4,133.6,250,134.3,250z M197.3,251.8L197.3,251.8C197.3,251.7,197.3,251.7,197.3,251.8z M145.1,252.9h-9.5
								l30.7,69.6l30.6-69.6h-9.5l-19.3,42.2c-0.3,0.7-1.1,1.3-1.9,1.3c-0.9,0-1.6-0.5-1.9-1.3L145.1,252.9z M167,293.9
								C167,293.9,166.9,293.8,167,293.9L167,293.9z M165.5,293.9L165.5,293.9L165.5,293.9z"/>
						</g>
					</g>
				</g>
				<g style="opacity:0.18;clip-path:url(#SVGID_00000122000204473637096850000001874048287791727027_);">
					<g>
						<g>
							<path d="M115.6,326.6h-11.2c-0.8,0-1.5-0.5-1.8-1.2l-18.9-41.1l-18.7,41c-0.4,0.8-1.1,1.3-1.9,1.3H51.8c-0.8,0-1.4-0.4-1.7-1
								c-0.4-0.6-0.4-1.4-0.1-1.9l31.7-72.4c0.3-0.8,1.1-1.4,1.9-1.4s1.6,0.6,1.9,1.4l31.9,72.4c0.3,0.7,0.2,1.5-0.2,2
								C116.9,326.2,116.3,326.6,115.6,326.6z M52.6,324.8L52.6,324.8C52.6,324.9,52.6,324.9,52.6,324.8z M104.8,323.7h9.5
								l-30.7-69.6l-30.6,69.6h9.5l19.3-42.2c0.3-0.7,1.1-1.3,1.9-1.3c0.9,0,1.6,0.5,1.9,1.3L104.8,323.7z M82.9,282.7
								C82.9,282.7,83,282.8,82.9,282.7L82.9,282.7z M84.4,282.7L84.4,282.7L84.4,282.7z"/>
						</g>
						<g>
							<path d="M146.7,326.5h-12c-0.7,0-1.5-0.5-1.6-1.2l-30.4-71.7c-0.2-0.5-0.2-1.1,0.1-1.5c0.3-0.5,0.9-0.9,1.5-0.9h12
								c0.7,0,1.2,0.5,1.4,0.6l0.2,0.2l30.5,72.1c0.2,0.5,0.2,1.1-0.1,1.5C147.9,326.2,147.3,326.5,146.7,326.5z M145.7,325.2
								C145.7,325.2,145.7,325.3,145.7,325.2L145.7,325.2z M135.5,323.6h9.5l-29.4-69.5h-9.5L135.5,323.6z M105.3,252.4L105.3,252.4
								C105.4,252.5,105.4,252.5,105.3,252.4z"/>
						</g>
						<g>
							<path d="M32.9,326.5h-12c-0.6,0-1.2-0.3-1.5-0.9c-0.3-0.5-0.4-1.2-0.1-1.6l30.3-71.6c0.2-0.7,0.9-1.3,1.6-1.3h12
								c0.6,0,1.2,0.3,1.5,0.9c0.3,0.5,0.3,1.2,0.1,1.6l-30.5,72l-0.2,0.2C34,326.1,33.5,326.5,32.9,326.5z M21.9,325.2L21.9,325.2
								L21.9,325.2z M22.6,323.6h9.5l29.4-69.5H52L22.6,323.6z M62.2,252.5L62.2,252.5L62.2,252.5z"/>
						</g>
					</g>
				</g>
				<g style="opacity:0.18;clip-path:url(#SVGID_00000122000204473637096850000001874048287791727027_);">
					<g>
						<g>
							<path d="M-31.4,250h11.2c0.8,0,1.5,0.5,1.8,1.2l18.9,41.1l18.7-41c0.4-0.8,1.1-1.3,1.9-1.3h11.2c0.8,0,1.4,0.4,1.7,1
								c0.4,0.6,0.4,1.4,0.1,1.9L2.4,325.3c-0.3,0.8-1.1,1.4-1.9,1.4s-1.6-0.6-1.9-1.4l-31.9-72.4c-0.3-0.7-0.2-1.5,0.2-2
								C-32.8,250.4-32.1,250-31.4,250z M31.5,251.8L31.5,251.8C31.5,251.7,31.5,251.7,31.5,251.8z M-20.7,252.9h-9.5l30.7,69.6
								l30.6-69.6h-9.5L2.3,295.1c-0.3,0.7-1.1,1.3-1.9,1.3s-1.6-0.5-1.9-1.3L-20.7,252.9z M1.3,293.9
								C1.3,293.9,1.2,293.8,1.3,293.9L1.3,293.9z M-0.3,293.9L-0.3,293.9L-0.3,293.9z"/>
						</g>
						<g>
							<path d="M-62.6,250.1h12c0.7,0,1.5,0.5,1.6,1.2l30.4,71.7c0.2,0.5,0.2,1.1-0.1,1.5c-0.3,0.5-0.9,0.9-1.5,0.9h-12
								c-0.7,0-1.2-0.5-1.4-0.6l-0.2-0.2l-30.5-72.1c-0.2-0.5-0.2-1.1,0.1-1.5C-63.8,250.4-63.2,250.1-62.6,250.1z M-61.5,251.5
								C-61.5,251.5-61.5,251.4-61.5,251.5L-61.5,251.5z M-51.4,253h-9.5l29.4,69.5h9.5L-51.4,253z M-21.2,324.2L-21.2,324.2
								C-21.3,324.1-21.3,324.1-21.2,324.2z"/>
						</g>
					</g>
				</g>
				<g style="opacity:0.18;clip-path:url(#SVGID_00000122000204473637096850000001874048287791727027_);">
					<g>
						<g>
							<path d="M301.1,250h11.2c0.8,0,1.5,0.5,1.8,1.2l18.9,41.1l18.7-41c0.4-0.8,1.1-1.3,1.9-1.3h11.2c0.8,0,1.4,0.4,1.7,1
								c0.4,0.6,0.4,1.4,0.1,1.9L335,325.3c-0.3,0.8-1.1,1.4-1.9,1.4s-1.6-0.6-1.9-1.4l-31.9-72.4c-0.3-0.7-0.2-1.5,0.2-2
								C299.7,250.4,300.4,250,301.1,250z M364.1,251.8L364.1,251.8C364.1,251.7,364.1,251.7,364.1,251.8z M311.8,252.9h-9.5
								l30.7,69.6l30.6-69.6h-9.5l-19.3,42.2c-0.3,0.7-1.1,1.3-1.9,1.3c-0.9,0-1.6-0.5-1.9-1.3L311.8,252.9z M333.8,293.9
								C333.8,293.9,333.7,293.8,333.8,293.9L333.8,293.9z M332.3,293.9L332.3,293.9L332.3,293.9z"/>
						</g>
						<g>
							<path d="M383.8,250.1h12c0.6,0,1.2,0.3,1.5,0.9c0.3,0.5,0.4,1.2,0.1,1.6l-30.3,71.6c-0.2,0.7-0.9,1.3-1.6,1.3h-12
								c-0.6,0-1.2-0.3-1.5-0.9c-0.3-0.5-0.3-1.2-0.1-1.6l30.5-72l0.2-0.2C382.7,250.5,383.1,250.1,383.8,250.1z M394.8,251.5
								L394.8,251.5L394.8,251.5z M394.1,253h-9.5l-29.4,69.5h9.5L394.1,253z M354.5,324.1L354.5,324.1L354.5,324.1z"/>
						</g>
					</g>
				</g>
				<g style="opacity:0.18;clip-path:url(#SVGID_00000122000204473637096850000001874048287791727027_);">
					<g>
						<g>
							<path d="M448.2,326.6H437c-0.8,0-1.5-0.5-1.8-1.2l-18.9-41.1l-18.7,41c-0.4,0.8-1.1,1.3-1.9,1.3h-11.2c-0.8,0-1.4-0.4-1.7-1
								c-0.4-0.6-0.4-1.4-0.1-1.9l31.7-72.4c0.3-0.8,1.1-1.4,1.9-1.4s1.6,0.6,1.9,1.4l31.9,72.4c0.3,0.7,0.2,1.5-0.2,2
								C449.5,326.2,448.9,326.6,448.2,326.6z M385.2,324.8L385.2,324.8C385.2,324.9,385.2,324.9,385.2,324.8z M437.5,323.7h9.5
								l-30.7-69.6l-30.6,69.6h9.5l19.3-42.2c0.3-0.7,1.1-1.3,1.9-1.3c0.9,0,1.6,0.5,1.9,1.3L437.5,323.7z M415.5,282.7
								C415.5,282.7,415.6,282.8,415.5,282.7L415.5,282.7z M417,282.7L417,282.7L417,282.7z"/>
						</g>
						<g>
							<path d="M479.3,326.5h-12c-0.7,0-1.5-0.5-1.6-1.2l-30.4-71.7c-0.2-0.5-0.2-1.1,0.1-1.5c0.3-0.5,0.9-0.9,1.5-0.9h12
								c0.7,0,1.2,0.5,1.4,0.6l0.2,0.2l30.5,72.1c0.2,0.5,0.2,1.1-0.1,1.5C480.5,326.2,479.9,326.5,479.3,326.5z M478.3,325.2
								C478.3,325.2,478.3,325.3,478.3,325.2L478.3,325.2z M468.1,323.6h9.5l-29.4-69.5h-9.5L468.1,323.6z M437.9,252.4L437.9,252.4
								C438,252.5,438,252.5,437.9,252.4z"/>
						</g>
					</g>
				</g>
				<g style="opacity:0.18;clip-path:url(#SVGID_00000122000204473637096850000001874048287791727027_);">
					<g>
						<g>
							<path d="M467.9,250h11.2c0.8,0,1.5,0.5,1.8,1.2l18.9,41.1l18.7-41c0.4-0.8,1.1-1.3,1.9-1.3h11.2c0.8,0,1.4,0.4,1.7,1
								c0.4,0.6,0.4,1.4,0.1,1.9l-31.7,72.4c-0.3,0.8-1.1,1.4-1.9,1.4c-0.9,0-1.6-0.6-1.9-1.4L466,252.9c-0.3-0.7-0.2-1.5,0.2-2
								C466.6,250.4,467.3,250,467.9,250z M530.9,251.8L530.9,251.8C530.9,251.7,530.9,251.7,530.9,251.8z M478.7,252.9h-9.5
								l30.7,69.6l30.6-69.6H521l-19.3,42.2c-0.3,0.7-1.1,1.3-1.9,1.3s-1.6-0.5-1.9-1.3L478.7,252.9z M500.6,293.9
								C500.6,293.9,500.5,293.8,500.6,293.9L500.6,293.9z M499.1,293.9L499.1,293.9L499.1,293.9z"/>
						</g>
						<g>
							<path d="M550.7,250.1h12c0.6,0,1.2,0.3,1.5,0.9c0.3,0.5,0.4,1.2,0.1,1.6L534,324.2c-0.2,0.7-0.9,1.3-1.6,1.3h-12
								c-0.6,0-1.2-0.3-1.5-0.9c-0.3-0.5-0.3-1.2-0.1-1.6l30.5-72l0.2-0.2C549.5,250.5,550,250.1,550.7,250.1z M561.6,251.5
								L561.6,251.5L561.6,251.5z M560.9,253h-9.5L522,322.5h9.5L560.9,253z M521.3,324.1L521.3,324.1L521.3,324.1z"/>
						</g>
					</g>
				</g>
				<g style="opacity:0.18;clip-path:url(#SVGID_00000122000204473637096850000001874048287791727027_);">
					<g>
						<g>
							<path d="M281.3,408.7h-11.2c-0.8,0-1.5-0.5-1.8-1.2l-18.9-41.1l-18.7,41c-0.4,0.8-1.1,1.3-1.9,1.3h-11.2
								c-0.8,0-1.4-0.4-1.7-1s-0.4-1.4-0.1-1.9l31.7-72.4c0.3-0.8,1.1-1.4,1.9-1.4c0.9,0,1.6,0.6,1.9,1.4l31.9,72.4
								c0.3,0.7,0.2,1.5-0.2,2C282.7,408.3,282,408.7,281.3,408.7z M218.4,406.8L218.4,406.8C218.4,406.9,218.4,406.9,218.4,406.8z
								 M270.6,405.8h9.5l-30.7-69.6l-30.6,69.6h9.5l19.3-42.2c0.3-0.7,1.1-1.3,1.9-1.3s1.6,0.5,1.9,1.3L270.6,405.8z M248.6,364.7
								C248.6,364.7,248.7,364.8,248.6,364.7L248.6,364.7z M250.2,364.7L250.2,364.7L250.2,364.7z"/>
						</g>
						<g>
							<path d="M312.5,408.6h-12c-0.7,0-1.5-0.5-1.6-1.2l-30.4-71.7c-0.2-0.5-0.2-1.1,0.1-1.5c0.3-0.5,0.9-0.9,1.5-0.9h12
								c0.7,0,1.2,0.5,1.4,0.6l0.2,0.2l30.5,72.1c0.2,0.5,0.2,1.1-0.1,1.5C313.7,408.3,313.1,408.6,312.5,408.6z M311.4,407.2
								C311.4,407.2,311.4,407.3,311.4,407.2L311.4,407.2z M301.3,405.7h9.5l-29.4-69.5h-9.5L301.3,405.7z M271.1,334.4L271.1,334.4
								C271.2,334.5,271.2,334.5,271.1,334.4z"/>
						</g>
						<g>
							<path d="M198.6,408.6h-12c-0.6,0-1.2-0.3-1.5-0.9c-0.3-0.5-0.4-1.2-0.1-1.6l30.3-71.6c0.2-0.7,0.9-1.3,1.6-1.3h12
								c0.6,0,1.2,0.3,1.5,0.9c0.3,0.5,0.3,1.2,0.1,1.6l-30.5,72l-0.2,0.2C199.8,408.2,199.3,408.6,198.6,408.6z M187.7,407.2
								L187.7,407.2L187.7,407.2z M188.4,405.7h9.5l29.4-69.5h-9.5L188.4,405.7z M227.9,334.5L227.9,334.5L227.9,334.5z"/>
						</g>
					</g>
				</g>
				<g style="opacity:0.18;clip-path:url(#SVGID_00000122000204473637096850000001874048287791727027_);">
					<g>
						<g>
							<path d="M134.3,332h11.2c0.8,0,1.5,0.5,1.8,1.2l18.9,41.1l18.7-41c0.4-0.8,1.1-1.3,1.9-1.3h11.2c0.8,0,1.4,0.4,1.7,1
								c0.4,0.6,0.4,1.4,0.1,1.9l-31.7,72.4c-0.3,0.8-1.1,1.4-1.9,1.4c-0.9,0-1.6-0.6-1.9-1.4l-31.9-72.4c-0.3-0.7-0.2-1.5,0.2-2
								C133,332.4,133.6,332,134.3,332z M197.3,333.9L197.3,333.9C197.3,333.8,197.3,333.8,197.3,333.9z M145.1,334.9h-9.5
								l30.7,69.6l30.6-69.6h-9.5l-19.3,42.2c-0.3,0.7-1.1,1.3-1.9,1.3c-0.9,0-1.6-0.5-1.9-1.3L145.1,334.9z M167,376
								C167,376,166.9,375.9,167,376L167,376z M165.5,376L165.5,376L165.5,376z"/>
						</g>
					</g>
				</g>
				<g style="opacity:0.18;clip-path:url(#SVGID_00000122000204473637096850000001874048287791727027_);">
					<g>
						<g>
							<path d="M115.6,408.7h-11.2c-0.8,0-1.5-0.5-1.8-1.2l-18.9-41.1l-18.7,41c-0.4,0.8-1.1,1.3-1.9,1.3H51.8c-0.8,0-1.4-0.4-1.7-1
								c-0.4-0.6-0.4-1.4-0.1-1.9l31.7-72.4c0.3-0.8,1.1-1.4,1.9-1.4s1.6,0.6,1.9,1.4l31.9,72.4c0.3,0.7,0.2,1.5-0.2,2
								C116.9,408.3,116.3,408.7,115.6,408.7z M52.6,406.8L52.6,406.8C52.6,406.9,52.6,406.9,52.6,406.8z M104.8,405.8h9.5
								l-30.7-69.6l-30.6,69.6h9.5l19.3-42.2c0.3-0.7,1.1-1.3,1.9-1.3c0.9,0,1.6,0.5,1.9,1.3L104.8,405.8z M82.9,364.7
								C82.9,364.7,83,364.8,82.9,364.7L82.9,364.7z M84.4,364.7L84.4,364.7L84.4,364.7z"/>
						</g>
						<g>
							<path d="M146.7,408.6h-12c-0.7,0-1.5-0.5-1.6-1.2l-30.4-71.7c-0.2-0.5-0.2-1.1,0.1-1.5c0.3-0.5,0.9-0.9,1.5-0.9h12
								c0.7,0,1.2,0.5,1.4,0.6l0.2,0.2l30.5,72.1c0.2,0.5,0.2,1.1-0.1,1.5C147.9,408.3,147.3,408.6,146.7,408.6z M145.7,407.2
								C145.7,407.2,145.7,407.3,145.7,407.2L145.7,407.2z M135.5,405.7h9.5l-29.4-69.5h-9.5L135.5,405.7z M105.3,334.4L105.3,334.4
								C105.4,334.5,105.4,334.5,105.3,334.4z"/>
						</g>
						<g>
							<path d="M32.9,408.6h-12c-0.6,0-1.2-0.3-1.5-0.9c-0.3-0.5-0.4-1.2-0.1-1.6l30.3-71.6c0.2-0.7,0.9-1.3,1.6-1.3h12
								c0.6,0,1.2,0.3,1.5,0.9c0.3,0.5,0.3,1.2,0.1,1.6l-30.5,72l-0.2,0.2C34,408.2,33.5,408.6,32.9,408.6z M21.9,407.2L21.9,407.2
								L21.9,407.2z M22.6,405.7h9.5l29.4-69.5H52L22.6,405.7z M62.2,334.5L62.2,334.5L62.2,334.5z"/>
						</g>
					</g>
				</g>
				<g style="opacity:0.18;clip-path:url(#SVGID_00000122000204473637096850000001874048287791727027_);">
					<g>
						<g>
							<path d="M-31.4,332h11.2c0.8,0,1.5,0.5,1.8,1.2l18.9,41.1l18.7-41c0.4-0.8,1.1-1.3,1.9-1.3h11.2c0.8,0,1.4,0.4,1.7,1
								c0.4,0.6,0.4,1.4,0.1,1.9L2.4,407.3c-0.3,0.8-1.1,1.4-1.9,1.4s-1.6-0.6-1.9-1.4l-31.9-72.4c-0.3-0.7-0.2-1.5,0.2-2
								C-32.8,332.4-32.1,332-31.4,332z M31.5,333.9L31.5,333.9C31.5,333.8,31.5,333.8,31.5,333.9z M-20.7,334.9h-9.5l30.7,69.6
								l30.6-69.6h-9.5L2.3,377.1c-0.3,0.7-1.1,1.3-1.9,1.3s-1.6-0.5-1.9-1.3L-20.7,334.9z M1.3,376C1.3,376,1.2,375.9,1.3,376
								L1.3,376z M-0.3,376L-0.3,376L-0.3,376z"/>
						</g>
						<g>
							<path d="M-62.6,332.1h12c0.7,0,1.5,0.5,1.6,1.2l30.4,71.7c0.2,0.5,0.2,1.1-0.1,1.5c-0.3,0.5-0.9,0.9-1.5,0.9h-12
								c-0.7,0-1.2-0.5-1.4-0.6l-0.2-0.2l-30.5-72.1c-0.2-0.5-0.2-1.1,0.1-1.5C-63.8,332.4-63.2,332.1-62.6,332.1z M-61.5,333.5
								C-61.5,333.5-61.5,333.4-61.5,333.5L-61.5,333.5z M-51.4,335h-9.5l29.4,69.5h9.5L-51.4,335z M-21.2,406.2L-21.2,406.2
								C-21.3,406.1-21.3,406.1-21.2,406.2z"/>
						</g>
					</g>
				</g>
				<g style="opacity:0.18;clip-path:url(#SVGID_00000122000204473637096850000001874048287791727027_);">
					<g>
						<g>
							<path d="M301.1,332h11.2c0.8,0,1.5,0.5,1.8,1.2l18.9,41.1l18.7-41c0.4-0.8,1.1-1.3,1.9-1.3h11.2c0.8,0,1.4,0.4,1.7,1
								s0.4,1.4,0.1,1.9L335,407.3c-0.3,0.8-1.1,1.4-1.9,1.4s-1.6-0.6-1.9-1.4l-31.9-72.4c-0.3-0.7-0.2-1.5,0.2-2
								C299.7,332.4,300.4,332,301.1,332z M364.1,333.9L364.1,333.9C364.1,333.8,364.1,333.8,364.1,333.9z M311.8,334.9h-9.5
								l30.7,69.6l30.6-69.6h-9.5l-19.3,42.2c-0.3,0.7-1.1,1.3-1.9,1.3c-0.9,0-1.6-0.5-1.9-1.3L311.8,334.9z M333.8,376
								C333.8,376,333.7,375.9,333.8,376L333.8,376z M332.3,376L332.3,376L332.3,376z"/>
						</g>
						<g>
							<path d="M383.8,332.1h12c0.6,0,1.2,0.3,1.5,0.9c0.3,0.5,0.4,1.2,0.1,1.6l-30.3,71.6c-0.2,0.7-0.9,1.3-1.6,1.3h-12
								c-0.6,0-1.2-0.3-1.5-0.9c-0.3-0.5-0.3-1.2-0.1-1.6l30.5-72l0.2-0.2C382.7,332.5,383.1,332.1,383.8,332.1z M394.8,333.5
								L394.8,333.5L394.8,333.5z M394.1,335h-9.5l-29.4,69.5h9.5L394.1,335z M354.5,406.1L354.5,406.1L354.5,406.1z"/>
						</g>
					</g>
				</g>
				<g style="opacity:0.18;clip-path:url(#SVGID_00000122000204473637096850000001874048287791727027_);">
					<g>
						<g>
							<path d="M448.2,408.7H437c-0.8,0-1.5-0.5-1.8-1.2l-18.9-41.1l-18.7,41c-0.4,0.8-1.1,1.3-1.9,1.3h-11.2c-0.8,0-1.4-0.4-1.7-1
								s-0.4-1.4-0.1-1.9l31.7-72.4c0.3-0.8,1.1-1.4,1.9-1.4s1.6,0.6,1.9,1.4l31.9,72.4c0.3,0.7,0.2,1.5-0.2,2
								C449.5,408.3,448.9,408.7,448.2,408.7z M385.2,406.8L385.2,406.8C385.2,406.9,385.2,406.9,385.2,406.8z M437.5,405.8h9.5
								l-30.7-69.6l-30.6,69.6h9.5l19.3-42.2c0.3-0.7,1.1-1.3,1.9-1.3c0.9,0,1.6,0.5,1.9,1.3L437.5,405.8z M415.5,364.7
								C415.5,364.7,415.6,364.8,415.5,364.7L415.5,364.7z M417,364.7L417,364.7L417,364.7z"/>
						</g>
						<g>
							<path d="M479.3,408.6h-12c-0.7,0-1.5-0.5-1.6-1.2l-30.4-71.7c-0.2-0.5-0.2-1.1,0.1-1.5c0.3-0.5,0.9-0.9,1.5-0.9h12
								c0.7,0,1.2,0.5,1.4,0.6l0.2,0.2l30.5,72.1c0.2,0.5,0.2,1.1-0.1,1.5C480.5,408.3,479.9,408.6,479.3,408.6z M478.3,407.2
								C478.3,407.2,478.3,407.3,478.3,407.2L478.3,407.2z M468.1,405.7h9.5l-29.4-69.5h-9.5L468.1,405.7z M437.9,334.4L437.9,334.4
								C438,334.5,438,334.5,437.9,334.4z"/>
						</g>
					</g>
				</g>
				<g style="opacity:0.18;clip-path:url(#SVGID_00000122000204473637096850000001874048287791727027_);">
					<g>
						<g>
							<path d="M467.9,332h11.2c0.8,0,1.5,0.5,1.8,1.2l18.9,41.1l18.7-41c0.4-0.8,1.1-1.3,1.9-1.3h11.2c0.8,0,1.4,0.4,1.7,1
								s0.4,1.4,0.1,1.9l-31.7,72.4c-0.3,0.8-1.1,1.4-1.9,1.4c-0.9,0-1.6-0.6-1.9-1.4L466,334.9c-0.3-0.7-0.2-1.5,0.2-2
								C466.6,332.4,467.3,332,467.9,332z M530.9,333.9L530.9,333.9C530.9,333.8,530.9,333.8,530.9,333.9z M478.7,334.9h-9.5
								l30.7,69.6l30.6-69.6H521l-19.3,42.2c-0.3,0.7-1.1,1.3-1.9,1.3s-1.6-0.5-1.9-1.3L478.7,334.9z M500.6,376
								C500.6,376,500.5,375.9,500.6,376L500.6,376z M499.1,376L499.1,376L499.1,376z"/>
						</g>
						<g>
							<path d="M550.7,332.1h12c0.6,0,1.2,0.3,1.5,0.9c0.3,0.5,0.4,1.2,0.1,1.6L534,406.2c-0.2,0.7-0.9,1.3-1.6,1.3h-12
								c-0.6,0-1.2-0.3-1.5-0.9c-0.3-0.5-0.3-1.2-0.1-1.6l30.5-72l0.2-0.2C549.5,332.5,550,332.1,550.7,332.1z M561.6,333.5
								L561.6,333.5L561.6,333.5z M560.9,335h-9.5L522,404.5h9.5L560.9,335z M521.3,406.1L521.3,406.1L521.3,406.1z"/>
						</g>
					</g>
				</g>
				<g style="opacity:0.18;clip-path:url(#SVGID_00000122000204473637096850000001874048287791727027_);">
					<g>
						<g>
							<path d="M281.3,494.3h-11.2c-0.8,0-1.5-0.5-1.8-1.2L249.4,452l-18.7,41c-0.4,0.8-1.1,1.3-1.9,1.3h-11.2c-0.8,0-1.4-0.4-1.7-1
								c-0.4-0.6-0.4-1.4-0.1-1.9l31.7-72.4c0.3-0.8,1.1-1.4,1.9-1.4c0.9,0,1.6,0.6,1.9,1.4l31.9,72.4c0.3,0.7,0.2,1.5-0.2,2
								C282.7,493.9,282,494.3,281.3,494.3z M218.4,492.5L218.4,492.5C218.4,492.6,218.4,492.6,218.4,492.5z M270.6,491.4h9.5
								l-30.7-69.6l-30.6,69.6h9.5l19.3-42.2c0.3-0.7,1.1-1.3,1.9-1.3s1.6,0.5,1.9,1.3L270.6,491.4z M248.6,450.4
								C248.6,450.4,248.7,450.5,248.6,450.4L248.6,450.4z M250.2,450.4L250.2,450.4L250.2,450.4z"/>
						</g>
						<g>
							<path d="M312.5,494.2h-12c-0.7,0-1.5-0.5-1.6-1.2l-30.4-71.7c-0.2-0.5-0.2-1.1,0.1-1.5c0.3-0.5,0.9-0.9,1.5-0.9h12
								c0.7,0,1.2,0.5,1.4,0.6l0.2,0.2l30.5,72.1c0.2,0.5,0.2,1.1-0.1,1.5C313.7,493.9,313.1,494.2,312.5,494.2z M311.4,492.9
								C311.4,492.9,311.4,493,311.4,492.9L311.4,492.9z M301.3,491.3h9.5l-29.4-69.5h-9.5L301.3,491.3z M271.1,420.1L271.1,420.1
								C271.2,420.2,271.2,420.2,271.1,420.1z"/>
						</g>
						<g>
							<path d="M198.6,494.2h-12c-0.6,0-1.2-0.3-1.5-0.9c-0.3-0.5-0.4-1.2-0.1-1.6l30.3-71.6c0.2-0.7,0.9-1.3,1.6-1.3h12
								c0.6,0,1.2,0.3,1.5,0.9c0.3,0.5,0.3,1.2,0.1,1.6l-30.5,72l-0.2,0.2C199.8,493.8,199.3,494.2,198.6,494.2z M187.7,492.9
								L187.7,492.9L187.7,492.9z M188.4,491.3h9.5l29.4-69.5h-9.5L188.4,491.3z M227.9,420.2L227.9,420.2L227.9,420.2z"/>
						</g>
					</g>
				</g>
				<g style="opacity:0.18;clip-path:url(#SVGID_00000122000204473637096850000001874048287791727027_);">
					<g>
						<g>
							<path d="M134.3,417.7h11.2c0.8,0,1.5,0.5,1.8,1.2l18.9,41.1l18.7-41c0.4-0.8,1.1-1.3,1.9-1.3h11.2c0.8,0,1.4,0.4,1.7,1
								c0.4,0.6,0.4,1.4,0.1,1.9L168.2,493c-0.3,0.8-1.1,1.4-1.9,1.4c-0.9,0-1.6-0.6-1.9-1.4l-31.9-72.4c-0.3-0.7-0.2-1.5,0.2-2
								C133,418.1,133.6,417.7,134.3,417.7z M197.3,419.5L197.3,419.5C197.3,419.4,197.3,419.4,197.3,419.5z M145.1,420.6h-9.5
								l30.7,69.6l30.6-69.6h-9.5l-19.3,42.2c-0.3,0.7-1.1,1.3-1.9,1.3c-0.9,0-1.6-0.5-1.9-1.3L145.1,420.6z M167,461.6
								C167,461.6,166.9,461.5,167,461.6L167,461.6z M165.5,461.6L165.5,461.6L165.5,461.6z"/>
						</g>
					</g>
				</g>
				<g style="opacity:0.18;clip-path:url(#SVGID_00000122000204473637096850000001874048287791727027_);">
					<g>
						<g>
							<path d="M115.6,494.3h-11.2c-0.8,0-1.5-0.5-1.8-1.2L83.7,452l-18.7,41c-0.4,0.8-1.1,1.3-1.9,1.3H51.8c-0.8,0-1.4-0.4-1.7-1
								c-0.4-0.6-0.4-1.4-0.1-1.9L81.7,419c0.3-0.8,1.1-1.4,1.9-1.4s1.6,0.6,1.9,1.4l31.9,72.4c0.3,0.7,0.2,1.5-0.2,2
								C116.9,493.9,116.3,494.3,115.6,494.3z M52.6,492.5L52.6,492.5C52.6,492.6,52.6,492.6,52.6,492.5z M104.8,491.4h9.5
								l-30.7-69.6l-30.6,69.6h9.5l19.3-42.2c0.3-0.7,1.1-1.3,1.9-1.3c0.9,0,1.6,0.5,1.9,1.3L104.8,491.4z M82.9,450.4
								C82.9,450.4,83,450.5,82.9,450.4L82.9,450.4z M84.4,450.4L84.4,450.4L84.4,450.4z"/>
						</g>
						<g>
							<path d="M146.7,494.2h-12c-0.7,0-1.5-0.5-1.6-1.2l-30.4-71.7c-0.2-0.5-0.2-1.1,0.1-1.5c0.3-0.5,0.9-0.9,1.5-0.9h12
								c0.7,0,1.2,0.5,1.4,0.6l0.2,0.2l30.5,72.1c0.2,0.5,0.2,1.1-0.1,1.5C147.9,493.9,147.3,494.2,146.7,494.2z M145.7,492.9
								C145.7,492.9,145.7,493,145.7,492.9L145.7,492.9z M135.5,491.3h9.5l-29.4-69.5h-9.5L135.5,491.3z M105.3,420.1L105.3,420.1
								C105.4,420.2,105.4,420.2,105.3,420.1z"/>
						</g>
						<g>
							<path d="M32.9,494.2h-12c-0.6,0-1.2-0.3-1.5-0.9c-0.3-0.5-0.4-1.2-0.1-1.6l30.3-71.6c0.2-0.7,0.9-1.3,1.6-1.3h12
								c0.6,0,1.2,0.3,1.5,0.9c0.3,0.5,0.3,1.2,0.1,1.6l-30.5,72l-0.2,0.2C34,493.8,33.5,494.2,32.9,494.2z M21.9,492.9L21.9,492.9
								L21.9,492.9z M22.6,491.3h9.5l29.4-69.5H52L22.6,491.3z M62.2,420.2L62.2,420.2L62.2,420.2z"/>
						</g>
					</g>
				</g>
				<g style="opacity:0.18;clip-path:url(#SVGID_00000122000204473637096850000001874048287791727027_);">
					<g>
						<g>
							<path d="M-31.4,417.7h11.2c0.8,0,1.5,0.5,1.8,1.2L0.5,460l18.7-41c0.4-0.8,1.1-1.3,1.9-1.3h11.2c0.8,0,1.4,0.4,1.7,1
								c0.4,0.6,0.4,1.4,0.1,1.9L2.4,493c-0.3,0.8-1.1,1.4-1.9,1.4s-1.6-0.6-1.9-1.4l-31.9-72.4c-0.3-0.7-0.2-1.5,0.2-2
								C-32.8,418.1-32.1,417.7-31.4,417.7z M31.5,419.5L31.5,419.5C31.5,419.4,31.5,419.4,31.5,419.5z M-20.7,420.6h-9.5l30.7,69.6
								l30.6-69.6h-9.5L2.3,462.8C2,463.5,1.3,464,0.4,464s-1.6-0.5-1.9-1.3L-20.7,420.6z M1.3,461.6C1.3,461.6,1.2,461.5,1.3,461.6
								L1.3,461.6z M-0.3,461.6L-0.3,461.6L-0.3,461.6z"/>
						</g>
						<g>
							<path d="M-62.6,417.8h12c0.7,0,1.5,0.5,1.6,1.2l30.4,71.7c0.2,0.5,0.2,1.1-0.1,1.5c-0.3,0.5-0.9,0.9-1.5,0.9h-12
								c-0.7,0-1.2-0.5-1.4-0.6l-0.2-0.2l-30.5-72.1c-0.2-0.5-0.2-1.1,0.1-1.5C-63.8,418.1-63.2,417.8-62.6,417.8z M-61.5,419.1
								C-61.5,419.1-61.5,419-61.5,419.1L-61.5,419.1z M-51.4,420.7h-9.5l29.4,69.5h9.5L-51.4,420.7z M-21.2,491.9L-21.2,491.9
								C-21.3,491.8-21.3,491.8-21.2,491.9z"/>
						</g>
					</g>
				</g>
				<g style="opacity:0.18;clip-path:url(#SVGID_00000122000204473637096850000001874048287791727027_);">
					<g>
						<g>
							<path d="M301.1,417.7h11.2c0.8,0,1.5,0.5,1.8,1.2L333,460l18.7-41c0.4-0.8,1.1-1.3,1.9-1.3h11.2c0.8,0,1.4,0.4,1.7,1
								c0.4,0.6,0.4,1.4,0.1,1.9L335,493c-0.3,0.8-1.1,1.4-1.9,1.4s-1.6-0.6-1.9-1.4l-31.9-72.4c-0.3-0.7-0.2-1.5,0.2-2
								C299.7,418.1,300.4,417.7,301.1,417.7z M364.1,419.5L364.1,419.5C364.1,419.4,364.1,419.4,364.1,419.5z M311.8,420.6h-9.5
								l30.7,69.6l30.6-69.6h-9.5l-19.3,42.2c-0.3,0.7-1.1,1.3-1.9,1.3c-0.9,0-1.6-0.5-1.9-1.3L311.8,420.6z M333.8,461.6
								C333.8,461.6,333.7,461.5,333.8,461.6L333.8,461.6z M332.3,461.6L332.3,461.6L332.3,461.6z"/>
						</g>
						<g>
							<path d="M383.8,417.8h12c0.6,0,1.2,0.3,1.5,0.9c0.3,0.5,0.4,1.2,0.1,1.6l-30.3,71.6c-0.2,0.7-0.9,1.3-1.6,1.3h-12
								c-0.6,0-1.2-0.3-1.5-0.9c-0.3-0.5-0.3-1.2-0.1-1.6l30.5-72l0.2-0.2C382.7,418.2,383.1,417.8,383.8,417.8z M394.8,419.1
								L394.8,419.1L394.8,419.1z M394.1,420.7h-9.5l-29.4,69.5h9.5L394.1,420.7z M354.5,491.8L354.5,491.8L354.5,491.8z"/>
						</g>
					</g>
				</g>
				<g style="opacity:0.18;clip-path:url(#SVGID_00000122000204473637096850000001874048287791727027_);">
					<g>
						<g>
							<path d="M448.2,494.3H437c-0.8,0-1.5-0.5-1.8-1.2L416.3,452l-18.7,41c-0.4,0.8-1.1,1.3-1.9,1.3h-11.2c-0.8,0-1.4-0.4-1.7-1
								c-0.4-0.6-0.4-1.4-0.1-1.9l31.7-72.4c0.3-0.8,1.1-1.4,1.9-1.4s1.6,0.6,1.9,1.4l31.9,72.4c0.3,0.7,0.2,1.5-0.2,2
								C449.5,493.9,448.9,494.3,448.2,494.3z M385.2,492.5L385.2,492.5C385.2,492.6,385.2,492.6,385.2,492.5z M437.5,491.4h9.5
								l-30.7-69.6l-30.6,69.6h9.5l19.3-42.2c0.3-0.7,1.1-1.3,1.9-1.3c0.9,0,1.6,0.5,1.9,1.3L437.5,491.4z M415.5,450.4
								C415.5,450.4,415.6,450.5,415.5,450.4L415.5,450.4z M417,450.4L417,450.4L417,450.4z"/>
						</g>
						<g>
							<path d="M479.3,494.2h-12c-0.7,0-1.5-0.5-1.6-1.2l-30.4-71.7c-0.2-0.5-0.2-1.1,0.1-1.5c0.3-0.5,0.9-0.9,1.5-0.9h12
								c0.7,0,1.2,0.5,1.4,0.6l0.2,0.2l30.5,72.1c0.2,0.5,0.2,1.1-0.1,1.5C480.5,493.9,479.9,494.2,479.3,494.2z M478.3,492.9
								C478.3,492.9,478.3,493,478.3,492.9L478.3,492.9z M468.1,491.3h9.5l-29.4-69.5h-9.5L468.1,491.3z M437.9,420.1L437.9,420.1
								C438,420.2,438,420.2,437.9,420.1z"/>
						</g>
					</g>
				</g>
				<g style="opacity:0.18;clip-path:url(#SVGID_00000122000204473637096850000001874048287791727027_);">
					<g>
						<g>
							<path d="M467.9,417.7h11.2c0.8,0,1.5,0.5,1.8,1.2l18.9,41.1l18.7-41c0.4-0.8,1.1-1.3,1.9-1.3h11.2c0.8,0,1.4,0.4,1.7,1
								c0.4,0.6,0.4,1.4,0.1,1.9L501.8,493c-0.3,0.8-1.1,1.4-1.9,1.4c-0.9,0-1.6-0.6-1.9-1.4L466,420.6c-0.3-0.7-0.2-1.5,0.2-2
								C466.6,418.1,467.3,417.7,467.9,417.7z M530.9,419.5L530.9,419.5C530.9,419.4,530.9,419.4,530.9,419.5z M478.7,420.6h-9.5
								l30.7,69.6l30.6-69.6H521l-19.3,42.2c-0.3,0.7-1.1,1.3-1.9,1.3s-1.6-0.5-1.9-1.3L478.7,420.6z M500.6,461.6
								C500.6,461.6,500.5,461.5,500.6,461.6L500.6,461.6z M499.1,461.6L499.1,461.6L499.1,461.6z"/>
						</g>
						<g>
							<path d="M550.7,417.8h12c0.6,0,1.2,0.3,1.5,0.9c0.3,0.5,0.4,1.2,0.1,1.6L534,491.9c-0.2,0.7-0.9,1.3-1.6,1.3h-12
								c-0.6,0-1.2-0.3-1.5-0.9c-0.3-0.5-0.3-1.2-0.1-1.6l30.5-72l0.2-0.2C549.5,418.2,550,417.8,550.7,417.8z M561.6,419.1
								L561.6,419.1L561.6,419.1z M560.9,420.7h-9.5L522,490.2h9.5L560.9,420.7z M521.3,491.8L521.3,491.8L521.3,491.8z"/>
						</g>
					</g>
				</g>
				<g style="opacity:0.18;clip-path:url(#SVGID_00000122000204473637096850000001874048287791727027_);">
					<g>
						<g>
							<path d="M281.3,162.4h-11.2c-0.8,0-1.5-0.5-1.8-1.2l-18.9-41.1l-18.7,41c-0.4,0.8-1.1,1.3-1.9,1.3h-11.2
								c-0.8,0-1.4-0.4-1.7-1c-0.4-0.6-0.4-1.4-0.1-1.9l31.7-72.4c0.3-0.8,1.1-1.4,1.9-1.4c0.9,0,1.6,0.6,1.9,1.4l31.9,72.4
								c0.3,0.7,0.2,1.5-0.2,2C282.7,162,282,162.4,281.3,162.4z M218.4,160.6L218.4,160.6C218.4,160.7,218.4,160.7,218.4,160.6z
								 M270.6,159.5h9.5l-30.7-69.6l-30.6,69.6h9.5l19.3-42.2c0.3-0.7,1.1-1.3,1.9-1.3s1.6,0.5,1.9,1.3L270.6,159.5z M248.6,118.5
								C248.6,118.5,248.7,118.6,248.6,118.5L248.6,118.5z M250.2,118.5L250.2,118.5L250.2,118.5z"/>
						</g>
						<g>
							<path d="M312.5,162.3h-12c-0.7,0-1.5-0.5-1.6-1.2l-30.4-71.7c-0.2-0.5-0.2-1.1,0.1-1.5c0.3-0.5,0.9-0.9,1.5-0.9h12
								c0.7,0,1.2,0.5,1.4,0.6l0.2,0.2l30.5,72.1c0.2,0.5,0.2,1.1-0.1,1.5C313.7,162,313.1,162.3,312.5,162.3z M311.4,161
								C311.4,161,311.4,161,311.4,161L311.4,161z M301.3,159.4h9.5l-29.4-69.5h-9.5L301.3,159.4z M271.1,88.2L271.1,88.2
								C271.2,88.3,271.2,88.3,271.1,88.2z"/>
						</g>
						<g>
							<path d="M198.6,162.3h-12c-0.6,0-1.2-0.3-1.5-0.9c-0.3-0.5-0.4-1.2-0.1-1.6l30.3-71.6c0.2-0.7,0.9-1.3,1.6-1.3h12
								c0.6,0,1.2,0.3,1.5,0.9c0.3,0.5,0.3,1.2,0.1,1.6l-30.5,72l-0.2,0.2C199.8,161.9,199.3,162.3,198.6,162.3z M187.7,161
								L187.7,161L187.7,161z M188.4,159.4h9.5l29.4-69.5h-9.5L188.4,159.4z M227.9,88.3L227.9,88.3L227.9,88.3z"/>
						</g>
					</g>
				</g>
				<g style="opacity:0.18;clip-path:url(#SVGID_00000122000204473637096850000001874048287791727027_);">
					<g>
						<g>
							<path d="M134.3,85.8h11.2c0.8,0,1.5,0.5,1.8,1.2l18.9,41.1l18.7-41c0.4-0.8,1.1-1.3,1.9-1.3h11.2c0.8,0,1.4,0.4,1.7,1
								c0.4,0.6,0.4,1.4,0.1,1.9L168.2,161c-0.3,0.8-1.1,1.4-1.9,1.4c-0.9,0-1.6-0.6-1.9-1.4l-31.9-72.4c-0.3-0.7-0.2-1.5,0.2-2
								C133,86.2,133.6,85.8,134.3,85.8z M197.3,87.6L197.3,87.6C197.3,87.5,197.3,87.5,197.3,87.6z M145.1,88.7h-9.5l30.7,69.6
								l30.6-69.6h-9.5l-19.3,42.2c-0.3,0.7-1.1,1.3-1.9,1.3c-0.9,0-1.6-0.5-1.9-1.3L145.1,88.7z M167,129.7
								C167,129.7,166.9,129.6,167,129.7L167,129.7z M165.5,129.7L165.5,129.7L165.5,129.7z"/>
						</g>
					</g>
				</g>
				<g style="opacity:0.18;clip-path:url(#SVGID_00000122000204473637096850000001874048287791727027_);">
					<g>
						<g>
							<path d="M115.6,162.4h-11.2c-0.8,0-1.5-0.5-1.8-1.2l-18.9-41.1l-18.7,41c-0.4,0.8-1.1,1.3-1.9,1.3H51.8c-0.8,0-1.4-0.4-1.7-1
								c-0.4-0.6-0.4-1.4-0.1-1.9l31.7-72.4c0.3-0.8,1.1-1.4,1.9-1.4s1.6,0.6,1.9,1.4l31.9,72.4c0.3,0.7,0.2,1.5-0.2,2
								C116.9,162,116.3,162.4,115.6,162.4z M52.6,160.6L52.6,160.6C52.6,160.7,52.6,160.7,52.6,160.6z M104.8,159.5h9.5L83.7,89.9
								l-30.6,69.6h9.5l19.3-42.2c0.3-0.7,1.1-1.3,1.9-1.3c0.9,0,1.6,0.5,1.9,1.3L104.8,159.5z M82.9,118.5
								C82.9,118.5,83,118.6,82.9,118.5L82.9,118.5z M84.4,118.5L84.4,118.5L84.4,118.5z"/>
						</g>
						<g>
							<path d="M146.7,162.3h-12c-0.7,0-1.5-0.5-1.6-1.2l-30.4-71.7c-0.2-0.5-0.2-1.1,0.1-1.5c0.3-0.5,0.9-0.9,1.5-0.9h12
								c0.7,0,1.2,0.5,1.4,0.6l0.2,0.2l30.5,72.1c0.2,0.5,0.2,1.1-0.1,1.5C147.9,162,147.3,162.3,146.7,162.3z M145.7,161
								C145.7,161,145.7,161,145.7,161L145.7,161z M135.5,159.4h9.5l-29.4-69.5h-9.5L135.5,159.4z M105.3,88.2L105.3,88.2
								C105.4,88.3,105.4,88.3,105.3,88.2z"/>
						</g>
						<g>
							<path d="M32.9,162.3h-12c-0.6,0-1.2-0.3-1.5-0.9c-0.3-0.5-0.4-1.2-0.1-1.6l30.3-71.6c0.2-0.7,0.9-1.3,1.6-1.3h12
								c0.6,0,1.2,0.3,1.5,0.9c0.3,0.5,0.3,1.2,0.1,1.6l-30.5,72l-0.2,0.2C34,161.9,33.5,162.3,32.9,162.3z M21.9,161L21.9,161
								L21.9,161z M22.6,159.4h9.5l29.4-69.5H52L22.6,159.4z M62.2,88.3L62.2,88.3L62.2,88.3z"/>
						</g>
					</g>
				</g>
				<g style="opacity:0.18;clip-path:url(#SVGID_00000122000204473637096850000001874048287791727027_);">
					<g>
						<g>
							<path d="M-31.4,85.8h11.2c0.8,0,1.5,0.5,1.8,1.2l18.9,41.1l18.7-41c0.4-0.8,1.1-1.3,1.9-1.3h11.2c0.8,0,1.4,0.4,1.7,1
								c0.4,0.6,0.4,1.4,0.1,1.9L2.4,161c-0.3,0.8-1.1,1.4-1.9,1.4s-1.6-0.6-1.9-1.4l-31.9-72.4c-0.3-0.7-0.2-1.5,0.2-2
								C-32.8,86.2-32.1,85.8-31.4,85.8z M31.5,87.6L31.5,87.6C31.5,87.5,31.5,87.5,31.5,87.6z M-20.7,88.7h-9.5l30.7,69.6
								l30.6-69.6h-9.5L2.3,130.9c-0.3,0.7-1.1,1.3-1.9,1.3s-1.6-0.5-1.9-1.3L-20.7,88.7z M1.3,129.7C1.3,129.7,1.2,129.6,1.3,129.7
								L1.3,129.7z M-0.3,129.7L-0.3,129.7L-0.3,129.7z"/>
						</g>
						<g>
							<path d="M-62.6,85.9h12c0.7,0,1.5,0.5,1.6,1.2l30.4,71.7c0.2,0.5,0.2,1.1-0.1,1.5c-0.3,0.5-0.9,0.9-1.5,0.9h-12
								c-0.7,0-1.2-0.5-1.4-0.6l-0.2-0.2l-30.5-72.1c-0.2-0.5-0.2-1.1,0.1-1.5C-63.8,86.2-63.2,85.9-62.6,85.9z M-61.5,87.2
								C-61.5,87.2-61.5,87.1-61.5,87.2L-61.5,87.2z M-51.4,88.8h-9.5l29.4,69.5h9.5L-51.4,88.8z M-21.2,160L-21.2,160
								C-21.3,159.9-21.3,159.9-21.2,160z"/>
						</g>
					</g>
				</g>
				<g style="opacity:0.18;clip-path:url(#SVGID_00000122000204473637096850000001874048287791727027_);">
					<g>
						<g>
							<path d="M301.1,85.8h11.2c0.8,0,1.5,0.5,1.8,1.2l18.9,41.1l18.7-41c0.4-0.8,1.1-1.3,1.9-1.3h11.2c0.8,0,1.4,0.4,1.7,1
								s0.4,1.4,0.1,1.9L335,161c-0.3,0.8-1.1,1.4-1.9,1.4s-1.6-0.6-1.9-1.4l-31.9-72.4c-0.3-0.7-0.2-1.5,0.2-2
								C299.7,86.2,300.4,85.8,301.1,85.8z M364.1,87.6L364.1,87.6C364.1,87.5,364.1,87.5,364.1,87.6z M311.8,88.7h-9.5l30.7,69.6
								l30.6-69.6h-9.5l-19.3,42.2c-0.3,0.7-1.1,1.3-1.9,1.3c-0.9,0-1.6-0.5-1.9-1.3L311.8,88.7z M333.8,129.7
								C333.8,129.7,333.7,129.6,333.8,129.7L333.8,129.7z M332.3,129.7L332.3,129.7L332.3,129.7z"/>
						</g>
						<g>
							<path d="M383.8,85.9h12c0.6,0,1.2,0.3,1.5,0.9c0.3,0.5,0.4,1.2,0.1,1.6L367.2,160c-0.2,0.7-0.9,1.3-1.6,1.3h-12
								c-0.6,0-1.2-0.3-1.5-0.9c-0.3-0.5-0.3-1.2-0.1-1.6l30.5-72l0.2-0.2C382.7,86.3,383.1,85.9,383.8,85.9z M394.8,87.2
								L394.8,87.2L394.8,87.2z M394.1,88.8h-9.5l-29.4,69.5h9.5L394.1,88.8z M354.5,159.9L354.5,159.9L354.5,159.9z"/>
						</g>
					</g>
				</g>
				<g style="opacity:0.18;clip-path:url(#SVGID_00000122000204473637096850000001874048287791727027_);">
					<g>
						<g>
							<path d="M448.2,162.4H437c-0.8,0-1.5-0.5-1.8-1.2l-18.9-41.1l-18.7,41c-0.4,0.8-1.1,1.3-1.9,1.3h-11.2c-0.8,0-1.4-0.4-1.7-1
								c-0.4-0.6-0.4-1.4-0.1-1.9l31.7-72.4c0.3-0.8,1.1-1.4,1.9-1.4s1.6,0.6,1.9,1.4l31.9,72.4c0.3,0.7,0.2,1.5-0.2,2
								C449.5,162,448.9,162.4,448.2,162.4z M385.2,160.6L385.2,160.6C385.2,160.7,385.2,160.7,385.2,160.6z M437.5,159.5h9.5
								l-30.7-69.6l-30.6,69.6h9.5l19.3-42.2c0.3-0.7,1.1-1.3,1.9-1.3c0.9,0,1.6,0.5,1.9,1.3L437.5,159.5z M415.5,118.5
								C415.5,118.5,415.6,118.6,415.5,118.5L415.5,118.5z M417,118.5L417,118.5L417,118.5z"/>
						</g>
						<g>
							<path d="M479.3,162.3h-12c-0.7,0-1.5-0.5-1.6-1.2l-30.4-71.7c-0.2-0.5-0.2-1.1,0.1-1.5c0.3-0.5,0.9-0.9,1.5-0.9h12
								c0.7,0,1.2,0.5,1.4,0.6l0.2,0.2l30.5,72.1c0.2,0.5,0.2,1.1-0.1,1.5C480.5,162,479.9,162.3,479.3,162.3z M478.3,161
								C478.3,161,478.3,161,478.3,161L478.3,161z M468.1,159.4h9.5l-29.4-69.5h-9.5L468.1,159.4z M437.9,88.2L437.9,88.2
								C438,88.3,438,88.3,437.9,88.2z"/>
						</g>
					</g>
				</g>
				<g style="opacity:0.18;clip-path:url(#SVGID_00000122000204473637096850000001874048287791727027_);">
					<g>
						<g>
							<path d="M467.9,85.8h11.2c0.8,0,1.5,0.5,1.8,1.2l18.9,41.1l18.7-41c0.4-0.8,1.1-1.3,1.9-1.3h11.2c0.8,0,1.4,0.4,1.7,1
								s0.4,1.4,0.1,1.9L501.8,161c-0.3,0.8-1.1,1.4-1.9,1.4c-0.9,0-1.6-0.6-1.9-1.4L466,88.7c-0.3-0.7-0.2-1.5,0.2-2
								C466.6,86.2,467.3,85.8,467.9,85.8z M530.9,87.6L530.9,87.6C530.9,87.5,530.9,87.5,530.9,87.6z M478.7,88.7h-9.5l30.7,69.6
								l30.6-69.6H521l-19.3,42.2c-0.3,0.7-1.1,1.3-1.9,1.3s-1.6-0.5-1.9-1.3L478.7,88.7z M500.6,129.7
								C500.6,129.7,500.5,129.6,500.6,129.7L500.6,129.7z M499.1,129.7L499.1,129.7L499.1,129.7z"/>
						</g>
						<g>
							<path d="M550.7,85.9h12c0.6,0,1.2,0.3,1.5,0.9c0.3,0.5,0.4,1.2,0.1,1.6L534,160c-0.2,0.7-0.9,1.3-1.6,1.3h-12
								c-0.6,0-1.2-0.3-1.5-0.9c-0.3-0.5-0.3-1.2-0.1-1.6l30.5-72l0.2-0.2C549.5,86.3,550,85.9,550.7,85.9z M561.6,87.2L561.6,87.2
								L561.6,87.2z M560.9,88.8h-9.5L522,158.2h9.5L560.9,88.8z M521.3,159.9L521.3,159.9L521.3,159.9z"/>
						</g>
					</g>
				</g>
				<g style="opacity:0.18;clip-path:url(#SVGID_00000122000204473637096850000001874048287791727027_);">
					<g>
						<g>
							<path d="M281.3,79.2h-11.2c-0.8,0-1.5-0.5-1.8-1.2L249.4,37l-18.7,41c-0.4,0.8-1.1,1.3-1.9,1.3h-11.2c-0.8,0-1.4-0.4-1.7-1
								c-0.4-0.6-0.4-1.4-0.1-1.9L247.5,4c0.3-0.8,1.1-1.4,1.9-1.4c0.9,0,1.6,0.6,1.9,1.4l31.9,72.4c0.3,0.7,0.2,1.5-0.2,2
								C282.7,78.8,282,79.2,281.3,79.2z M218.4,77.4L218.4,77.4C218.4,77.5,218.4,77.5,218.4,77.4z M270.6,76.3h9.5L249.4,6.8
								l-30.6,69.6h9.5l19.3-42.2c0.3-0.7,1.1-1.3,1.9-1.3s1.6,0.5,1.9,1.3L270.6,76.3z M248.6,35.3
								C248.6,35.3,248.7,35.4,248.6,35.3L248.6,35.3z M250.2,35.3L250.2,35.3L250.2,35.3z"/>
						</g>
						<g>
							<path d="M312.5,79.1h-12c-0.7,0-1.5-0.5-1.6-1.2L268.5,6.3c-0.2-0.5-0.2-1.1,0.1-1.5c0.3-0.5,0.9-0.9,1.5-0.9h12
								c0.7,0,1.2,0.5,1.4,0.6l0.2,0.2l30.5,72.1c0.2,0.5,0.2,1.1-0.1,1.5C313.7,78.8,313.1,79.1,312.5,79.1z M311.4,77.8
								C311.4,77.8,311.4,77.9,311.4,77.8L311.4,77.8z M301.3,76.2h9.5L281.3,6.8h-9.5L301.3,76.2z M271.1,5L271.1,5
								C271.2,5.1,271.2,5.1,271.1,5z"/>
						</g>
						<g>
							<path d="M198.6,79.1h-12c-0.6,0-1.2-0.3-1.5-0.9c-0.3-0.5-0.4-1.2-0.1-1.6L215.3,5c0.2-0.7,0.9-1.3,1.6-1.3h12
								c0.6,0,1.2,0.3,1.5,0.9c0.3,0.5,0.3,1.2,0.1,1.6l-30.5,72l-0.2,0.2C199.8,78.8,199.3,79.1,198.6,79.1z M187.7,77.8
								L187.7,77.8L187.7,77.8z M188.4,76.2h9.5l29.4-69.5h-9.5L188.4,76.2z M227.9,5.1L227.9,5.1L227.9,5.1z"/>
						</g>
					</g>
				</g>
				<g style="opacity:0.18;clip-path:url(#SVGID_00000122000204473637096850000001874048287791727027_);">
					<g>
						<g>
							<path d="M134.3,2.6h11.2c0.8,0,1.5,0.5,1.8,1.2l18.9,41.1l18.7-41c0.4-0.8,1.1-1.3,1.9-1.3h11.2c0.8,0,1.4,0.4,1.7,1
								c0.4,0.6,0.4,1.4,0.1,1.9l-31.7,72.4c-0.3,0.8-1.1,1.4-1.9,1.4c-0.9,0-1.6-0.6-1.9-1.4L132.4,5.5c-0.3-0.7-0.2-1.5,0.2-2
								C133,3,133.6,2.6,134.3,2.6z M197.3,4.4L197.3,4.4C197.3,4.3,197.3,4.3,197.3,4.4z M145.1,5.5h-9.5l30.7,69.6l30.6-69.6h-9.5
								l-19.3,42.2c-0.3,0.7-1.1,1.3-1.9,1.3c-0.9,0-1.6-0.5-1.9-1.3L145.1,5.5z M167,46.5C167,46.5,166.9,46.4,167,46.5L167,46.5z
								 M165.5,46.5L165.5,46.5L165.5,46.5z"/>
						</g>
					</g>
				</g>
				<g style="opacity:0.18;clip-path:url(#SVGID_00000122000204473637096850000001874048287791727027_);">
					<g>
						<g>
							<path d="M115.6,79.2h-11.2c-0.8,0-1.5-0.5-1.8-1.2L83.7,37L65,78c-0.4,0.8-1.1,1.3-1.9,1.3H51.8c-0.8,0-1.4-0.4-1.7-1
								c-0.4-0.6-0.4-1.4-0.1-1.9L81.7,4c0.3-0.8,1.1-1.4,1.9-1.4s1.6,0.6,1.9,1.4l31.9,72.4c0.3,0.7,0.2,1.5-0.2,2
								C116.9,78.8,116.3,79.2,115.6,79.2z M52.6,77.4L52.6,77.4C52.6,77.5,52.6,77.5,52.6,77.4z M104.8,76.3h9.5L83.7,6.8
								L53.1,76.3h9.5l19.3-42.2c0.3-0.7,1.1-1.3,1.9-1.3c0.9,0,1.6,0.5,1.9,1.3L104.8,76.3z M82.9,35.3
								C82.9,35.3,83,35.4,82.9,35.3L82.9,35.3z M84.4,35.3L84.4,35.3L84.4,35.3z"/>
						</g>
						<g>
							<path d="M146.7,79.1h-12c-0.7,0-1.5-0.5-1.6-1.2L102.7,6.3c-0.2-0.5-0.2-1.1,0.1-1.5c0.3-0.5,0.9-0.9,1.5-0.9h12
								c0.7,0,1.2,0.5,1.4,0.6l0.2,0.2l30.5,72.1c0.2,0.5,0.2,1.1-0.1,1.5C147.9,78.8,147.3,79.1,146.7,79.1z M145.7,77.8
								C145.7,77.8,145.7,77.9,145.7,77.8L145.7,77.8z M135.5,76.2h9.5L115.6,6.8h-9.5L135.5,76.2z M105.3,5L105.3,5
								C105.4,5.1,105.4,5.1,105.3,5z"/>
						</g>
						<g>
							<path d="M32.9,79.1h-12c-0.6,0-1.2-0.3-1.5-0.9c-0.3-0.5-0.4-1.2-0.1-1.6L49.5,5c0.2-0.7,0.9-1.3,1.6-1.3h12
								c0.6,0,1.2,0.3,1.5,0.9C65,5.1,65,5.8,64.8,6.3l-30.5,72l-0.2,0.2C34,78.8,33.5,79.1,32.9,79.1z M21.9,77.8L21.9,77.8
								L21.9,77.8z M22.6,76.2h9.5L61.5,6.8H52L22.6,76.2z M62.2,5.1L62.2,5.1L62.2,5.1z"/>
						</g>
					</g>
				</g>
				<g style="opacity:0.18;clip-path:url(#SVGID_00000122000204473637096850000001874048287791727027_);">
					<g>
						<g>
							<path d="M-31.4,2.6h11.2c0.8,0,1.5,0.5,1.8,1.2L0.5,44.9l18.7-41c0.4-0.8,1.1-1.3,1.9-1.3h11.2c0.8,0,1.4,0.4,1.7,1
								c0.4,0.6,0.4,1.4,0.1,1.9L2.4,77.9c-0.3,0.8-1.1,1.4-1.9,1.4s-1.6-0.6-1.9-1.4L-33.4,5.5c-0.3-0.7-0.2-1.5,0.2-2
								C-32.8,3-32.1,2.6-31.4,2.6z M31.5,4.4L31.5,4.4C31.5,4.3,31.5,4.3,31.5,4.4z M-20.7,5.5h-9.5L0.5,75.1L31.1,5.5h-9.5
								L2.3,47.7C2,48.4,1.3,49,0.4,49s-1.6-0.5-1.9-1.3L-20.7,5.5z M1.3,46.5C1.3,46.5,1.2,46.4,1.3,46.5L1.3,46.5z M-0.3,46.5
								L-0.3,46.5L-0.3,46.5z"/>
						</g>
						<g>
							<path d="M-62.6,2.7h12c0.7,0,1.5,0.5,1.6,1.2l30.4,71.7c0.2,0.5,0.2,1.1-0.1,1.5c-0.3,0.5-0.9,0.9-1.5,0.9h-12
								c-0.7,0-1.2-0.5-1.4-0.6l-0.2-0.2L-64.2,5.1c-0.2-0.5-0.2-1.1,0.1-1.5C-63.8,3-63.2,2.7-62.6,2.7z M-61.5,4.1
								C-61.5,4.1-61.5,4-61.5,4.1L-61.5,4.1z M-51.4,5.6h-9.5l29.4,69.5h9.5L-51.4,5.6z M-21.2,76.8L-21.2,76.8
								C-21.3,76.7-21.3,76.7-21.2,76.8z"/>
						</g>
					</g>
				</g>
				<g style="opacity:0.18;clip-path:url(#SVGID_00000122000204473637096850000001874048287791727027_);">
					<g>
						<g>
							<path d="M301.1,2.6h11.2c0.8,0,1.5,0.5,1.8,1.2L333,44.9l18.7-41c0.4-0.8,1.1-1.3,1.9-1.3h11.2c0.8,0,1.4,0.4,1.7,1
								s0.4,1.4,0.1,1.9L335,77.9c-0.3,0.8-1.1,1.4-1.9,1.4s-1.6-0.6-1.9-1.4L299.2,5.5c-0.3-0.7-0.2-1.5,0.2-2
								C299.7,3,300.4,2.6,301.1,2.6z M364.1,4.4L364.1,4.4C364.1,4.3,364.1,4.3,364.1,4.4z M311.8,5.5h-9.5L333,75.1l30.6-69.6
								h-9.5l-19.3,42.2c-0.3,0.7-1.1,1.3-1.9,1.3c-0.9,0-1.6-0.5-1.9-1.3L311.8,5.5z M333.8,46.5C333.8,46.5,333.7,46.4,333.8,46.5
								L333.8,46.5z M332.3,46.5L332.3,46.5L332.3,46.5z"/>
						</g>
						<g>
							<path d="M383.8,2.7h12c0.6,0,1.2,0.3,1.5,0.9c0.3,0.5,0.4,1.2,0.1,1.6l-30.3,71.6c-0.2,0.7-0.9,1.3-1.6,1.3h-12
								c-0.6,0-1.2-0.3-1.5-0.9c-0.3-0.5-0.3-1.2-0.1-1.6l30.5-72l0.2-0.2C382.7,3.1,383.1,2.7,383.8,2.7z M394.8,4.1L394.8,4.1
								L394.8,4.1z M394.1,5.6h-9.5l-29.4,69.5h9.5L394.1,5.6z M354.5,76.7L354.5,76.7L354.5,76.7z"/>
						</g>
					</g>
				</g>
				<g style="opacity:0.18;clip-path:url(#SVGID_00000122000204473637096850000001874048287791727027_);">
					<g>
						<g>
							<path d="M448.2,79.2H437c-0.8,0-1.5-0.5-1.8-1.2L416.3,37l-18.7,41c-0.4,0.8-1.1,1.3-1.9,1.3h-11.2c-0.8,0-1.4-0.4-1.7-1
								c-0.4-0.6-0.4-1.4-0.1-1.9L414.3,4c0.3-0.8,1.1-1.4,1.9-1.4s1.6,0.6,1.9,1.4l31.9,72.4c0.3,0.7,0.2,1.5-0.2,2
								C449.5,78.8,448.9,79.2,448.2,79.2z M385.2,77.4L385.2,77.4C385.2,77.5,385.2,77.5,385.2,77.4z M437.5,76.3h9.5L416.3,6.8
								l-30.6,69.6h9.5l19.3-42.2c0.3-0.7,1.1-1.3,1.9-1.3c0.9,0,1.6,0.5,1.9,1.3L437.5,76.3z M415.5,35.3
								C415.5,35.3,415.6,35.4,415.5,35.3L415.5,35.3z M417,35.3L417,35.3L417,35.3z"/>
						</g>
						<g>
							<path d="M479.3,79.1h-12c-0.7,0-1.5-0.5-1.6-1.2L435.3,6.3c-0.2-0.5-0.2-1.1,0.1-1.5c0.3-0.5,0.9-0.9,1.5-0.9h12
								c0.7,0,1.2,0.5,1.4,0.6l0.2,0.2L481,76.7c0.2,0.5,0.2,1.1-0.1,1.5C480.5,78.8,479.9,79.1,479.3,79.1z M478.3,77.8
								C478.3,77.8,478.3,77.9,478.3,77.8L478.3,77.8z M468.1,76.2h9.5L448.2,6.8h-9.5L468.1,76.2z M437.9,5L437.9,5
								C438,5.1,438,5.1,437.9,5z"/>
						</g>
					</g>
				</g>
				<g style="opacity:0.18;clip-path:url(#SVGID_00000122000204473637096850000001874048287791727027_);">
					<g>
						<g>
							<path d="M467.9-9.6h11.2c0.8,0,1.5,0.5,1.8,1.2l18.9,41.1l18.7-41c0.4-0.8,1.1-1.3,1.9-1.3h11.2c0.8,0,1.4,0.4,1.7,1
								c0.4,0.6,0.4,1.4,0.1,1.9l-31.7,72.4c-0.3,0.8-1.1,1.4-1.9,1.4c-0.9,0-1.6-0.6-1.9-1.4L466-6.7c-0.3-0.7-0.2-1.5,0.2-2
								C466.6-9.2,467.3-9.6,467.9-9.6z M530.9-7.8L530.9-7.8C530.9-7.9,530.9-7.9,530.9-7.8z M478.7-6.7h-9.5l30.7,69.6l30.6-69.6
								H521l-19.3,42.2c-0.3,0.7-1.1,1.3-1.9,1.3s-1.6-0.5-1.9-1.3L478.7-6.7z M500.6,34.3C500.6,34.3,500.5,34.2,500.6,34.3
								L500.6,34.3z M499.1,34.3L499.1,34.3L499.1,34.3z"/>
						</g>
						<g>
							<path d="M550.7-9.5h12c0.6,0,1.2,0.3,1.5,0.9c0.3,0.5,0.4,1.2,0.1,1.6L534,64.6c-0.2,0.7-0.9,1.3-1.6,1.3h-12
								c-0.6,0-1.2-0.3-1.5-0.9c-0.3-0.5-0.3-1.2-0.1-1.6l30.5-72l0.2-0.2C549.5-9.1,550-9.5,550.7-9.5z M561.6-8.2L561.6-8.2
								L561.6-8.2z M560.9-6.6h-9.5L522,62.8h9.5L560.9-6.6z M521.3,64.5L521.3,64.5L521.3,64.5z"/>
						</g>
					</g>
				</g>
			</g>
		</g>
	</g>
</g>
</svg>
