<?xml version="1.0" encoding="utf-8"?>
<!-- Generator: Adobe Illustrator 23.0.4, SVG Export Plug-In . SVG Version: 6.00 Build 0)  -->
<svg version="1.1" id="Layer_1" xmlns="http://www.w3.org/2000/svg" xmlns:xlink="http://www.w3.org/1999/xlink" x="0px" y="0px"
	 viewBox="0 0 500 500" style="enable-background:new 0 0 500 500;" xml:space="preserve">
<style type="text/css">
	.st0{opacity:0.18;clip-path:url(#SVGID_2_);}
	.st1{clip-path:url(#SVGID_4_);}
	.st2{clip-path:url(#SVGID_6_);}
</style>
<title>PATRON NUEVO FREEPIK (2)</title>
<g>
	<g>
		<g>
			<g>
				<g>
					<defs>
						<rect id="SVGID_1_" width="500" height="500"/>
					</defs>
					<clipPath id="SVGID_2_">
						<use xlink:href="#SVGID_1_"  style="overflow:visible;"/>
					</clipPath>
					<g class="st0">
						<g>
							<defs>
								<rect id="SVGID_3_" width="500" height="500"/>
							</defs>
							<clipPath id="SVGID_4_">
								<use xlink:href="#SVGID_3_"  style="overflow:visible;"/>
							</clipPath>
							<g class="st1">
								<g>
									<path d="M163,140.7c-3.6,0-6.5-2.9-6.5-6.5s2.9-6.5,6.5-6.5s6.5,2.9,6.5,6.5S166.5,140.7,163,140.7z M163,129.9
										c-2.3,0-4.3,1.9-4.3,4.3c0,2.3,1.9,4.3,4.3,4.3s4.3-1.9,4.3-4.3C167.2,131.8,165.3,129.9,163,129.9z"/>
								</g>
								<g>
									<path d="M246,267.6c-3.6,0-6.5-2.9-6.5-6.5s2.9-6.5,6.5-6.5s6.5,2.9,6.5,6.5C252.5,264.6,249.6,267.6,246,267.6z
										 M246,256.8c-2.3,0-4.3,1.9-4.3,4.3c0,2.3,1.9,4.3,4.3,4.3c2.3,0,4.3-1.9,4.3-4.3C250.3,258.7,248.4,256.8,246,256.8z"/>
								</g>
								<g>
									<path d="M246,500.8c-3.6,0-6.5-2.9-6.5-6.5s2.9-6.5,6.5-6.5s6.5,2.9,6.5,6.5S249.6,500.8,246,500.8z M246,490.1
										c-2.3,0-4.3,1.9-4.3,4.3c0,2.3,1.9,4.3,4.3,4.3c2.3,0,4.3-1.9,4.3-4.3S248.4,490.1,246,490.1z"/>
								</g>
								<g>
									<path d="M327.9,138.2c-3.6,0-6.5-2.9-6.5-6.5s2.9-6.5,6.5-6.5s6.5,2.9,6.5,6.5S331.4,138.2,327.9,138.2z M327.9,127.5
										c-2.3,0-4.3,1.9-4.3,4.3c0,2.3,1.9,4.3,4.3,4.3s4.3-1.9,4.3-4.3C332.1,129.4,330.2,127.5,327.9,127.5z"/>
								</g>
								<g>
									<path d="M479.8,139.8c-3.6,0-6.5-2.9-6.5-6.5s2.9-6.5,6.5-6.5s6.5,2.9,6.5,6.5C486.3,136.9,483.4,139.8,479.8,139.8z
										 M479.8,129.1c-2.3,0-4.3,1.9-4.3,4.3c0,2.3,1.9,4.3,4.3,4.3s4.3-1.9,4.3-4.3C484.1,131,482.2,129.1,479.8,129.1z"/>
								</g>
								<g>
									<path d="M415.8,269.4c-3.6,0-6.5-2.9-6.5-6.5s2.9-6.5,6.5-6.5s6.5,2.9,6.5,6.5S419.4,269.4,415.8,269.4z M415.8,258.7
										c-2.3,0-4.3,1.9-4.3,4.3c0,2.3,1.9,4.3,4.3,4.3c2.3,0,4.3-1.9,4.3-4.3C420.1,260.6,418.2,258.7,415.8,258.7z"/>
								</g>
								<g>
									<path d="M76.3,268.5c-3.6,0-6.5-2.9-6.5-6.5s2.9-6.5,6.5-6.5s6.5,2.9,6.5,6.5S79.9,268.5,76.3,268.5z M76.3,257.8
										c-2.3,0-4.3,1.9-4.3,4.3c0,2.3,1.9,4.3,4.3,4.3s4.3-1.9,4.3-4.3C80.6,259.7,78.6,257.8,76.3,257.8z"/>
								</g>
								<g>
									<path d="M421.5,501.1c-3.6,0-6.5-2.9-6.5-6.5s2.9-6.5,6.5-6.5s6.5,2.9,6.5,6.5C427.9,498.2,425,501.1,421.5,501.1z
										 M421.5,490.4c-2.3,0-4.3,1.9-4.3,4.3c0,2.3,1.9,4.3,4.3,4.3s4.3-1.9,4.3-4.3C425.7,492.3,423.8,490.4,421.5,490.4z"/>
								</g>
								<g>
									<path d="M66.7,500.8c-3.6,0-6.5-2.9-6.5-6.5s2.9-6.5,6.5-6.5s6.5,2.9,6.5,6.5S70.3,500.8,66.7,500.8z M66.7,490.1
										c-2.3,0-4.3,1.9-4.3,4.3c0,2.3,1.9,4.3,4.3,4.3s4.3-1.9,4.3-4.3S69.1,490.1,66.7,490.1z"/>
								</g>
								<g>
									<path d="M246,0.8c-3.6,0-6.5-2.9-6.5-6.5s2.9-6.5,6.5-6.5s6.5,2.9,6.5,6.5S249.6,0.8,246,0.8z M246-9.9
										c-2.3,0-4.3,1.9-4.3,4.3c0,2.3,1.9,4.3,4.3,4.3c2.3,0,4.3-1.9,4.3-4.3S248.4-9.9,246-9.9z"/>
								</g>
								<g>
									<path d="M421.5,1.1c-3.6,0-6.5-2.9-6.5-6.5s2.9-6.5,6.5-6.5S428-9,428-5.4C427.9-1.8,425,1.1,421.5,1.1z M421.5-9.6
										c-2.3,0-4.3,1.9-4.3,4.3c0,2.3,1.9,4.3,4.3,4.3s4.3-1.9,4.3-4.3C425.7-7.7,423.8-9.6,421.5-9.6z"/>
								</g>
								<g>
									<path d="M66.7,0.8c-3.6,0-6.5-2.9-6.5-6.5s2.9-6.5,6.5-6.5s6.5,2.9,6.5,6.5S70.3,0.8,66.7,0.8z M66.7-9.9
										c-2.3,0-4.3,1.9-4.3,4.3c0,2.3,1.9,4.3,4.3,4.3s4.3-2,4.3-4.3C71-8,69.1-9.9,66.7-9.9z"/>
								</g>
								<g>
									<path d="M163.2,385c-3.6,0-6.5-2.9-6.5-6.5s2.9-6.5,6.5-6.5s6.5,2.9,6.5,6.5S166.8,385,163.2,385z M163.2,374.2
										c-2.3,0-4.3,1.9-4.3,4.3s1.9,4.3,4.3,4.3c2.3,0,4.3-1.9,4.3-4.3S165.5,374.2,163.2,374.2z"/>
								</g>
								<g>
									<path d="M340.9,385c-3.6,0-6.5-2.9-6.5-6.5s2.9-6.5,6.5-6.5s6.5,2.9,6.5,6.5S344.5,385,340.9,385z M340.9,374.2
										c-2.3,0-4.3,1.9-4.3,4.3s1.9,4.3,4.3,4.3s4.3-1.9,4.3-4.3S343.2,374.2,340.9,374.2z"/>
								</g>
								<g>
									<path d="M494,385c-3.6,0-6.5-2.9-6.5-6.5s2.9-6.5,6.5-6.5s6.5,2.9,6.5,6.5S497.6,385,494,385z M494,374.2
										c-2.3,0-4.3,1.9-4.3,4.3s1.9,4.3,4.3,4.3s4.3-1.9,4.3-4.3S496.3,374.2,494,374.2z"/>
								</g>
								<g>
									<path d="M-6,385c-3.6,0-6.5-2.9-6.5-6.5S-9.6,372-6,372s6.5,2.9,6.5,6.5S-2.4,385-6,385z M-6,374.2c-2.3,0-4.3,1.9-4.3,4.3
										s1.9,4.3,4.3,4.3s4.3-1.9,4.3-4.3S-3.7,374.2-6,374.2z"/>
								</g>
							</g>
							<g class="st1">
								<defs>
									<rect id="SVGID_5_" width="500" height="500"/>
								</defs>
								<clipPath id="SVGID_6_">
									<use xlink:href="#SVGID_5_"  style="overflow:visible;"/>
								</clipPath>
								<g class="st2">
									<path d="M190.8,24.8l-5.2-5.2v-3.7c0-1.1-0.3-2.1-0.7-3.1l-2.2-4.4c-0.2-0.4-0.7-0.7-1.2-0.7h-3c-0.5-2.2-2.4-3.9-4.8-4.2
										c0.4-1.1,0.6-2.4,0.7-3.7l6.5-5.2c0.3-0.2,0.5-0.6,0.5-1v-5.8c0-1.3,0.6-2.5,1.5-3.3l6.4-5.3c0.6-0.5,0.6-1.3,0.2-1.8
										c-0.5-0.6-1.3-0.6-1.8-0.2l-6.4,5.3c-1.6,1.3-2.5,3.3-2.5,5.3v5.1l-4.6,3.7C174-4,173.9-4.5,173.7-5
										c-0.2-0.5-0.4-0.9-0.7-1.2c0.8-0.8,1.3-1.8,1.3-3c0-1.7-1-3.2-2.5-3.8l0.8-3c0.1-0.6,0.5-1.1,0.9-1.5l10.2-8.9
										c0.5-0.5,0.6-1.3,0.1-1.9c-0.5-0.5-1.3-0.6-1.9-0.1l-10.2,8.9c-0.8,0.7-1.4,1.7-1.7,2.8l-0.8,3.3h-3.5l-0.8-3.3
										c-0.3-1.1-0.9-2.1-1.7-2.8l-10.2-8.9c-0.5-0.5-1.4-0.4-1.9,0.1c-0.5,0.5-0.4,1.4,0.1,1.9l10.2,8.9c0.4,0.4,0.8,0.9,0.9,1.5
										l0.8,3c-1.5,0.6-2.5,2.1-2.5,3.8c0,1.2,0.5,2.3,1.3,3c-0.3,0.4-0.5,0.8-0.7,1.2c-0.2,0.5-0.3,1-0.4,1.6l-4.6-3.7v-5.1
										c0-2.1-0.9-4-2.5-5.3l-6.4-5.3c-0.6-0.5-1.4-0.4-1.8,0.2c-0.5,0.6-0.4,1.4,0.2,1.8l6.4,5.3c1,0.8,1.5,2,1.5,3.3v5.8
										c0,0.4,0.2,0.8,0.5,1l6.5,5.2c0.1,1.3,0.3,2.5,0.7,3.7c-2.3,0.3-4.2,1.9-4.8,4.2h-3c-0.5,0-1,0.3-1.2,0.7l-2.2,4.4
										c-0.5,1-0.7,2-0.7,3.1v3.7l-5.2,5.2c-0.5,0.5-0.5,1.3,0,1.9c0.3,0.3,0.6,0.4,0.9,0.4c0.3,0,0.7-0.1,0.9-0.4l5.6-5.6
										c0.2-0.2,0.4-0.6,0.4-0.9v-4.3c0-0.7,0.2-1.3,0.5-1.9l1.8-3.7h2.1v13.6l-3.9,5.2c-0.2,0.3-0.3,0.6-0.3,0.9l1.2,10.9
										c0.1,0.8-0.1,1.6-0.4,2.4l-3.5,6.9c-0.3,0.6-0.1,1.4,0.6,1.8c0.2,0.1,0.4,0.1,0.6,0.1c0.5,0,0.9-0.3,1.2-0.7l3.5-6.9
										c0.6-1.2,0.8-2.5,0.7-3.9l-1.2-10.4l1.5-2v1.7c0,6.1,5,11.1,11.1,11.1c6.1,0,11.1-5,11.1-11.1v-1.7l1.5,2l-1.2,10.4
										c-0.1,1.3,0.1,2.7,0.7,3.9l3.5,6.9c0.2,0.5,0.7,0.7,1.2,0.7c0.2,0,0.4,0,0.6-0.1c0.6-0.3,0.9-1.1,0.6-1.8l-3.5-6.9
										c-0.4-0.7-0.5-1.6-0.4-2.4l1.2-10.9c0-0.3-0.1-0.7-0.3-0.9l-3.9-5.2V10.2h2.1l1.8,3.7c0.3,0.6,0.5,1.3,0.5,1.9v4.3
										c0,0.3,0.1,0.7,0.4,0.9l5.6,5.6c0.3,0.3,0.6,0.4,0.9,0.4c0.3,0,0.7-0.1,0.9-0.4C191.3,26.1,191.3,25.3,190.8,24.8z
										 M164.1,3.4c-0.6-1.2-0.9-2.7-0.9-4.3c0-1.2,0.2-2.3,0.5-3.3c0.2-0.6,0.8-1,1.4-1h4.7c0.6,0,1.2,0.4,1.4,1
										c0.3,1,0.5,2.1,0.5,3.3c0,1.6-0.3,3-0.9,4.3H164.1z M164.7-7.8c-0.8,0-1.5-0.7-1.5-1.5c0-0.8,0.7-1.5,1.5-1.5c0,0,0,0,0,0
										c0,0,0,0,0,0h1.5v3h-1.1H164.7z M170.3-10.8C170.3-10.8,170.3-10.8,170.3-10.8C170.3-10.8,170.3-10.8,170.3-10.8
										c0.8,0,1.5,0.7,1.5,1.5c0,0.8-0.7,1.5-1.5,1.5h-0.4h-1.1v-3H170.3z M159,29.9v-21c0-1.6,1.3-2.9,2.9-2.9h4.3v5.8h-2.9
										c-0.7,0-1.3,0.6-1.3,1.3s0.6,1.3,1.3,1.3h2.9v5.8h-2.9c-0.7,0-1.3,0.6-1.3,1.3c0,0.7,0.6,1.3,1.3,1.3h2.9v5.8h-2.9
										c-0.7,0-1.3,0.6-1.3,1.3c0,0.7,0.6,1.3,1.3,1.3h2.9v7.1C162.1,37.6,159,34.1,159,29.9z M175.9,29.9c0,4.2-3.1,7.7-7.2,8.4
										v-7.1h2.9c0.7,0,1.3-0.6,1.3-1.3c0-0.7-0.6-1.3-1.3-1.3h-2.9v-5.8h2.9c0.7,0,1.3-0.6,1.3-1.3c0-0.7-0.6-1.3-1.3-1.3h-2.9
										v-5.8h2.9c0.7,0,1.3-0.6,1.3-1.3s-0.6-1.3-1.3-1.3h-2.9V6h2.8c0,0,0,0,0,0s0,0,0,0h1.4c1.6,0,2.9,1.3,2.9,2.9V29.9z"/>
									<path d="M384.4,2.5c-4.4-3.4-12.7-6.2-22.7-7.7c-9-1.4-17.9-1.4-22.7-0.2c0,0,0,0,0,0l-0.7-1c-0.7-0.9-1.6-1.5-2.6-1.9
										c0.4-2.4,2.6-7,8.2-8.8c0.9-0.3,1.4-1.3,1.1-2.2c-0.3-0.9-1.3-1.4-2.2-1.1c-4.5,1.5-7.3,4.4-8.9,7.3
										c-1.6-2.8-4.4-5.8-8.9-7.3c-0.9-0.3-1.9,0.2-2.2,1.1c-0.3,0.9,0.2,1.9,1.1,2.2c5.5,1.8,7.7,6.5,8.2,8.8
										c-1,0.4-1.9,1-2.6,1.9l-0.7,1c0,0,0,0,0,0c-4.8-1.3-13.7-1.2-22.7,0.2c-10.1,1.5-18.3,4.3-22.7,7.7
										c-2.7,2.1-4.1,4.5-4.1,7.1c0,6.2,8.6,9.4,16.1,12.2c3.7,1.4,7.6,2.8,9,4.2c0.7,0.7,1.6,2,2.6,3.5c2.8,4.1,6.6,9.8,13.2,12
										c1.7,0.6,3.7,0.9,5.6,0.9c3.2,0,6.3-0.7,8.2-2.1c2,1.3,5.1,2.1,8.2,2.1c1.9,0,3.9-0.3,5.6-0.9c6.6-2.2,10.4-7.9,13.2-12
										c1-1.5,1.9-2.8,2.6-3.5c1.4-1.4,5.2-2.8,9-4.2c7.6-2.8,16.1-6,16.1-12.2C388.5,7,387.1,4.6,384.4,2.5z M335.7,7.6
										c0,4.9,0,15.2-2,24.1c-2-8.8-2-19.1-2-24.1c0,0,0.1,0,0.1,0h3.8C335.6,7.6,335.7,7.6,335.7,7.6z M329.8,0.8
										c0-1.2,0.4-2.5,1.2-3.5l1.1-1.5c0.4-0.5,1-0.8,1.6-0.8s1.2,0.3,1.6,0.8l1.1,1.5c0.7,1,1.2,2.2,1.2,3.5V2c0,1.1-0.9,2-2,2
										h-3.8c-1.1,0-2-0.9-2-2V0.8z M324.1,38.8c0.2-6.2,1.8-10.6,3.1-13.3c0.4-0.9,0.1-1.9-0.8-2.4c-0.9-0.4-1.9-0.1-2.4,0.8
										c-1.5,2.9-3.2,7.6-3.5,14.1c-3.5-1.3-6.1-3.9-8.2-6.6c0.1-0.1,0.1-0.2,0.2-0.3c2.9-5.9,7-10.1,9.9-12.7
										c0.7-0.6,0.8-1.8,0.2-2.5c-0.6-0.7-1.8-0.8-2.5-0.2c-2.9,2.6-7,6.7-10,12.4c-0.2-0.2-0.3-0.5-0.5-0.7
										c-1.1-1.6-2.1-3.1-3.1-4.1c-0.7-0.7-1.8-1.4-3.1-2.1c3.3-3.5,8-6.7,13.9-9.5c0.9-0.4,1.3-1.5,0.8-2.4
										c-0.4-0.9-1.5-1.3-2.4-0.8c-6.7,3.2-12,6.9-15.7,11.1c0,0-0.1,0.1-0.1,0.1c-1.2-0.5-2.5-1-3.8-1.4c-2-0.7-4.2-1.6-6.2-2.4
										c7.6-6.6,18.9-10.1,25.1-11.6c1-0.2,1.5-1.2,1.3-2.1c-0.2-1-1.2-1.5-2.1-1.3c-6.7,1.6-19.1,5.4-27.3,13
										c-0.1,0.1-0.2,0.3-0.3,0.4c-2.5-1.4-4.3-3-4.3-4.8c0-1.4,0.9-2.9,2.7-4.3c8.5-6.6,32-9.4,41.5-7.5
										c-0.1,0.4-0.2,0.8-0.3,1.2c-1.2,0.1-2.7,0.2-4.3,0.5c-1,0.1-1.6,1-1.5,2c0.1,0.9,0.9,1.5,1.8,1.5c0.1,0,0.2,0,0.3,0
										c1.4-0.2,2.6-0.3,3.7-0.4c0.1,0.6,0.2,1.2,0.5,1.8c-0.3,0.1-0.7,0.2-1.1,0.4c-0.6,0.2-1.3,0.5-2.1,0.7
										c-0.9,0.3-1.4,1.4-1.1,2.3c0.3,0.7,0.9,1.2,1.7,1.2c0.2,0,0.4,0,0.6-0.1c0.8-0.3,1.4-0.5,2-0.7c0.5-0.2,0.9-0.3,1.3-0.5
										c0,0.8,0,1.7,0,2.6c-0.8,0.4-1.8,0.9-2.8,1.6c-0.8,0.5-1.1,1.6-0.5,2.4c0.3,0.5,0.9,0.8,1.5,0.8c0.3,0,0.7-0.1,1-0.3
										c0.3-0.2,0.6-0.4,0.9-0.6c0.2,6.8,1,15.9,3.4,23.2C330.2,38.4,327.2,39.1,324.1,38.8z M380.7,14.4
										c-0.1-0.1-0.2-0.3-0.3-0.4c-8.2-7.5-20.6-11.4-27.3-13c-1-0.2-1.9,0.4-2.1,1.3c-0.2,1,0.4,1.9,1.3,2.1
										c6.2,1.5,17.5,5,25.1,11.6c-2,0.9-4.2,1.7-6.2,2.4c-1.3,0.5-2.6,1-3.8,1.4c0,0-0.1-0.1-0.1-0.1c-3.7-4.2-9-7.9-15.7-11.1
										c-0.9-0.4-1.9,0-2.4,0.8c-0.4,0.9,0,1.9,0.8,2.4c5.9,2.8,10.6,6,13.9,9.5c-1.3,0.6-2.3,1.3-3.1,2.1c-1,1-1.9,2.4-3.1,4.1
										c-0.2,0.2-0.3,0.5-0.5,0.7c-3.1-5.7-7.1-9.9-10-12.4c-0.7-0.6-1.9-0.6-2.5,0.2c-0.6,0.7-0.6,1.9,0.2,2.5
										c2.9,2.5,7,6.8,9.9,12.7c0,0.1,0.1,0.2,0.2,0.3c-2.1,2.7-4.7,5.3-8.2,6.6c-0.3-6.5-2-11.2-3.5-14.1
										c-0.4-0.9-1.5-1.2-2.4-0.8c-0.9,0.4-1.2,1.5-0.8,2.4c1.4,2.7,3,7.1,3.1,13.3c-3,0.3-6.1-0.4-7.5-1.3
										c2.5-7.3,3.2-16.4,3.4-23.2c0.3,0.2,0.6,0.4,0.9,0.6c0.3,0.2,0.6,0.3,1,0.3c0.6,0,1.2-0.3,1.5-0.8c0.5-0.8,0.3-1.9-0.5-2.4
										c-1-0.6-2-1.2-2.8-1.6c0-1,0-1.9,0-2.6c0.4,0.1,0.8,0.3,1.3,0.5c0.6,0.2,1.3,0.4,2,0.7c0.2,0.1,0.4,0.1,0.6,0.1
										c0.7,0,1.4-0.4,1.7-1.2c0.3-0.9-0.1-1.9-1.1-2.3c-0.8-0.3-1.5-0.5-2.1-0.7c-0.4-0.1-0.8-0.3-1.1-0.4
										c0.3-0.6,0.4-1.2,0.5-1.8c1.1,0.1,2.3,0.2,3.7,0.4c0.1,0,0.2,0,0.3,0c0.9,0,1.6-0.6,1.8-1.5c0.1-1-0.5-1.9-1.5-2
										c-1.6-0.2-3.1-0.4-4.3-0.5c-0.1-0.4-0.2-0.8-0.3-1.2c9.5-1.9,33,0.9,41.5,7.5c1.8,1.4,2.7,2.8,2.7,4.3
										C384.9,11.4,383.2,13,380.7,14.4z"/>
									<path d="M467.6,352.9c-0.6-2.1-2.3-3.8-4.5-4.4c-7.2-2-18.6,0.8-26.9,3.5c-7.1,2.3-13.9,5.3-17.4,7.1
										c-0.6-1.1-1.6-2-2.8-2.5c0.6-3.1,2.9-9.9,6.8-14.2c0.7-0.7,0.6-1.8-0.1-2.5c-0.7-0.7-1.8-0.6-2.5,0.1
										c-2.9,3.1-4.9,7.2-6.2,10.8c-1.3-3.5-3.3-7.6-6.2-10.8c-0.7-0.7-1.8-0.8-2.5-0.1s-0.8,1.8-0.1,2.5
										c3.9,4.3,6.1,11.1,6.8,14.2c-1.2,0.5-2.2,1.4-2.8,2.5c-3.5-1.8-10.3-4.8-17.4-7.1c-8.3-2.7-19.7-5.6-26.9-3.5
										c-2.1,0.6-3.8,2.2-4.5,4.4c-0.6,2.2-0.2,4.5,1.3,6.2c2.7,3.1,7.8,9,12.3,14c4.1,4.5,6.4,6.8,7.8,8
										c-1.8,3.9-1.5,9.7,0.7,16.7c1.9,6,1.8,14.3,1.8,14.3c0,0.8,0.5,1.5,1.3,1.7c0.2,0,0.3,0.1,0.5,0.1c0.6,0,1.2-0.3,1.5-0.8
										c2.4-4,5-6.3,7.6-6.7c2.6-0.4,4.5,1.4,4.6,1.4c0.6,0.6,1.5,0.7,2.1,0.2c0.7-0.4,1-1.3,0.7-2c-0.2-0.7-0.5-2.4-0.1-3
										c0-0.1,0.1-0.2,0.5-0.3c4.3-0.7,5.2-4.3,5.2-7.3c0-2.8,0.6-5.8,1.3-8.4c0,0.1,0,0.2,0.1,0.3c1.1,4.3,2.4,6.1,4.3,6.1
										c1.9,0,3.2-1.8,4.3-6.1c0-0.1,0-0.2,0.1-0.3c0.7,2.6,1.3,5.6,1.3,8.4c0,5.4,2.8,6.9,5.2,7.3c0.4,0.1,0.5,0.2,0.5,0.3
										c0.4,0.6,0.2,2.2-0.1,3c-0.2,0.8,0.1,1.6,0.7,2c0.7,0.4,1.6,0.3,2.1-0.2c0,0,1.9-1.8,4.5-1.4c2.6,0.3,5.2,2.6,7.6,6.7
										c0.3,0.5,0.9,0.8,1.5,0.8c0.2,0,0.3,0,0.5-0.1c0.8-0.2,1.3-0.9,1.3-1.7c0-0.1-0.1-8.3,1.8-14.3c2.2-7,2.4-12.8,0.7-16.7
										c1.4-1.2,3.7-3.4,7.8-8c4.5-5,9.7-10.9,12.3-14C467.7,357.3,468.2,355,467.6,352.9z M437.3,355.4c6.9-2.3,12.9-3.6,17.7-4
										c-1.3,7.8-13.3,18.8-19,23.3c-6.4-3.4-12.4-6.3-16.5-7v-4.9C422,361.3,429.1,358,437.3,355.4z M412,361.8c0-1.1,0.9-2,2-2
										s2,0.9,2,2v7.4c0,1.1-0.9,2-2,2s-2-0.9-2-2V361.8z M408.5,362.7v4.9c-4.2,0.7-10.1,3.6-16.5,7c-5.7-4.5-17.7-15.5-19-23.3
										c4.8,0.3,10.8,1.7,17.7,4C398.9,358,406,361.3,408.5,362.7z M364.4,356.8c-0.7-0.8-0.9-1.8-0.6-2.9c0.3-1,1.1-1.7,2.1-2
										c1.1-0.3,2.3-0.5,3.7-0.5c0.5,4.8,4.2,10.8,11,17.6c3.1,3.2,6.2,5.9,8.2,7.5c-1.7,0.9-3.4,1.8-4.2,2.1
										C382.7,377.2,376.6,370.9,364.4,356.8z M402.6,399.2c-1.3,0.2-2.3,0.9-3,1.9c-0.4,0.7-0.6,1.4-0.7,2.2
										c-1.1-0.4-2.5-0.6-4.1-0.4c-2.5,0.3-4.9,1.7-7.1,4.1c-0.2-3-0.7-6.9-1.8-10.3c-2.8-8.7-1.5-12.9-0.6-14.7
										c0.9-0.3,2.2-0.9,4.5-2.2c0,2.4,0.4,5.8,2.1,8.9c3.1,5.7,8.7,8.2,12.7,8.4C404.2,398.9,403.2,399,402.6,399.2z
										 M404.9,393.6c-2.7-0.2-7.3-2-9.8-6.6c-1.9-3.5-1.8-7.5-1.6-9.2c5-2.7,11.5-6,15.5-6.7c0.1,0.3,0.3,0.6,0.4,0.9
										c-0.5,0.8-0.8,1.8-0.8,2.8v5.1C407.3,382.3,405.2,387.9,404.9,393.6z M416,380.4c0,1.8-1,6.7-2,8.7c-0.9-2.1-2-6.9-2-8.7
										v-5.6c0-0.2,0-0.3,0.1-0.5c0.6,0.2,1.2,0.3,1.9,0.3c0.7,0,1.3-0.1,1.9-0.3c0,0.2,0.1,0.3,0.1,0.5V380.4z M419.5,380v-5.1
										c0-1-0.3-2-0.8-2.8c0.2-0.3,0.3-0.6,0.4-0.9c3.9,0.7,10.4,4,15.5,6.7c0.2,1.7,0.3,5.7-1.6,9.2c-2.5,4.6-7.1,6.4-9.8,6.6
										C422.8,387.9,420.7,382.3,419.5,380z M442.1,396.6c-1.1,3.4-1.6,7.3-1.8,10.3c-2.2-2.4-4.6-3.8-7.1-4.1
										c-1.6-0.2-3,0-4.1,0.4c-0.1-0.8-0.3-1.5-0.7-2.2c-0.6-1-1.7-1.7-3-1.9c-0.7-0.1-1.7-0.3-2.1-2.1c3.9-0.2,9.6-2.7,12.7-8.4
										c1.7-3.2,2.1-6.5,2.1-8.9c2.3,1.2,3.7,1.9,4.5,2.2C443.7,383.7,444.9,387.9,442.1,396.6z M463.6,356.8
										c-12.2,14.2-18.3,20.5-20,21.8c-0.8-0.3-2.5-1.2-4.2-2.1c2-1.6,5-4.3,8.2-7.5c6.7-6.9,10.4-12.8,11-17.6
										c1.4,0.1,2.6,0.2,3.7,0.5c1,0.3,1.8,1,2.1,2C464.5,354.9,464.3,356,463.6,356.8z"/>
									<path d="M533.7,270.8l-7.3-4.9c-0.4-0.2-0.6-0.6-0.7-1.1l-1.1-8.4c-0.2-1.4-1-2.5-2.2-3.2l-3.7-1.9c-0.7-2.1-1.5-4.2-2.6-6
										c-1-1.7-2.8-2.8-4.7-2.8c0-0.1,0.1-0.3,0.1-0.4l2-0.7c1.5-0.5,2.6-1.8,2.8-3.4l1-8c0.1-0.5,0.3-0.9,0.8-1.1l11.3-6.3
										c0.6-0.4,0.9-1.2,0.5-1.8c-0.4-0.6-1.2-0.9-1.8-0.5l-11.3,6.3c-1.1,0.6-1.9,1.8-2.1,3.1l-1,8c-0.1,0.6-0.5,1-1,1.2
										l-1.5,0.5c-0.3-0.5-0.6-1-1.1-1.4c-1.1-0.9-2.2-1.6-3.4-2.2l-0.9-3.3c-0.3-1.1-1-2.1-1.8-2.8l3.9-4.9
										c0.5-0.6,1.2-1.2,1.9-1.5l12.6-6.3c0.6-0.3,0.9-1.1,0.6-1.8c-0.3-0.6-1.1-0.9-1.8-0.6l-12.6,6.3c-1.1,0.5-2,1.3-2.8,2.2
										l-4.3,5.4c-0.3-0.1-0.7-0.1-1.1-0.1h-2c-0.4,0-0.7,0-1.1,0.1l-4.3-5.4c-0.7-0.9-1.7-1.7-2.8-2.2l-12.6-6.3
										c-0.6-0.3-1.4-0.1-1.8,0.6c-0.3,0.6-0.1,1.4,0.6,1.8l12.6,6.3c0.7,0.4,1.4,0.9,1.9,1.5l3.9,4.9c-0.8,0.7-1.5,1.7-1.8,2.8
										l-0.9,3.3c-1.2,0.6-2.3,1.3-3.4,2.2c-0.5,0.4-0.9,0.9-1.1,1.4l-1.5-0.5c-0.5-0.2-0.9-0.7-1-1.2l-1-8
										c-0.2-1.3-0.9-2.4-2.1-3.1l-11.3-6.3c-0.6-0.4-1.4-0.1-1.8,0.5c-0.4,0.6-0.1,1.4,0.5,1.8l11.3,6.3c0.4,0.2,0.7,0.6,0.8,1.1
										l1,8c0.2,1.6,1.3,2.9,2.8,3.4l2,0.7c0,0.1,0.1,0.3,0.1,0.4c-2,0-3.8,1.1-4.7,2.8c-1.1,1.9-1.9,3.9-2.6,6l-3.7,1.9
										c-1.2,0.6-2.1,1.8-2.2,3.2l-1.1,8.4c-0.1,0.4-0.3,0.8-0.7,1.1l-7.3,4.9c-0.6,0.4-0.8,1.2-0.4,1.8c0.3,0.4,0.7,0.6,1.1,0.6
										c0.3,0,0.5-0.1,0.7-0.2l7.3-4.9c1-0.7,1.6-1.7,1.8-2.9l1.1-8.4c0.1-0.5,0.4-0.9,0.8-1.1l1.7-0.8c-0.5,2.4-0.7,4.8-0.7,7.3
										c0,2.5,0.2,4.9,0.7,7.3l-2.6,2.4c0,0,0,0,0,0c-0.7,0.7-0.9,1.6-0.7,2.5l2.5,11.1c0,0,0,0.1,0,0.1l-7.9,7.9
										c-0.5,0.5-0.5,1.3,0,1.9c0.3,0.3,0.6,0.4,0.9,0.4c0.3,0,0.7-0.1,0.9-0.4l7.9-7.9c0.7-0.7,0.9-1.6,0.7-2.5l-2.5-11.1
										c0,0,0-0.1,0-0.1l1.5-1.4c1,3.5,2.6,6.6,4.6,9.4c4,5.4,9.2,8.3,14.9,8.3c5.7,0,11-3,14.9-8.3c2-2.7,3.5-5.9,4.6-9.4
										l1.4,1.4c0,0,0,0,0,0.1l-2.5,11.1c-0.2,0.9,0.1,1.8,0.7,2.5l7.9,7.9c0.3,0.3,0.6,0.4,0.9,0.4c0.3,0,0.7-0.1,0.9-0.4
										c0.5-0.5,0.5-1.3,0-1.9l-7.9-7.9c0,0,0-0.1,0-0.1l2.5-11.1c0.2-0.9-0.1-1.8-0.7-2.5c0,0,0,0,0,0l-2.6-2.5
										c0.5-2.3,0.7-4.8,0.7-7.2c0-2.5-0.2-5-0.7-7.3l1.7,0.8c0.4,0.2,0.7,0.7,0.8,1.1l1.1,8.4c0.1,1.2,0.8,2.2,1.8,2.9l7.3,4.9
										c0.2,0.1,0.5,0.2,0.7,0.2c0.4,0,0.8-0.2,1.1-0.6C534.5,272,534.3,271.2,533.7,270.8z M495.6,233.3c0.3-1.2,1.5-2.1,2.8-2.1
										h2c1.3,0,2.4,0.9,2.8,2.1l0.4,1.4c-1.4-0.4-2.8-0.6-4.2-0.6c-1.4,0-2.8,0.2-4.2,0.6L495.6,233.3z M490.4,240.1
										c2.7-2.2,5.9-3.3,9-3.3s6.3,1.2,9,3.3c0.4,0.3,0.6,0.7,0.5,1.2c0,0.5-0.2,0.9-0.6,1.1c-2.7,1.9-5.8,2.9-9,2.9
										c-3.1,0-6.2-1-9-2.9c-0.4-0.3-0.6-0.7-0.6-1.1C489.8,240.9,490,240.4,490.4,240.1z M500.7,287.3v-35c0-0.7-0.6-1.3-1.3-1.3
										c-0.7,0-1.3,0.6-1.3,1.3v35c-9.5-0.9-17-11.9-17-25.2c0-5.6,1.3-11,3.8-15.4c0.5-0.9,1.5-1.4,2.5-1.4h2.4
										c3,1.8,6.2,2.8,9.6,2.8c3.3,0,6.6-1,9.6-2.8h2.4c1,0,2,0.5,2.5,1.4c2.5,4.5,3.8,9.8,3.8,15.4
										C517.7,275.4,510.2,286.3,500.7,287.3z"/>
									<g>
										<path d="M236.8,133c-2.3,0-4.1,1.8-4.1,4.1s1.8,4.1,4.1,4.1c2.3,0,4.1-1.8,4.1-4.1S239.1,133,236.8,133z M236.8,138.6
											c-0.8,0-1.5-0.7-1.5-1.5s0.7-1.5,1.5-1.5c0.8,0,1.5,0.7,1.5,1.5S237.6,138.6,236.8,138.6z"/>
										<path d="M235.4,144.2c-2.3,0-4.1,1.8-4.1,4.1c0,2.3,1.8,4.1,4.1,4.1c2.3,0,4.1-1.8,4.1-4.1
											C239.5,146.1,237.7,144.2,235.4,144.2z M235.4,149.8c-0.8,0-1.5-0.7-1.5-1.5c0-0.8,0.7-1.5,1.5-1.5c0.8,0,1.5,0.7,1.5,1.5
											C236.9,149.2,236.2,149.8,235.4,149.8z"/>
										<path d="M236.7,126c0-2.3-1.8-4.1-4.1-4.1c-2.3,0-4.1,1.8-4.1,4.1c0,2.3,1.8,4.1,4.1,4.1
											C234.9,130.1,236.7,128.2,236.7,126z M231.1,126c0-0.8,0.7-1.5,1.5-1.5c0.8,0,1.5,0.7,1.5,1.5s-0.7,1.5-1.5,1.5
											C231.8,127.4,231.1,126.8,231.1,126z"/>
										<path d="M257.7,137.1c0-2.3-1.8-4.1-4.1-4.1s-4.1,1.8-4.1,4.1s1.8,4.1,4.1,4.1S257.7,139.4,257.7,137.1z M252.1,137.1
											c0-0.8,0.7-1.5,1.5-1.5s1.5,0.7,1.5,1.5s-0.7,1.5-1.5,1.5S252.1,138,252.1,137.1z"/>
										<path d="M255,144.2c-2.3,0-4.1,1.8-4.1,4.1c0,2.3,1.8,4.1,4.1,4.1c2.3,0,4.1-1.8,4.1-4.1
											C259.1,146.1,257.2,144.2,255,144.2z M255,149.8c-0.8,0-1.5-0.7-1.5-1.5c0-0.8,0.7-1.5,1.5-1.5s1.5,0.7,1.5,1.5
											C256.5,149.2,255.8,149.8,255,149.8z"/>
										<path d="M257.8,121.8c-2.3,0-4.1,1.8-4.1,4.1c0,2.3,1.8,4.1,4.1,4.1s4.1-1.8,4.1-4.1C261.9,123.7,260,121.8,257.8,121.8z
											 M257.8,127.4c-0.8,0-1.5-0.7-1.5-1.5s0.7-1.5,1.5-1.5s1.5,0.7,1.5,1.5S258.6,127.4,257.8,127.4z"/>
										<path d="M285,143l-9.4-5.3l-3.4-10.2c-0.6-1.7-2.1-2.8-3.9-2.8h-0.8c-0.4-1.8-0.7-3.2-1-4.3c-0.2-0.8-0.6-1.4-1.2-1.9
											l2.5-2.1c0.6-0.5,1-1.1,1.2-1.8l3.7-11.1l7.6-1.3c0.7-0.1,1.2-0.8,1.1-1.5c-0.1-0.7-0.8-1.2-1.5-1.1l-8.4,1.4
											c-0.5,0.1-0.9,0.4-1,0.9l-4,11.9c-0.1,0.3-0.2,0.5-0.4,0.7l-3.4,3c-1.1-0.2-2.5-0.4-4-0.7l-3.2-4.2
											c-0.5-0.7-1.2-1.3-2-1.6l0.9-6.3c0.1-0.9,0-1.7-0.2-2.5c0,0,0.1,0,0.1-0.1l3.7-2.5c0.5-0.3,0.8-0.7,1.1-1.1l5.3-7.9
											c0.4-0.6,0.2-1.4-0.4-1.8c-0.6-0.4-1.4-0.2-1.8,0.4l-5.3,7.9c-0.1,0.2-0.2,0.3-0.4,0.4l-3.7,2.5c0,0,0,0-0.1,0
											c-0.6-0.6-1.3-1-2.1-1.3l-4.2-1.4c-0.8-0.3-1.8-0.3-2.6,0l-4.2,1.4c-0.8,0.3-1.5,0.7-2.1,1.3c0,0,0,0-0.1,0l-3.7-2.5
											c-0.2-0.1-0.3-0.2-0.4-0.4l-5.3-7.9c-0.4-0.6-1.2-0.8-1.8-0.4c-0.6,0.4-0.8,1.2-0.4,1.8l5.3,7.9c0.3,0.5,0.7,0.8,1.1,1.1
											l3.7,2.5c0,0,0.1,0.1,0.1,0.1c-0.3,0.8-0.3,1.6-0.2,2.5l0.9,6.3c-0.8,0.4-1.5,0.9-2,1.6l-3.2,4.2c-1.5,0.3-2.9,0.5-4,0.7
											l-3.4-3c-0.2-0.2-0.4-0.4-0.4-0.7l-4-11.9c-0.2-0.5-0.5-0.8-1-0.9l-8.4-1.4c-0.7-0.1-1.4,0.4-1.5,1.1
											c-0.1,0.7,0.4,1.4,1.1,1.5l7.6,1.3l3.7,11.1c0.2,0.7,0.7,1.3,1.2,1.8l2.5,2.1c-0.5,0.5-1,1.2-1.2,1.9
											c-0.3,1.1-0.7,2.6-1,4.3H222c-1.8,0-3.3,1.1-3.9,2.8l-3.4,10.2l-9.4,5.3c-0.6,0.4-0.8,1.2-0.5,1.8
											c0.2,0.4,0.7,0.7,1.1,0.7c0.2,0,0.4-0.1,0.6-0.2l9.8-5.6c0.3-0.2,0.5-0.4,0.6-0.7l3.6-10.7c0.2-0.6,0.8-1,1.4-1h0.3
											c-0.5,2.9-0.8,6.3-0.8,9.9c0,1.2,0.1,2.3,0.2,3.4l-1.8,1.8c-0.8,0.8-1.2,1.8-1.2,2.9v10.9l-8,8c-0.5,0.5-0.5,1.3,0,1.9
											c0.3,0.3,0.6,0.4,0.9,0.4s0.7-0.1,0.9-0.4l8.4-8.4c0.2-0.2,0.4-0.6,0.4-0.9v-11.4c0-0.4,0.2-0.8,0.4-1.1l0.6-0.6
											c1,3.9,3,7.4,5.7,10.2c4.3,4.5,10.4,6.9,17.1,6.9c6.7,0,12.8-2.5,17.1-6.9c2.8-2.8,4.7-6.4,5.7-10.2l0.6,0.6
											c0.3,0.3,0.4,0.7,0.4,1.1v11.4c0,0.3,0.1,0.7,0.4,0.9l8.4,8.4c0.3,0.3,0.6,0.4,0.9,0.4s0.7-0.1,0.9-0.4
											c0.5-0.5,0.5-1.3,0-1.9l-8-8v-10.9c0-1.1-0.4-2.1-1.2-2.9l-1.8-1.8c0.1-1.1,0.2-2.3,0.2-3.4c0-3.6-0.4-7-0.8-9.9h0.3
											c0.6,0,1.2,0.4,1.4,1l3.6,10.7c0.1,0.3,0.3,0.6,0.6,0.7l9.8,5.6c0.2,0.1,0.4,0.2,0.6,0.2c0.5,0,0.9-0.2,1.1-0.7
											C285.8,144.2,285.6,143.4,285,143z M240.5,100.9l4.2-1.4c0.3-0.1,0.6-0.1,0.9,0l4.2,1.4c1.3,0.4,2.1,1.8,1.9,3.1l-0.8,5.9
											c-1.4-0.3-2.9-0.6-4.4-0.7V105c0-0.7-0.6-1.3-1.3-1.3c-0.7,0-1.3,0.6-1.3,1.3v4.3c-1.5,0.1-3.1,0.4-4.4,0.7l-0.8-5.9
											C238.4,102.7,239.2,101.4,240.5,100.9z M237,113.9c0.4-0.5,1-0.9,1.6-1.1c1.5-0.4,4.3-1,6.6-1c2.3,0,5.1,0.6,6.6,1
											c0.6,0.2,1.2,0.5,1.6,1.1l1.6,2.1c-3.9-0.6-7.9-1.1-9.8-1.1c-1.9,0-5.9,0.5-9.8,1.1L237,113.9z M260.4,152.1
											c-3.6,3.7-8.5,5.8-13.9,6.1v-36.4c0-0.7-0.6-1.3-1.3-1.3s-1.3,0.6-1.3,1.3v36.4c-5.5-0.3-10.4-2.4-13.9-6.1
											c-3.8-3.9-5.8-9.2-5.8-14.9c0-7,1.4-13.1,2.2-16.1c0.2-0.6,0.6-1,1.2-1.1c3.3-0.6,14.4-2.5,17.7-2.5s14.4,1.9,17.7,2.5
											c0.6,0.1,1,0.5,1.2,1.1c0.8,3,2.2,9.1,2.2,16.1C266.3,142.9,264.2,148.2,260.4,152.1z"/>
									</g>
									<g>
										<path d="M147.6,270.5c-1.9-0.4-7.3-2-9.4-3.7c-0.4-0.3-0.5-0.5-0.5-0.6c0.1-0.1,0.2-0.3,0.4-0.4l0,0l-2-3.2
											c-0.2,0.1-2,1.3-2.1,3.4c-0.1,0.9,0.2,2.4,1.9,3.8c3.1,2.6,10.1,4.3,10.9,4.4c0.1,0,0.3,0,0.4,0c0.9,0,1.6-0.6,1.8-1.5
											C149.3,271.7,148.6,270.7,147.6,270.5z"/>
										<path d="M153.9,266.5l-6.1-2c-1-0.3-2.1,0.2-2.4,1.2c-0.3,1,0.2,2.1,1.2,2.4l6.1,2c0.2,0.1,0.4,0.1,0.6,0.1
											c0.8,0,1.5-0.5,1.8-1.3C155.4,267.9,154.9,266.8,153.9,266.5z"/>
										<path d="M226.1,229.9c0,0,0-0.1,0-0.1c0,0,0,0,0-0.1c0,0,0-0.1,0-0.1c0,0,0,0,0-0.1c0,0,0-0.1,0-0.1c0,0,0,0,0-0.1
											c0,0,0-0.1,0-0.1c0,0,0,0,0-0.1c0-0.1-0.1-0.2-0.2-0.4c0,0,0,0,0,0c0,0-0.1-0.1-0.1-0.1c0,0,0,0,0,0c0,0,0,0,0,0
											c0,0-0.1-0.1-0.1-0.1c0,0,0,0,0,0c0,0-0.1-0.1-0.1-0.1c0,0,0,0-0.1,0c0,0-0.1,0-0.1-0.1c0,0,0,0-0.1,0c0,0,0,0,0,0
											c0,0-0.1,0-0.1,0c0,0,0,0-0.1,0c0,0-0.1,0-0.1-0.1c0,0,0,0,0,0c-0.1,0-0.3-0.1-0.4-0.1c0,0,0,0,0,0c-0.1,0-0.1,0-0.2,0
											c0,0,0,0,0,0c-15,0-27.5,3.9-35.4,7.2c-7,2.9-12.4,6.2-15.1,8.3c-0.1-0.1-0.3-0.3-0.4-0.4c5.4-3.9,9-9.6,10.1-12.5
											c0.4-1-0.1-2.1-1.1-2.5s-2.1,0.1-2.5,1.1c-0.9,2.5-4.2,7.6-9.1,11c-1-2-1.4-4.4-1.4-6.3c0-1.1-0.9-1.9-1.9-1.9
											c-1.1,0-1.9,0.8-1.9,1.9c0,1.9-0.4,4.3-1.4,6.3c-4.9-3.4-8.1-8.5-9.1-11c-0.4-1-1.5-1.5-2.5-1.1c-1,0.4-1.5,1.5-1.1,2.5
											c1.1,3,4.7,8.6,10.1,12.6c-0.1,0.1-0.3,0.3-0.4,0.4c-2.8-2.1-8.1-5.4-15.1-8.3c-7.9-3.3-20.4-7.2-35.4-7.2c0,0,0,0,0,0
											c-0.1,0-0.1,0-0.2,0c0,0,0,0,0,0c-0.1,0-0.3,0-0.4,0.1c0,0,0,0-0.1,0c0,0-0.1,0-0.1,0.1c0,0,0,0-0.1,0c0,0-0.1,0-0.1,0
											c0,0,0,0,0,0c0,0,0,0-0.1,0c0,0-0.1,0-0.1,0.1c0,0,0,0-0.1,0c0,0-0.1,0.1-0.1,0.1c0,0,0,0,0,0c0,0-0.1,0.1-0.1,0.1
											c0,0,0,0,0,0c0,0,0,0,0,0c0,0-0.1,0.1-0.1,0.1c0,0,0,0,0,0c-0.1,0.1-0.1,0.2-0.2,0.4c0,0,0,0,0,0.1c0,0,0,0.1,0,0.1
											c0,0,0,0,0,0.1c0,0,0,0.1,0,0.1c0,0,0,0,0,0.1c0,0,0,0.1,0,0.1c0,0,0,0,0,0.1c0,0,0,0.1,0,0.1c0,0,0,0,0,0.1
											c0,0.1,0,0.1,0,0.2c0,0,0,0,0,0c0,0,0,0,0,0c0,0,0,0,0,0c0.1,0.5,1.6,7.5,4.7,14.5c3.6,8.4,7.8,13.4,12.4,14.9
											c-1.4,2.5-2.8,6.2-0.6,9.7c4.2,6.7,16.4,10.7,21.8,11c0.2,0,0.4,0,0.5,0c3.3,0,6.7-1.6,9.8-4.7c1.6-1.6,3.1-3.5,4.2-5.4
											c0.3,3.3,1.3,8.8,4.5,11.6c0,0,0,0,0,0c0,0,0,0,0,0c0,0,0.1,0,0.1,0.1c0,0,0,0,0.1,0c0.1,0,0.1,0.1,0.2,0.1c0,0,0,0,0,0
											c0,0,0.1,0,0.1,0.1c0,0,0,0,0.1,0c0,0,0.1,0,0.1,0c0,0,0,0,0.1,0c0,0,0.1,0,0.1,0c0,0,0,0,0.1,0c0,0,0.1,0,0.1,0
											c0,0,0,0,0,0c0.1,0,0.1,0,0.2,0c0,0,0,0,0,0s0,0,0,0c0.1,0,0.1,0,0.2,0c0,0,0,0,0,0c0,0,0.1,0,0.1,0c0,0,0,0,0.1,0
											c0,0,0.1,0,0.1,0c0,0,0,0,0.1,0c0,0,0.1,0,0.1,0c0,0,0,0,0.1,0c0,0,0.1,0,0.1-0.1c0,0,0,0,0,0c0.1,0,0.1-0.1,0.2-0.1
											c0,0,0,0,0,0c0,0,0.1,0,0.1-0.1c0,0,0,0,0,0c0,0,0,0,0,0c3.2-2.8,4.2-8.3,4.5-11.6c1.1,1.9,2.6,3.9,4.2,5.4
											c3.1,3.1,6.5,4.7,9.8,4.7c0.2,0,0.4,0,0.5,0c5.4-0.3,17.6-4.3,21.8-11c2.2-3.5,0.8-7.2-0.6-9.7c4.6-1.5,8.8-6.5,12.4-14.9
											c3-7,4.5-14,4.7-14.5c0,0,0,0,0,0c0,0,0,0,0,0c0,0,0,0,0,0C226.1,230.1,226.1,230,226.1,229.9
											C226.1,229.9,226.1,229.9,226.1,229.9z M220.3,231.7c-2.6,2.8-7.4,6.9-14.7,8.3c-10.2,1.9-15.3,6.2-19.3,9.7
											c-3,2.6-5.2,4.4-8.6,4.5c-1.6-1.4-2.4-2.8-2.4-3c-0.1-0.2-0.2-0.4-0.4-0.5c0.3-0.8,0.5-1.7,0.5-2.6c0-0.4,0-0.8-0.1-1.2
											C179.3,243.7,196.6,232.8,220.3,231.7z M167.5,277.4c-1-1.7-1.7-4.2-2-7.2h4C169.2,273.1,168.5,275.7,167.5,277.4z
											 M164.2,266.4c-0.1-0.1-0.2-0.3-0.4-0.4c-0.3-0.3-0.5-0.7-0.5-1.2v-10.5c0.1,0.1,0.3,0.2,0.4,0.3c0.9,0.5,1.9,1.1,1.9,1.6
											c0,1,0.9,1.9,1.9,1.9h0c1,0,1.9-0.9,1.9-1.9c0-0.5,1-1.1,1.9-1.6c0.1-0.1,0.2-0.2,0.4-0.2v10.5c0,0.5-0.2,0.9-0.5,1.2
											c-0.1,0.1-0.3,0.3-0.4,0.4L164.2,266.4L164.2,266.4z M167.5,241.9c1.1,2,2.3,3.1,2.9,3.6c1.1,0.9,1.3,2,1.3,2.6
											c0,0.9-0.4,1.8-1.1,2.4c-0.1,0.1-0.2,0.2-0.3,0.3c-0.3,0.2-0.6,0.4-0.9,0.6c-0.6,0.3-1.2,0.7-1.8,1.2
											c-0.6-0.5-1.2-0.9-1.8-1.2c-0.4-0.3-0.8-0.5-1.1-0.7c-0.7-0.5-1.2-1.5-1.2-2.5c0-0.6,0.1-1.7,1.3-2.6
											C165.2,245,166.4,243.9,167.5,241.9z M159.6,246.9c-0.1,0.4-0.1,0.8-0.1,1.2c0,0.9,0.2,1.8,0.5,2.6
											c-0.2,0.2-0.3,0.3-0.4,0.5c0,0-0.8,1.5-2.4,3c-3.4,0-5.6-1.9-8.6-4.5c-4-3.4-9.1-7.7-19.3-9.7c-7.3-1.4-12.1-5.5-14.7-8.3
											C138.4,232.9,155.7,243.8,159.6,246.9z M114.7,237.1c3.2,2.7,7.7,5.5,13.9,6.6c9.2,1.8,13.7,5.5,17.5,8.8
											c1.7,1.5,3.4,2.9,5.4,3.9c-1.2,0.1-2.5,0-3.9-0.3c-7-1.5-9.7-1.1-12.8-0.6c-1.6,0.3-3.3,0.5-5.9,0.5c0,0,0,0,0,0
											C122.5,256.2,117.5,245.7,114.7,237.1z M147.3,276.5c-2.6-0.1-6.5-1.2-10-2.8c-4.2-1.9-7.3-4.2-8.7-6.5
											c-1.4-2.2,0-4.8,1.5-7.2c2.3-0.1,3.9-0.3,5.4-0.6c2.8-0.5,5.1-0.8,11.4,0.5c1.3,0.3,2.5,0.4,3.7,0.4c3.8,0,6.8-1.4,9-3.1
											v7.5c0,0.3,0,0.6,0.1,0.9C157.9,270.4,152.5,276.8,147.3,276.5z M206.4,267.2c-1.4,2.3-4.5,4.6-8.7,6.5
											c-3.5,1.6-7.4,2.7-10,2.8c-0.1,0-0.2,0-0.3,0c-5.1,0-10.3-6.2-12-10.8c0.1-0.3,0.1-0.6,0.1-0.9v-7.5
											c0.1,0,0.1,0.1,0.1,0.1c1.9,1.5,4.7,3,8.8,3c1.2,0,2.4-0.1,3.7-0.4c6.3-1.3,8.5-1,11.4-0.5c1.5,0.2,3.1,0.5,5.4,0.6
											C206.4,262.5,207.7,265.1,206.4,267.2z M206,256.2C206,256.2,206,256.2,206,256.2c-2.6,0-4.3-0.3-5.9-0.5
											c-3.1-0.5-5.8-0.9-12.8,0.6c-1.4,0.3-2.7,0.4-3.9,0.3c1.9-1,3.6-2.4,5.3-3.9c3.9-3.3,8.3-7.1,17.5-8.8
											c6.1-1.2,10.7-3.9,13.8-6.6c-0.6,1.9-1.4,4-2.3,6C213.3,254,208.9,256.2,206,256.2z"/>
										<path d="M198.9,262.6l-2,3.2l0,0c0.1,0.1,0.3,0.3,0.4,0.4c0,0.1-0.1,0.3-0.5,0.6c-2.1,1.7-7.5,3.2-9.4,3.7
											c-1,0.2-1.7,1.3-1.4,2.3c0.2,0.9,1,1.5,1.8,1.5c0.1,0,0.3,0,0.4,0c0.8-0.2,7.8-1.9,10.9-4.4c1.7-1.4,2-2.8,1.9-3.8
											C200.9,263.9,199.1,262.7,198.9,262.6z"/>
										<path d="M189.5,265.6c-0.3-1-1.4-1.5-2.4-1.2l-6.1,2c-1,0.3-1.5,1.4-1.2,2.4c0.3,0.8,1,1.3,1.8,1.3c0.2,0,0.4,0,0.6-0.1
											l6.1-2C189.3,267.7,189.9,266.6,189.5,265.6z"/>
									</g>
									<path d="M274,392.5l-7.6-6.3c-0.3-0.2-0.5-0.5-0.5-0.9l-1-6.2c-0.2-1.1-0.8-2.1-1.8-2.7l-3.2-2.1c-0.1-0.1-0.2-0.1-0.3-0.2
										l0.1-0.2c0.6-1.7,0.9-3.5,0.9-5.3v-2.2c0-1.3-0.6-2.5-1.6-3.3c-0.4-0.3-0.8-0.5-1.2-0.6c-0.1-1.4-0.4-2.7-0.9-4l4.1-4.1
										c0.6-0.6,1-1.4,1.1-2.2l1.2-7c0-0.2,0.1-0.4,0.2-0.5l3.9-6.5c0.4-0.6,0.2-1.4-0.4-1.8c-0.6-0.4-1.4-0.2-1.8,0.4l-3.9,6.5
										c-0.3,0.4-0.4,0.9-0.5,1.4l-1.2,7c-0.1,0.3-0.2,0.6-0.4,0.8l-3.4,3.4c-1.3-2-3-3.6-5-4.6c0.1-0.4,0.2-0.9,0.2-1.4
										c0-0.2,0-0.4,0-0.6l0.9-0.4c1.1-0.5,1.9-1.4,2.5-2.5l0.8-1.5c0.3-0.6,0.1-1.4-0.6-1.8c-0.6-0.3-1.4-0.1-1.8,0.6l-0.8,1.5
										c-0.3,0.6-0.7,1-1.3,1.3l-0.6,0.3c-1-1.5-2.7-2.5-4.6-2.5s-3.6,1-4.6,2.5l-0.6-0.3c-0.6-0.3-1-0.7-1.3-1.3l-0.8-1.5
										c-0.3-0.6-1.1-0.9-1.8-0.6c-0.6,0.3-0.9,1.1-0.6,1.8l0.8,1.5c0.5,1.1,1.4,1.9,2.5,2.5l0.9,0.4c0,0.2,0,0.4,0,0.6
										c0,0.5,0.1,0.9,0.2,1.4c-2,1-3.8,2.6-5,4.6l-3.4-3.4c-0.2-0.2-0.4-0.5-0.4-0.8l-1.2-7c-0.1-0.5-0.3-1-0.5-1.4l-3.9-6.5
										c-0.4-0.6-1.2-0.8-1.8-0.4c-0.6,0.4-0.8,1.2-0.4,1.8l3.9,6.5c0.1,0.2,0.2,0.3,0.2,0.5l1.2,7c0.1,0.8,0.5,1.6,1.1,2.2
										l4.1,4.1c-0.5,1.2-0.8,2.6-0.9,4c-0.4,0.1-0.8,0.3-1.2,0.6c-1,0.8-1.6,2-1.6,3.3v2.2c0,1.8,0.3,3.6,0.9,5.3l0.1,0.2
										c-0.1,0-0.2,0.1-0.3,0.2l-3.2,2.1c-0.9,0.6-1.6,1.6-1.8,2.7l-1,6.2c-0.1,0.4-0.2,0.7-0.5,0.9l-7.6,6.3
										c-0.6,0.5-0.6,1.3-0.2,1.8c0.3,0.3,0.6,0.5,1,0.5c0.3,0,0.6-0.1,0.8-0.3l7.6-6.3c0.8-0.6,1.3-1.5,1.4-2.5l1-6.2
										c0.1-0.4,0.3-0.8,0.6-1l2.9-1.9l0.3,1c0.5,1.4,0.7,2.9,0.7,4.5v2.4l-2.1,1.4c-1.4,0.9-2.1,2.5-1.8,4.2l2.4,13.3l-2.5,8.7
										c-0.2,0.6-0.3,1.3-0.3,1.9v2c0,0.7,0.6,1.3,1.3,1.3s1.3-0.6,1.3-1.3v-2c0-0.4,0.1-0.8,0.2-1.2l2.6-9c0.1-0.2,0.1-0.4,0-0.6
										l-2.5-13.6c-0.1-0.6,0.1-1.2,0.6-1.5l0.6-0.4v1.6c0,3.2,2.1,5.9,5.2,6.7c0,0,0,0,0,0c0.4,0.1,0.7,0.4,0.9,0.8l0.3,0.9
										c0.5,1.6,1.8,2.9,3.5,3.5c0.8,0.3,1.7,0.4,2.6,0.4c0.9,0,1.8-0.1,2.6-0.4l0,0c1.6-0.5,2.9-1.8,3.5-3.5l0.3-0.9
										c0.1-0.4,0.5-0.7,0.9-0.8c0,0,0,0,0,0c3.1-0.8,5.2-3.5,5.2-6.7v-1.6l0.6,0.4c0.5,0.3,0.7,0.9,0.6,1.5l-2.5,13.6
										c0,0.2,0,0.4,0,0.6l2.6,9c0.1,0.4,0.2,0.8,0.2,1.2v2c0,0.7,0.6,1.3,1.3,1.3c0.7,0,1.3-0.6,1.3-1.3v-2
										c0-0.6-0.1-1.3-0.3-1.9l-2.5-8.7l2.4-13.3c0.3-1.6-0.4-3.2-1.8-4.2l-2.1-1.4V382c0-1.5,0.2-3,0.7-4.5l0.3-1l2.9,1.9
										c0.3,0.2,0.6,0.6,0.6,1l1,6.2c0.2,1,0.7,1.9,1.4,2.5l7.6,6.3c0.2,0.2,0.5,0.3,0.8,0.3c0.4,0,0.7-0.2,1-0.5
										C274.6,393.7,274.6,392.9,274,392.5z M242.3,350.1c0-1.6,1.3-2.9,2.9-2.9c1.6,0,2.9,1.3,2.9,2.9c0,0.1,0,0.3,0,0.4
										c-0.9-0.2-1.9-0.4-2.9-0.4s-1.9,0.1-2.9,0.4C242.3,350.4,242.3,350.2,242.3,350.1z M241.9,353.4
										C241.9,353.4,241.9,353.4,241.9,353.4c1-0.4,2.1-0.6,3.3-0.6c1.1,0,2.2,0.2,3.2,0.6c0,0,0,0,0,0c3.6,1.3,6.3,4.9,6.7,9.1
										l-5.8,1.7h-8l-5.8-1.7C235.7,358.3,238.3,354.8,241.9,353.4z M245.2,369.7c-0.2,0-1-0.1-1.4-0.9l-0.8-2h4.4l-0.8,2
										C246.2,369.6,245.4,369.7,245.2,369.7z M235.3,389.1v-4c0,0,0,0,0,0V382c0-1.8-0.3-3.6-0.9-5.3l-1.2-3.7
										c-0.5-1.4-0.7-2.9-0.7-4.5v-2.2c0-0.5,0.2-0.9,0.6-1.2c0.4-0.3,0.9-0.4,1.3-0.2l5.6,1.6l1.4,3.2c0.5,1.1,1.4,1.9,2.5,2.3
										v21.5h-4.3c-0.1,0-0.1,0-0.2,0c-0.3-0.1-0.5-0.2-0.8-0.3c0,0,0,0,0,0C236.6,392.8,235.3,391.1,235.3,389.1z M247,398.5
										c-1.2,0.4-2.4,0.4-3.6,0c-0.9-0.3-1.5-1-1.8-1.8l-0.2-0.5h7.6l-0.2,0.5C248.5,397.5,247.8,398.2,247,398.5z M257.1,373
										l-1.2,3.7c-0.6,1.7-0.9,3.5-0.9,5.3v3.1c0,0,0,0,0,0v4c0,2-1.3,3.7-3.2,4.2c0,0,0,0,0,0c-0.3,0.1-0.6,0.2-0.8,0.3
										c-0.1,0-0.1,0-0.2,0h-4.3v-21.5c1.1-0.4,2-1.2,2.5-2.3l1.4-3.2l5.6-1.6c0.5-0.1,0.9,0,1.3,0.2c0.4,0.3,0.6,0.7,0.6,1.2v2.2
										C257.9,370.1,257.6,371.6,257.1,373z"/>
									<path d="M95.8,398.6l-2.7-8c-0.1-0.2-0.1-0.4-0.2-0.7l-1.1-6.3c-0.1-0.8-0.6-1.5-1.3-1.9c-0.7-0.4-1.5-0.5-2.3-0.2
										l-1.5,0.5c-0.5-0.7-1.3-1.1-2.2-1.1h-0.1c0.5-0.5,1-1.1,1.3-1.9l2.7-0.9c0.9-0.3,1.6-1.1,1.8-2l2.4-10.6
										c0.2-0.9,0.3-1.8,0.3-2.7v-1.6c0-0.7-0.6-1.3-1.3-1.3s-1.3,0.6-1.3,1.3v1.6c0,0.7-0.1,1.4-0.2,2.1l-2.4,10.6
										c0,0,0,0.1-0.1,0.1l-2,0.7c-0.3-1.2-0.7-2.6-1-3.6c0.3-0.2,0.6-0.5,0.9-0.8c3-3.4,1.4-8.3,0.6-10.4l1.3-1.3
										c0.8-0.8,1.2-1.8,1.2-2.9v-10.9c0-1.5-0.4-3-1.2-4.3l-3.2-5.3c-0.4-0.6-1.2-0.8-1.8-0.4c-0.6,0.4-0.8,1.2-0.4,1.8l3.2,5.3
										c0.5,0.8,0.7,1.6,0.8,2.5h-2.9c-0.7,0-1.3,0.6-1.3,1.3c0,0.7,0.6,1.3,1.3,1.3h2.9v8.7c0,0.4-0.2,0.8-0.4,1.1l-1.8,1.8
										c-0.5,0.2-1.1,0.3-1.7,0.4l0.2-0.4c0.5-1,0.6-2.1,0.2-3.1l-1-3.1c-0.2-0.7-1-1.1-1.7-0.8c-0.7,0.2-1.1,1-0.8,1.7l1,3.1
										c0.1,0.4,0.1,0.8-0.1,1.1l-1,2c-0.6,0-1.2-0.1-1.6-0.3v-0.7c0-0.7-0.6-1.3-1.3-1.3s-1.3,0.6-1.3,1.3v0.7
										c-0.4,0.2-1,0.3-1.6,0.3l-1-2c-0.2-0.4-0.2-0.8-0.1-1.1l1-3.1c0.2-0.7-0.1-1.4-0.8-1.7c-0.7-0.2-1.4,0.1-1.7,0.8l-1,3.1
										c-0.3,1-0.3,2.2,0.2,3.1l0.2,0.5c-0.6-0.1-1.2-0.3-1.7-0.4l-1.8-1.8c-0.3-0.3-0.4-0.7-0.4-1.1v-8.7h2.9
										c0.7,0,1.3-0.6,1.3-1.3c0-0.7-0.6-1.3-1.3-1.3h-2.9c0.1-0.9,0.3-1.7,0.8-2.5l3.2-5.3c0.4-0.6,0.2-1.4-0.4-1.8
										c-0.6-0.4-1.4-0.2-1.8,0.4l-3.2,5.3c-0.8,1.3-1.2,2.8-1.2,4.3v10.9c0,1.1,0.4,2.1,1.2,2.9l1.3,1.3c-0.8,2-2.4,7,0.6,10.4
										c0.3,0.3,0.6,0.6,0.9,0.8c-0.3,0.9-0.7,2.4-1,3.6l-2-0.7c0,0-0.1,0-0.1-0.1L62.5,365c-0.2-0.7-0.2-1.4-0.2-2.1v-1.6
										c0-0.7-0.6-1.3-1.3-1.3c-0.7,0-1.3,0.6-1.3,1.3v1.6c0,0.9,0.1,1.8,0.3,2.7l2.4,10.6c0.2,0.9,0.9,1.7,1.8,2l2.7,0.9
										c0.3,0.8,0.8,1.4,1.3,1.9H68c-0.9,0-1.7,0.4-2.2,1.1l-1.5-0.5c-0.8-0.3-1.6-0.2-2.3,0.2c-0.7,0.4-1.1,1.1-1.3,1.9l-1.1,6.3
										c0,0.2-0.1,0.4-0.2,0.7l-2.7,8c-0.2,0.7,0.1,1.4,0.8,1.7c0.1,0,0.3,0.1,0.4,0.1c0.5,0,1.1-0.3,1.2-0.9l2.7-8
										c0.1-0.3,0.2-0.7,0.3-1l1.1-6.3c0,0,0,0,0-0.1c0,0,0.1,0,0.1,0l1.7,0.6v9.7l-1.4,1.4c-0.9,0.9-1.3,2.2-1.2,3.5l1.2,8.3v8.3
										c0,0.7,0.6,1.3,1.3,1.3c0.7,0,1.3-0.6,1.3-1.3v-8.4c0-0.1,0-0.1,0-0.2l-1.2-8.4c0-0.2,0-0.4,0-0.6
										c0.5,5.7,5.1,10.3,10.7,10.5c0.1,0,0.2,0,0.3,0c2.9,0,5.6-1.1,7.7-3.1c2-1.9,3.2-4.5,3.3-7.3c0,0.2,0,0.3,0,0.5l-1.2,8.4
										c0,0.1,0,0.1,0,0.2v8.4c0,0.7,0.6,1.3,1.3,1.3s1.3-0.6,1.3-1.3v-8.3l1.2-8.3c0.2-1.3-0.3-2.6-1.2-3.5l-1.4-1.4v-9.7
										l1.7-0.6c0,0,0,0,0.1,0c0,0,0,0,0,0.1l1.1,6.3c0.1,0.4,0.1,0.7,0.3,1l2.7,8c0.2,0.5,0.7,0.9,1.2,0.9c0.1,0,0.3,0,0.4-0.1
										C95.7,400.1,96,399.3,95.8,398.6z M68.1,365.1c0.2-0.9,0.4-1.7,0.7-2.3c0.7,0.2,1.5,0.4,2.5,0.5c2.2,0.3,4,0.2,5.2-0.5
										c1.2,0.6,2.9,0.8,5.2,0.5c0.9-0.1,1.8-0.3,2.5-0.5c0.2,0.6,0.5,1.4,0.7,2.3c0.4,2.2,0.1,3.9-0.9,5.1
										c-1.2,1.4-2.6,1-4.8,0.2c-0.9-0.3-1.8-0.7-2.6-0.7c0,0,0,0,0,0s0,0,0,0c-0.8,0-1.7,0.3-2.6,0.7c-2.2,0.8-3.6,1.2-4.8-0.2
										C67.9,369.1,67.6,367.4,68.1,365.1z M70.4,379.5c-0.7-0.6-1.1-1-1.1-1.4c0-0.5,0.5-2.5,1.1-4.4c1.6,0.1,3.2-0.4,4.3-0.8
										c0.7-0.2,1.3-0.5,1.7-0.5c0.4,0,1,0.3,1.7,0.5c1,0.4,2.4,0.9,3.8,0.9c0.2,0,0.4,0,0.5,0c0.6,1.9,1.1,3.9,1.1,4.4
										c0,0.4-0.4,0.8-1.1,1.4c-0.5,0.4-1,0.9-1.4,1.5h-0.6c-1.2,0-2.2,0.7-2.6,1.8c-0.2,0.6-0.8,1-1.4,1c-0.6,0-1.2-0.4-1.4-1
										c-0.4-1.1-1.4-1.8-2.6-1.8h-0.6C71.4,380.3,70.8,379.9,70.4,379.5z M82.3,403.7c-1.7,1.6-3.9,2.5-6.2,2.4
										c-4.5-0.1-8.2-4.1-8.2-8.9v-13.6c0,0,0,0,0,0v0c0,0,0-0.1,0.1-0.1h4.4c0,0,0.1,0,0.1,0c0.4,1.2,1.4,2.2,2.6,2.6v15.7
										c0,0.7,0.6,1.3,1.3,1.3s1.3-0.6,1.3-1.3v-15.7c1.2-0.4,2.2-1.3,2.6-2.6c0,0,0.1,0,0.1,0h4.4c0,0,0.1,0,0.1,0.1v0
										c0,0,0,0,0,0v14C84.8,400,83.9,402.1,82.3,403.7z"/>
									<path d="M378.4,139.1c0.5,0.1,1.1,0.2,1.6,0.2c1,0,1.9-0.3,2.7-0.8c2.5-1.7,2.9-5.7,3.2-8.5c0.1-0.7,0.1-1.3,0.2-1.8
										c0.1-0.3,0.5-1.3,3.8-2.5c0.6-0.2,1.3-0.4,1.9-0.6c-2.5,4.7-3.8,10-3.8,15.4c0,4.9,1.6,9.2,3.6,12.8
										c-2.6,0.6-7.5,2.2-8.1,5c-0.2,0.8-0.3,1.9-0.4,3c-0.2,1.4-0.3,3.1-0.6,4.3c-0.4,1.7-0.8,1.9-0.8,1.9
										c-0.6,0.1-0.9,0.6-0.8,1.2c0.1,0.6,0.6,0.9,1.2,0.8c2.3-0.4,2.7-4.3,3.1-8.1c0.1-1.1,0.2-2.1,0.4-2.8
										c0.1-0.3,0.5-1.3,3.8-2.5c1.1-0.4,2.3-0.7,3.4-1c1.1,1.6,2.3,3.2,3.6,4.6c0,0,0.1,0.1,0.1,0.1c0.6,0.6,1.1,1.2,1.6,1.6
										c5.3,5.1,11.6,8.6,16,8.7c0,0,0.1,0,0.1,0c0,0,0,0,0,0c0,0,0,0,0.1,0c4.3,0,10.8-3.5,16.1-8.7c0.5-0.5,1-1,1.5-1.6
										c0,0,0.1-0.1,0.1-0.1c1.3-1.5,2.5-3,3.6-4.6c3,0.7,6.9,2.2,7.2,3.5c0.1,0.7,0.3,1.7,0.4,2.8c0.4,3.8,0.8,7.7,3.1,8.1
										c0.6,0.1,1.1-0.3,1.2-0.8c0.1-0.6-0.3-1.1-0.8-1.2c0,0,0,0,0,0c0,0-0.4-0.2-0.8-1.9c-0.3-1.3-0.5-2.9-0.6-4.3
										c-0.1-1.1-0.2-2.2-0.4-3c-0.6-2.8-5.5-4.4-8.1-5c2-3.6,3.6-7.9,3.6-12.8c0-5.3-1.3-10.6-3.8-15.3c2.6,0.8,5.3,2,5.5,3.1
										c0.1,0.4,0.2,1,0.2,1.8c0.3,2.9,0.8,6.8,3.2,8.5c0.8,0.5,1.7,0.8,2.7,0.8c0.5,0,1.1-0.1,1.6-0.2c0.6-0.1,0.9-0.7,0.8-1.3
										s-0.7-0.9-1.3-0.8c0,0,0,0,0,0c-1.1,0.3-1.9,0.2-2.6-0.3c-1.7-1.2-2.1-4.7-2.4-7.1c-0.1-0.8-0.2-1.4-0.3-1.9
										c-0.6-3.2-7.2-4.8-9.1-5.2c-0.9-1.3-1.9-2.6-3-3.8V115c0-1.1-0.2-2.2-0.5-3.2c2.1-8.8,1.2-15.6,0-19.7
										c-1.3-4.6-3.2-7-3.3-7.1c-0.4-0.5-1-0.5-1.5-0.2c-0.3,0.3-0.5,0.7-0.4,1.1c1.7,7.3-2.1,16.8-3.2,19.3c-0.3,0-0.7,0-1,0
										h-15.8c-0.4,0-0.8,0-1.2,0c-1.1-2.6-4.9-12.1-3.2-19.4c0.1-0.5-0.1-1-0.6-1.2c-0.4-0.2-1-0.1-1.3,0.3
										c-0.1,0.1-1.9,2.6-3.2,7.2c-1.2,4.2-2.1,11,0.1,19.8c-0.3,1-0.4,1.9-0.4,2.9v3.8c-1.2,1.2-2.1,2.4-3,3.8
										c-1.7,0.3-8.6,2-9.3,5.3c-0.1,0.5-0.2,1.2-0.3,1.9c-0.3,2.3-0.7,5.9-2.4,7.1c-0.7,0.5-1.5,0.5-2.6,0.3
										c-0.6-0.1-1.1,0.2-1.3,0.8C377.4,138.4,377.8,139,378.4,139.1L378.4,139.1L378.4,139.1z M398.4,158.9l14.6-27.4V168
										c-4-0.6-9.7-4.3-13.5-8C399.1,159.7,398.8,159.3,398.4,158.9L398.4,158.9z M428.7,160c-4.5,4.4-9.8,7.5-13.7,8v-36.5
										l14.6,27.4C429.3,159.3,429,159.7,428.7,160L428.7,160z M438,140.5c0,7.1-3.6,13-6.8,16.8l-15.7-29.5l15.1-7.3
										C435.3,125.7,438,132.9,438,140.5z M428.7,90.9c1.4,3.8,2.6,9.9,1.1,18c-1.2-1.6-2.8-2.7-4.7-3.3
										C426.1,103.1,428.5,97,428.7,90.9L428.7,90.9z M422,107.2c3.2,0,6,1.9,7.2,4.8c0,0.1,0.1,0.3,0.1,0.4
										c0.3,0.8,0.4,1.7,0.4,2.6v3.6l-15.7,7.6l-15.7-7.6V115c0-0.9,0.1-1.7,0.4-2.5c0,0,0,0,0,0c1.1-3.1,4-5.2,7.4-5.2H422z
										 M398.7,92.9c0.2-0.7,0.4-1.3,0.6-1.8c0.3,6.1,2.6,12.2,3.6,14.6c-1.9,0.7-3.5,1.9-4.6,3.4
										C396.9,101.9,397.7,96.4,398.7,92.9L398.7,92.9z M397.5,120.5l15.1,7.3l-15.7,29.4c-3.2-3.9-6.8-9.7-6.8-16.8
										C390.1,132.9,392.8,125.7,397.5,120.5L397.5,120.5z"/>
									<path d="M109.9,143.8c-0.5-0.1-2.5-0.9-4.3-1.6l-7.1-12.4c-0.2-0.3-0.5-0.5-0.9-0.5H92c0,0,0,0,0,0l0.2-3.2
										c0,0,0-0.1,0-0.1c0-5.9-3.3-11.4-8.6-14.1c2.4-1,3.9-3.4,3.9-6v-5.1c0-2.8-1.8-5.3-4.5-6.2c-0.2-1.6-0.9-3.1-2.1-4.2
										c4.7-0.5,11.3-1.7,13.3-4.7c0.3-0.5,0.2-1.1-0.3-1.5s-1.1-0.2-1.5,0.3c-1,1.5-4.2,2.7-9.1,3.5c-2.4,0.3-4.7,0.6-7.1,0.6
										c-2.4-0.1-4.7-0.3-7.1-0.6c-4.9-0.7-8.1-2-9.1-3.5c-0.3-0.5-1-0.6-1.5-0.3c-0.5,0.3-0.6,1-0.3,1.5c0,0,0,0,0,0
										c2,3.1,8.6,4.3,13.3,4.7c-1.2,1.1-1.9,2.6-2.1,4.2c-2.7,0.9-4.5,3.4-4.5,6.2v5.1c0,2.6,1.5,5,3.9,6
										c-5.3,2.7-8.6,8.2-8.6,14.1c0,0,0,0.1,0,0.1l0.2,3.2c0,0,0,0,0,0h-5.6c-0.4,0-0.7,0.2-0.9,0.5l-7.1,12.4
										c-1.8,0.8-3.8,1.6-4.3,1.6c-0.6,0-1,0.5-1,1.1c0,0.6,0.5,1,1.1,1c0.9,0,3.8-1.2,5.4-2c0.2-0.1,0.4-0.2,0.5-0.4l7-12.1h5
										c0.1,0,0.1,0,0.2,0l1,14.4c0,0,0,0,0,0l-5.8,5.6c-0.1,0.1-0.2,0.3-0.3,0.5l-3.2,13.9c-2.2,1.3-4.9,2.7-5.5,2.8
										c-0.6,0.1-1,0.6-0.9,1.2c0.1,0.5,0.5,0.9,1,0.9c0.1,0,0.1,0,0.2,0c1.3-0.2,5.4-2.5,6.6-3.2c0.2-0.1,0.4-0.4,0.5-0.7l3.3-14
										l4.4-4.2l0.1,1.2c0,4.3,1.3,8.2,3.8,11.1c2.6,3.1,6.2,4.7,10.4,4.7c4.2,0,7.8-1.6,10.4-4.7c2.4-2.9,3.7-6.8,3.8-11.1
										l0.1-1.2l4.4,4.2l3.3,14c0.1,0.3,0.2,0.5,0.5,0.7c1.2,0.7,5.3,3,6.6,3.2c0.1,0,0.1,0,0.2,0c0.6,0,1-0.5,1-1
										c0-0.5-0.4-1-0.9-1c-0.6-0.1-3.2-1.5-5.5-2.8L97,151.9c0-0.2-0.1-0.4-0.3-0.5l-5.8-5.6c0,0,0,0,0,0l1-14.4
										c0.1,0,0.1,0,0.2,0h5l7,12.1c0.1,0.2,0.3,0.3,0.5,0.4c1.6,0.7,4.5,2,5.4,2c0.6,0,1-0.5,1-1.1
										C111,144.3,110.5,143.8,109.9,143.8L109.9,143.8z M76.4,90.8c2.2,0,4,1.5,4.5,3.6h-9.1C72.3,92.2,74.2,90.7,76.4,90.8
										L76.4,90.8z M71.6,110.4c-2.4,0-4.3-2.1-4.3-4.5v-5.1c0-2.4,1.9-4.3,4.3-4.4c0,0,0,0,0,0h9.5c2.4,0,4.3,1.9,4.3,4.3
										c0,0,0,0,0,0v5.1c0,2.4-1.9,4.5-4.3,4.5h-2.3c-0.8-0.2-1.6-0.2-2.5-0.2c-0.8,0-1.7,0-2.5,0.2H71.6z M64.3,149.6
										C64.3,149.5,64.3,149.5,64.3,149.6L62.6,126c0-6.7,4.9-12.4,11.5-13.5h1.2v50.8C68.8,162.8,64.3,157.3,64.3,149.6z
										 M88.5,149.6c0,7.7-4.5,13.2-11,13.7v-50.8h1.2c6.6,1.1,11.5,6.8,11.5,13.5L88.5,149.6C88.5,149.5,88.5,149.5,88.5,149.6z"
										/>
									<path d="M530.2,24.4l-6.1-8.5l-3.8-11.4c-0.4-1.1-1.4-1.9-2.6-1.9h-1c-0.5-0.9-1.4-1.5-2.5-1.6l-0.6-0.1
										c0.2-0.5,0.4-1.1,0.6-1.7l4.5-3.3c0.8-0.6,1.4-1.6,1.6-2.6l1.1-6.4c0,0,0,0,0,0c0-0.3,0.2-0.6,0.4-0.8l5.1-5.1
										c1-1,1.6-2.4,1.6-3.9v-1.1c0-0.7-0.6-1.3-1.3-1.3s-1.3,0.6-1.3,1.3v1.1c0,0.8-0.3,1.5-0.8,2l-5.1,5.1
										c-0.6,0.6-1,1.4-1.2,2.3l-1.1,6.4c-0.1,0.4-0.3,0.7-0.6,0.9l-2.6,1.9c-0.1-1.2-0.2-2.4-0.6-3.6c-0.8-3-2.2-5.4-2.5-5.8
										c-0.4-0.5-1.1-0.6-1.5-0.4c-0.4,0.1-0.7,0.2-1,0.3c-0.1-1.4-0.5-2.8-0.9-4l1.4-1.8c0,0,0.1,0,0.1,0l0.3,0.2
										c0.7,0.4,1.5,0.4,2.2,0.1c0.7-0.3,1.3-0.9,1.5-1.6l2.3-6.9c0.2-0.7-0.1-1.4-0.8-1.7c-0.7-0.2-1.4,0.1-1.7,0.8l-2.3,6.9
										c0,0,0,0,0,0.1c0,0-0.1,0-0.1,0l-0.3-0.2c-1.2-0.6-2.6-0.3-3.3,0.8l-0.6,0.7c-0.2-0.2-0.4-0.4-0.6-0.6c0-0.1,0-0.1,0-0.2
										c0-1.9-0.7-3.9-1.7-5.1c-0.5-0.5-1.3-0.6-1.9-0.1c-0.5,0.5-0.6,1.3-0.1,1.9c0.4,0.4,0.7,1.2,0.9,2.1
										c-0.3-0.1-0.7-0.1-1.1-0.1h-3.4c-0.4,0-0.7,0-1.1,0.1c0.2-0.9,0.6-1.7,0.9-2.1c0.5-0.5,0.5-1.4-0.1-1.9s-1.4-0.5-1.9,0.1
										c-1.1,1.1-1.7,3.1-1.7,5.1c0,0.1,0,0.1,0,0.2c-0.2,0.2-0.4,0.4-0.6,0.6l-0.6-0.7c-0.8-1-2.2-1.3-3.3-0.8l-0.3,0.2
										c0,0,0,0-0.1,0c0,0,0,0,0-0.1l-2.3-6.9c-0.2-0.7-1-1.1-1.7-0.8c-0.7,0.2-1.1,1-0.8,1.7l2.3,6.9c0.2,0.7,0.8,1.3,1.5,1.6
										c0.7,0.3,1.5,0.3,2.2-0.1l0.3-0.2c0,0,0.1,0,0.1,0l1.4,1.8c-0.4,1.2-0.8,2.5-0.9,4c-0.3,0-0.7-0.1-1-0.3
										c-0.5-0.2-1.2,0-1.5,0.4c-0.3,0.4-1.7,2.8-2.5,5.8c-0.3,1.2-0.5,2.4-0.6,3.6L484-6.3c-0.3-0.2-0.5-0.6-0.6-0.9l-1.1-6.4
										c-0.1-0.9-0.5-1.7-1.2-2.3l-5.1-5.1c-0.5-0.5-0.8-1.3-0.8-2v-1.1c0-0.7-0.6-1.3-1.3-1.3c-0.7,0-1.3,0.6-1.3,1.3v1.1
										c0,1.5,0.6,2.9,1.6,3.9l5.1,5.1c0.2,0.2,0.4,0.5,0.4,0.8c0,0,0,0,0,0l1.1,6.4c0.2,1,0.7,2,1.6,2.6l4.5,3.3
										c0.1,0.6,0.3,1.2,0.6,1.7L486.8,1c-1.1,0.1-2,0.8-2.5,1.6h-1c-1.2,0-2.2,0.7-2.6,1.9l-3.8,11.4l-6.1,8.5
										c-0.7,0.9-1,2-1,3.2v2.9c0,0.7,0.6,1.3,1.3,1.3c0.7,0,1.3-0.6,1.3-1.3v-2.9c0-0.6,0.2-1.2,0.5-1.7l6.2-8.7
										c0.1-0.1,0.1-0.2,0.2-0.3l3.9-11.6c0,0,0-0.1,0.1-0.1h0.6c0.1,0.6,0.5,1.2,0.9,1.6L485,7c0.2,0.2,0.2,0.4,0.2,0.6v8.2l-3,2
										c-0.7,0.5-1.1,1.2-1.2,2c-0.6,7.7-1.1,13.3-1.3,14.3c-0.3,0.6-1.3,2.5-4.8,9.6c-0.6,1.1-0.9,2.4-0.9,3.7v2.6
										c0,0.7,0.6,1.3,1.3,1.3c0.7,0,1.3-0.6,1.3-1.3v-2.6c0-0.9,0.2-1.7,0.6-2.5c2.8-5.6,4.6-9.2,4.8-9.6c0.2-0.3,0.3-0.6,0.9-7
										c0.3-3.3,0.6-6.9,0.7-8.4c0,0,0-0.1,0-0.1l1.6-1.1v7.3c0,7.5,2.6,12.2,4.7,14.8c1.9,2.4,5.1,4.7,7.8,4.7
										c1.1,0,2.1-0.4,2.8-1.1c0.7,0.7,1.7,1.1,2.8,1.1c2.7,0,5.9-2.4,7.8-4.7c2.1-2.6,4.7-7.3,4.7-14.8v-7.3l1.6,1.1
										c0,0,0,0,0,0.1c0.1,1.4,0.4,5.1,0.7,8.4c0.5,6.3,0.6,6.6,0.9,7c0.2,0.4,2,4,4.8,9.6c0.4,0.8,0.6,1.6,0.6,2.5v2.6
										c0,0.7,0.6,1.3,1.3,1.3s1.3-0.6,1.3-1.3v-2.6c0-1.3-0.3-2.5-0.9-3.7c-3.5-7.2-4.5-9.1-4.8-9.6c-0.2-1-0.7-6.7-1.3-14.3
										c-0.1-0.8-0.5-1.6-1.2-2l-3-2V7.6c0-0.2,0.1-0.4,0.2-0.6l0.1-0.1c0.5-0.5,0.8-1,0.9-1.6h0.6c0,0,0.1,0,0.1,0.1l3.9,11.6
										c0,0.1,0.1,0.2,0.2,0.3L528,26c0.4,0.5,0.5,1.1,0.5,1.7v2.9c0,0.7,0.6,1.3,1.3,1.3c0.7,0,1.3-0.6,1.3-1.3v-2.9
										C531.2,26.5,530.8,25.4,530.2,24.4z M502.2-20c1.1,0,2.2,0.7,2.6,1.7c0.5,1,1,2.5,1.2,4c-0.2-0.1-0.4-0.1-0.6-0.2
										c-1.4-0.5-2.9-1.1-5-1.1c0,0,0,0,0,0s0,0,0,0c-2,0-3.6,0.6-5,1.1c-0.2,0.1-0.4,0.1-0.6,0.2c0.2-1.5,0.8-3,1.2-4
										c0.5-1,1.5-1.7,2.6-1.7L502.2-20L502.2-20z M491.3-11.3c1.9,0.4,3.5-0.2,5.1-0.7c1.2-0.5,2.5-0.9,4.1-0.9
										c1.6,0,2.8,0.5,4.1,0.9c1.6,0.6,3.2,1.2,5.1,0.7c1,2,3.5,7.5,1.1,11.9L509,0.3c-2.8-0.4-5.7-0.5-8.5-0.5S494.8,0,492,0.3
										l-1.8,0.2C487.8-3.8,490.3-9.4,491.3-11.3z M503,2.5c-0.5,0.9-1.5,1.5-2.5,1.5c-1.1,0-2-0.6-2.5-1.5c0.8,0,1.7-0.1,2.5-0.1
										C501.3,2.4,502.2,2.4,503,2.5z M513.2,26.3c0,6.7-2.2,10.8-4.1,13.1c-2.3,2.8-4.7,3.8-5.8,3.8c-0.8,0-1.5-0.7-1.5-1.5V10.9
										c0-0.7-0.6-1.3-1.3-1.3c-0.7,0-1.3,0.6-1.3,1.3v30.8c0,0,0,0,0,0c0,0,0,0,0,0c0,0.8-0.7,1.5-1.5,1.5c-1.1,0-3.5-1-5.8-3.8
										c-1.9-2.3-4.1-6.4-4.1-13.1V7.6c0-0.9-0.4-1.8-1-2.5L486.7,5c-0.2-0.2-0.2-0.4-0.2-0.6c0-0.4,0.3-0.8,0.7-0.8l5.1-0.6
										c1-0.1,1.9-0.2,2.9-0.3c0.7,2.3,2.8,4,5.3,4c2.5,0,4.6-1.7,5.3-4c1,0.1,1.9,0.2,2.9,0.3l5.1,0.6c0.4,0.1,0.7,0.4,0.7,0.8
										c0,0.2-0.1,0.4-0.2,0.6l-0.1,0.1c-0.7,0.7-1,1.5-1,2.5L513.2,26.3L513.2,26.3z"/>
									<path d="M378.5,240.4c-1.4-1.3-3.7-1.9-7.4-1.9c-4.3,0-7.4,1.4-10.1,2.6c-2.1,1-4,1.8-6,1.8h-4.6l2.6-3.5l7.1-4.3
										c0.7-0.4,0.9-1.2,0.5-1.9c-0.4-0.7-1.2-0.9-1.9-0.5l-7.3,4.4c-0.2,0.1-0.3,0.2-0.4,0.4l-4,5.3h-2c-0.1-0.1-0.1-0.2-0.2-0.3
										c1.3-3.9-0.6-5.7-1.9-6.9c-0.5-0.5-0.9-0.8-1-1.1l1.8-1.2c1-0.7,2.1-1,3.3-1h6.6c0.8,0,1.4-0.6,1.4-1.4
										c0-0.8-0.6-1.4-1.4-1.4h-6.6c-1.7,0-3.4,0.5-4.8,1.5l-2.2,1.5h-5l-2.2-1.5c-1.4-1-3.1-1.5-4.8-1.5h-6.6
										c-0.8,0-1.4,0.6-1.4,1.4s0.6,1.4,1.4,1.4h6.6c1.2,0,2.3,0.3,3.3,1l1.8,1.2c-0.2,0.3-0.5,0.6-1,1.1c-1.3,1.2-3.2,3-1.9,6.9
										c-0.1,0.1-0.1,0.2-0.2,0.3h-2l-4-5.3c-0.1-0.1-0.2-0.3-0.4-0.4l-7.3-4.4c-0.7-0.4-1.5-0.2-1.9,0.5
										c-0.4,0.7-0.2,1.5,0.5,1.9l7.1,4.3l2.6,3.5h-4.6c-2,0-3.9-0.8-6-1.8c-2.7-1.2-5.8-2.6-10.1-2.6c-3.7,0-6,0.6-7.4,1.9
										c-1.3,1.3-1.3,2.9-1.3,3.8c0,2,3.4,4.5,4.8,5.4c1.4,1,5.1,3.3,8.3,3.3c0,0,0.1,0,0.1,0c0.2,1.1,0.6,2.1,1.4,2.9
										c1.4,1.5,3.5,2.2,5.6,2.6c0.1,0,0.1,0,0.2,0c1.8,0.3,3.5,0.3,4.7,0.3c0.3,0,0.5,0,0.7,0l-3.7,9.9c-0.3,0.7,0.1,1.5,0.8,1.8
										c0.2,0.1,0.3,0.1,0.5,0.1c0.6,0,1.1-0.3,1.3-0.9l4.3-11.5c1.9-1,3.3-2.9,4.5-4.6c0.5-0.7,1-1.4,1.5-2
										c0.3,0.6,0.7,1.1,1.2,1.6c-1.9,1.9-3.5,4.6-4.4,7.5l-3.4,3.1c-0.2,0.2-0.4,0.5-0.4,0.8l-1.5,10.3c0,0.2,0,0.4,0,0.6
										l2.3,8.1c0.3,1.2,0.3,2.4-0.1,3.5l-0.7,2.2c-0.2,0.7,0.1,1.5,0.9,1.7c0.1,0,0.3,0.1,0.4,0.1c0.6,0,1.1-0.4,1.3-0.9l0.7-2.2
										c0.6-1.7,0.6-3.5,0.1-5.1l-2.2-7.8l1.4-9.5l0.3-0.3c0,0.4,0,0.7,0,1.1c0,7.2,5.2,13.1,11.6,13.1c6.4,0,11.6-5.9,11.6-13.1
										c0-0.4,0-0.7,0-1.1l0.3,0.3l1.4,9.5l-2.2,7.8c-0.5,1.7-0.4,3.5,0.1,5.1l0.7,2.2c0.2,0.6,0.7,0.9,1.3,0.9
										c0.1,0,0.3,0,0.4-0.1c0.7-0.2,1.1-1,0.9-1.7l-0.7-2.2c-0.4-1.1-0.4-2.4-0.1-3.5l2.3-8.1c0.1-0.2,0.1-0.4,0-0.6l-1.5-10.3
										c0-0.3-0.2-0.6-0.4-0.8l-3.4-3.1c-0.9-2.9-2.5-5.6-4.4-7.5c0.5-0.5,0.9-1,1.2-1.6c0.5,0.6,1,1.3,1.5,2
										c1.2,1.7,2.6,3.7,4.5,4.6l4.3,11.5c0.2,0.6,0.7,0.9,1.3,0.9c0.2,0,0.3,0,0.5-0.1c0.7-0.3,1.1-1.1,0.8-1.8l-3.7-9.9
										c0.2,0,0.5,0,0.7,0c1.2,0,3,0,4.7-0.3c0.1,0,0.1,0,0.2,0c2.1-0.4,4.2-1.1,5.6-2.6c0.8-0.8,1.2-1.8,1.4-2.9c0,0,0.1,0,0.1,0
										c3.1,0,6.8-2.3,8.3-3.3c1.4-1,4.8-3.5,4.8-5.4C379.8,243.3,379.8,241.7,378.5,240.4z M343.3,247.2l-0.2,0
										c-0.7,0-1.2,0.5-1.3,1.2c-0.1,0.6,0.3,1.2,0.8,1.4c-0.3,0.7-0.8,1.3-1.4,1.8h-7.8c-0.6-0.5-1.1-1.1-1.4-1.8
										c0.5-0.2,0.9-0.8,0.8-1.4c-0.1-0.7-0.6-1.2-1.3-1.2l-0.2,0c0,0,0-0.1,0-0.1c0-0.5,0.1-1.1,0.2-1.6h1.4
										c0.8,0,1.4-0.6,1.4-1.4c0-0.7-0.5-1.2-1.1-1.3c1.1-1,2.5-1.7,4.1-1.7s3.1,0.6,4.1,1.7c-0.6,0.1-1.1,0.7-1.1,1.3
										c0,0.8,0.6,1.4,1.4,1.4h1.4C343.2,246.1,343.3,246.6,343.3,247.2C343.3,247.2,343.3,247.2,343.3,247.2z M345.9,263.4h-17.2
										c0.2-1.1,0.5-2.1,0.9-3.2c0.1,0,0.2,0,0.3,0h14.7c0.1,0,0.2,0,0.3,0C345.4,261.3,345.7,262.3,345.9,263.4z M328.5,266.2
										C328.5,266.2,328.5,266.2,328.5,266.2C328.5,266.1,328.5,266.1,328.5,266.2l17.7-0.1c0,0,0.1,0,0.1,0c0,0,0,0.1,0,0.1
										c0,1.1-0.1,2.1-0.4,3h-17C328.6,268.3,328.5,267.3,328.5,266.2z M331.1,257.5c0.8-1.2,1.7-2.3,2.6-3.1h7.3
										c1,0.8,1.9,1.9,2.6,3.1H331.1z M333.7,237.7c0.7-0.6,1.5-1.4,1.8-2.4h3.6c0.4,1,1.2,1.8,1.8,2.4c0.8,0.8,1.4,1.3,1.5,2.4
										c-1.4-1-3.2-1.7-5.1-1.7s-3.7,0.6-5.1,1.7C332.3,239.1,332.9,238.5,333.7,237.7z M298.1,242.4c0.6-0.5,2-1.2,5.5-1.2
										c3.7,0,6.4,1.2,9,2.4c2.3,1,4.5,2,7.2,2h3c-0.3,0.1-0.5,0.2-0.8,0.4c-1.4,0.6-2.8,1.2-4.2,1.8c-2.1,0.3-3.9-0.6-5.9-1.6
										c-3.3-1.7-7-3.5-12.8-0.4c-0.8-0.7-1.3-1.3-1.4-1.6C297.6,243.3,297.7,242.8,298.1,242.4z M301.6,247.6
										c0,0-0.1-0.1-0.1-0.1c3.8-1.6,6.3-0.4,9.1,1c0.6,0.3,1.3,0.6,2,0.9c-1.6,0.4-3.1,0.7-4.6,0.7
										C306.4,250.2,304.1,249.2,301.6,247.6z M314.3,255.5c-1.1-0.3-2.2-0.8-2.8-1.5c-0.3-0.4-0.6-0.8-0.7-1.3
										c3.2-0.5,6.7-1.9,10-3.3c0.1,1.1-0.6,1.6-2.6,2.7C316.7,252.9,315,253.8,314.3,255.5z M326.1,252c-1.7,2.5-3,4.1-4.9,4.1
										c-0.1,0-0.3,0-0.4,0c-0.7,0-2,0-3.5-0.1c0.4-0.4,1.2-0.9,2.2-1.4c1.7-0.9,4.2-2.2,4.1-5l4.1,0.2
										C327.1,250.5,326.6,251.2,326.1,252z M326.6,247c0.7-0.3,1.4-0.6,2.1-0.8c0,0.3-0.1,0.6-0.1,0.9L326.6,247z M337.3,276.6
										c-3.1,0-5.8-1.8-7.4-4.6h14.8C343.1,274.8,340.4,276.6,337.3,276.6z M346.1,247.1c0-0.3,0-0.6-0.1-0.9
										c0.7,0.2,1.4,0.5,2.1,0.8L346.1,247.1z M353.9,256.1c-0.2,0-0.3,0-0.4,0c-1.9,0-3.2-1.6-4.9-4.1c-0.5-0.7-1.1-1.5-1.6-2.2
										l4.1-0.2c-0.1,2.7,2.4,4,4.1,5c1.1,0.6,1.8,1,2.2,1.4C356,256.1,354.6,256.1,353.9,256.1z M363.2,254
										c-0.6,0.7-1.7,1.2-2.8,1.5c-0.7-1.7-2.4-2.6-3.9-3.4c-2-1.1-2.8-1.6-2.6-2.7c3.3,1.4,6.7,2.7,10,3.3
										C363.7,253.2,363.5,253.6,363.2,254z M366.7,250.2c-1.4,0-3-0.3-4.6-0.7c0.7-0.3,1.3-0.6,2-0.9c2.8-1.4,5.3-2.7,9.1-1
										c0,0-0.1,0.1-0.1,0.1C370.6,249.2,368.2,250.2,366.7,250.2z M375.7,245.7c-5.8-3.1-9.5-1.2-12.8,0.4c-2,1-3.8,1.9-5.9,1.6
										c-1.4-0.6-2.8-1.2-4.2-1.8c-0.3-0.1-0.6-0.2-0.8-0.4h3c2.6,0,4.8-1,7.2-2c2.6-1.2,5.3-2.4,9-2.4c3.5,0,4.9,0.6,5.5,1.2
										c0.4,0.4,0.5,1,0.5,1.7C376.9,244.4,376.5,245,375.7,245.7z"/>
									<path d="M33.8,270.8l-7.3-4.9c-0.4-0.2-0.6-0.6-0.7-1.1l-1.1-8.4c-0.2-1.4-1-2.5-2.2-3.2l-3.7-1.9c-0.7-2.1-1.5-4.2-2.6-6
										c-1-1.7-2.8-2.8-4.7-2.8c0-0.1,0.1-0.3,0.1-0.4l2-0.7c1.5-0.5,2.6-1.8,2.8-3.4l1-8c0.1-0.5,0.3-0.9,0.8-1.1l11.3-6.3
										c0.6-0.4,0.9-1.2,0.5-1.8c-0.4-0.6-1.2-0.9-1.8-0.5l-11.3,6.3c-1.1,0.6-1.9,1.8-2.1,3.1l-1,8c-0.1,0.6-0.5,1-1,1.2
										l-1.5,0.5c-0.3-0.5-0.6-1-1.1-1.4c-1.1-0.9-2.2-1.6-3.4-2.2l-0.9-3.3c-0.3-1.1-1-2.1-1.8-2.8l3.9-4.9
										c0.5-0.6,1.2-1.2,1.9-1.5l12.6-6.3c0.6-0.3,0.9-1.1,0.6-1.8c-0.3-0.6-1.1-0.9-1.8-0.6L8.7,221c-1.1,0.5-2,1.3-2.8,2.2
										l-4.3,5.4c-0.3-0.1-0.7-0.1-1.1-0.1h-2c-0.4,0-0.7,0-1.1,0.1l-4.3-5.4c-0.7-0.9-1.7-1.7-2.8-2.2l-12.6-6.3
										c-0.6-0.3-1.4-0.1-1.8,0.6c-0.3,0.6-0.1,1.4,0.6,1.8l12.6,6.3c0.7,0.4,1.4,0.9,1.9,1.5l3.9,4.9c-0.8,0.7-1.5,1.7-1.8,2.8
										l-0.9,3.3c-1.2,0.6-2.3,1.3-3.4,2.2c-0.5,0.4-0.9,0.9-1.1,1.4l-1.5-0.5c-0.5-0.2-0.9-0.7-1-1.2l-1-8
										c-0.2-1.3-0.9-2.4-2.1-3.1l-11.3-6.3c-0.6-0.4-1.4-0.1-1.8,0.5c-0.4,0.6-0.1,1.4,0.5,1.8l11.3,6.3c0.4,0.2,0.7,0.6,0.8,1.1
										l1,8c0.2,1.6,1.3,2.9,2.8,3.4l2,0.7c0,0.1,0.1,0.3,0.1,0.4c-2,0-3.8,1.1-4.7,2.8c-1.1,1.9-1.9,3.9-2.6,6l-3.7,1.9
										c-1.2,0.6-2.1,1.8-2.2,3.2l-1.1,8.4c-0.1,0.4-0.3,0.8-0.7,1.1l-7.3,4.9c-0.6,0.4-0.8,1.2-0.4,1.8c0.3,0.4,0.7,0.6,1.1,0.6
										c0.3,0,0.5-0.1,0.7-0.2l7.3-4.9c1-0.7,1.6-1.7,1.8-2.9l1.1-8.4c0.1-0.5,0.4-0.9,0.8-1.1l1.7-0.8c-0.5,2.4-0.7,4.8-0.7,7.3
										c0,2.5,0.2,4.9,0.7,7.3l-2.6,2.4c0,0,0,0,0,0c-0.7,0.7-0.9,1.6-0.7,2.5l2.5,11.1c0,0,0,0.1,0,0.1l-7.9,7.9
										c-0.5,0.5-0.5,1.3,0,1.9c0.3,0.3,0.6,0.4,0.9,0.4c0.3,0,0.7-0.1,0.9-0.4l7.9-7.9c0.7-0.7,0.9-1.6,0.7-2.5l-2.5-11.1
										c0,0,0-0.1,0-0.1l1.5-1.4c1,3.5,2.6,6.6,4.6,9.4c4,5.4,9.2,8.3,14.9,8.3s11-3,14.9-8.3c2-2.7,3.5-5.9,4.6-9.4l1.4,1.4
										c0,0,0,0,0,0.1L18,284.8c-0.2,0.9,0.1,1.8,0.7,2.5l7.9,7.9c0.3,0.3,0.6,0.4,0.9,0.4c0.3,0,0.7-0.1,0.9-0.4
										c0.5-0.5,0.5-1.3,0-1.9l-7.9-7.9c0,0,0-0.1,0-0.1l2.5-11.1c0.2-0.9-0.1-1.8-0.7-2.5c0,0,0,0,0,0l-2.6-2.5
										c0.5-2.3,0.7-4.8,0.7-7.2c0-2.5-0.2-5-0.7-7.3l1.7,0.8c0.4,0.2,0.7,0.7,0.8,1.1l1.1,8.4c0.1,1.2,0.8,2.2,1.8,2.9l7.3,4.9
										c0.2,0.1,0.5,0.2,0.7,0.2c0.4,0,0.8-0.2,1.1-0.6C34.6,272,34.4,271.2,33.8,270.8z M-4.3,233.3c0.3-1.2,1.5-2.1,2.8-2.1h2
										c1.3,0,2.4,0.9,2.8,2.1l0.4,1.4c-1.4-0.4-2.8-0.6-4.2-0.6s-2.8,0.2-4.2,0.6L-4.3,233.3z M-9.5,240.1c2.7-2.2,5.9-3.3,9-3.3
										s6.3,1.2,9,3.3c0.4,0.3,0.6,0.7,0.5,1.2c0,0.5-0.2,0.9-0.6,1.1c-2.7,1.9-5.8,2.9-9,2.9s-6.2-1-9-2.9
										c-0.4-0.3-0.6-0.7-0.6-1.1C-10.1,240.9-9.9,240.4-9.5,240.1z M0.8,287.3v-35c0-0.7-0.6-1.3-1.3-1.3s-1.3,0.6-1.3,1.3v35
										c-9.5-0.9-17-11.9-17-25.2c0-5.6,1.3-11,3.8-15.4c0.5-0.9,1.5-1.4,2.5-1.4h2.4c3,1.8,6.2,2.8,9.6,2.8s6.6-1,9.6-2.8h2.4
										c1,0,2,0.5,2.5,1.4c2.5,4.5,3.8,9.8,3.8,15.4C17.8,275.4,10.3,286.3,0.8,287.3z"/>
									<path d="M30.1,24.4L24,15.9L20.2,4.4c-0.4-1.1-1.4-1.9-2.6-1.9h-1c-0.5-0.9-1.4-1.5-2.5-1.6l-0.6-0.1
										c0.2-0.5,0.4-1.1,0.6-1.7l4.5-3.3c0.8-0.6,1.4-1.6,1.6-2.6l1.1-6.4c0,0,0,0,0,0c0-0.3,0.2-0.6,0.4-0.8l5.1-5.1
										c1-1,1.6-2.4,1.6-3.9v-1.1c0-0.7-0.6-1.3-1.3-1.3s-1.3,0.6-1.3,1.3v1.1c0,0.8-0.3,1.5-0.8,2l-5.1,5.1
										c-0.6,0.6-1,1.4-1.2,2.3l-1.1,6.4c-0.1,0.4-0.3,0.7-0.6,0.9l-2.6,1.9c-0.1-1.2-0.2-2.4-0.6-3.6c-0.8-3-2.2-5.4-2.5-5.8
										c-0.4-0.5-1.1-0.6-1.5-0.4c-0.4,0.1-0.7,0.2-1,0.3c-0.1-1.4-0.5-2.8-0.9-4l1.4-1.8c0,0,0.1,0,0.1,0l0.3,0.2
										c0.7,0.4,1.5,0.4,2.2,0.1c0.7-0.3,1.3-0.9,1.5-1.6l2.3-6.9c0.2-0.7-0.1-1.4-0.8-1.7c-0.7-0.2-1.4,0.1-1.7,0.8l-2.3,6.9
										c0,0,0,0,0,0.1c0,0-0.1,0-0.1,0L10.4-22c-1.2-0.6-2.6-0.3-3.3,0.8l-0.6,0.7c-0.2-0.2-0.4-0.4-0.6-0.6c0-0.1,0-0.1,0-0.2
										c0-1.9-0.7-3.9-1.7-5.1c-0.5-0.5-1.3-0.6-1.9-0.1c-0.5,0.5-0.6,1.3-0.1,1.9c0.4,0.4,0.7,1.2,0.9,2.1
										c-0.3-0.1-0.7-0.1-1.1-0.1h-3.4c-0.4,0-0.7,0-1.1,0.1c0.2-0.9,0.6-1.7,0.9-2.1c0.5-0.5,0.5-1.4-0.1-1.9s-1.4-0.5-1.9,0.1
										c-1.1,1.1-1.7,3.1-1.7,5.1c0,0.1,0,0.1,0,0.2c-0.2,0.2-0.4,0.4-0.6,0.6l-0.6-0.7c-0.8-1-2.2-1.3-3.3-0.8l-0.3,0.2
										c0,0,0,0-0.1,0c0,0,0,0,0-0.1l-2.3-6.9c-0.2-0.7-1-1.1-1.7-0.8c-0.7,0.2-1.1,1-0.8,1.7l2.3,6.9c0.2,0.7,0.8,1.3,1.5,1.6
										c0.7,0.3,1.5,0.3,2.2-0.1l0.3-0.2c0,0,0.1,0,0.1,0l1.4,1.8c-0.4,1.2-0.8,2.5-0.9,4c-0.3,0-0.7-0.1-1-0.3
										c-0.5-0.2-1.2,0-1.5,0.4c-0.3,0.4-1.7,2.8-2.5,5.8c-0.3,1.2-0.5,2.4-0.6,3.6l-2.6-1.9c-0.3-0.2-0.5-0.6-0.6-0.9l-1.1-6.4
										c-0.1-0.9-0.5-1.7-1.2-2.3L-24-21c-0.5-0.5-0.8-1.3-0.8-2v-1.1c0-0.7-0.6-1.3-1.3-1.3c-0.7,0-1.3,0.6-1.3,1.3v1.1
										c0,1.5,0.6,2.9,1.6,3.9l5.1,5.1c0.2,0.2,0.4,0.5,0.4,0.8c0,0,0,0,0,0l1.1,6.4c0.2,1,0.7,2,1.6,2.6l4.5,3.3
										c0.1,0.6,0.3,1.2,0.6,1.7L-13.2,1c-1.1,0.1-2,0.8-2.5,1.6h-1c-1.2,0-2.2,0.7-2.6,1.9l-3.8,11.4l-6.1,8.5
										c-0.7,0.9-1,2-1,3.2v2.9c0,0.7,0.6,1.3,1.3,1.3c0.7,0,1.3-0.6,1.3-1.3v-2.9c0-0.6,0.2-1.2,0.5-1.7l6.2-8.7
										c0.1-0.1,0.1-0.2,0.2-0.3l3.9-11.6c0,0,0-0.1,0.1-0.1h0.6c0.1,0.6,0.5,1.2,0.9,1.6l0.1,0.1c0.2,0.2,0.2,0.4,0.2,0.6v8.2
										l-3,2c-0.7,0.5-1.1,1.2-1.2,2c-0.6,7.7-1.1,13.3-1.3,14.3c-0.3,0.6-1.3,2.5-4.8,9.6c-0.6,1.1-0.9,2.4-0.9,3.7v2.6
										c0,0.7,0.6,1.3,1.3,1.3s1.3-0.6,1.3-1.3v-2.6c0-0.9,0.2-1.7,0.6-2.5c2.8-5.6,4.6-9.2,4.8-9.6c0.2-0.3,0.3-0.6,0.9-7
										c0.3-3.3,0.6-6.9,0.7-8.4c0,0,0-0.1,0-0.1l1.6-1.1v7.3c0,7.5,2.6,12.2,4.7,14.8c1.9,2.4,5.1,4.7,7.8,4.7
										c1.1,0,2.1-0.4,2.8-1.1c0.7,0.7,1.7,1.1,2.8,1.1c2.7,0,5.9-2.4,7.8-4.7c2.1-2.6,4.7-7.3,4.7-14.8v-7.3l1.6,1.1
										c0,0,0,0,0,0.1c0.1,1.4,0.4,5.1,0.7,8.4c0.5,6.3,0.6,6.6,0.9,7c0.2,0.4,2,4,4.8,9.6c0.4,0.8,0.6,1.6,0.6,2.5v2.6
										c0,0.7,0.6,1.3,1.3,1.3s1.3-0.6,1.3-1.3v-2.6c0-1.3-0.3-2.5-0.9-3.7c-3.5-7.2-4.5-9.1-4.8-9.6c-0.2-1-0.7-6.7-1.3-14.3
										c-0.1-0.8-0.5-1.6-1.2-2l-3-2V7.6c0-0.2,0.1-0.4,0.2-0.6l0.1-0.1c0.5-0.5,0.8-1,0.9-1.6h0.6c0,0,0.1,0,0.1,0.1l3.9,11.6
										c0,0.1,0.1,0.2,0.2,0.3l6.2,8.7c0.4,0.5,0.5,1.1,0.5,1.7v2.9c0,0.7,0.6,1.3,1.3,1.3s1.3-0.6,1.3-1.3v-2.9
										C31.1,26.5,30.8,25.4,30.1,24.4z M2.1-20c1.1,0,2.2,0.7,2.6,1.7c0.5,1,1,2.5,1.2,4c-0.2-0.1-0.4-0.1-0.6-0.2
										c-1.4-0.5-2.9-1.1-5-1.1c0,0,0,0,0,0c0,0,0,0,0,0c-2,0-3.6,0.6-5,1.1c-0.2,0.1-0.4,0.1-0.6,0.2c0.2-1.5,0.8-3,1.2-4
										c0.5-1,1.5-1.7,2.6-1.7L2.1-20L2.1-20z M-8.8-11.3c1.9,0.4,3.5-0.2,5.1-0.7c1.2-0.5,2.5-0.9,4.1-0.9c1.6,0,2.8,0.5,4.1,0.9
										c1.6,0.6,3.2,1.2,5.1,0.7c1,2,3.5,7.5,1.1,11.9L9,0.3C6.1,0,3.3-0.2,0.4-0.2S-5.3,0-8.1,0.3l-1.8,0.2
										C-12.3-3.8-9.8-9.4-8.8-11.3z M3,2.5C2.5,3.4,1.5,4,0.4,4c-1.1,0-2-0.6-2.5-1.5c0.8,0,1.7-0.1,2.5-0.1
										C1.3,2.4,2.1,2.4,3,2.5z M13.1,26.3c0,6.7-2.2,10.8-4.1,13.1c-2.3,2.8-4.7,3.8-5.8,3.8c-0.8,0-1.5-0.7-1.5-1.5V10.9
										c0-0.7-0.6-1.3-1.3-1.3s-1.3,0.6-1.3,1.3v30.8c0,0,0,0,0,0c0,0,0,0,0,0c0,0.8-0.7,1.5-1.5,1.5c-1.1,0-3.5-1-5.8-3.8
										c-1.9-2.3-4.1-6.4-4.1-13.1V7.6c0-0.9-0.4-1.8-1-2.5L-13.4,5c-0.2-0.2-0.2-0.4-0.2-0.6c0-0.4,0.3-0.8,0.7-0.8l5.1-0.6
										c1-0.1,1.9-0.2,2.9-0.3c0.7,2.3,2.8,4,5.3,4c2.5,0,4.6-1.7,5.3-4c1,0.1,1.9,0.2,2.9,0.3l5.1,0.6c0.4,0.1,0.7,0.4,0.7,0.8
										c0,0.2-0.1,0.4-0.2,0.6l-0.1,0.1c-0.7,0.7-1,1.5-1,2.5L13.1,26.3L13.1,26.3z"/>
									<path d="M190.8,524.8l-5.2-5.2v-3.7c0-1.1-0.3-2.1-0.7-3.1l-2.2-4.4c-0.2-0.4-0.7-0.7-1.2-0.7h-3c-0.5-2.2-2.4-3.9-4.8-4.2
										c0.4-1.1,0.6-2.4,0.7-3.7l6.5-5.2c0.3-0.2,0.5-0.6,0.5-1v-5.8c0-1.3,0.6-2.5,1.5-3.3l6.4-5.3c0.6-0.5,0.6-1.3,0.2-1.8
										c-0.5-0.6-1.3-0.6-1.8-0.2l-6.4,5.3c-1.6,1.3-2.5,3.3-2.5,5.3v5.1l-4.6,3.7c-0.1-0.5-0.2-1.1-0.4-1.6
										c-0.2-0.5-0.4-0.9-0.7-1.2c0.8-0.8,1.3-1.8,1.3-3c0-1.7-1-3.2-2.5-3.8l0.8-3c0.1-0.6,0.5-1.1,0.9-1.5l10.2-8.9
										c0.5-0.5,0.6-1.3,0.1-1.9c-0.5-0.5-1.3-0.6-1.9-0.1l-10.2,8.9c-0.8,0.7-1.4,1.7-1.7,2.8l-0.8,3.3h-3.5l-0.8-3.3
										c-0.3-1.1-0.9-2.1-1.7-2.8l-10.2-8.9c-0.5-0.5-1.4-0.4-1.9,0.1c-0.5,0.5-0.4,1.4,0.1,1.9l10.2,8.9c0.4,0.4,0.8,0.9,0.9,1.5
										l0.8,3c-1.5,0.6-2.5,2.1-2.5,3.8c0,1.2,0.5,2.3,1.3,3c-0.3,0.4-0.5,0.8-0.7,1.2c-0.2,0.5-0.3,1-0.4,1.6l-4.6-3.7v-5.1
										c0-2.1-0.9-4-2.5-5.3l-6.4-5.3c-0.6-0.5-1.4-0.4-1.8,0.2c-0.5,0.6-0.4,1.4,0.2,1.8l6.4,5.3c1,0.8,1.5,2,1.5,3.3v5.8
										c0,0.4,0.2,0.8,0.5,1l6.5,5.2c0.1,1.3,0.3,2.5,0.7,3.7c-2.3,0.3-4.2,1.9-4.8,4.2h-3c-0.5,0-1,0.3-1.2,0.7l-2.2,4.4
										c-0.5,1-0.7,2-0.7,3.1v3.7l-5.2,5.2c-0.5,0.5-0.5,1.3,0,1.9c0.3,0.3,0.6,0.4,0.9,0.4c0.3,0,0.7-0.1,0.9-0.4l5.6-5.6
										c0.2-0.2,0.4-0.6,0.4-0.9v-4.3c0-0.7,0.2-1.3,0.5-1.9l1.8-3.7h2.1v13.6l-3.9,5.2c-0.2,0.3-0.3,0.6-0.3,0.9l1.2,10.9
										c0.1,0.8-0.1,1.6-0.4,2.4l-3.5,6.9c-0.3,0.6-0.1,1.4,0.6,1.8c0.2,0.1,0.4,0.1,0.6,0.1c0.5,0,0.9-0.3,1.2-0.7l3.5-6.9
										c0.6-1.2,0.8-2.5,0.7-3.9l-1.2-10.4l1.5-2v1.7c0,6.1,5,11.1,11.1,11.1c6.1,0,11.1-5,11.1-11.1v-1.7l1.5,2l-1.2,10.4
										c-0.1,1.3,0.1,2.7,0.7,3.9l3.5,6.9c0.2,0.5,0.7,0.7,1.2,0.7c0.2,0,0.4,0,0.6-0.1c0.6-0.3,0.9-1.1,0.6-1.8l-3.5-6.9
										c-0.4-0.7-0.5-1.6-0.4-2.4l1.2-10.9c0-0.3-0.1-0.7-0.3-0.9l-3.9-5.2v-13.6h2.1l1.8,3.7c0.3,0.6,0.5,1.3,0.5,1.9v4.3
										c0,0.3,0.1,0.7,0.4,0.9l5.6,5.6c0.3,0.3,0.6,0.4,0.9,0.4c0.3,0,0.7-0.1,0.9-0.4C191.3,526.1,191.3,525.3,190.8,524.8z
										 M164.1,503.4c-0.6-1.2-0.9-2.7-0.9-4.3c0-1.2,0.2-2.3,0.5-3.3c0.2-0.6,0.8-1,1.4-1h4.7c0.6,0,1.2,0.4,1.4,1
										c0.3,1,0.5,2.1,0.5,3.3c0,1.6-0.3,3-0.9,4.3H164.1z M164.7,492.2c-0.8,0-1.5-0.7-1.5-1.5c0-0.8,0.7-1.5,1.5-1.5
										c0,0,0,0,0,0c0,0,0,0,0,0h1.5v3h-1.1H164.7z M170.3,489.2C170.3,489.2,170.3,489.2,170.3,489.2
										C170.3,489.2,170.3,489.2,170.3,489.2c0.8,0,1.5,0.7,1.5,1.5c0,0.8-0.7,1.5-1.5,1.5h-0.4h-1.1v-3H170.3z M159,529.9v-21
										c0-1.6,1.3-2.9,2.9-2.9h4.3v5.8h-2.9c-0.7,0-1.3,0.6-1.3,1.3c0,0.7,0.6,1.3,1.3,1.3h2.9v5.8h-2.9c-0.7,0-1.3,0.6-1.3,1.3
										c0,0.7,0.6,1.3,1.3,1.3h2.9v5.8h-2.9c-0.7,0-1.3,0.6-1.3,1.3c0,0.7,0.6,1.3,1.3,1.3h2.9v7.1
										C162.1,537.6,159,534.1,159,529.9z M175.9,529.9c0,4.2-3.1,7.7-7.2,8.4v-7.1h2.9c0.7,0,1.3-0.6,1.3-1.3
										c0-0.7-0.6-1.3-1.3-1.3h-2.9v-5.8h2.9c0.7,0,1.3-0.6,1.3-1.3c0-0.7-0.6-1.3-1.3-1.3h-2.9v-5.8h2.9c0.7,0,1.3-0.6,1.3-1.3
										c0-0.7-0.6-1.3-1.3-1.3h-2.9V506h2.8c0,0,0,0,0,0s0,0,0,0h1.4c1.6,0,2.9,1.3,2.9,2.9V529.9z"/>
									<path d="M384.4,502.5c-4.4-3.4-12.7-6.2-22.7-7.7c-9-1.4-17.9-1.4-22.7-0.2c0,0,0,0,0,0l-0.7-1c-0.7-0.9-1.6-1.5-2.6-1.9
										c0.4-2.4,2.6-7,8.2-8.8c0.9-0.3,1.4-1.3,1.1-2.2c-0.3-0.9-1.3-1.4-2.2-1.1c-4.5,1.5-7.3,4.4-8.9,7.3
										c-1.6-2.8-4.4-5.8-8.9-7.3c-0.9-0.3-1.9,0.2-2.2,1.1c-0.3,0.9,0.2,1.9,1.1,2.2c5.5,1.8,7.7,6.5,8.2,8.8
										c-1,0.4-1.9,1-2.6,1.9l-0.7,1c0,0,0,0,0,0c-4.8-1.3-13.7-1.2-22.7,0.2c-10.1,1.5-18.3,4.3-22.7,7.7
										c-2.7,2.1-4.1,4.5-4.1,7.1c0,6.2,8.6,9.4,16.1,12.2c3.7,1.4,7.6,2.8,9,4.2c0.7,0.7,1.6,2,2.6,3.5c2.8,4.1,6.6,9.8,13.2,12
										c1.7,0.6,3.7,0.9,5.6,0.9c3.2,0,6.3-0.7,8.2-2.1c2,1.3,5.1,2.1,8.2,2.1c1.9,0,3.9-0.3,5.6-0.9c6.6-2.2,10.4-7.9,13.2-12
										c1-1.5,1.9-2.8,2.6-3.5c1.4-1.4,5.2-2.8,9-4.2c7.6-2.8,16.1-6,16.1-12.2C388.5,507,387.1,504.6,384.4,502.5z M335.7,507.6
										c0,4.9,0,15.2-2,24.1c-2-8.8-2-19.1-2-24.1c0,0,0.1,0,0.1,0h3.8C335.6,507.6,335.7,507.6,335.7,507.6z M329.8,500.8
										c0-1.2,0.4-2.5,1.2-3.5l1.1-1.5c0.4-0.5,1-0.8,1.6-0.8s1.2,0.3,1.6,0.8l1.1,1.5c0.7,1,1.2,2.2,1.2,3.5v1.3c0,1.1-0.9,2-2,2
										h-3.8c-1.1,0-2-0.9-2-2V500.8z M324.1,538.8c0.2-6.2,1.8-10.6,3.1-13.3c0.4-0.9,0.1-1.9-0.8-2.4c-0.9-0.4-1.9-0.1-2.4,0.8
										c-1.5,2.9-3.2,7.6-3.5,14.1c-3.5-1.3-6.1-3.9-8.2-6.6c0.1-0.1,0.1-0.2,0.2-0.3c2.9-5.9,7-10.1,9.9-12.7
										c0.7-0.6,0.8-1.8,0.2-2.5c-0.6-0.7-1.8-0.8-2.5-0.2c-2.9,2.6-7,6.7-10,12.4c-0.2-0.2-0.3-0.5-0.5-0.7
										c-1.1-1.6-2.1-3.1-3.1-4.1c-0.7-0.7-1.8-1.4-3.1-2.1c3.3-3.5,8-6.7,13.9-9.5c0.9-0.4,1.3-1.5,0.8-2.4s-1.5-1.3-2.4-0.8
										c-6.7,3.2-12,6.9-15.7,11.1c0,0-0.1,0.1-0.1,0.1c-1.2-0.5-2.5-1-3.8-1.4c-2-0.7-4.2-1.6-6.2-2.4
										c7.6-6.6,18.9-10.1,25.1-11.6c1-0.2,1.5-1.2,1.3-2.1c-0.2-1-1.2-1.5-2.1-1.3c-6.7,1.6-19.1,5.4-27.3,13
										c-0.1,0.1-0.2,0.3-0.3,0.4c-2.5-1.4-4.3-3-4.3-4.8c0-1.4,0.9-2.9,2.7-4.3c8.5-6.6,32-9.4,41.5-7.5
										c-0.1,0.4-0.2,0.8-0.3,1.2c-1.2,0.1-2.7,0.2-4.3,0.5c-1,0.1-1.6,1-1.5,2c0.1,0.9,0.9,1.5,1.8,1.5c0.1,0,0.2,0,0.3,0
										c1.4-0.2,2.6-0.3,3.7-0.4c0.1,0.6,0.2,1.2,0.5,1.8c-0.3,0.1-0.7,0.2-1.1,0.4c-0.6,0.2-1.3,0.5-2.1,0.7
										c-0.9,0.3-1.4,1.4-1.1,2.3c0.3,0.7,0.9,1.2,1.7,1.2c0.2,0,0.4,0,0.6-0.1c0.8-0.3,1.4-0.5,2-0.7c0.5-0.2,0.9-0.3,1.3-0.5
										c0,0.8,0,1.7,0,2.6c-0.8,0.4-1.8,0.9-2.8,1.6c-0.8,0.5-1.1,1.6-0.5,2.4c0.3,0.5,0.9,0.8,1.5,0.8c0.3,0,0.7-0.1,1-0.3
										c0.3-0.2,0.6-0.4,0.9-0.6c0.2,6.8,1,15.9,3.4,23.2C330.2,538.4,327.2,539.1,324.1,538.8z M380.7,514.4
										c-0.1-0.1-0.2-0.3-0.3-0.4c-8.2-7.5-20.6-11.4-27.3-13c-1-0.2-1.9,0.4-2.1,1.3c-0.2,1,0.4,1.9,1.3,2.1
										c6.2,1.5,17.5,5,25.1,11.6c-2,0.9-4.2,1.7-6.2,2.4c-1.3,0.5-2.6,1-3.8,1.4c0,0-0.1-0.1-0.1-0.1c-3.7-4.2-9-7.9-15.7-11.1
										c-0.9-0.4-1.9,0-2.4,0.8c-0.4,0.9,0,1.9,0.8,2.4c5.9,2.8,10.6,6,13.9,9.5c-1.3,0.6-2.3,1.3-3.1,2.1c-1,1-1.9,2.4-3.1,4.1
										c-0.2,0.2-0.3,0.5-0.5,0.7c-3.1-5.7-7.1-9.9-10-12.4c-0.7-0.6-1.9-0.6-2.5,0.2c-0.6,0.7-0.6,1.9,0.2,2.5
										c2.9,2.5,7,6.8,9.9,12.7c0,0.1,0.1,0.2,0.2,0.3c-2.1,2.7-4.7,5.3-8.2,6.6c-0.3-6.5-2-11.2-3.5-14.1
										c-0.4-0.9-1.5-1.2-2.4-0.8c-0.9,0.4-1.2,1.5-0.8,2.4c1.4,2.7,3,7.1,3.1,13.3c-3,0.3-6.1-0.4-7.5-1.3
										c2.5-7.3,3.2-16.4,3.4-23.2c0.3,0.2,0.6,0.4,0.9,0.6c0.3,0.2,0.6,0.3,1,0.3c0.6,0,1.2-0.3,1.5-0.8c0.5-0.8,0.3-1.9-0.5-2.4
										c-1-0.6-2-1.2-2.8-1.6c0-1,0-1.9,0-2.6c0.4,0.1,0.8,0.3,1.3,0.5c0.6,0.2,1.3,0.4,2,0.7c0.2,0.1,0.4,0.1,0.6,0.1
										c0.7,0,1.4-0.4,1.7-1.2c0.3-0.9-0.1-1.9-1.1-2.3c-0.8-0.3-1.5-0.5-2.1-0.7c-0.4-0.1-0.8-0.3-1.1-0.4
										c0.3-0.6,0.4-1.2,0.5-1.8c1.1,0.1,2.3,0.2,3.7,0.4c0.1,0,0.2,0,0.3,0c0.9,0,1.6-0.6,1.8-1.5c0.1-1-0.5-1.9-1.5-2
										c-1.6-0.2-3.1-0.4-4.3-0.5c-0.1-0.4-0.2-0.8-0.3-1.2c9.5-1.9,33,0.9,41.5,7.5c1.8,1.4,2.7,2.8,2.7,4.3
										C384.9,511.4,383.2,513,380.7,514.4z"/>
									<path d="M530.2,524.4l-6.1-8.5l-3.8-11.4c-0.4-1.1-1.4-1.9-2.6-1.9h-1c-0.5-0.9-1.4-1.5-2.5-1.6l-0.6-0.1
										c0.2-0.5,0.4-1.1,0.6-1.7l4.5-3.3c0.8-0.6,1.4-1.6,1.6-2.6l1.1-6.4c0,0,0,0,0,0c0-0.3,0.2-0.6,0.4-0.8l5.1-5.1
										c1-1,1.6-2.4,1.6-3.9v-1.1c0-0.7-0.6-1.3-1.3-1.3s-1.3,0.6-1.3,1.3v1.1c0,0.8-0.3,1.5-0.8,2l-5.1,5.1
										c-0.6,0.6-1,1.4-1.2,2.3l-1.1,6.4c-0.1,0.4-0.3,0.7-0.6,0.9l-2.6,1.9c-0.1-1.2-0.2-2.4-0.6-3.6c-0.8-3-2.2-5.4-2.5-5.8
										c-0.4-0.5-1.1-0.6-1.5-0.4c-0.4,0.1-0.7,0.2-1,0.3c-0.1-1.4-0.5-2.8-0.9-4l1.4-1.8c0,0,0.1,0,0.1,0l0.3,0.2
										c0.7,0.4,1.5,0.4,2.2,0.1c0.7-0.3,1.3-0.9,1.5-1.6l2.3-6.9c0.2-0.7-0.1-1.4-0.8-1.7c-0.7-0.2-1.4,0.1-1.7,0.8l-2.3,6.9
										c0,0,0,0,0,0.1c0,0-0.1,0-0.1,0l-0.3-0.2c-1.2-0.6-2.6-0.3-3.3,0.8l-0.6,0.7c-0.2-0.2-0.4-0.4-0.6-0.6c0-0.1,0-0.1,0-0.2
										c0-1.9-0.7-3.9-1.7-5.1c-0.5-0.5-1.3-0.6-1.9-0.1c-0.5,0.5-0.6,1.3-0.1,1.9c0.4,0.4,0.7,1.2,0.9,2.1
										c-0.3-0.1-0.7-0.1-1.1-0.1h-3.4c-0.4,0-0.7,0-1.1,0.1c0.2-0.9,0.6-1.7,0.9-2.1c0.5-0.5,0.5-1.4-0.1-1.9
										c-0.5-0.5-1.4-0.5-1.9,0.1c-1.1,1.1-1.7,3.1-1.7,5.1c0,0.1,0,0.1,0,0.2c-0.2,0.2-0.4,0.4-0.6,0.6l-0.6-0.7
										c-0.8-1-2.2-1.3-3.3-0.8l-0.3,0.2c0,0,0,0-0.1,0c0,0,0,0,0-0.1l-2.3-6.9c-0.2-0.7-1-1.1-1.7-0.8c-0.7,0.2-1.1,1-0.8,1.7
										l2.3,6.9c0.2,0.7,0.8,1.3,1.5,1.6c0.7,0.3,1.5,0.3,2.2-0.1l0.3-0.2c0,0,0.1,0,0.1,0l1.4,1.8c-0.4,1.2-0.8,2.5-0.9,4
										c-0.3,0-0.7-0.1-1-0.3c-0.5-0.2-1.2,0-1.5,0.4c-0.3,0.4-1.7,2.8-2.5,5.8c-0.3,1.2-0.5,2.4-0.6,3.6l-2.6-1.9
										c-0.3-0.2-0.5-0.6-0.6-0.9l-1.1-6.4c-0.1-0.9-0.5-1.7-1.2-2.3l-5.1-5.1c-0.5-0.5-0.8-1.3-0.8-2v-1.1c0-0.7-0.6-1.3-1.3-1.3
										c-0.7,0-1.3,0.6-1.3,1.3v1.1c0,1.5,0.6,2.9,1.6,3.9l5.1,5.1c0.2,0.2,0.4,0.5,0.4,0.8c0,0,0,0,0,0l1.1,6.4
										c0.2,1,0.7,2,1.6,2.6l4.5,3.3c0.1,0.6,0.3,1.2,0.6,1.7l-0.6,0.1c-1.1,0.1-2,0.8-2.5,1.6h-1c-1.2,0-2.2,0.7-2.6,1.9
										l-3.8,11.4l-6.1,8.5c-0.7,0.9-1,2-1,3.2v2.9c0,0.7,0.6,1.3,1.3,1.3c0.7,0,1.3-0.6,1.3-1.3v-2.9c0-0.6,0.2-1.2,0.5-1.7
										l6.2-8.7c0.1-0.1,0.1-0.2,0.2-0.3l3.9-11.6c0,0,0-0.1,0.1-0.1h0.6c0.1,0.6,0.5,1.2,0.9,1.6l0.1,0.1
										c0.2,0.2,0.2,0.4,0.2,0.6v8.2l-3,2c-0.7,0.5-1.1,1.2-1.2,2c-0.6,7.7-1.1,13.3-1.3,14.3c-0.3,0.6-1.3,2.5-4.8,9.6
										c-0.6,1.1-0.9,2.4-0.9,3.7v2.6c0,0.7,0.6,1.3,1.3,1.3c0.7,0,1.3-0.6,1.3-1.3v-2.6c0-0.9,0.2-1.7,0.6-2.5
										c2.8-5.6,4.6-9.2,4.8-9.6c0.2-0.3,0.3-0.6,0.9-7c0.3-3.3,0.6-6.9,0.7-8.4c0,0,0-0.1,0-0.1l1.6-1.1v7.3
										c0,7.5,2.6,12.2,4.7,14.8c1.9,2.3,5.1,4.7,7.8,4.7c1.1,0,2.1-0.4,2.8-1.1c0.7,0.7,1.7,1.1,2.8,1.1c2.7,0,5.9-2.4,7.8-4.7
										c2.1-2.6,4.7-7.3,4.7-14.8v-7.3l1.6,1.1c0,0,0,0,0,0.1c0.1,1.4,0.4,5.1,0.7,8.4c0.5,6.3,0.6,6.6,0.9,7c0.2,0.4,2,4,4.8,9.6
										c0.4,0.8,0.6,1.6,0.6,2.5v2.6c0,0.7,0.6,1.3,1.3,1.3s1.3-0.6,1.3-1.3v-2.6c0-1.3-0.3-2.5-0.9-3.7c-3.5-7.2-4.5-9.1-4.8-9.6
										c-0.2-1-0.7-6.7-1.3-14.3c-0.1-0.8-0.5-1.6-1.2-2l-3-2v-8.2c0-0.2,0.1-0.4,0.2-0.6l0.1-0.1c0.5-0.5,0.8-1,0.9-1.6h0.6
										c0,0,0.1,0,0.1,0.1l3.9,11.6c0,0.1,0.1,0.2,0.2,0.3l6.2,8.7c0.4,0.5,0.5,1.1,0.5,1.7v2.9c0,0.7,0.6,1.3,1.3,1.3
										c0.7,0,1.3-0.6,1.3-1.3v-2.9C531.2,526.5,530.8,525.4,530.2,524.4z M502.2,480c1.1,0,2.2,0.7,2.6,1.7c0.5,1,1,2.5,1.2,4
										c-0.2-0.1-0.4-0.1-0.6-0.2c-1.4-0.5-2.9-1.1-5-1.1c0,0,0,0,0,0s0,0,0,0c-2,0-3.6,0.6-5,1.1c-0.2,0.1-0.4,0.1-0.6,0.2
										c0.2-1.5,0.8-3,1.2-4c0.5-1,1.5-1.7,2.6-1.7L502.2,480L502.2,480z M491.3,488.7c1.9,0.4,3.5-0.2,5.1-0.7
										c1.2-0.5,2.5-0.9,4.1-0.9c1.6,0,2.8,0.5,4.1,0.9c1.6,0.6,3.2,1.2,5.1,0.7c1,2,3.5,7.5,1.1,11.9l-1.8-0.2
										c-2.8-0.4-5.7-0.5-8.5-0.5s-5.7,0.2-8.5,0.5l-1.8,0.2C487.8,496.2,490.3,490.6,491.3,488.7z M503,502.5
										c-0.5,0.9-1.5,1.5-2.5,1.5c-1.1,0-2-0.6-2.5-1.5c0.8,0,1.7-0.1,2.5-0.1C501.3,502.4,502.2,502.4,503,502.5z M513.2,526.3
										c0,6.7-2.2,10.8-4.1,13.1c-2.3,2.8-4.7,3.8-5.8,3.8c-0.8,0-1.5-0.7-1.5-1.5v-30.8c0-0.7-0.6-1.3-1.3-1.3
										c-0.7,0-1.3,0.6-1.3,1.3v30.8c0,0,0,0,0,0c0,0,0,0,0,0c0,0.8-0.7,1.5-1.5,1.5c-1.1,0-3.5-1-5.8-3.8
										c-1.9-2.3-4.1-6.4-4.1-13.1v-18.7c0-0.9-0.4-1.8-1-2.5l-0.1-0.1c-0.2-0.2-0.2-0.4-0.2-0.6c0-0.4,0.3-0.8,0.7-0.8l5.1-0.6
										c1-0.1,1.9-0.2,2.9-0.3c0.7,2.3,2.8,4,5.3,4c2.5,0,4.6-1.7,5.3-4c1,0.1,1.9,0.2,2.9,0.3l5.1,0.6c0.4,0.1,0.7,0.4,0.7,0.8
										c0,0.2-0.1,0.4-0.2,0.6l-0.1,0.1c-0.7,0.7-1,1.5-1,2.5L513.2,526.3L513.2,526.3z"/>
									<path d="M30.1,524.4l-6.1-8.5l-3.8-11.4c-0.4-1.1-1.4-1.9-2.6-1.9h-1c-0.5-0.9-1.4-1.5-2.5-1.6l-0.6-0.1
										c0.2-0.5,0.4-1.1,0.6-1.7l4.5-3.3c0.8-0.6,1.4-1.6,1.6-2.6l1.1-6.4c0,0,0,0,0,0c0-0.3,0.2-0.6,0.4-0.8l5.1-5.1
										c1-1,1.6-2.4,1.6-3.9v-1.1c0-0.7-0.6-1.3-1.3-1.3c-0.7,0-1.3,0.6-1.3,1.3v1.1c0,0.8-0.3,1.5-0.8,2l-5.1,5.1
										c-0.6,0.6-1,1.4-1.2,2.3l-1.1,6.4c-0.1,0.4-0.3,0.7-0.6,0.9l-2.6,1.9c-0.1-1.2-0.2-2.4-0.6-3.6c-0.8-3-2.2-5.4-2.5-5.8
										c-0.4-0.5-1.1-0.6-1.5-0.4c-0.4,0.1-0.7,0.2-1,0.3c-0.1-1.4-0.5-2.8-0.9-4l1.4-1.8c0,0,0.1,0,0.1,0l0.3,0.2
										c0.7,0.4,1.5,0.4,2.2,0.1c0.7-0.3,1.3-0.9,1.5-1.6l2.3-6.9c0.2-0.7-0.1-1.4-0.8-1.7c-0.7-0.2-1.4,0.1-1.7,0.8l-2.3,6.9
										c0,0,0,0,0,0.1c0,0-0.1,0-0.1,0l-0.3-0.2c-1.2-0.6-2.6-0.3-3.3,0.8l-0.6,0.7c-0.2-0.2-0.4-0.4-0.6-0.6c0-0.1,0-0.1,0-0.2
										c0-1.9-0.7-3.9-1.7-5.1c-0.5-0.5-1.3-0.6-1.9-0.1c-0.5,0.5-0.6,1.3-0.1,1.9c0.4,0.4,0.7,1.2,0.9,2.1
										c-0.3-0.1-0.7-0.1-1.1-0.1h-3.4c-0.4,0-0.7,0-1.1,0.1c0.2-0.9,0.6-1.7,0.9-2.1c0.5-0.5,0.5-1.4-0.1-1.9
										c-0.5-0.5-1.4-0.5-1.9,0.1c-1.1,1.1-1.7,3.1-1.7,5.1c0,0.1,0,0.1,0,0.2c-0.2,0.2-0.4,0.4-0.6,0.6l-0.6-0.7
										c-0.8-1-2.2-1.3-3.3-0.8l-0.3,0.2c0,0,0,0-0.1,0c0,0,0,0,0-0.1l-2.3-6.9c-0.2-0.7-1-1.1-1.7-0.8c-0.7,0.2-1.1,1-0.8,1.7
										l2.3,6.9c0.2,0.7,0.8,1.3,1.5,1.6c0.7,0.3,1.5,0.3,2.2-0.1l0.3-0.2c0,0,0.1,0,0.1,0l1.4,1.8c-0.4,1.2-0.8,2.5-0.9,4
										c-0.3,0-0.7-0.1-1-0.3c-0.5-0.2-1.2,0-1.5,0.4c-0.3,0.4-1.7,2.8-2.5,5.8c-0.3,1.2-0.5,2.4-0.6,3.6l-2.6-1.9
										c-0.3-0.2-0.5-0.6-0.6-0.9l-1.1-6.4c-0.1-0.9-0.5-1.7-1.2-2.3L-24,479c-0.5-0.5-0.8-1.3-0.8-2v-1.1c0-0.7-0.6-1.3-1.3-1.3
										c-0.7,0-1.3,0.6-1.3,1.3v1.1c0,1.5,0.6,2.9,1.6,3.9l5.1,5.1c0.2,0.2,0.4,0.5,0.4,0.8c0,0,0,0,0,0l1.1,6.4
										c0.2,1,0.7,2,1.6,2.6l4.5,3.3c0.1,0.6,0.3,1.2,0.6,1.7l-0.6,0.1c-1.1,0.1-2,0.8-2.5,1.6h-1c-1.2,0-2.2,0.7-2.6,1.9
										l-3.8,11.4l-6.1,8.5c-0.7,0.9-1,2-1,3.2v2.9c0,0.7,0.6,1.3,1.3,1.3s1.3-0.6,1.3-1.3v-2.9c0-0.6,0.2-1.2,0.5-1.7l6.2-8.7
										c0.1-0.1,0.1-0.2,0.2-0.3l3.9-11.6c0,0,0-0.1,0.1-0.1h0.6c0.1,0.6,0.5,1.2,0.9,1.6l0.1,0.1c0.2,0.2,0.2,0.4,0.2,0.6v8.2
										l-3,2c-0.7,0.5-1.1,1.2-1.2,2c-0.6,7.7-1.1,13.3-1.3,14.3c-0.3,0.6-1.3,2.5-4.8,9.6c-0.6,1.1-0.9,2.4-0.9,3.7v2.6
										c0,0.7,0.6,1.3,1.3,1.3c0.7,0,1.3-0.6,1.3-1.3v-2.6c0-0.9,0.2-1.7,0.6-2.5c2.8-5.6,4.6-9.2,4.8-9.6c0.2-0.3,0.3-0.6,0.9-7
										c0.3-3.3,0.6-6.9,0.7-8.4c0,0,0-0.1,0-0.1l1.6-1.1v7.3c0,7.5,2.6,12.2,4.7,14.8c1.9,2.3,5.1,4.7,7.8,4.7
										c1.1,0,2.1-0.4,2.8-1.1c0.7,0.7,1.7,1.1,2.8,1.1c2.7,0,5.9-2.4,7.8-4.7c2.1-2.6,4.7-7.3,4.7-14.8v-7.3l1.6,1.1
										c0,0,0,0,0,0.1c0.1,1.4,0.4,5.1,0.7,8.4c0.5,6.3,0.6,6.6,0.9,7c0.2,0.4,2,4,4.8,9.6c0.4,0.8,0.6,1.6,0.6,2.5v2.6
										c0,0.7,0.6,1.3,1.3,1.3c0.7,0,1.3-0.6,1.3-1.3v-2.6c0-1.3-0.3-2.5-0.9-3.7c-3.5-7.2-4.5-9.1-4.8-9.6
										c-0.2-1-0.7-6.7-1.3-14.3c-0.1-0.8-0.5-1.6-1.2-2l-3-2v-8.2c0-0.2,0.1-0.4,0.2-0.6l0.1-0.1c0.5-0.5,0.8-1,0.9-1.6h0.6
										c0,0,0.1,0,0.1,0.1l3.9,11.6c0,0.1,0.1,0.2,0.2,0.3l6.2,8.7c0.4,0.5,0.5,1.1,0.5,1.7v2.9c0,0.7,0.6,1.3,1.3,1.3
										c0.7,0,1.3-0.6,1.3-1.3v-2.9C31.1,526.5,30.8,525.4,30.1,524.4z M2.1,480c1.1,0,2.2,0.7,2.6,1.7c0.5,1,1,2.5,1.2,4
										c-0.2-0.1-0.4-0.1-0.6-0.2c-1.4-0.5-2.9-1.1-5-1.1c0,0,0,0,0,0c0,0,0,0,0,0c-2,0-3.6,0.6-5,1.1c-0.2,0.1-0.4,0.1-0.6,0.2
										c0.2-1.5,0.8-3,1.2-4c0.5-1,1.5-1.7,2.6-1.7L2.1,480L2.1,480z M-8.8,488.7c1.9,0.4,3.5-0.2,5.1-0.7
										c1.2-0.5,2.5-0.9,4.1-0.9c1.6,0,2.8,0.5,4.1,0.9c1.6,0.6,3.2,1.2,5.1,0.7c1,2,3.5,7.5,1.1,11.9L9,500.3
										c-2.8-0.4-5.7-0.5-8.5-0.5s-5.7,0.2-8.5,0.5l-1.8,0.2C-12.3,496.2-9.8,490.6-8.8,488.7z M3,502.5c-0.5,0.9-1.5,1.5-2.5,1.5
										c-1.1,0-2-0.6-2.5-1.5c0.8,0,1.7-0.1,2.5-0.1C1.3,502.4,2.1,502.4,3,502.5z M13.1,526.3c0,6.7-2.2,10.8-4.1,13.1
										c-2.3,2.8-4.7,3.8-5.8,3.8c-0.8,0-1.5-0.7-1.5-1.5v-30.8c0-0.7-0.6-1.3-1.3-1.3s-1.3,0.6-1.3,1.3v30.8c0,0,0,0,0,0
										c0,0,0,0,0,0c0,0.8-0.7,1.5-1.5,1.5c-1.1,0-3.5-1-5.8-3.8c-1.9-2.3-4.1-6.4-4.1-13.1v-18.7c0-0.9-0.4-1.8-1-2.5l-0.1-0.1
										c-0.2-0.2-0.2-0.4-0.2-0.6c0-0.4,0.3-0.8,0.7-0.8l5.1-0.6c1-0.1,1.9-0.2,2.9-0.3c0.7,2.3,2.8,4,5.3,4c2.5,0,4.6-1.7,5.3-4
										c1,0.1,1.9,0.2,2.9,0.3l5.1,0.6c0.4,0.1,0.7,0.4,0.7,0.8c0,0.2-0.1,0.4-0.2,0.6l-0.1,0.1c-0.7,0.7-1,1.5-1,2.5L13.1,526.3
										L13.1,526.3z"/>
								</g>
							</g>
						</g>
					</g>
				</g>
			</g>
		</g>
	</g>
</g>
</svg>
