<?xml version="1.0" standalone="no"?>
<!DOCTYPE svg PUBLIC "-//W3C//DTD SVG 1.1//EN" "http://www.w3.org/Graphics/SVG/1.1/DTD/svg11.dtd" >
<svg xmlns="http://www.w3.org/2000/svg">
<metadata>Generated by IcoMoon</metadata>
<defs>
<font id="icomoon" horiz-adv-x="1024">
<font-face units-per-em="1024" ascent="960" descent="-64" />
<missing-glyph horiz-adv-x="1024" />
<glyph unicode="&#x20;" horiz-adv-x="512" d="" />
<glyph unicode="&#xe900;" glyph-name="alimentro" d="M592 851.2c6.4 35.2-6.4 67.2-28.8 89.6-28.8-12.8-51.2-41.6-57.6-73.6-3.2-35.2 6.4-67.2 28.8-92.8 28.8 16 51.2 41.6 57.6 76.8zM742.4 739.2c28.8 19.2 48 48 48 80-28.8 12.8-64 12.8-92.8-6.4s-48-48-48-80c25.6-12.8 60.8-12.8 92.8 6.4zM819.2 672c-35.2 0-64-19.2-83.2-44.8 19.2-25.6 51.2-41.6 86.4-41.6s64 19.2 83.2 44.8c-19.2 25.6-51.2 41.6-86.4 41.6zM732.8 524.8c-28.8 19.2-64 25.6-92.8 12.8 0-32 12.8-64 41.6-83.2s64-25.6 92.8-12.8c0 28.8-16 60.8-41.6 83.2zM448 742.4c16 28.8 16 64 3.2 92.8-12.8 32-41.6 51.2-70.4 57.6-16-28.8-16-64-3.2-92.8 12.8-32 41.6-51.2 70.4-57.6zM249.6 752c25.6-22.4 57.6-25.6 86.4-16 3.2 32-9.6 64-35.2 86.4-25.6 19.2-57.6 22.4-86.4 12.8-3.2-32 9.6-64 35.2-83.2zM275.2 633.6c-16 28.8-41.6 48-73.6 51.2s-64-9.6-83.2-35.2c16-25.6 41.6-48 73.6-51.2s64 9.6 83.2 35.2zM259.2 524.8c-28.8-19.2-44.8-51.2-44.8-83.2 28.8-12.8 60.8-9.6 89.6 9.6s44.8 51.2 44.8 83.2c-28.8 12.8-60.8 9.6-89.6-9.6zM707.2 636.8c-28.8 28.8-70.4 41.6-112 32-19.2-3.2-38.4-12.8-51.2-22.4 35.2 76.8 70.4 140.8 70.4 147.2 0 0-70.4-80-128-179.2-12.8 22.4-32 41.6-57.6 54.4-38.4 16-83.2 12.8-115.2-6.4 9.6-38.4 35.2-73.6 73.6-89.6 22.4-9.6 48-12.8 73.6-9.6-16-32-28.8-60.8-35.2-92.8-44.8-160-38.4-368-38.4-457.6 0-86.4 128-48 128-48s-51.2 329.6-51.2 441.6c0 41.6 25.6 115.2 57.6 185.6 28.8-19.2 64-28.8 99.2-22.4 35.2 3.2 67.2 32 86.4 67.2z" />
<glyph unicode="&#xe901;" glyph-name="Arrow2Dr" d="M564.224 434.688l-272.384-271.36c-3.072-3.072-9.216-6.144-13.312-6.144s-10.24 2.048-13.312 6.144l-28.672 28.672c-3.072 3.072-6.144 9.216-6.144 13.312s2.048 10.24 6.144 13.312l228.352 229.376-228.352 229.376c-3.072 3.072-6.144 9.216-6.144 13.312s2.048 10.24 6.144 13.312l28.672 28.672c3.072 4.096 9.216 6.144 13.312 6.144 5.12 0 10.24-2.048 13.312-6.144l271.36-271.36c3.072-3.072 6.144-9.216 6.144-13.312 0-5.12-2.048-10.24-5.12-13.312zM787.456 434.688l-271.36-271.36c-3.072-3.072-9.216-6.144-13.312-6.144-5.12 0-10.24 2.048-13.312 6.144l-29.696 28.672c-3.072 3.072-6.144 9.216-6.144 13.312s2.048 10.24 6.144 13.312l229.376 229.376-229.376 229.376c-3.072 3.072-6.144 9.216-6.144 13.312s2.048 10.24 6.144 13.312l28.672 28.672c4.096 4.096 9.216 6.144 13.312 6.144s10.24-2.048 13.312-6.144l271.36-271.36c3.072-3.072 6.144-9.216 6.144-13.312 1.024-5.12-1.024-10.24-5.12-13.312z" />
<glyph unicode="&#xe902;" glyph-name="Arrow2Iz" d="M564.224 192l-29.696-28.672c-3.072-3.072-9.216-6.144-13.312-6.144s-10.24 2.048-13.312 6.144l-271.36 271.36c-3.072 3.072-6.144 9.216-6.144 13.312s2.048 10.24 6.144 13.312l271.36 271.36c3.072 3.072 9.216 6.144 13.312 6.144 5.12 0 10.24-2.048 13.312-6.144l29.696-28.672c3.072-4.096 6.144-9.216 6.144-13.312s-2.048-10.24-6.144-13.312l-229.376-229.376 229.376-229.376c3.072-4.096 6.144-9.216 6.144-13.312-1.024-4.096-3.072-10.24-6.144-13.312zM787.456 192l-28.672-28.672c-3.072-3.072-9.216-6.144-13.312-6.144s-10.24 2.048-13.312 6.144l-272.384 271.36c-3.072 3.072-6.144 9.216-6.144 13.312s2.048 10.24 6.144 13.312l271.36 271.36c3.072 3.072 9.216 6.144 13.312 6.144 5.12 0 10.24-2.048 13.312-6.144l28.672-28.672c3.072-4.096 6.144-9.216 6.144-13.312s-2.048-10.24-6.144-13.312l-228.352-229.376 229.376-229.376c3.072-4.096 6.144-9.216 6.144-13.312s-2.048-10.24-6.144-13.312z" />
<glyph unicode="&#xe903;" glyph-name="ArrowAb" d="M788.48 521.728l-242.688-242.688c-9.216-9.216-21.504-14.336-33.792-14.336s-24.576 5.12-33.792 14.336l-242.688 242.688c-9.216 8.192-14.336 20.48-14.336 33.792 0 12.288 5.12 24.576 14.336 33.792l27.648 27.648c9.216 8.192 21.504 13.312 33.792 13.312s24.576-5.12 33.792-13.312l181.248-181.248 181.248 181.248c8.192 8.192 20.48 13.312 33.792 13.312 12.288 0 24.576-5.12 33.792-13.312l27.648-27.648c8.192-9.216 13.312-21.504 13.312-33.792 1.024-12.288-5.12-25.6-13.312-33.792z" />
<glyph unicode="&#xe904;" glyph-name="ArrowAr" d="M788.48 306.688l-27.648-27.648c-9.216-9.216-21.504-14.336-33.792-14.336s-24.576 5.12-33.792 14.336l-181.248 181.248-181.248-181.248c-8.192-9.216-20.48-14.336-33.792-14.336s-24.576 5.12-33.792 14.336l-27.648 27.648c-9.216 8.192-14.336 20.48-14.336 33.792 0 12.288 5.12 24.576 14.336 33.792l242.688 242.688c8.192 8.192 20.48 13.312 33.792 13.312 12.288 0 24.576-5.12 33.792-13.312l242.688-242.688c9.216-9.216 14.336-21.504 14.336-33.792s-5.12-24.576-14.336-33.792z" />
<glyph unicode="&#xe905;" glyph-name="ArrowDr" d="M908.288 414.208l-243.712-242.688c-8.192-8.192-20.48-13.312-33.792-13.312-12.288 0-24.576 5.12-33.792 13.312l-28.672 27.648c-8.192 9.216-13.312 21.504-13.312 33.792s5.12 24.576 13.312 33.792l182.272 181.248-181.248 181.248c-8.192 9.216-13.312 21.504-13.312 33.792s5.12 24.576 13.312 33.792l28.672 27.648c8.192 9.216 20.48 14.336 33.792 14.336 12.288 0 24.576-5.12 33.792-14.336l242.688-242.688c8.192-8.192 13.312-20.48 13.312-33.792 0-12.288-5.12-24.576-13.312-33.792z" />
<glyph unicode="&#xe906;" glyph-name="ArrowIz" d="M130.048 414.208c-18.432 18.432-18.432 49.152 0 67.584l242.688 242.688c18.432 18.432 49.152 18.432 67.584 0l27.648-27.648c18.432-18.432 18.432-49.152 0-67.584l-181.248-181.248 181.248-181.248c18.432-18.432 18.432-49.152 0-67.584l-27.648-27.648c-18.432-18.432-49.152-18.432-67.584 0l-242.688 242.688z" />
<glyph unicode="&#xe907;" glyph-name="auxiliares" d="M759.2 753.12c-92.704-25.44-124.832-108.8-119.392-143.648 1.728 1.056 3.392 2.112 5.088 3.296 62.336 40.832 133.056 60.768 205.12 72.288 32.832 5.28 55.2 6.24 55.2 6.24s-185.472-58.368-254.848-103.648c-79.328-51.712-116.48-136.576-138.304-228.864-21.76 92.32-59.008 177.184-138.208 228.864-69.376 45.184-254.848 103.52-254.848 103.52s22.304-0.928 55.168-6.24c72.096-11.488 142.88-31.424 205.12-72.288 1.728-1.152 3.392-2.112 5.088-3.264 5.344 34.816-26.816 118.176-119.36 143.616-100.928 27.648-197.024-45.792-250.656-42.752 73.856-52.864 84.192-104.864 191.488-151.52 72.928-31.68 122.016-13.536 150.144 10.144 0.672-0.64 89.504-55.488 134.88-233.6-99.36-8.576-176.832-76.416-176.832-158.976 0-53.504 396.032-52.224 396.032 0 0 82.56-77.472 150.4-176.736 158.976 45.152 178.304 134.016 233.088 134.656 233.696 28.032-23.616 77.216-41.792 150.112-10.112 107.328 46.656 117.824 98.752 191.488 151.52-53.44-3.040-149.792 70.464-250.4 42.752v0z" />
<glyph unicode="&#xe908;" glyph-name="BGermoplasma" d="M1008 732.8c-3.2 9.6-9.6 16-19.2 19.2s-16 0-22.4-6.4c-44.8-44.8-115.2-73.6-195.2-76.8-16 0-25.6-16-22.4-28.8 0-12.8 9.6-22.4 22.4-22.4 0 0 0 0 3.2 0 92.8 6.4 176 41.6 230.4 92.8 3.2 3.2 6.4 12.8 3.2 22.4zM652.8 617.6c16 0 25.6 16 25.6 28.8s-12.8 22.4-25.6 22.4c-176-9.6-281.6-67.2-326.4-176-25.6-64-32-134.4-38.4-201.6-6.4-64-12.8-128-35.2-188.8-9.6-28.8-22.4-51.2-38.4-70.4-3.2-6.4-9.6-9.6-12.8-16 0 0-3.2 0-3.2-3.2 0 0-3.2-3.2-3.2-3.2-6.4-6.4-9.6-12.8-6.4-22.4 0-9.6 6.4-19.2 16-22.4 3.2 0 6.4-3.2 9.6-3.2 6.4 0 9.6 3.2 12.8 6.4 32 25.6 51.2 64 67.2 96 32 76.8 41.6 160 48 240l3.2 25.6c6.4 67.2 16 137.6 60.8 188.8 57.6 80 163.2 96 246.4 99.2zM195.2 89.6c-35.2 35.2-70.4 70.4-102.4 105.6 12.8 9.6 28.8 16 44.8 22.4 22.4-25.6 48-48 70.4-73.6 16-16 35.2 6.4 22.4 22.4-19.2 19.2-38.4 38.4-60.8 60.8 25.6 6.4 48 9.6 73.6 12.8 19.2 0 19.2 32 0 32-80-6.4-166.4-35.2-224-89.6-16-12.8 6.4-35.2 22.4-22.4 6.4 6.4 12.8 12.8 22.4 19.2 35.2-35.2 73.6-73.6 108.8-108.8 16-16 38.4 6.4 22.4 19.2zM803.2 700.8c16-16 35.2 6.4 22.4 22.4-22.4 22.4-44.8 44.8-64 64 3.2 6.4 3.2 9.6 6.4 16 3.2 9.6 9.6 22.4 12.8 32 32-32 67.2-67.2 99.2-99.2 16-16 35.2 6.4 22.4 22.4-38.4 35.2-73.6 70.4-108.8 105.6 3.2 3.2 6.4 9.6 9.6 12.8 3.2 6.4 9.6 9.6 12.8 16 3.2 3.2 9.6 6.4 3.2 3.2 16 12.8 0 38.4-16 28.8-28.8-22.4-48-60.8-64-92.8-6.4-12.8-9.6-25.6-16-38.4 0 0 0-3.2 0-3.2-22.4-70.4-28.8-144-35.2-220.8 0-12.8-3.2-25.6-3.2-38.4-19.2 19.2-38.4 38.4-57.6 57.6-16 16-35.2-6.4-22.4-22.4 22.4-22.4 48-48 70.4-70.4 0 0 3.2-3.2 3.2-3.2-3.2-19.2-9.6-35.2-16-54.4-41.6 41.6-83.2 83.2-128 128-16 16-35.2-6.4-22.4-22.4 44.8-44.8 89.6-89.6 134.4-134.4 0 0 0 0 0 0-6.4-12.8-12.8-22.4-22.4-35.2 0-3.2-3.2-3.2-6.4-6.4-54.4 54.4-105.6 105.6-160 160-16 16-35.2-6.4-22.4-22.4 54.4-54.4 105.6-105.6 160-160-12.8-9.6-25.6-19.2-41.6-25.6-44.8 44.8-89.6 89.6-134.4 134.4-16 16-35.2-6.4-22.4-22.4 41.6-41.6 83.2-83.2 124.8-124.8-16-6.4-35.2-9.6-51.2-16 0 0 0 3.2-3.2 3.2-22.4 22.4-48 48-70.4 70.4-16 16-35.2-6.4-22.4-22.4 19.2-19.2 38.4-38.4 57.6-57.6-22.4-3.2-48-6.4-70.4-6.4-19.2 0-19.2-32 0-32 128 6.4 265.6 38.4 316.8 169.6 44.8 105.6 32 227.2 60.8 339.2 28.8-19.2 44.8-38.4 64-54.4z" />
<glyph unicode="&#xe909;" glyph-name="Bien" d="M907.264 603.648l-454.656-454.656c-9.216-9.216-22.528-15.36-35.84-15.36s-26.624 5.12-35.84 15.36l-71.68 71.68-192.512 191.488c-9.216 9.216-14.336 22.528-14.336 35.84s5.12 26.624 14.336 35.84l71.68 71.68c9.216 9.216 22.528 14.336 35.84 14.336s26.624-5.12 35.84-14.336l155.648-155.648 347.136 347.136c9.216 9.216 22.528 15.36 35.84 15.36s26.624-5.12 35.84-15.36l71.68-71.68c9.216-9.216 14.336-22.528 14.336-35.84 1.024-13.312-4.096-26.624-13.312-35.84z" />
<glyph unicode="&#xe90a;" glyph-name="book" d="M896 832v-832h-672c-53.024 0-96 42.976-96 96s42.976 96 96 96h608v768h-640c-70.4 0-128-57.6-128-128v-768c0-70.4 57.6-128 128-128h768v896h-64zM256 128h576v-64h-576z" />
<glyph unicode="&#xe90b;" glyph-name="bubble" d="M512 736c8.832 0 16-7.168 16-16s-7.2-16-16-16c-170.464 0-320-89.728-320-192 0-8.832-7.168-16-16-16s-16 7.168-16 16c0 121.408 161.184 224 352 224zM512 896c-282.784 0-512-171.936-512-384 0-132.064 88.928-248.512 224.256-317.632 0-0.864-0.256-1.44-0.256-2.368 0-57.376-42.848-119.136-61.696-151.552 0.032 0 0.064 0 0.064 0-1.504-3.52-2.368-7.392-2.368-11.456 0-16 12.96-28.992 28.992-28.992 3.008 0 8.288 0.8 8.16 0.448 100 16.384 194.208 108.256 216.096 134.88 31.968-4.704 64.928-7.328 98.752-7.328 282.72 0 512 171.936 512 384s-229.248 384-512 384zM512 192c-29.344 0-59.456 2.24-89.472 6.624-3.104 0.512-6.208 0.672-9.28 0.672-19.008 0-37.216-8.448-49.472-23.36-13.696-16.672-52.672-53.888-98.72-81.248 12.48 28.64 22.24 60.736 22.912 93.824 0.192 2.048 0.288 4.128 0.288 5.888 0 24.064-13.472 46.048-34.88 56.992-118.592 60.544-189.376 157.984-189.376 260.608 0 176.448 200.96 320 448 320 246.976 0 448-143.552 448-320s-200.992-320-448-320z" />
<glyph unicode="&#xe90c;" glyph-name="bulb" d="M512 960c-194.432 0-352-157.568-352-352 0-128.992 118.016-265.696 160.992-385.76 64.096-179.040 56.992-286.24 191.008-286.24 136 0 126.88 106.688 191.008 285.504 43.104 120.32 160.992 258.496 160.992 386.496 0 194.432-157.632 352-352 352zM594.944 90.368l-158.656-19.808c-5.664 16.384-11.744 35.552-19.136 60.576-0.096 0.32-0.224 0.672-0.288 0.992l198.016 24.736c-2.816-9.44-5.824-19.36-8.448-28.256-4.192-14.368-7.936-26.848-11.488-38.24zM407.552 162.944c-5.824 19.264-12.384 39.552-19.68 61.056h248.512c-3.936-11.488-7.872-23.008-11.264-33.888l-217.568-27.168zM512 0c-32.416 0-47.328 3.744-63.904 40l135.616 16.992c-19.648-52.928-33.952-56.992-71.712-56.992zM661.504 288h-298.656c-15.936 34.56-35.072 69.12-53.952 102.944-41.76 74.72-84.896 152-84.896 217.056 0 158.816 129.184 288 288 288s288-129.184 288-288c0-64.576-43.2-142.272-84.992-217.44-18.688-33.696-37.696-68.192-53.504-102.56zM512 800c8.8 0 16-7.168 16-16s-7.168-16-16-16c-88.224 0-160-71.776-160-160 0-8.832-7.168-16-16-16s-16 7.168-16 16c0 105.888 86.112 192 192 192z" />
<glyph unicode="&#xe90d;" glyph-name="Caja" d="M921.6 433.664h-819.2v175.104c0 39.936 32.768 72.704 72.704 72.704h160.768v73.728c0 24.576 19.456 44.032 44.032 44.032h263.168c24.576 0 44.032-19.456 44.032-44.032v-72.704h160.768c39.936 0 72.704-32.768 72.704-72.704l1.024-176.128zM921.6 170.496c0-39.936-32.768-72.704-72.704-72.704h-673.792c-39.936 0-72.704 32.768-72.704 72.704v219.136h307.2v-72.704c0-16.384 13.312-29.696 29.696-29.696h146.432c16.384 0 29.696 13.312 29.696 29.696v72.704h307.2l-1.024-219.136zM628.736 682.496v58.368h-233.472v-58.368h233.472zM570.368 331.264h-116.736v58.368h116.736v-58.368z" />
<glyph unicode="&#xe90e;" glyph-name="Calendario" d="M891.904 96.768c0-31.744-26.624-58.368-58.368-58.368h-643.072c-31.744 0-58.368 26.624-58.368 58.368v585.728c0 31.744 26.624 58.368 58.368 58.368h58.368v44.032c0 39.936 32.768 72.704 72.704 72.704h29.696c39.936 0 72.704-32.768 72.704-72.704v-44.032h175.104v44.032c0 39.936 32.768 72.704 72.704 72.704h29.696c39.936 0 72.704-32.768 72.704-72.704v-44.032h58.368c31.744 0 58.368-26.624 58.368-58.368l1.024-585.728zM321.536 433.664v131.072h-131.072v-132.096l131.072 1.024zM321.536 257.536v146.432h-131.072v-146.432h131.072zM321.536 96.768v132.096h-131.072v-132.096h131.072zM365.568 784.896c0 8.192-7.168 14.336-14.336 14.336h-29.696c-8.192 0-14.336-7.168-14.336-14.336v-132.096c0-8.192 7.168-14.336 14.336-14.336h29.696c7.168 0 14.336 7.168 14.336 14.336v132.096zM497.664 433.664v131.072h-146.432v-132.096l146.432 1.024zM497.664 257.536v146.432h-146.432v-146.432h146.432zM497.664 96.768v132.096h-146.432v-132.096h146.432zM672.768 433.664v131.072h-146.432v-132.096l146.432 1.024zM672.768 257.536v146.432h-146.432v-146.432h146.432zM672.768 96.768v132.096h-146.432v-132.096h146.432zM716.8 784.896c0 8.192-7.168 14.336-14.336 14.336h-29.696c-8.192 0-14.336-7.168-14.336-14.336v-132.096c0-8.192 7.168-14.336 14.336-14.336h29.696c7.168 0 14.336 7.168 14.336 14.336v132.096zM833.536 433.664v131.072h-131.072v-132.096l131.072 1.024zM833.536 257.536v146.432h-131.072v-146.432h131.072zM833.536 96.768v132.096h-131.072v-132.096h131.072z" />
<glyph unicode="&#xe90f;" glyph-name="Camara" d="M921.6 584.192v-381.952c0-60.416-49.152-109.568-109.568-109.568h-600.064c-60.416 0-109.568 49.152-109.568 109.568v381.952c0 60.416 49.152 109.568 109.568 109.568h95.232l21.504 58.368c10.24 28.672 44.032 51.2 73.728 51.2h218.112c29.696 0 63.488-22.528 73.728-51.2l22.528-58.368h95.232c60.416 0 109.568-49.152 109.568-109.568zM703.488 393.728c0 105.472-86.016 191.488-191.488 191.488s-191.488-86.016-191.488-191.488c0-105.472 86.016-191.488 191.488-191.488s191.488 86.016 191.488 191.488zM634.88 393.728c0-67.584-55.296-122.88-122.88-122.88s-122.88 55.296-122.88 122.88c0 67.584 55.296 122.88 122.88 122.88s122.88-55.296 122.88-122.88z" />
<glyph unicode="&#xe910;" glyph-name="Camara2" d="M893.952 667.136h-74.752v103.424c0 15.36-12.288 27.648-27.648 27.648h-203.776c-15.36 0-27.648-12.288-27.648-27.648v-103.424h-430.080c-15.36 0-27.648-12.288-27.648-27.648v-514.048c0-15.36 12.288-27.648 27.648-27.648h762.88c15.36 0 27.648 12.288 27.648 27.648v514.048c1.024 15.36-11.264 27.648-26.624 27.648zM616.448 741.888h146.432v-74.752h-146.432v74.752zM865.28 154.112h-706.56v456.704h706.56v-456.704zM512 199.168c101.376 0 183.296 81.92 183.296 183.296s-81.92 183.296-183.296 183.296-183.296-81.92-183.296-183.296 81.92-183.296 183.296-183.296zM512 518.656c74.752 0 136.192-61.44 136.192-136.192s-61.44-136.192-136.192-136.192-136.192 61.44-136.192 136.192 61.44 136.192 136.192 136.192zM512 287.232c52.224 0 94.208 43.008 94.208 95.232s-41.984 95.232-94.208 95.232c-52.224 0-95.232-43.008-95.232-95.232s43.008-95.232 95.232-95.232zM512 445.952c34.816 0 63.488-28.672 63.488-63.488s-28.672-63.488-63.488-63.488c-34.816 0-63.488 28.672-63.488 63.488s28.672 63.488 63.488 63.488z" />
<glyph unicode="&#xe911;" glyph-name="Candado" d="M846.848 94.72c0-30.72-24.576-56.32-55.296-56.32h-559.104c-30.72 0-56.32 24.576-56.32 56.32v334.848c0 30.72 24.576 56.32 56.32 56.32h18.432v110.592c0 143.36 117.76 261.12 261.12 261.12s261.12-117.76 261.12-261.12v-111.616h18.432c30.72 0 55.296-24.576 55.296-56.32v-333.824zM660.48 484.864v111.616c0 81.92-66.56 148.48-148.48 148.48s-148.48-66.56-148.48-148.48v-111.616h296.96zM512 411.136c-40.96 0-74.752-32.768-74.752-74.752 0-28.672 16.384-53.248 40.96-66.56l-39.936-133.12c-2.048-5.12-1.024-11.264 3.072-16.384 3.072-4.096 9.216-7.168 15.36-7.168h111.616c6.144 0 11.264 3.072 15.36 7.168 3.072 5.12 5.12 11.264 3.072 16.384l-39.936 133.12c23.552 12.288 40.96 36.864 40.96 66.56-1.024 40.96-34.816 74.752-75.776 74.752z" />
<glyph unicode="&#xe912;" glyph-name="Carrito" d="M921.6 448c0-15.36-11.264-29.696-27.648-31.744l-514.048-60.416c2.048-11.264 6.144-23.552 6.144-34.816s-7.168-21.504-12.288-31.744h452.608c17.408 0 31.744-14.336 31.744-31.744s-14.336-31.744-31.744-31.744h-503.808c-17.408 0-31.744 14.336-31.744 31.744 0 15.36 22.528 53.248 29.696 67.584l-87.040 405.504h-100.352c-17.408 0-31.744 14.336-31.744 31.744s14.336 31.744 31.744 31.744h125.952c33.792 0 33.792-38.912 38.912-63.488h590.848c17.408 0 31.744-14.336 31.744-31.744l1.024-250.88zM354.304 101.888c-34.816 0-62.464 27.648-62.464 62.464s27.648 62.464 62.464 62.464c34.816 0 63.488-27.648 63.488-62.464s-28.672-62.464-63.488-62.464zM795.648 101.888c-34.816 0-62.464 27.648-62.464 62.464s27.648 62.464 62.464 62.464c34.816 0 63.488-27.648 63.488-62.464-1.024-34.816-28.672-62.464-63.488-62.464z" />
<glyph unicode="&#xe913;" glyph-name="Casa" d="M969.728 384.512c-3.072-4.096-8.192-6.144-13.312-7.168-1.024 0-1.024 0-2.048 0-5.12 0-9.216 1.024-13.312 4.096l-430.080 358.4-430.080-358.4c-4.096-3.072-9.216-5.12-14.336-4.096s-10.24 3.072-13.312 7.168l-38.912 46.080c-5.12 7.168-4.096 20.48 4.096 27.648l446.464 371.712c25.6 21.504 68.608 21.504 94.208 0l151.552-126.976v121.856c0 11.264 8.192 19.456 19.456 19.456h119.808c11.264 0 19.456-8.192 19.456-19.456v-253.952l136.192-112.64c8.192-7.168 9.216-19.456 2.048-27.648l-37.888-46.080zM870.4 89.6c0-21.504-18.432-39.936-39.936-39.936h-238.592v238.592h-159.744v-238.592h-237.568c-21.504 0-39.936 18.432-39.936 39.936v297.984c0 1.024 1.024 2.048 1.024 4.096l356.352 293.888 357.376-293.888c1.024-1.024 1.024-2.048 1.024-4.096v-297.984z" />
<glyph unicode="&#xe914;" glyph-name="Cel" d="M757.76 120.32c0-45.056-36.864-81.92-81.92-81.92h-327.68c-45.056 0-81.92 36.864-81.92 81.92v655.36c0 45.056 36.864 81.92 81.92 81.92h327.68c45.056 0 81.92-36.864 81.92-81.92v-655.36zM696.32 673.28c0 11.264-9.216 20.48-20.48 20.48h-327.68c-11.264 0-20.48-9.216-20.48-20.48v-450.56c0-11.264 9.216-20.48 20.48-20.48h327.68c11.264 0 20.48 9.216 20.48 20.48 0 0 0 450.56 0 450.56zM563.2 775.68h-102.4c-6.144 0-10.24-4.096-10.24-10.24s4.096-10.24 10.24-10.24h102.4c6.144 0 10.24 4.096 10.24 10.24s-4.096 10.24-10.24 10.24zM512 171.52c-28.672 0-51.2-22.528-51.2-51.2s23.552-51.2 51.2-51.2 51.2 22.528 51.2 51.2-22.528 51.2-51.2 51.2z" />
<glyph unicode="&#xe915;" glyph-name="Chat" d="M512 213.504c-22.528 0-45.056 1.024-66.56 4.096-59.392-53.248-131.072-90.112-209.92-110.592-16.384-4.096-33.792-8.192-52.224-10.24-10.24-1.024-19.456 6.144-21.504 17.408 0 0 0 0 0 0-2.048 11.264 5.12 18.432 12.288 26.624 28.672 32.768 61.44 59.392 82.944 136.192-94.208 54.272-154.624 137.216-154.624 229.376 0 161.792 183.296 292.864 409.6 292.864s409.6-131.072 409.6-292.864-183.296-292.864-409.6-292.864z" />
<glyph unicode="&#xe916;" glyph-name="cloud-sun-snow" d="M798.496 632.992v0 0c39.296-31.744 64.64-80.032 65.472-134.24 56.576-24.672 96.032-81.088 96.032-146.72 0-88.192-71.616-160-159.968-160h-544.032c-88.544 0-159.968 71.648-159.968 160 0 65.632 39.68 122.176 96.384 146.816-0.256 4.352-0.384 8.736-0.384 13.184 0 123.712 100.288 224 224 224 16.704 0 32.96-1.824 48.608-5.28v0c28.096 59.84 88.896 101.28 159.392 101.28 97.216 0 176-78.784 176-176 0-7.808-0.512-15.488-1.504-23.008zM767.968 652.832c0.032 1.056 0.032 2.112 0.032 3.168 0 79.52-64.48 144-144 144-55.968 0-104.48-31.936-128.32-78.592 40.096-15.264 74.688-41.728 99.968-75.584 26.848 16.576 58.496 26.144 92.352 26.144 28.8 0 55.968-6.912 79.968-19.168v0 0zM624 960c-8.832 0-16-6.912-16-15.84v-64.288c0-8.768 7.424-15.84 16-15.84 8.832 0 16 6.912 16 15.84v64.288c0 8.768-7.424 15.84-16 15.84v0zM839.456 870.752c-6.24 6.24-16.192 6.432-22.528 0.096l-45.472-45.472c-6.176-6.176-5.952-16.448 0.096-22.528 6.24-6.24 16.192-6.432 22.528-0.096l45.472 45.472c6.176 6.176 5.952 16.448-0.096 22.528v0zM928.704 655.296c0 8.832-6.912 16-15.84 16h-64.288c-8.768 0-15.84-7.424-15.84-16 0-8.832 6.912-16 15.84-16h64.288c8.768 0 15.84 7.424 15.84 16v0zM408.544 870.752c-6.24-6.24-6.432-16.192-0.096-22.528l45.472-45.472c6.176-6.176 16.448-5.952 22.528 0.096 6.24 6.24 6.432 16.192 0.096 22.528l-45.472 45.472c-6.176 6.176-16.448 5.952-22.528-0.096v0zM320 128c-17.664 0-32-14.208-32-32 0-17.664 14.208-32 32-32 17.664 0 32 14.208 32 32 0 17.664-14.208 32-32 32v0zM416 32c-17.664 0-32-14.208-32-32 0-17.664 14.208-32 32-32 17.664 0 32 14.208 32 32 0 17.664-14.208 32-32 32v0zM544 128c-17.664 0-32-14.208-32-32 0-17.664 14.208-32 32-32 17.664 0 32 14.208 32 32 0 17.664-14.208 32-32 32v0zM640 32c-17.664 0-32-14.208-32-32 0-17.664 14.208-32 32-32 17.664 0 32 14.208 32 32 0 17.664-14.208 32-32 32v0zM736 128c-17.664 0-32-14.208-32-32 0-17.664 14.208-32 32-32 17.664 0 32 14.208 32 32 0 17.664-14.208 32-32 32v0z" />
<glyph unicode="&#xe917;" glyph-name="Contratacion" d="M907.264 408.064c-89.088 104.448-89.088 210.944-90.112 296.96 0 12.288 0 23.552 0 32.768v136.192h-50.176v-137.216c0-10.24 0-21.504 0-32.768 0-84.992 1.024-199.68 88.064-312.32-32.768-37.888-113.664-134.144-167.936-226.304v235.52c28.672 9.216 50.176 35.84 50.176 67.584 0 39.936-31.744 71.68-71.68 71.68-38.912 0-71.68-31.744-71.68-71.68 0-31.744 21.504-58.368 50.176-67.584v-244.736c-54.272 95.232-139.264 196.608-174.080 235.52 87.040 112.64 87.040 228.352 88.064 313.344 0 11.264 0 22.528 0 32.768v136.192h-50.176v-135.168c0-10.24 0-21.504 0-33.792 0-86.016-1.024-193.536-90.112-297.984l-14.336-17.408 15.36-16.384c51.2-55.296 179.2-210.944 212.992-310.272h-508.928c-11.264 0-21.504-9.216-21.504-21.504 0-11.264 9.216-21.504 21.504-21.504h542.72c10.24 0 18.432 7.168 20.48 17.408h1.024c20.48 114.688 218.112 333.824 220.16 335.872l15.36 16.384-15.36 18.432zM665.6 439.808c-16.384 0-29.696 13.312-29.696 29.696s13.312 29.696 29.696 29.696 29.696-13.312 29.696-29.696c0-16.384-13.312-29.696-29.696-29.696z" />
<glyph unicode="&#xe918;" glyph-name="Convocatorias" d="M367.616 584.192c-75.776 0-136.192 61.44-136.192 137.216s61.44 136.192 136.192 136.192c75.776 0 137.216-61.44 137.216-136.192-1.024-75.776-62.464-137.216-137.216-137.216zM367.616 783.872c-34.816 0-63.488-28.672-63.488-63.488s28.672-63.488 63.488-63.488c34.816 0 63.488 28.672 63.488 63.488 0 35.84-28.672 63.488-63.488 63.488zM505.856 38.4h-277.504v363.52c0 94.208 72.704 145.408 141.312 145.408 67.584 0 136.192-50.176 136.192-145.408v-363.52zM301.056 112.128h131.072v289.792c0 53.248-32.768 71.68-62.464 71.68-32.768 0-68.608-22.528-68.608-71.68 0 0 0-289.792 0-289.792zM683.008 459.264c-61.44 0-111.616 50.176-111.616 111.616s50.176 111.616 111.616 111.616c61.44 0 111.616-50.176 111.616-111.616s-50.176-111.616-111.616-111.616zM683.008 609.792c-21.504 0-38.912-17.408-38.912-37.888 0-21.504 17.408-38.912 38.912-38.912s38.912 17.408 38.912 38.912c-1.024 20.48-17.408 37.888-38.912 37.888zM795.648 38.4h-226.304v281.6c0 76.8 59.392 117.76 115.712 117.76 55.296 0 111.616-40.96 111.616-117.76l-1.024-281.6zM642.048 112.128h79.872v207.872c0 40.96-28.672 45.056-37.888 45.056-15.36 0-41.984-9.216-41.984-45.056v-207.872z" />
<glyph unicode="&#xe919;" glyph-name="coordinador" d="M463.168 383.872c69.152 0 231.712 83.232 231.712 282.592 0 156.064-21.024 282.592-231.712 282.592-210.624 0-231.68-126.528-231.68-282.592 0-199.36 162.56-282.592 231.68-282.592zM266.112 713.632c16.288 31.488 51.488 67.872 127.168 66.24 0 0 45.152-109.44 266.688-60.32 0.896-17.472 1.152-35.328 1.152-53.088 0-97.44-43.008-157.856-79.104-191.328-45.504-42.208-96-57.504-118.848-57.504s-73.344 15.328-118.816 57.504c-36.096 33.472-79.136 93.888-79.136 191.328 0 15.776 0.224 31.584 0.896 47.168zM418.624 587.872c26.016 13.568 35.040 58.976 35.424 60.992 0 0.032 0.8 3.040 9.088 3.040h0.672c6.4 0 8.352-2.080 8.576-3.52 0.384-1.92 9.696-47.168 35.328-60.512 17.28-9.024 37.92-10.912 52.192-10.912 18.272 0 36.672 3.2 45.76 8 19.52 10.304 21.28 17.76 28.384 60.864 0.256 1.632 0.736 3.008 1.376 4.064 0.192 0.32 0.576 0.736 1.024 1.248 1.888 2.016 4.704 5.056 4.544 12.128-0.032 0.896 0 2.432 0.032 4.128l0.032 0.416c0.032 3.008 0.128 6.368 0.032 8.288-0.64 10.56-9.824 14.848-14.496 15.584-17.504 3.616-37.28 5.44-58.816 5.44-9.28 0-18.848-0.352-28.48-1.024l-1.664-0.128c-19.616-1.376-30.432-2.144-43.552-8-2.656-1.184-5.568-2.656-8.768-4.256-4.544-2.304-11.232-4.896-14.656-5.664-5.76-1.312-9.184-1.312-14.976 0-3.392 0.736-10.112 3.328-14.656 5.664-3.168 1.632-6.112 3.072-8.736 4.256-13.152 5.856-23.968 6.624-43.552 8l-1.664 0.128c-9.568 0.672-19.168 1.024-28.448 1.024-21.536 0-41.312-1.824-58.656-5.408-4.8-0.768-14.048-5.056-14.656-15.616-0.128-1.952-0.032-5.44 0.032-8.256v-1.248c0.032-1.376 0.064-2.592 0.032-3.328-0.16-7.104 2.656-10.112 4.608-12.224 0.448-0.48 0.768-0.832 0.992-1.184 0.64-1.056 1.088-2.432 1.344-4.064 7.104-43.136 8.864-50.56 28.384-60.864 9.024-4.768 27.424-8 45.76-8 14.24 0.032 34.88 1.92 52.16 10.944zM493.536 663.584c0.512 1.152 5.92 11.328 54.144 14.144 8.32 0.512 15.36 0.704 21.536 0.704 26.88 0 35.232-4.576 40.032-11.936 2.848-4.384 4.864-14.048 4.896-20 0.064-13.44-2.56-37.344-20.736-46.176-8.64-4.16-21.632-6.656-34.816-6.656-24.992 0-44.896 8.32-53.216 22.272-17.888 30.080-11.904 47.52-11.84 47.648zM312.192 646.496c0 5.952 2.048 15.648 4.896 20 4.832 7.36 13.216 11.936 40.032 11.936 6.176 0 13.216-0.224 21.536-0.704 47.232-2.72 53.504-12.576 54.24-14.368 0.064-0.16 5.664-17.76-11.936-47.36-8.32-13.984-28.224-22.304-53.216-22.304-13.184 0-26.176 2.496-34.784 6.656-18.208 8.8-20.832 32.704-20.768 46.144zM989.248-8.992l-103.872 215.264v122.24h4.192c9.344 0 16.864 7.552 16.864 16.864v47.744c0 9.376-7.52 16.928-16.864 16.928h-159.232c-9.344 0-16.928-7.552-16.928-16.928v-47.744c0-9.312 7.584-16.864 16.928-16.864h4.16v-122.24l-103.872-215.264c-2.88-6.016-2.464-12.992 1.024-18.624 3.52-5.696 9.76-9.056 16.384-9.056h323.808c6.624 0 12.8 3.36 16.384 9.056 3.52 5.6 3.936 12.608 1.024 18.624zM771.296 193.44c1.216 2.624 1.92 5.44 1.92 8.384v126.688h73.536v-126.688c0-2.944 0.64-5.76 1.952-8.384l7.648-15.936h-92.736l7.68 15.936zM798.592 50.88c-6.304 0-11.392 5.056-11.392 11.36 0 6.24 5.088 11.36 11.392 11.36 6.24 0 11.328-5.12 11.328-11.36 0.032-6.304-5.088-11.36-11.328-11.36zM798.592 108.864c-8.8 0-15.936 7.136-15.936 15.872 0 8.8 7.136 15.936 15.936 15.936 8.736 0 15.904-7.136 15.904-15.936 0-8.736-7.168-15.872-15.904-15.872zM872.48 55.424c-11.328 0-20.448 9.12-20.448 20.448s9.12 20.512 20.448 20.512c11.328 0 20.512-9.184 20.512-20.512s-9.184-20.448-20.512-20.448zM602.24 4.736l100.736 208.672v92c-12.704 8.736-21.088 23.36-21.088 39.936v23.136c-28.352 15.36-55.040 29.632-72.992 39.264l-0.864 0.448c-5.696 3.072-12.64 2.496-17.696-1.504-26.016-20.448-54.528-34.176-84.736-40.928-5.152-1.184-9.472-4.736-11.488-9.696l-30.912-75.072-30.912 75.072c-2.016 4.928-6.304 8.512-11.456 9.696-30.24 6.752-58.752 20.512-84.768 40.928-5.056 4-12 4.576-17.696 1.504-49.12-26.176-166.944-89.696-200.096-112.064-56.224-37.888-80.8-174.944-85.184-202.048-0.448-2.688-0.16-5.44 0.704-7.936 2.016-5.76 53.632-139.2 429.408-139.2 53.952 0 101.184 2.752 142.56 7.488-0.256 0.384-0.544 0.736-0.736 1.12-9.408 14.944-10.4 33.312-2.784 49.184zM326.816 159.008h-147.104v31.008h94.432v29.888h3.776v2.24c0 5.44 4.384 9.824 9.76 9.824 5.408 0 9.824-4.384 9.824-9.824v-2.24h3.744v-2.368c0.352 0 0.672 0.064 1.024 0.064 6.624 0 12-5.376 12-12v-15.552h12.576v-31.040zM302.24 210.176c-0.352 0-0.672-0.064-1.024-0.128v-20.064h5.632v15.552c0 2.592-2.080 4.64-4.608 4.64z" />
<glyph unicode="&#xe91a;" glyph-name="datos" d="M717.824 310.624c44.896 78.944 33.76 181.408-33.568 248.672-80.608 80.64-211.904 80.64-292.544 0-80.672-80.672-80.672-211.968 0-292.608 67.264-67.296 169.696-78.464 248.64-33.536l166.624-166.624c21.376-21.376 56.096-21.376 77.472 0s21.376 56.096 0 77.472l-166.624 166.624zM643.104 307.936c-57.952-57.952-152.224-57.952-210.176 0-57.952 57.92-57.952 152.224 0 210.144 57.952 57.952 152.224 57.952 210.176 0 57.888-57.92 57.888-152.224 0-210.144zM949.568 775.008h-7.84c-2.368 18.848-16.352 34.944-36.192 40.704-67.616 19.712-136.48 29.76-204.608 29.76-62.88 0-126.336-8.576-188.96-25.376-62.624 16.8-126.112 25.376-188.96 25.376-68.096 0-136.96-10.016-204.608-29.76-19.84-5.792-33.856-21.92-36.16-40.704h-7.808c-28.832 0-52.192-21.696-52.192-48.448v-524.768c0-26.752 23.36-48.48 52.192-48.48h588.704l-41.632 41.632c-30.112-13.248-62.944-20.192-96.128-20.192-63.744 0-123.584 24.736-168.544 69.728-6.752 6.72-13.056 13.856-18.88 21.248-12.864 0.544-25.76 0.8-38.624 0.8-51.136 0-102.656-4.448-153.888-13.248v472.256c51.328 10.464 102.912 15.776 153.92 15.776 51.040 0 102.624-5.312 153.888-15.776v-85.312c23.040 7.264 47.296 11.072 72.128 11.072 15.36 0 30.56-1.472 45.312-4.32l0.064 78.56c51.264 10.464 102.848 15.776 153.856 15.776 51.040 0 102.656-5.312 153.92-15.776v-472.256c-27.2 4.672-54.432 8.064-81.76 10.272l97.344-97.28c4.064-4.032 7.584-8.416 10.624-12.96h44.832c28.8 0 52.192 21.728 52.192 48.48v524.768c0 26.752-23.392 48.448-52.192 48.448z" />
<glyph unicode="&#xe91b;" glyph-name="Descargas" d="M336.896 585.216v-91.136l173.056-163.84 173.056 163.84v91.136l-135.168-132.096v236.544h-75.776v-236.544l-135.168 132.096zM921.6 71.168v753.664c0 18.432-14.336 32.768-32.768 32.768h-753.664c-18.432 0-32.768-14.336-32.768-32.768v-753.664c0-18.432 14.336-32.768 32.768-32.768h753.664c18.432 0 32.768 14.336 32.768 32.768zM167.936 103.936v689.152h689.152v-689.152h-689.152zM721.92 203.264h-419.84v54.272h419.84v-54.272z" />
<glyph unicode="&#xe91c;" glyph-name="directivos" d="M903.072 306.848v335.36c46.976 5.248 83.328 44.928 83.328 93.12 0 51.84-42.048 93.824-93.76 93.824-36 0-67.136-20.224-82.912-49.792l-204.48 68.416c0.256 2.88 0.32 5.696 0.32 8.576 0 51.84-41.888 93.792-93.728 93.792-51.744 0-93.696-42.048-93.696-93.792 0-2.88 0.128-5.76 0.448-8.672l-204.352-68.416c-15.776 29.696-46.912 49.92-82.848 49.92-51.84 0-93.792-41.984-93.792-93.824 0-48.096 36.256-87.776 83.072-93.024v-335.52c-46.816-5.216-83.072-44.928-83.072-93.024 0-51.872 41.952-93.824 93.792-93.824 40.288 0 74.592 25.504 87.904 61.088l209.696-97.568c-6.912-13.056-10.912-28.064-10.912-43.84 0-51.744 42.016-93.76 93.76-93.76 51.84 0 93.728 42.016 93.728 93.76 0 15.776-3.872 30.592-10.752 43.648l209.888 97.632c13.312-35.584 47.584-60.96 87.808-60.96 51.808 0 93.76 41.952 93.76 93.824 0.096 48.064-36.256 87.84-83.2 93.056zM457.344 115.776l-232.768 108.416c-0.928 8.128-2.88 15.904-5.792 23.296l272.064 91.2v-207.776h0.064c-12.032-2.848-23.68-8.064-33.568-15.136zM194.688 282.848c-9.216 8.416-20 14.976-32.064 19.232v344.896c16.896 6.048 31.616 16.768 42.432 30.592l216.096-100.608c-1.984-7.488-2.88-15.328-2.88-23.456 0-44.544 30.592-81.632 72.576-91.296v-79.968h0.064l-296.224-99.392zM490.912 644.8c-20.064-4.768-37.92-15.904-50.784-31.136l-217.248 101.088c1.472 6.688 2.304 13.632 2.304 20.608 0 1.376-0.128 2.592-0.128 3.84l206.4 69.248c12.864-21.536 33.376-37.536 59.424-43.392v-120.256zM592.64 808.448l206.272-69.12c0-1.28-0.128-2.592-0.128-3.968 0-7.104 0.864-14.016 2.272-20.608l-217.088-101.056c-12.96 15.424-31.040 26.688-51.040 31.232v120h-0.128c26.112 5.792 46.784 21.76 59.84 43.52zM799.296 224l-232.64-108.224c-9.984 7.168-21.76 12.384-33.856 15.328v207.52l272.256-91.2c-2.848-7.328-4.768-15.104-5.76-23.424zM863.136 302.72c-12.576-4.224-24-10.848-33.568-19.616l-296.736 99.168v79.808c42.112 9.472 72.992 46.752 72.992 91.392 0 8.032-1.088 15.84-2.944 23.296l216.256 100.48c11.232-14.208 26.464-25.024 44-30.816v-343.712z" />
<glyph unicode="&#xe91d;" glyph-name="display" d="M864 800.128l-704-0.128c-17.696 0-32-14.176-32-31.872v-448c0-17.696 14.304-32 32-32h704c17.696 0 32 14.304 32 32v448c0 17.696-14.304 32-32 32zM864 320h-704v448.128h704v-448.128zM928 928h-832c-53.024 0-96-42.944-96-96v-640c0-52.928 42.816-95.808 95.68-95.936h320.32v-38.944l-199.744-25.952c-14.272-3.552-24.256-16.352-24.256-31.040 0-17.696 14.304-32 32-32h576c17.696 0 32 14.304 32 32 0 14.688-9.984 27.488-24.256 31.072l-199.744 25.92v38.944h320.32c52.864 0.128 95.68 43.008 95.68 95.936v640c0 53.056-43.008 96-96 96zM960 192c0-17.632-14.368-32-32-32h-832c-17.664 0-32 14.368-32 32v640c0 17.664 14.336 32 32 32h832c17.632 0 32-14.336 32-32v-640z" />
<glyph unicode="&#xe91e;" glyph-name="Documentos" d="M921.6 82.432c0-24.576-19.456-44.032-44.032-44.032h-438.272c-24.576 0-44.032 19.456-44.032 44.032v72.704h-248.832c-24.576 0-44.032 19.456-44.032 44.032v614.4c0 24.576 19.456 44.032 44.032 44.032h497.664c24.576 0 44.032-19.456 44.032-44.032v-149.504c6.144-4.096 11.264-8.192 16.384-12.288l186.368-187.392c17.408-17.408 30.72-51.2 30.72-74.752v-307.2zM570.368 784.896c0 8.192-7.168 14.336-14.336 14.336h-321.536c-8.192 0-14.336-7.168-14.336-14.336v-29.696c0-8.192 7.168-14.336 14.336-14.336h321.536c8.192 0 14.336 7.168 14.336 14.336v29.696zM863.232 96.768v292.864h-190.464c-24.576 0-44.032 19.456-44.032 44.032v189.44h-175.104v-526.336c0 0 409.6 0 409.6 0zM824.32 448l-137.216 136.192v-136.192h137.216z" />
<glyph unicode="&#xe91f;" glyph-name="Edificio" d="M833.536 68.096c0-16.384-13.312-29.696-29.696-29.696h-584.704c-16.384 0-29.696 13.312-29.696 29.696v759.808c0 16.384 13.312 29.696 29.696 29.696h584.704c16.384 0 29.696-13.312 29.696-29.696v-759.808zM775.168 96.768v702.464h-526.336v-702.464h175.104v102.4c0 8.192 7.168 14.336 14.336 14.336h146.432c8.192 0 14.336-7.168 14.336-14.336v-102.4h176.128zM365.568 696.832c0-8.192-7.168-14.336-14.336-14.336h-29.696c-8.192 0-14.336 7.168-14.336 14.336v29.696c0 8.192 7.168 14.336 14.336 14.336h29.696c8.192 0 14.336-7.168 14.336-14.336v-29.696zM365.568 580.096c0-8.192-7.168-14.336-14.336-14.336h-29.696c-8.192 0-14.336 7.168-14.336 14.336v29.696c0 8.192 7.168 14.336 14.336 14.336h29.696c8.192 0 14.336-7.168 14.336-14.336v-29.696zM365.568 462.336c0-8.192-7.168-14.336-14.336-14.336h-29.696c-8.192 0-14.336 7.168-14.336 14.336v29.696c0 8.192 7.168 14.336 14.336 14.336h29.696c8.192 0 14.336-7.168 14.336-14.336v-29.696zM365.568 345.6c0-8.192-7.168-14.336-14.336-14.336h-29.696c-8.192 0-14.336 7.168-14.336 14.336v29.696c0 8.192 7.168 14.336 14.336 14.336h29.696c8.192 0 14.336-7.168 14.336-14.336v-29.696zM365.568 228.864c0-8.192-7.168-14.336-14.336-14.336h-29.696c-8.192 0-14.336 7.168-14.336 14.336v29.696c0 8.192 7.168 14.336 14.336 14.336h29.696c8.192 0 14.336-7.168 14.336-14.336v-29.696zM482.304 696.832c0-8.192-7.168-14.336-14.336-14.336h-29.696c-8.192 0-14.336 7.168-14.336 14.336v29.696c0 8.192 7.168 14.336 14.336 14.336h29.696c8.192 0 14.336-7.168 14.336-14.336v-29.696zM482.304 580.096c0-8.192-7.168-14.336-14.336-14.336h-29.696c-8.192 0-14.336 7.168-14.336 14.336v29.696c0 8.192 7.168 14.336 14.336 14.336h29.696c8.192 0 14.336-7.168 14.336-14.336v-29.696zM482.304 462.336c0-8.192-7.168-14.336-14.336-14.336h-29.696c-8.192 0-14.336 7.168-14.336 14.336v29.696c0 8.192 7.168 14.336 14.336 14.336h29.696c8.192 0 14.336-7.168 14.336-14.336v-29.696zM482.304 345.6c0-8.192-7.168-14.336-14.336-14.336h-29.696c-8.192 0-14.336 7.168-14.336 14.336v29.696c0 8.192 7.168 14.336 14.336 14.336h29.696c8.192 0 14.336-7.168 14.336-14.336v-29.696zM600.064 696.832c0-8.192-7.168-14.336-14.336-14.336h-29.696c-8.192 0-14.336 7.168-14.336 14.336v29.696c0 8.192 7.168 14.336 14.336 14.336h29.696c8.192 0 14.336-7.168 14.336-14.336v-29.696zM600.064 580.096c0-8.192-7.168-14.336-14.336-14.336h-29.696c-8.192 0-14.336 7.168-14.336 14.336v29.696c0 8.192 7.168 14.336 14.336 14.336h29.696c8.192 0 14.336-7.168 14.336-14.336v-29.696zM600.064 462.336c0-8.192-7.168-14.336-14.336-14.336h-29.696c-8.192 0-14.336 7.168-14.336 14.336v29.696c0 8.192 7.168 14.336 14.336 14.336h29.696c8.192 0 14.336-7.168 14.336-14.336v-29.696zM600.064 345.6c0-8.192-7.168-14.336-14.336-14.336h-29.696c-8.192 0-14.336 7.168-14.336 14.336v29.696c0 8.192 7.168 14.336 14.336 14.336h29.696c8.192 0 14.336-7.168 14.336-14.336v-29.696zM716.8 696.832c0-8.192-7.168-14.336-14.336-14.336h-29.696c-8.192 0-14.336 7.168-14.336 14.336v29.696c0 8.192 7.168 14.336 14.336 14.336h29.696c8.192 0 14.336-7.168 14.336-14.336v-29.696zM716.8 580.096c0-8.192-7.168-14.336-14.336-14.336h-29.696c-8.192 0-14.336 7.168-14.336 14.336v29.696c0 8.192 7.168 14.336 14.336 14.336h29.696c8.192 0 14.336-7.168 14.336-14.336v-29.696zM716.8 462.336c0-8.192-7.168-14.336-14.336-14.336h-29.696c-8.192 0-14.336 7.168-14.336 14.336v29.696c0 8.192 7.168 14.336 14.336 14.336h29.696c8.192 0 14.336-7.168 14.336-14.336v-29.696zM716.8 345.6c0-8.192-7.168-14.336-14.336-14.336h-29.696c-8.192 0-14.336 7.168-14.336 14.336v29.696c0 8.192 7.168 14.336 14.336 14.336h29.696c8.192 0 14.336-7.168 14.336-14.336v-29.696zM716.8 228.864c0-8.192-7.168-14.336-14.336-14.336h-29.696c-8.192 0-14.336 7.168-14.336 14.336v29.696c0 8.192 7.168 14.336 14.336 14.336h29.696c8.192 0 14.336-7.168 14.336-14.336v-29.696z" />
<glyph unicode="&#xe920;" glyph-name="enter" d="M384 448h-320v128h320v128l192-192-192-192zM1024 960v-832l-384-192v192h-384v256h64v-192h320v576l256 128h-576v-256h-64v320z" />
<glyph unicode="&#xe921;" glyph-name="Estandarte" d="M819.2 852.48c23.552-9.216 38.912-31.744 38.912-55.296v-698.368c0-24.576-15.36-46.080-38.912-55.296-7.168-3.072-15.36-4.096-23.552-4.096-16.384 0-32.768 6.144-45.056 17.408l-238.592 229.376-238.592-230.4c-12.288-11.264-28.672-17.408-45.056-17.408-8.192 0-16.384 2.048-23.552 5.12-23.552 9.216-38.912 31.744-38.912 55.296v698.368c0 24.576 15.36 46.080 38.912 55.296 7.168 3.072 15.36 5.12 23.552 5.12 16.384 0 550.912 0 567.296 0 8.192 0 16.384-2.048 23.552-5.12z" />
<glyph unicode="&#xe922;" glyph-name="etapas" d="M1024 640l-512 256-512-256 512-256 512 256zM512 811.040l342.048-171.040-342.048-171.040-342.048 171.040 342.048 171.040zM921.44 499.264l102.56-51.264-512-256-512 256 102.56 51.264 409.44-204.736zM921.44 307.264l102.56-51.264-512-256-512 256 102.56 51.264 409.44-204.736z" />
<glyph unicode="&#xe923;" glyph-name="eye" d="M1022.88 455.168c-0.32 1.344-0.128 2.784-0.64 4.096-0.192 0.544-0.672 0.832-0.864 1.344-0.32 0.768-0.256 1.632-0.672 2.368-92.8 177.632-294.816 304.896-507.936 304.896-213.152 0-415.136-127.072-508-304.672-0.416-0.736-0.352-1.6-0.672-2.368-0.224-0.512-0.672-0.8-0.864-1.344-0.512-1.312-0.32-2.752-0.64-4.096-0.576-2.4-1.12-4.704-1.12-7.168s0.576-4.736 1.12-7.168c0.32-1.344 0.128-2.784 0.64-4.096 0.192-0.544 0.672-0.832 0.864-1.344 0.32-0.768 0.256-1.632 0.672-2.368 92.832-177.632 294.848-304.896 508-304.896 213.12 0 415.136 127.072 507.936 304.672 0.448 0.736 0.384 1.6 0.672 2.368 0.192 0.512 0.672 0.8 0.864 1.344 0.512 1.312 0.32 2.752 0.64 4.096 0.544 2.432 1.12 4.736 1.12 7.168s-0.576 4.768-1.12 7.168zM512.736 192.384c-179.68 0-355.584 102.112-443.232 255.84 88.128 153.92 263.776 255.68 443.232 255.68 179.616 0 355.552-102.144 443.2-255.84-88.128-153.952-263.744-255.68-443.2-255.68zM512.736 576.032c8.832 0 15.936-7.136 15.936-16 0-8.8-7.136-15.968-15.936-15.968v-0.032c-52.928 0-95.968-43.040-95.968-95.904 0-8.832-7.168-16-15.968-16s-16 7.168-16 16c0 70.56 57.184 127.744 127.744 127.872 0.064 0 0.128 0.032 0.192 0.032zM512 672c-123.744 0-224-100.288-224-224s100.288-224 224-224c123.68 0 224 100.32 224 224 0 123.744-100.32 224-224 224zM512 256c-105.888 0-192 86.112-192 192s86.112 192 192 192c105.888 0 192-86.112 192-192s-86.112-192-192-192z" />
<glyph unicode="&#xe924;" glyph-name="facebook" d="M575.872-64h-191.872v512h-128v176.448l128 0.064-0.224 103.936c0 143.936 39.040 231.552 208.608 231.552h141.184v-176.48h-88.224c-66.048 0-69.216-24.672-69.216-70.688l-0.256-88.32h158.688l-18.688-176.448-139.84-0.064-0.128-512z" />
<glyph unicode="&#xe925;" glyph-name="file-pdf" d="M842.016 370.528c-13.664 13.44-43.904 20.576-89.984 21.184-31.168 0.352-68.704-2.4-108.16-7.936-17.664 10.208-35.904 21.28-50.176 34.656-38.464 35.904-70.56 85.76-90.592 140.608 1.312 5.12 2.4 9.632 3.456 14.208 0 0 21.664 123.072 15.936 164.672-0.8 5.696-1.28 7.36-2.816 11.808l-1.888 4.832c-5.888 13.6-17.44 28-35.552 27.2l-10.912 0.352c-20.192 0-36.672-10.336-40.992-25.76-13.152-48.448 0.416-120.896 24.992-214.752l-6.304-15.296c-17.6-42.88-39.616-86.048-59.072-124.16l-2.528-4.96c-20.448-40.032-39.040-74.016-55.84-102.816l-17.376-9.184c-1.28-0.672-31.040-16.416-38.016-20.64-59.264-35.392-98.528-75.552-105.024-107.424-2.080-10.176-0.544-23.2 10.016-29.216l16.8-8.448c7.296-3.648 14.976-5.504 22.848-5.504 42.208 0 91.2 52.576 158.688 170.368 77.92 25.376 166.656 46.464 244.416 58.080 59.264-33.376 132.128-56.544 178.144-56.544 8.16 0 15.2 0.768 20.928 2.304 8.832 2.336 16.256 7.36 20.8 14.208 8.928 13.44 10.72 31.936 8.32 50.88-0.736 5.632-5.216 12.576-10.080 17.312zM211.648 145.952c7.712 21.056 38.144 62.656 83.2 99.552 2.816 2.304 9.792 8.832 16.192 14.912-47.104-75.136-78.656-105.056-99.392-114.464zM478.432 760.32c13.568 0 21.28-34.208 21.92-66.24s-6.848-54.56-16.16-71.2c-7.712 24.64-11.424 63.488-11.424 88.896 0 0-0.576 48.544 5.664 48.544v0zM398.848 322.496c9.44 16.928 19.296 34.752 29.344 53.664 24.48 46.304 39.968 82.56 51.488 112.352 22.912-41.696 51.456-77.12 84.992-105.504 4.192-3.552 8.608-7.104 13.28-10.656-68.224-13.504-127.168-29.92-179.072-49.856v0zM828.896 326.336c-4.16-2.592-16.064-4.096-23.712-4.096-24.704 0-55.264 11.296-98.112 29.664 16.48 1.216 31.552 1.824 45.088 1.824 24.768 0 32.128 0.096 56.352-6.080s24.544-18.72 20.384-21.344v0zM917.792 730.912c-22.208 30.304-53.184 65.696-87.168 99.712s-69.408 64.96-99.712 87.168c-51.584 37.824-76.576 42.208-90.912 42.208h-496c-44.096 0-80-35.872-80-80v-864c0-44.096 35.872-80 80-80h736c44.096 0 80 35.904 80 80v624c0 14.336-4.384 39.36-42.208 90.912v0zM785.376 785.376c30.688-30.688 54.784-58.4 72.576-81.376h-153.952v153.952c22.976-17.792 50.688-41.888 81.376-72.576v0zM896 16c0-8.672-7.328-16-16-16h-736c-8.672 0-16 7.328-16 16v864c0 8.672 7.328 16 16 16 0 0 495.968 0 496 0v-224c0-17.664 14.336-32 32-32h224v-624z" />
<glyph unicode="&#xe926;" glyph-name="ganaderiaS" d="M953.6 374.4c-9.6 9.6-22.4 12.8-35.2 16h-278.4c-9.6 0-19.2-3.2-25.6-6.4s-12.8-6.4-19.2-12.8c-6.4-6.4-9.6-12.8-12.8-19.2s-3.2-12.8-3.2-19.2 6.4-22.4 16-35.2c9.6-9.6 25.6-16 41.6-16h185.6c-6.4-16-12.8-32-22.4-48-16-32-38.4-57.6-64-83.2s-54.4-44.8-86.4-57.6c-32-16-64-22.4-99.2-22.4-51.2 0-99.2 9.6-144 28.8s-83.2 44.8-118.4 80c-32 35.2-57.6 73.6-76.8 118.4s-28.8 96-28.8 147.2c0 51.2 9.6 99.2 28.8 147.2s44.8 86.4 80 121.6c35.2 35.2 73.6 60.8 118.4 80s92.8 28.8 147.2 28.8c32 0 60.8-3.2 86.4-9.6s51.2-16 73.6-28.8c22.4-12.8 44.8-25.6 67.2-44.8 22.4-16 44.8-35.2 67.2-57.6 3.2-3.2 12.8-9.6 22.4-9.6s19.2 0 28.8 3.2c12.8 3.2 22.4 9.6 32 19.2s12.8 22.4 12.8 35.2c0 16-6.4 28.8-19.2 41.6-25.6 28.8-54.4 54.4-80 73.6-25.6 22.4-54.4 38.4-83.2 54.4-28.8 12.8-60.8 25.6-96 32s-70.4 9.6-112 9.6c-67.2 0-134.4-12.8-195.2-38.4-60.8-22.4-112-57.6-156.8-102.4-48-44.8-83.2-99.2-108.8-160s-38.4-124.8-38.4-192c0-70.4 12.8-134.4 38.4-192 25.6-60.8 60.8-112 102.4-156.8 44.8-44.8 96-80 153.6-105.6 60.8-25.6 124.8-38.4 192-38.4 32 0 64 3.2 92.8 12.8s57.6 22.4 80 35.2c25.6 16 48 32 67.2 51.2s38.4 38.4 54.4 60.8c6.4 9.6 16 22.4 22.4 32v-137.6c0-16 3.2-28.8 12.8-38.4s22.4-16 38.4-16c16 0 28.8 6.4 38.4 16s16 22.4 16 38.4v320c0 19.2-3.2 35.2-12.8 44.8z" />
<glyph unicode="&#xe927;" glyph-name="genom" d="M208 499.2v211.2h-208c0-211.2 208-211.2 208-211.2zM816 710.4v-211.2c0 0 208 3.2 208 211.2h-208zM396.8 422.4c-147.2 179.2-44.8 390.4-44.8 390.4s-83.2-41.6-108.8-102.4v-217.6l160-364.8c0 0 144 115.2-6.4 294.4zM672 812.8c0 0 105.6-211.2-44.8-390.4s-6.4-294.4-6.4-294.4l160 364.8v217.6c-35.2 73.6-108.8 102.4-108.8 102.4zM566.4 115.2c0 0 19.2 9.6 16 25.6 0 6.4-3.2 16-12.8 22.4 0 0-16-22.4-60.8-22.4-41.6 0-60.8 22.4-60.8 22.4-9.6-9.6-12.8-16-12.8-22.4 0-19.2 16-25.6 16-25.6-9.6-25.6-38.4-6.4-38.4-6.4 0-73.6 80-80 92.8-80v0c0 0 0 0 0 0s0 0 0 0v0c12.8 0 92.8 6.4 92.8 80 6.4 0-22.4-19.2-32 6.4z" />
<glyph unicode="&#xe928;" glyph-name="Grupo" d="M242.688 393.728h-57.344c-43.008 0-82.944 20.48-82.944 67.584 0 34.816-1.024 150.528 53.248 150.528 9.216 0 53.248-35.84 110.592-35.84 19.456 0 37.888 3.072 56.32 10.24-1.024-9.216-2.048-18.432-2.048-27.648 0-38.912 12.288-76.8 34.816-109.568-44.032-2.048-83.968-21.504-112.64-55.296zM266.24 611.84c-60.416 0-109.568 49.152-109.568 109.568s49.152 108.544 109.568 108.544 109.568-49.152 109.568-109.568-49.152-108.544-109.568-108.544zM698.368 66.048h-372.736c-68.608 0-113.664 40.96-113.664 110.592 0 96.256 22.528 244.736 147.456 244.736 14.336 0 67.584-59.392 152.576-59.392s138.24 59.392 152.576 59.392c124.928 0 147.456-148.48 147.456-244.736 0-69.632-45.056-110.592-113.664-110.592zM512 393.728c-90.112 0-163.84 73.728-163.84 163.84s73.728 163.84 163.84 163.84 163.84-73.728 163.84-163.84-73.728-163.84-163.84-163.84zM757.76 611.84c-60.416 0-109.568 49.152-109.568 109.568s49.152 108.544 109.568 108.544 109.568-49.152 109.568-109.568-49.152-108.544-109.568-108.544zM838.656 393.728h-57.344c-28.672 33.792-68.608 53.248-112.64 54.272 22.528 31.744 34.816 70.656 34.816 109.568 0 9.216-1.024 18.432-2.048 27.648 18.432-6.144 36.864-10.24 56.32-10.24 57.344 0 102.4 35.84 110.592 35.84 54.272 0 53.248-115.712 53.248-150.528 0-46.080-39.936-66.56-82.944-66.56z" />
<glyph unicode="&#xe929;" glyph-name="handshake" d="M124.8 684.8c-9.6-22.4-92.8-256-102.4-278.4 19.2-6.4 131.2-48 150.4-54.4 9.6 22.4 92.8 256 102.4 278.4-22.4 6.4-131.2 44.8-150.4 54.4zM768 614.4l-6.4 3.2-3.2 6.4c-3.2 6.4-51.2 64-112 57.6-57.6-6.4-144-41.6-185.6-73.6-16-9.6-25.6-22.4-25.6-28.8s3.2-12.8 6.4-19.2c16-12.8 44.8-9.6 51.2-6.4 9.6 3.2 41.6 19.2 70.4 32 6.4 3.2 16 6.4 22.4 9.6l6.4 3.2 6.4-3.2c9.6-3.2 83.2-32 105.6-48 16-12.8 124.8-121.6 124.8-163.2 0 0 0 0 0-3.2 0-12.8-3.2-22.4-9.6-32 6.4 0 6.4 0 12.8 0 3.2 16 9.6 54.4 9.6 96 0 51.2-9.6 115.2-48 160-6.4 6.4-25.6 9.6-25.6 9.6zM950.4 617.6h-118.4c19.2-32 48-92.8 48-128 0 0 0-3.2 0-3.2 0-25.6-9.6-73.6-16-115.2 0 0 0 0 0 0-3.2-22.4-6.4-41.6-9.6-51.2h121.6c6.4 32 22.4 131.2 25.6 169.6 0 0 0 3.2 0 3.2 0 28.8-35.2 96-51.2 124.8zM748.8 460.8c-9.6 12.8-19.2 22.4-28.8 32-19.2 19.2-35.2 32-51.2 44.8-22.4 12.8-57.6 25.6-73.6 32-16-9.6-76.8-38.4-89.6-41.6s-51.2-6.4-76.8 12.8c-12.8 9.6-19.2 25.6-19.2 41.6 0 9.6 6.4 22.4 16 32-70.4 6.4-121.6 0-121.6 0l-83.2-230.4 41.6-6.4 48 67.2c12.8 19.2 38.4 22.4 57.6 6.4 9.6-6.4 16-19.2 19.2-28.8 12.8 9.6 35.2 12.8 51.2 0 9.6-6.4 16-16 19.2-28.8 0-3.2 0-6.4 0-9.6 12.8 3.2 25.6 0 35.2-6.4 16-12.8 22.4-32 16-48 9.6 0 16-3.2 25.6-9.6s19.2-19.2 19.2-28.8l-9.6-28.8-22.4-32c16-9.6 28.8-16 35.2-12.8 28.8 12.8 12.8 60.8 12.8 60.8s57.6-38.4 76.8-19.2c19.2 19.2 3.2 60.8 3.2 60.8 16-16 54.4-28.8 73.6-12.8s-9.6 60.8-9.6 60.8 38.4-32 64-19.2c3.2 0 6.4 3.2 9.6 6.4 0 3.2 3.2 6.4 6.4 9.6 6.4 16 0 35.2 0 35.2-16 19.2-28.8 41.6-44.8 60.8zM355.2 412.8c0 3.2-3.2 9.6-9.6 12.8-6.4 6.4-16 3.2-19.2 0l-38.4-57.6-9.6-16c-3.2-6.4 0-12.8 6.4-19.2 3.2-3.2 9.6-3.2 12.8-3.2s3.2 0 6.4 3.2l19.2 28.8 28.8 41.6c3.2 6.4 3.2 9.6 3.2 9.6zM425.6 384c0 0 0 3.2 0 0 0 6.4-3.2 9.6-6.4 12.8-6.4 6.4-16 3.2-22.4-3.2l-25.6-38.4-28.8-41.6c-3.2-6.4-3.2-16 6.4-19.2 6.4-6.4 16-3.2 22.4 3.2 0 0 12.8 19.2 25.6 38.4s28.8 41.6 28.8 41.6c0 3.2 0 3.2 0 6.4zM473.6 352c-6.4 6.4-16 3.2-22.4-3.2l-28.8-41.6-25.6-38.4c-3.2-6.4-3.2-16 6.4-19.2 3.2-3.2 9.6-3.2 12.8-3.2s6.4 3.2 9.6 6.4l22.4 35.2 32 44.8c3.2 6.4 0 16-6.4 19.2zM515.2 297.6c-6.4 6.4-16 6.4-19.2 0l-44.8-64c-3.2-3.2 0-12.8 6.4-16 6.4-6.4 16-3.2 19.2 0l44.8 64v3.2c0 3.2-3.2 9.6-6.4 12.8z" />
<glyph unicode="&#xe92a;" glyph-name="Identificacion" d="M921.6 199.168c0-39.936-32.768-72.704-72.704-72.704h-673.792c-39.936 0-72.704 32.768-72.704 72.704v497.664c0 39.936 32.768 72.704 72.704 72.704h672.768c39.936 0 72.704-32.768 72.704-72.704v-497.664zM863.232 580.096c0 8.192-7.168 14.336-14.336 14.336h-673.792c-7.168 0-14.336-7.168-14.336-14.336v-379.904c0-8.192 7.168-14.336 14.336-14.336h672.768c7.168 0 14.336 7.168 14.336 14.336v379.904zM277.504 492.032c0-8.192-7.168-14.336-14.336-14.336h-29.696c-8.192 0-14.336 7.168-14.336 14.336v29.696c0 8.192 7.168 14.336 14.336 14.336h29.696c8.192 0 14.336-7.168 14.336-14.336v-29.696zM277.504 375.296c0-8.192-7.168-14.336-14.336-14.336h-29.696c-8.192 0-14.336 7.168-14.336 14.336v29.696c0 8.192 7.168 14.336 14.336 14.336h29.696c8.192 0 14.336-7.168 14.336-14.336v-29.696zM277.504 257.536c0-8.192-7.168-14.336-14.336-14.336h-29.696c-8.192 0-14.336 7.168-14.336 14.336v29.696c0 8.192 7.168 14.336 14.336 14.336h29.696c8.192 0 14.336-7.168 14.336-14.336v-29.696zM804.864 492.032c0-8.192-7.168-14.336-14.336-14.336h-439.296c-7.168 0-14.336 7.168-14.336 14.336v29.696c0 8.192 7.168 14.336 14.336 14.336h439.296c7.168 0 14.336-7.168 14.336-14.336v-29.696zM804.864 375.296c0-8.192-7.168-14.336-14.336-14.336h-439.296c-7.168 0-14.336 7.168-14.336 14.336v29.696c0 8.192 7.168 14.336 14.336 14.336h439.296c7.168 0 14.336-7.168 14.336-14.336v-29.696zM804.864 257.536c0-8.192-7.168-14.336-14.336-14.336h-439.296c-7.168 0-14.336 7.168-14.336 14.336v29.696c0 8.192 7.168 14.336 14.336 14.336h439.296c7.168 0 14.336-7.168 14.336-14.336v-29.696z" />
<glyph unicode="&#xe92b;" glyph-name="Indicador" d="M981.248 21.248h-85.248v42.752h-42.752v-42.752h-85.12v42.752h-42.752v-42.752h-85.248v42.752h-42.752v-42.752h-85.248v42.752h-42.752v-42.752h-85.248v42.752h-42.752v-42.752h-187.776l224.853 135.125 111.275 325.205 165.291-290.517 320.299 533.675-73.131 43.947-245.205-408.576-186.709 328.149-162.517-474.795-222.507-133.717v880.256h-85.248v-1024h1024v128h-42.752zM981.248 960h42.752v-42.752h-42.752zM853.248 960h42.752v-42.752h-42.752zM725.376 960h42.752v-42.752h-42.752zM597.376 960h42.752v-42.752h-42.752zM469.376 960h42.752v-42.752h-42.752zM341.376 960h42.752v-42.752h-42.752zM213.376 960h42.752v-42.752h-42.752zM85.376 960h42.752v-42.752h-42.752zM981.248 832h42.752v-42.752h-42.752zM853.248 832h42.752v-42.752h-42.752zM725.376 832h42.752v-42.752h-42.752zM597.376 832h42.752v-42.752h-42.752zM469.376 832h42.752v-42.752h-42.752zM341.376 832h42.752v-42.752h-42.752zM213.376 832h42.752v-42.752h-42.752zM85.376 832h42.752v-42.752h-42.752zM981.248 704.128h42.752v-42.752h-42.752zM725.376 704.128h42.752v-42.752h-42.752zM597.376 704.128h42.752v-42.752h-42.752zM341.376 704.128h42.752v-42.752h-42.752zM213.376 704.128h42.752v-42.752h-42.752zM85.376 704.128h42.752v-42.752h-42.752zM981.248 576.128h42.752v-42.752h-42.752zM597.376 576.128h42.752v-42.752h-42.752zM341.376 576.128h42.752v-42.752h-42.752zM213.376 576.128h42.752v-42.752h-42.752zM85.376 576.128h42.752v-42.752h-42.752zM981.248 448.043h42.752v-42.752h-42.752zM853.248 448.043h42.752v-42.752h-42.752zM213.376 448.043h42.752v-42.752h-42.752zM85.376 448.043h42.752v-42.752h-42.752zM981.248 320.043h42.752v-42.752h-42.752zM853.248 320.043h42.752v-42.752h-42.752zM469.376 320.043h42.752v-42.752h-42.752zM213.376 320.043h42.752v-42.752h-42.752zM85.376 320.043h42.752v-42.752h-42.752zM981.248 192.171h42.752v-42.752h-42.752zM853.248 192.171h42.752v-42.752h-42.752zM725.376 192.171h42.752v-42.752h-42.752zM469.376 192.171h42.752v-42.752h-42.752zM85.376 192.171h42.752v-42.752h-42.752z" />
<glyph unicode="&#xe92c;" glyph-name="instagram" d="M512 867.808c136.8 0 152.992-0.608 206.784-3.008 50.016-2.208 76.992-10.592 95.008-17.6 23.808-9.216 40.992-20.416 58.784-38.208 18.016-18.016 28.992-35.008 38.4-58.816 7.008-18.016 15.392-45.184 17.6-95.008 2.4-54.016 3.008-70.208 3.008-206.816s-0.608-152.992-3.008-206.816c-2.208-50.016-10.592-76.992-17.6-95.008-9.216-23.808-20.384-40.992-38.208-58.784-18.016-18.016-35.008-28.992-58.784-38.4-18.016-7.008-45.216-15.392-95.008-17.6-54.016-2.4-70.208-3.008-206.816-3.008s-152.992 0.608-206.816 3.008c-50.016 2.208-76.992 10.592-95.008 17.6-23.808 9.216-40.992 20.384-58.816 38.208-18.016 18.016-28.992 35.008-38.4 58.784-7.008 18.016-15.392 45.216-17.6 95.008-2.4 54.016-3.008 70.208-3.008 206.816s0.608 152.992 3.008 206.816c2.208 50.016 10.592 76.992 17.6 95.008 9.216 23.808 20.416 40.992 38.208 58.816 18.016 18.016 35.008 28.992 58.816 38.4 18.016 7.008 45.184 15.392 95.008 17.6 53.792 2.4 70.016 3.008 206.816 3.008zM512 960c-139.008 0-156.384-0.608-211.008-3.008-54.4-2.4-91.808-11.2-124.192-23.808-33.792-13.184-62.4-30.592-90.784-59.2-28.608-28.416-46.016-56.992-59.2-90.592-12.608-32.608-21.408-69.792-23.808-124.192-2.4-54.816-3.008-72.192-3.008-211.2s0.608-156.384 3.008-211.008c2.4-54.4 11.2-91.808 23.808-124.192 13.216-33.792 30.592-62.4 59.2-90.784 28.384-28.384 56.992-46.016 90.592-59.008 32.608-12.608 69.792-21.408 124.192-23.808 54.592-2.4 72-3.008 211.008-3.008s156.416 0.608 211.008 3.008c54.4 2.4 91.808 11.2 124.192 23.808 33.6 12.992 62.208 30.592 90.592 59.008s46.016 56.992 59.008 90.592c12.608 32.608 21.408 69.792 23.808 124.192 2.4 54.592 3.008 72 3.008 211.008s-0.608 156.384-3.008 211.008c-2.4 54.4-11.2 91.808-23.808 124.192-12.608 34.016-30.016 62.592-58.592 91.008-28.384 28.384-56.992 46.016-90.592 59.008-32.608 12.608-69.792 21.408-124.192 23.808-54.784 2.592-72.192 3.2-211.2 3.2v0zM512 711.008c-145.184 0-263.008-117.792-263.008-263.008s117.792-263.008 263.008-263.008 263.008 117.792 263.008 263.008c0 145.184-117.792 263.008-263.008 263.008zM512 277.408c-94.208 0-170.592 76.384-170.592 170.592s76.384 170.592 170.592 170.592c94.208 0 170.592-76.384 170.592-170.592s-76.384-170.592-170.592-170.592zM846.784 721.408c0-33.92-27.488-61.408-61.408-61.408s-61.408 27.488-61.408 61.408c0 33.92 27.488 61.408 61.408 61.408s61.408-27.488 61.408-61.408z" />
<glyph unicode="&#xe92d;" glyph-name="Intranet" d="M778.24 346.624c-12.288 6.144-26.624 0-32.768-12.288-43.008-92.16-136.192-151.552-237.568-151.552s-194.56 59.392-237.568 151.552c-6.144 12.288-20.48 17.408-32.768 12.288-12.288-6.144-17.408-20.48-12.288-32.768 51.2-109.568 161.792-180.224 282.624-180.224s231.424 70.656 281.6 180.224c7.168 12.288 1.024 26.624-11.264 32.768zM731.136 763.392c-50.176 0-96.256-19.456-130.048-52.224-26.624 18.432-57.344 28.672-90.112 28.672s-63.488-10.24-90.112-28.672c-33.792 31.744-79.872 51.2-130.048 51.2-103.424 1.024-188.416-84.992-188.416-189.44s84.992-190.464 190.464-190.464c104.448 0 190.464 84.992 190.464 190.464 0 11.264-1.024 22.528-3.072 32.768 20.48 11.264 45.056 11.264 65.536 0-2.048-11.264-3.072-21.504-3.072-32.768 0-104.448 84.992-190.464 189.44-190.464 104.448 1.024 189.44 86.016 189.44 190.464s-84.992 190.464-190.464 190.464zM292.864 432.64c-77.824 0-140.288 63.488-140.288 140.288 0 77.824 63.488 140.288 140.288 140.288 43.008 0 80.896-19.456 106.496-49.152 0 0 0-1.024 1.024-1.024 0 0 0 0 0 0 20.48-24.576 32.768-55.296 32.768-90.112 0-76.8-63.488-140.288-140.288-140.288zM557.056 646.656c-14.336 6.144-28.672 10.24-45.056 10.24-15.36 0-30.72-3.072-45.056-9.216-5.12 11.264-11.264 22.528-18.432 32.768 18.432 12.288 39.936 18.432 62.464 18.432s44.032-6.144 62.464-18.432c-6.144-11.264-12.288-21.504-16.384-33.792zM731.136 432.64c-77.824 0-140.288 63.488-140.288 140.288 0 77.824 63.488 140.288 140.288 140.288 77.824 0 140.288-63.488 140.288-140.288 1.024-76.8-62.464-140.288-140.288-140.288z" />
<glyph unicode="&#xe92e;" glyph-name="investigador" d="M337.248 586.176l4.224-2.048-3.456-7.104c-4.544-9.6-5.152-20.768-1.696-30.816 3.424-10.080 11.008-18.304 20.608-23.072l35.776-17.152c20-9.6 43.936-1.248 53.696 18.752l3.616 7.424 4.416-2.24c20-9.44 43.968-1.088 53.728 18.912l53.696 111.2c29.472-16.576 60.512-39.072 82.368-68.544 30.24 27.552 70.56 44.384 114.816 44.384 4.416 0 8.672-0.32 12.896-0.64-36.832 67.424-98.272 113.088-152.928 142.56l23.808 49.312c4.736 9.76 5.344 20.8 1.728 30.88-3.456 10.112-10.88 18.464-20.512 22.976l-4.256 2.080c3.040 6.272 3.328 13.536 1.12 20.128-2.208 6.624-7.072 12-13.376 14.944l-60.96 29.376c-13.216 6.144-28.768 0.608-35.136-12.448l-4.736 2.208c-19.808 9.632-43.936 1.248-53.536-18.72l-134.656-278.496c-4.704-9.632-5.376-20.768-1.728-30.88 3.456-10.080 10.88-18.272 20.48-22.976zM644.384 340.256c-6.784-12.608-14.976-24.704-25.024-36.064-24.416-27.424-57.184-46.432-98.432-57.44v39.328h33.536v35.712c0 14.528-11.808 26.176-26.336 26.176h-282.528c-14.496 0-26.176-11.648-26.176-26.176v-35.712h59.232v-205.248c-0.48-0.16-0.8-0.32-1.28-0.448-64.416-25.856-117.632-72.608-150.272-134.4h520.448c-28.576 54.016-72.96 96.448-126.816 123.648-1.152 0.64-2.368 1.28-3.648 1.92 1.28-0.64 2.496-1.28 3.808-1.92v42.88c80 14.624 146.944 49.6 195.936 104.704 22.208 24.864 39.008 51.84 51.808 79.232-3.168-0.32-6.464-0.32-9.632-0.32-44.064 0.032-84.416 16.704-114.624 44.128zM759.040 603.168c-75.936 0-137.792-61.44-137.792-137.216 0-75.616 61.856-137.056 137.792-137.056 76.032 0 137.856 61.44 137.856 137.056-0.032 75.776-61.824 137.216-137.856 137.216z" />
<glyph unicode="&#xe92f;" glyph-name="lab" d="M661.824 840.576c-15.136 15.104-35.2 23.424-56.576 23.424s-41.44-8.32-56.64-23.456l-45.12-45.184c-15.136-15.104-23.488-35.2-23.488-56.608 0-15.072 4.128-29.504 11.872-42.016l-434.464-174.048c-29.056-12.768-49.888-38.976-55.744-70.048-5.92-31.264 4-63.328 26.688-85.984l407.040-402.56c17.536-17.536 40.832-27.488 65.44-28.064 0.576-0.032 1.92-0.032 2.496-0.032 6.464 0 13.024 0.672 19.52 1.984 31.808 6.592 57.856 28.576 69.664 58.496l170.944 428.032c12.864-8.48 28-13.024 43.744-13.024 21.44 0 41.504 8.352 56.576 23.456l45.024 45.056c15.264 15.168 23.616 35.296 23.616 56.736s-8.384 41.6-23.424 56.576l-247.168 247.264zM533.088 20.256c-3.968-10.016-12.704-17.408-23.264-19.584-2.432-0.512-4.896-0.704-7.328-0.672-8.128 0.192-15.968 3.456-21.824 9.344l-407.296 402.816c-7.488 7.456-10.784 18.144-8.8 28.576 1.952 10.368 8.928 19.136 18.624 23.36l198.944 79.68c134.048-44.576 268.128-1.632 402.24-144.704l-151.296-378.816zM863.744 525.44l-45.248-45.216c-6.24-6.272-16.384-6.272-22.624 0l-56.576 56.544-45.824-114.848 3.808 9.696c-96.32 96.16-194.208 108.288-282.528 119.136-28.384 3.488-55.904 7.136-82.944 12.96l271.712 108.832-54.88 54.88c-6.24 6.24-6.24 16.384 0 22.624l45.248 45.28c6.24 6.24 16.384 6.24 22.624 0l247.2-247.264c6.336-6.24 6.336-16.384 0.032-22.624zM528 288c44.096 0 80 35.872 80 80s-35.872 80-80 80c-44.128 0-80-35.872-80-80s35.904-80 80-80zM528 416c26.496 0 48-21.504 48-48s-21.504-48-48-48c-26.528 0-48 21.504-48 48s21.472 48 48 48zM944 960c-44.128 0-80-35.872-80-80s35.872-80 80-80 80 35.872 80 80-35.872 80-80 80zM944 832c-26.496 0-48 21.504-48 48s21.504 48 48 48 48-21.504 48-48-21.504-48-48-48zM256 416c0-35.296 28.704-64 64-64s64 28.704 64 64-28.704 64-64 64-64-28.704-64-64zM320 448c17.664 0 32-14.304 32-32s-14.336-32-32-32-32 14.304-32 32 14.336 32 32 32zM384 224c0 17.664 14.336 32 32 32s32-14.336 32-32c0-17.664-14.336-32-32-32s-32 14.336-32 32zM896 704c0 17.664 14.336 32 32 32s32-14.336 32-32c0-17.664-14.336-32-32-32s-32 14.336-32 32z" />
<glyph unicode="&#xe930;" glyph-name="Leche" d="M521.6 947.2l-51.2-83.2 51.2-32c-60.8-99.2-304-499.2-336-550.4l-6.4-9.6c-28.8-48-76.8-124.8-60.8-201.6 9.6-38.4 35.2-70.4 76.8-96s80-32 115.2-25.6c73.6 16 118.4 89.6 153.6 144l345.6 566.4 48-28.8 51.2 83.2-387.2 233.6zM432 131.2l-6.4-12.8c-28.8-48-67.2-112-121.6-124.8-25.6-6.4-51.2 0-83.2 19.2-28.8 19.2-48 41.6-54.4 67.2-12.8 57.6 28.8 124.8 54.4 166.4l6.4 9.6c32 51.2 275.2 448 336 550.4l204.8-124.8-336-550.4zM521.6 534.4c-16 44.8-67.2 38.4-67.2 38.4s-195.2-320-217.6-355.2c-22.4-35.2-80-118.4 0-169.6 80-48 121.6 28.8 150.4 76.8 28.8 44.8 236.8 387.2 236.8 387.2s-54.4-22.4-86.4-6.4c-6.4 3.2-12.8 22.4-16 28.8z" />
<glyph unicode="&#xe931;" glyph-name="Libro" d="M918.528 590.336l-136.192-446.464c-12.288-41.984-55.296-74.752-98.304-74.752h-453.632c-50.176 0-103.424 39.936-121.856 91.136-8.192 22.528-8.192 44.032-1.024 62.464 1.024 10.24 3.072 19.456 3.072 31.744 0 8.192-4.096 14.336-3.072 20.48 2.048 12.288 12.288 20.48 20.48 33.792 14.336 24.576 31.744 64.512 36.864 90.112 2.048 9.216-2.048 20.48 0 28.672 2.048 9.216 12.288 16.384 16.384 25.6 13.312 22.528 30.72 66.56 32.768 89.088 1.024 10.24-4.096 21.504-1.024 29.696 3.072 11.264 14.336 16.384 21.504 25.6 12.288 16.384 31.744 63.488 34.816 89.088 1.024 8.192-4.096 16.384-2.048 25.6s13.312 19.456 21.504 30.72c20.48 30.72 24.576 98.304 87.040 79.872v-1.024c8.192 2.048 16.384 4.096 25.6 4.096h374.784c23.552 0 44.032-10.24 56.32-27.648s15.36-40.96 9.216-64.512l-136.192-445.44c-23.552-75.776-35.84-92.16-98.304-92.16h-428.032c-6.144 0-14.336-1.024-18.432-7.168s-4.096-10.24 0-21.504c10.24-28.672 44.032-34.816 70.656-34.816h454.656c18.432 0 38.912 10.24 45.056 27.648l147.456 485.376c3.072 9.216 3.072 19.456 2.048 27.648 11.264-4.096 21.504-11.264 28.672-21.504 12.288-15.36 15.36-38.912 9.216-61.44zM355.328 511.488h299.008c8.192 0 17.408 7.168 20.48 15.36l10.24 31.744c3.072 9.216-2.048 15.36-11.264 15.36h-297.984c-8.192 0-17.408-7.168-20.48-15.36l-10.24-31.744c-3.072-9.216 1.024-15.36 10.24-15.36zM396.288 637.44h299.008c8.192 0 17.408 7.168 20.48 15.36l10.24 31.744c3.072 9.216-2.048 15.36-11.264 15.36h-297.984c-8.192 0-17.408-7.168-20.48-15.36l-10.24-31.744c-3.072-9.216 1.024-15.36 10.24-15.36z" />
<glyph unicode="&#xe932;" glyph-name="LibrosV" d="M765.952 814.592c11.264 0 19.456-12.288 19.456-26.624v-680.96c0-14.336-9.216-26.624-19.456-26.624h-507.904c-11.264 0-19.456 12.288-19.456 26.624v681.984c0 14.336 9.216 26.624 19.456 26.624l507.904-1.024zM765.952 857.6h-507.904c-34.816 0-62.464-30.72-62.464-68.608v-680.96c0-38.912 27.648-68.608 62.464-68.608h508.928c34.816 0 62.464 30.72 62.464 68.608v680.96c-1.024 37.888-28.672 68.608-63.488 68.608v0zM512 107.008c-11.264 0-20.48 9.216-20.48 20.48s9.216 20.48 20.48 20.48c11.264 0 20.48-9.216 20.48-20.48s-9.216-20.48-20.48-20.48zM733.184 743.936v-550.912h-442.368v550.912h442.368zM733.184 765.44h-442.368c-12.288 0-21.504-9.216-21.504-21.504v-550.912c0-12.288 9.216-21.504 21.504-21.504h442.368c12.288 0 21.504 9.216 21.504 21.504v550.912c0 11.264-10.24 21.504-21.504 21.504v0zM435.2 515.584c0-7.168 6.144-13.312 13.312-13.312h224.256c7.168 0 13.312 6.144 13.312 13.312s-6.144 13.312-13.312 13.312h-224.256c-7.168 1.024-13.312-5.12-13.312-13.312zM407.552 510.464v16.384h-49.152v-76.8h51.2v16.384h-30.72v14.336h27.648v16.384h-27.648v12.288h28.672zM584.704 611.84c18.432 0 32.768 14.336 32.768 32.768s-14.336 32.768-32.768 32.768h-224.256c-18.432 0-32.768-14.336-32.768-32.768s14.336-32.768 32.768-32.768h224.256zM538.624 278.016h-179.2c-7.168 0-13.312-6.144-13.312-13.312s6.144-13.312 13.312-13.312h178.176c7.168 0 13.312 6.144 13.312 13.312 1.024 7.168-5.12 13.312-12.288 13.312zM672.768 479.744h-224.256c-7.168 0-13.312-6.144-13.312-13.312s6.144-13.312 13.312-13.312h224.256c7.168 0 13.312 6.144 13.312 13.312s-5.12 13.312-13.312 13.312zM672.768 430.592h-313.344c-7.168 0-13.312-6.144-13.312-13.312s6.144-13.312 13.312-13.312h313.344c7.168 0 13.312 6.144 13.312 13.312 0 8.192-5.12 13.312-13.312 13.312zM672.768 381.44h-313.344c-7.168 0-13.312-6.144-13.312-13.312s6.144-13.312 13.312-13.312h313.344c7.168 0 13.312 6.144 13.312 13.312s-5.12 13.312-13.312 13.312zM672.768 329.216h-313.344c-7.168 0-13.312-6.144-13.312-13.312s6.144-13.312 13.312-13.312h313.344c7.168 0 13.312 6.144 13.312 13.312s-5.12 13.312-13.312 13.312z" />
<glyph unicode="&#xe933;" glyph-name="linkata" d="M160.512 906.688h201.12v-554.88l208.928 204.512h275.264l-284.064-261.952 301.728-305.056h-281.888l-219.968 231.072v-231.072h-201.12z" />
<glyph unicode="&#xe934;" glyph-name="Localizacion" d="M766.976 488.96l-193.536-412.672c-11.264-23.552-35.84-37.888-61.44-37.888s-50.176 14.336-60.416 37.888l-194.56 412.672c-14.336 29.696-17.408 63.488-17.408 95.232-1.024 151.552 121.856 273.408 272.384 273.408s273.408-121.856 273.408-273.408c0-31.744-4.096-65.536-18.432-95.232zM512 721.408c-74.752 0-136.192-61.44-136.192-136.192s61.44-137.216 136.192-137.216 136.192 61.44 136.192 136.192-61.44 137.216-136.192 137.216z" />
<glyph unicode="&#xe935;" glyph-name="location" d="M512.064 392.128c105.888 0 192 86.144 192 192s-86.112 192-192 192c-105.888 0-192-86.112-192-192s86.112-192 192-192zM512.064 744.128c88.256 0 160-71.744 160-160s-71.744-160-160-160c-88.256 0-160 71.744-160 160s71.744 160 160 160zM512 960c-211.776 0-384-170.112-384-384.032 0-224 192.032-453.152 332.032-614.208 0.512-0.64 22.976-25.76 50.752-25.76 0.064 0 2.336 0 2.464 0 27.744 0 50.24 25.12 50.752 25.76 140.064 161.056 332.064 390.176 332.064 614.208 0 213.92-172.256 384.032-384.064 384.032zM515.744 3.744c-0.672-0.64-2.624-2.048-4.32-3.136-0.32 0.864-2.688 2.752-4.128 4.256-117.28 134.944-315.296 362.688-315.296 571.104 0 176.448 143.584 320.032 320 320.032 176.512 0 320.064-143.584 320.064-320.064 0-208.384-198.016-436.128-316.32-572.192z" />
<glyph unicode="&#xe936;" glyph-name="lock" d="M800 544v128c0 159.072-128.928 288-288 288s-288-128.928-288-288v-128c-53.024 0-96-42.976-96-96v-224c0-159.072 128.928-288 288-288h192c159.072 0 288 128.928 288 288v224c0 53.056-43.008 96-96 96zM288 672c0 123.712 100.288 224 224 224s224-100.288 224-224v-128h-64v127.936c0 88.384-71.616 160-160 160s-160-71.616-160-160v-127.936h-64v128zM640 672v-128h-256v128c0 70.688 57.312 128 128 128s128-57.312 128-128zM832 352v-128c0-123.488-100.512-224-224-224h-192c-123.488 0-224 100.512-224 224v224c0 17.664 14.336 32 32 32 21.344 0 42.656 0 64 0h448c21.312 0 42.624 0 64 0 17.632 0 32-14.336 32-32v-96zM512 352c35.328 0 64-28.64 64-64 0-19.488-10.496-56.576-21.312-85.824-8.736-23.616-17.664-42.112-42.688-42.112-23.008 0-33.952 18.688-42.656 42.432-10.688 29.184-21.344 66.080-21.344 85.504 0 35.36 28.672 64 64 64z" />
<glyph unicode="&#xe937;" glyph-name="Mail" d="M843.776 571.904c-71.68-49.152-143.36-98.304-214.016-148.48-29.696-20.48-79.872-62.464-116.736-62.464h-1.024c-36.864 0-87.040 41.984-116.736 62.464-70.656 50.176-142.336 99.328-212.992 148.48-32.768 21.504-78.848 73.728-78.848 114.688 0 45.056 24.576 82.944 72.704 82.944h672.768c39.936 0 72.704-32.768 72.704-72.704 0-51.2-37.888-97.28-77.824-124.928zM921.6 199.168c0-39.936-32.768-72.704-72.704-72.704h-673.792c-39.936 0-72.704 32.768-72.704 72.704v363.52c13.312-15.36 29.696-28.672 46.080-39.936 75.776-51.2 152.576-103.424 227.328-157.696 38.912-28.672 86.016-63.488 136.192-63.488v0h1.024c50.176 0 97.28 34.816 135.168 63.488 74.752 54.272 151.552 106.496 227.328 157.696 16.384 11.264 31.744 24.576 46.080 39.936v-363.52c0 0 0 0 0 0z" />
<glyph unicode="&#xe938;" glyph-name="Mail2" d="M920.576 702.976c2.048 9.216 0 18.432-6.144 25.6 0 0 0 0 0 0-5.12 6.144-12.288 9.216-20.48 9.216h-763.904c0 0 0 0-1.024 0-7.168 0-14.336-2.048-19.456-8.192-7.168-7.168-8.192-16.384-7.168-24.576v-520.192c0-7.168 3.072-14.336 8.192-19.456 0 0 0 0 0 0 5.12-5.12 12.288-8.192 18.432-8.192 1.024 0 1.024 0 2.048 0h761.856c0 0 0 0 1.024 0 0 0 0 0 0 0 7.168 0 13.312 3.072 18.432 8.192 7.168 7.168 9.216 16.384 6.144 25.6l2.048 512zM832.512 684.544l-319.488-319.488-101.376 101.376c0 0 0 0 0 0s0 0 0 0l-218.112 218.112h638.976zM156.672 645.632l198.656-198.656-198.656-197.632v396.288zM195.584 211.456l197.632 197.632 101.376-101.376c5.12-5.12 12.288-8.192 18.432-8.192 7.168 0 14.336 3.072 19.456 8.192l101.376 101.376 197.632-197.632h-635.904zM867.328 251.392l-196.608 195.584 196.608 196.608v-392.192z" />
<glyph unicode="&#xe939;" glyph-name="Mal" d="M902.144 151.040l-93.184-93.184c-12.288-12.288-29.696-19.456-47.104-19.456s-34.816 7.168-47.104 19.456l-202.752 202.752-202.752-202.752c-12.288-12.288-29.696-19.456-47.104-19.456s-34.816 7.168-47.104 19.456l-93.184 93.184c-12.288 12.288-19.456 29.696-19.456 47.104s7.168 34.816 19.456 47.104l202.752 202.752-202.752 202.752c-12.288 12.288-19.456 29.696-19.456 47.104s7.168 34.816 19.456 47.104l93.184 94.208c12.288 12.288 29.696 19.456 47.104 19.456s34.816-7.168 47.104-19.456l202.752-203.776 202.752 202.752c12.288 12.288 29.696 19.456 47.104 19.456s34.816-7.168 47.104-19.456l94.208-94.208c12.288-12.288 19.456-29.696 19.456-47.104s-7.168-34.816-19.456-47.104l-203.776-201.728 202.752-202.752c12.288-12.288 19.456-29.696 19.456-47.104s-7.168-34.816-19.456-47.104z" />
<glyph unicode="&#xe93a;" glyph-name="Manuales" d="M892.928 863.744h-672.768c-15.36 0-28.672-13.312-28.672-28.672v-136.192h-60.416c-15.36 0-28.672-12.288-28.672-28.672 0-15.36 12.288-28.672 28.672-28.672h60.416v-91.136h-60.416c-15.36 0-28.672-12.288-28.672-28.672 0-15.36 12.288-28.672 28.672-28.672h60.416v-91.136h-60.416c-15.36 0-28.672-13.312-28.672-28.672s12.288-28.672 28.672-28.672h60.416v-91.136h-60.416c-15.36 0-28.672-13.312-28.672-28.672s12.288-28.672 28.672-28.672h60.416v-137.216c0-15.36 13.312-28.672 28.672-28.672h673.792c15.36 0 28.672 12.288 28.672 28.672v776.192c-1.024 16.384-13.312 28.672-29.696 28.672zM864.256 88.576h-616.448v109.568h64.512c15.36 0 28.672 12.288 28.672 28.672 0 15.36-12.288 28.672-28.672 28.672h-64.512v90.112h64.512c15.36 0 28.672 12.288 28.672 28.672 0 15.36-12.288 28.672-28.672 28.672h-64.512v91.136h64.512c15.36 0 28.672 12.288 28.672 28.672 0 15.36-12.288 28.672-28.672 28.672h-64.512v91.136h64.512c15.36 0 28.672 12.288 28.672 28.672 0 15.36-12.288 28.672-28.672 28.672h-64.512v107.52h616.448v-718.848zM409.6 706.048h381.952c11.264 0 20.48 9.216 20.48 20.48s-9.216 20.48-20.48 20.48h-381.952c-11.264 0-20.48-9.216-20.48-20.48-1.024-11.264 9.216-20.48 20.48-20.48zM409.6 593.408h381.952c11.264 0 20.48 9.216 20.48 20.48s-9.216 20.48-20.48 20.48h-381.952c-11.264 0-20.48-9.216-20.48-20.48-1.024-11.264 9.216-20.48 20.48-20.48zM409.6 481.792h381.952c11.264 0 20.48 9.216 20.48 20.48s-9.216 20.48-20.48 20.48h-381.952c-11.264 0-20.48-9.216-20.48-20.48s9.216-20.48 20.48-20.48zM409.6 370.176h381.952c11.264 0 20.48 9.216 20.48 20.48s-9.216 20.48-20.48 20.48h-381.952c-11.264 0-20.48-9.216-20.48-20.48-1.024-11.264 9.216-20.48 20.48-20.48zM409.6 257.536h381.952c11.264 0 20.48 9.216 20.48 20.48s-9.216 20.48-20.48 20.48h-381.952c-11.264 0-20.48-9.216-20.48-20.48-1.024-11.264 9.216-20.48 20.48-20.48zM409.6 145.92h381.952c11.264 0 20.48 9.216 20.48 20.48s-9.216 20.48-20.48 20.48h-381.952c-11.264 0-20.48-9.216-20.48-20.48-1.024-11.264 9.216-20.48 20.48-20.48z" />
<glyph unicode="&#xe93b;" glyph-name="Mapa" d="M820.224 650.816c-1.408 58.208-16.608 109.504-46.56 156.864-26.528 41.984-60.96 75.712-102.496 100.256-47.2 27.936-104.256 43.328-160.672 43.328-15.68 0-31.456-1.184-46.912-3.488-89.408-13.76-165.344-63.616-213.792-140.64-29.376-46.816-44.928-99.776-46.016-157.408-1.408-71.264 22.656-122.72 43.68-159.616 4.544-7.872 8.896-15.872 13.216-23.872 7.104-13.056 14.528-26.528 22.432-39.424 13.696-22.208 28.032-44.416 41.856-65.856 24.16-37.472 49.12-76.096 71.328-115.904 50.336-90.144 83.424-174.752 103.52-264.64-14.24-2.4-24-9.088-24-17.28 0-10.528 15.552-18.368 36.256-18.368 20.64 0 36.16 7.84 36.16 18.368 0 7.904-9.024 14.4-22.464 16.992 33.504 155.648 103.264 271.648 178.048 386.112 25.76 39.456 52.384 80.32 73.664 124.992 2.464 5.248 5.056 10.4 7.616 15.584 8.384 16.864 17.024 34.24 22.976 54.208 8.608 29.248 12.896 60.32 12.16 89.792zM803.616 562.368c-5.792-19.552-14.336-36.8-22.656-53.536-2.592-5.184-5.152-10.336-7.648-15.584-21.088-44.416-47.712-85.12-73.376-124.48-75.072-114.944-145.056-231.36-178.72-387.904-1.472 0.16-3.008 0.288-4.576 0.384 33.76 157.664 104.32 274.976 179.456 389.984 26.176 40.128 52.288 80.16 73.056 123.968 10.688 22.336 22.656 43.36 30.080 68.448 7.328 24.8 12.64 54.72 11.84 87.008-1.472 62.976-19.296 111.328-45.152 152.192-24.736 39.2-57.376 72.416-99.424 97.248-41.28 24.448-96.032 42.048-156.032 42.048-14.88 0-30.080-1.12-45.536-3.424-94.688-14.528-165.248-69.44-207.456-136.512-25.536-40.736-43.36-90.528-44.608-152.672-1.216-63.616 18.4-112.64 42.528-154.88 12.032-21.184 22.88-42.656 35.456-63.072 37.632-61.024 78.336-119.136 113.376-182.048 44.736-80.16 82.016-166.24 104.704-268.224-1.6 0-3.136-0.16-4.64-0.288-20.096 90.432-53.44 175.616-104.032 266.304-22.304 39.872-47.296 78.56-71.456 116.032-13.888 21.44-28.128 43.616-41.856 65.824-7.968 12.768-15.168 26.24-22.304 39.264-4.32 7.968-8.704 15.968-13.248 23.904-20.768 36.416-44.448 87.136-43.072 157.312 1.12 56.736 16.384 108.96 45.344 155.072 47.68 75.84 122.528 125.056 210.656 138.464 15.232 2.336 30.784 3.488 46.208 3.488 55.552 0 111.776-15.168 158.304-42.688 40.864-24.128 74.816-57.376 100.96-98.784 29.504-46.592 44.512-97.152 45.952-154.496 0.64-28.992-3.52-59.584-12.128-88.352zM481.76 492.704l-36.256 131.040c-11.104 40.32-22.656 88.736-30.752 133.024h-0.992c-2.048-45.888-3.584-98.24-6.016-140.608l-6.080-128.992h-71.104l21.696 339.712h102.304l33.248-113.44c10.592-38.784 21.216-81.6 28.768-121.504h1.504c9.568 39.328 21.12 84.256 32.288 122.048l36.256 112.864h100.288l18.656-339.68h-75.072l-5.056 130.016c-1.536 40.768-3.072 90.208-3.072 139.552h-1.472c-10.56-43.328-24.736-91.712-37.824-131.552l-41.344-132.512h-59.968z" />
<glyph unicode="&#xe93c;" glyph-name="Megafono" d="M921.6 506.368c0-32.768-25.6-58.368-58.368-58.368v-175.104c0-31.744-26.624-58.368-58.368-58.368-80.896 67.584-212.992 160.768-370.688 174.080-54.272-18.432-72.704-81.92-37.888-118.784-31.744-52.224 9.216-90.112 57.344-128-28.672-55.296-146.432-56.32-188.416-17.408-26.624 80.896-65.536 162.816-33.792 265.216h-56.32c-39.936 0-72.704 32.768-72.704 72.704v88.064c0 39.936 32.768 72.704 72.704 72.704h219.136c175.104 0 321.536 102.4 409.6 175.104 31.744 0 58.368-26.624 58.368-58.368v-175.104c33.792 0 59.392-25.6 59.392-58.368zM804.864 725.504c-119.808-92.16-235.52-144.384-351.232-157.696v-123.904c115.712-13.312 231.424-64.512 351.232-155.648v437.248z" />
<glyph unicode="&#xe93d;" glyph-name="menu" d="M64 799.008h896v-112.608h-896v112.608zM64 504.32h896v-112.64h-896v112.64zM64 209.632h896v-112.64h-896v112.64z" />
<glyph unicode="&#xe93e;" glyph-name="minus" d="M0 544v-192c0-17.664 14.336-32 32-32h960c17.664 0 32 14.336 32 32v192c0 17.664-14.336 32-32 32h-960c-17.664 0-32-14.336-32-32z" />
<glyph unicode="&#xe93f;" glyph-name="Multimedia" d="M275.456 56.832c-5.12 0-11.264 2.048-15.36 5.12-9.216 7.168-13.312 18.432-9.216 29.696l84.992 260.096-222.208 160.768c-9.216 7.168-13.312 18.432-9.216 29.696 3.072 11.264 13.312 18.432 25.6 18.432h273.408l83.968 260.096c3.072 11.264 13.312 18.432 25.6 18.432 11.264 0 21.504-7.168 25.6-18.432l82.944-260.096h273.408c11.264 0 21.504-7.168 25.6-18.432 3.072-11.264 0-22.528-9.216-29.696l-222.208-160.768 84.992-260.096c4.096-11.264 0-22.528-9.216-29.696s-21.504-7.168-30.72 0l-222.208 161.792-221.184-161.792c-4.096-3.072-10.24-5.12-15.36-5.12zM210.944 507.392l171.008-123.904c9.216-7.168 13.312-18.432 9.216-29.696l-65.536-200.704 171.008 123.904c9.216 7.168 21.504 7.168 30.72 0l171.008-123.904-65.536 200.704c-3.072 11.264 0 22.528 9.216 29.696l171.008 123.904h-210.944c-11.264 0-21.504 7.168-25.6 18.432l-64.512 200.704-64.512-200.704c-3.072-11.264-13.312-18.432-25.6-18.432v0h-210.944z" />
<glyph unicode="&#xe940;" glyph-name="Multimedia1" d="M512 652.8c-65.536 0-119.808-53.248-119.808-119.808s53.248-119.808 119.808-119.808c66.56 0 119.808 53.248 119.808 119.808s-53.248 119.808-119.808 119.808zM512 448c-47.104 0-84.992 37.888-84.992 84.992s37.888 84.992 84.992 84.992 84.992-37.888 84.992-84.992c0-47.104-37.888-84.992-84.992-84.992zM916.48 710.144c-31.744 41.984-81.92 63.488-149.504 63.488-37.888 0-77.824-7.168-113.664-16.384v0c-40.96 25.6-90.112 40.96-141.312 40.96-52.224 0-100.352-15.36-141.312-40.96v0c-36.864 9.216-75.776 16.384-113.664 16.384-66.56 0-116.736-21.504-149.504-63.488-3.072-4.096-5.12-9.216-5.12-14.336v-555.008c0-10.24 6.144-18.432 14.336-22.528 9.216-4.096 19.456-2.048 26.624 4.096 24.576 22.528 62.464 33.792 113.664 33.792 112.64 0 243.712-56.32 244.736-56.32 0 0 1.024 0 1.024 0 3.072-1.024 6.144-2.048 8.192-2.048 3.072 0 6.144 1.024 8.192 2.048 0 0 1.024 0 1.024 0 1.024 1.024 133.12 56.32 244.736 56.32 51.2 0 89.088-11.264 113.664-33.792 7.168-7.168 17.408-8.192 26.624-4.096 10.24 3.072 16.384 12.288 16.384 22.528v555.008c0 5.12-2.048 10.24-5.12 14.336zM487.424 158.208c-49.152 17.408-143.36 47.104-230.4 47.104-40.96 0-76.8-7.168-105.472-19.456v500.736c22.528 25.6 57.344 37.888 104.448 37.888 21.504 0 43.008-3.072 65.536-7.168-46.080-48.128-74.752-112.64-74.752-184.32 0-138.24 105.472-251.904 240.64-264.192v-110.592zM512 302.592c-126.976 0-231.424 103.424-231.424 231.424 0 126.976 103.424 230.4 231.424 230.4 126.976 0 230.4-103.424 230.4-230.4 1.024-128-103.424-231.424-230.4-231.424zM872.448 185.856c-28.672 13.312-64.512 19.456-105.472 19.456-87.040 0-181.248-29.696-230.4-47.104v110.592c134.144 12.288 240.64 125.952 240.64 264.192 0 71.68-28.672 136.192-74.752 184.32 21.504 4.096 44.032 7.168 65.536 7.168 47.104 0 81.92-12.288 105.472-37.888l-1.024-500.736zM627.712 602.624l68.608 30.72c-15.36 33.792-40.96 61.44-73.728 78.848l-35.84-65.536c18.432-10.24 32.768-25.6 40.96-44.032zM512 568.832c-19.456 0-35.84-16.384-35.84-35.84s16.384-35.84 35.84-35.84c19.456 0 35.84 16.384 35.84 35.84s-16.384 35.84-35.84 35.84z" />
<glyph unicode="&#xe941;" glyph-name="Multimedia2" d="M499.712 826.88c-9.216 4.096-19.456 3.072-27.648-2.048l-211.968-161.792h-132.096c-14.336 0-25.6-11.264-25.6-25.6v-373.76c0-14.336 11.264-25.6 25.6-25.6h131.072l211.968-160.768c5.12-3.072 10.24-5.12 15.36-5.12 4.096 0 8.192 1.024 11.264 3.072 9.216 4.096 14.336 13.312 14.336 23.552v704.512c2.048 10.24-4.096 18.432-12.288 23.552zM461.824 150.016l-177.152 134.144c-4.096 3.072-10.24 5.12-15.36 5.12h-114.688v322.56h114.688c6.144 0 11.264 2.048 15.36 5.12l177.152 134.144c0 0 0-601.088 0-601.088zM672.768 684.544c-8.192 9.216-21.504 10.24-30.72 2.048s-9.216-21.504-2.048-30.72c53.248-59.392 81.92-136.192 81.92-215.040 0-81.92-30.72-160.768-88.064-221.184-8.192-8.192-7.168-22.528 1.024-30.72 4.096-4.096 9.216-6.144 15.36-6.144s11.264 2.048 15.36 7.168c63.488 68.608 99.328 157.696 99.328 250.88 1.024 89.088-31.744 176.128-92.16 243.712zM786.432 797.184c-10.24 12.288-28.672 13.312-40.96 2.048-12.288-10.24-13.312-28.672-2.048-40.96 77.824-87.040 120.832-199.68 120.832-317.44 0-121.856-46.080-237.568-129.024-326.656-11.264-11.264-10.24-29.696 1.024-40.96 5.12-5.12 12.288-8.192 19.456-8.192 8.192 0 15.36 3.072 21.504 9.216 93.184 101.376 144.384 231.424 144.384 367.616 0 131.072-48.128 257.024-135.168 355.328zM572.416 611.84c-5.12 6.144-14.336 6.144-20.48 1.024s-6.144-14.336-1.024-20.48c37.888-41.984 58.368-96.256 58.368-153.6 0-58.368-22.528-114.688-62.464-157.696-5.12-6.144-5.12-15.36 1.024-20.48 3.072-3.072 6.144-4.096 10.24-4.096s8.192 2.048 10.24 4.096c45.056 48.128 69.632 111.616 69.632 177.152s-23.552 125.952-65.536 174.080z" />
<glyph unicode="&#xe942;" glyph-name="Multimedia3" d="M910.336 535.040c-7.168 4.096-15.36 5.12-23.552 1.024l-136.192-67.584c-8.192-4.096-13.312-12.288-13.312-21.504v0h-55.296v14.336c0 7.168-3.072 13.312-7.168 17.408 51.2 28.672 86.016 83.968 86.016 146.432 0 93.184-75.776 168.96-168.96 168.96-75.776 0-139.264-50.176-160.768-117.76-21.504 68.608-84.992 117.76-160.768 117.76-93.184 0-168.96-75.776-168.96-168.96 0-68.608 40.96-128 100.352-153.6-1.024-3.072-2.048-6.144-2.048-10.24v-333.824c0-13.312 10.24-23.552 23.552-23.552h435.2c13.312 0 23.552 10.24 23.552 23.552v69.632h55.296v-2.048c0-9.216 5.12-17.408 13.312-21.504l136.192-67.584c3.072-2.048 7.168-2.048 10.24-2.048 4.096 0 8.192 1.024 12.288 3.072 7.168 4.096 11.264 12.288 11.264 20.48v387.072c1.024 8.192-3.072 16.384-10.24 20.48zM499.712 484.864h-136.192c31.744 21.504 56.32 52.224 67.584 90.112 12.288-37.888 36.864-69.632 68.608-90.112zM146.432 625.152c0 68.608 55.296 123.904 123.904 123.904s123.904-55.296 123.904-123.904c0-68.608-55.296-123.904-123.904-123.904-67.584 0-123.904 55.296-123.904 123.904zM634.88 150.016h-387.072v286.72h387.072v-286.72zM592.896 501.248c-68.608 0-123.904 55.296-123.904 123.904s55.296 123.904 123.904 123.904c68.608 0 123.904-55.296 123.904-123.904s-56.32-123.904-123.904-123.904zM738.304 244.224h-55.296v155.648h55.296v-155.648zM874.496 165.376l-89.088 44.032v223.232l89.088 44.032v-311.296zM333.824 625.152c0 34.816-28.672 62.464-62.464 62.464-34.816 0-62.464-27.648-62.464-62.464s27.648-62.464 62.464-62.464c33.792-1.024 62.464 27.648 62.464 62.464zM237.568 625.152c0 18.432 14.336 32.768 32.768 32.768s32.768-14.336 32.768-32.768c0-18.432-14.336-32.768-32.768-32.768s-32.768 14.336-32.768 32.768zM592.896 687.616c-34.816 0-62.464-27.648-62.464-62.464s28.672-62.464 62.464-62.464c34.816 0 62.464 28.672 62.464 62.464s-28.672 62.464-62.464 62.464zM592.896 591.36c-18.432 0-32.768 14.336-32.768 32.768s15.36 32.768 32.768 32.768c18.432 0 32.768-14.336 32.768-32.768 0-17.408-15.36-32.768-32.768-32.768z" />
<glyph unicode="&#xe943;" glyph-name="Noticias" d="M719.872 591.36c-11.264 0-20.48-9.216-20.48-21.504v-218.112c0-82.944-73.728-153.6-165.888-162.816v50.176c68.608 8.192 117.76 61.44 117.76 130.048v358.4c-1.024 73.728-60.416 130.048-139.264 130.048s-138.24-56.32-138.24-131.072v-358.4c0-67.584 48.128-119.808 115.712-129.024v-49.152c-93.184 10.24-164.864 79.872-164.864 162.816v217.088c0 11.264-9.216 21.504-20.48 21.504s-21.504-9.216-21.504-21.504v-218.112c0-104.448 90.112-193.536 206.848-204.8v-88.064c0-11.264 9.216-21.504 21.504-21.504 11.264 0 20.48 9.216 20.48 21.504v88.064c116.736 9.216 207.872 98.304 207.872 204.8v218.112c1.024 11.264-8.192 21.504-19.456 21.504zM608.256 565.76h-52.224l52.224 52.224v-52.224zM608.256 650.752l-86.016-84.992h-58.368l143.36 138.24v-53.248zM504.832 814.592l-88.064-87.040c0 48.128 37.888 83.968 88.064 87.040zM416.768 694.784l119.808 117.76c13.312-3.072 25.6-8.192 35.84-15.36l-155.648-157.696v55.296zM416.768 605.696l172.032 175.104c10.24-12.288 16.384-27.648 18.432-45.056l-177.152-169.984h-14.336v39.936zM512 279.040c-54.272 0-96.256 37.888-96.256 89.088v155.648h191.488v-155.648c1.024-50.176-40.96-89.088-95.232-89.088z" />
<glyph unicode="&#xe944;" glyph-name="NotifActive" d="M576 105.984q0-38.016-25.003-61.013t-61.013-22.997q-34.005 0-59.008 25.003t-25.003 59.008h169.984zM768 512v-233.984l86.016-86.016v-41.984h-726.016v41.984l86.016 86.016v233.984q0 96 59.989 171.989t152.021 98.005v27.989q0 25.984 18.987 45.013t45.013 18.987 45.013-18.987 18.987-45.013v-27.989q91.989-22.016 153.003-98.005t61.013-171.989zM852.011 534.016q-9.984 173.995-152.021 274.005l61.995 59.989q166.016-128 176-333.995h-86.016zM280.021 807.979q-139.989-100.011-150.016-274.005h-86.016q9.984 205.995 176 333.995z" />
<glyph unicode="&#xe945;" glyph-name="Nube" d="M757.76 147.968h-463.872c-105.472 0-191.488 84.992-191.488 190.464 0 76.8 45.056 142.336 110.592 173.056 0 6.144-1.024 12.288-1.024 18.432 0 120.832 97.28 218.112 218.112 218.112 91.136 0 168.96-56.32 201.728-136.192 18.432 16.384 44.032 26.624 70.656 26.624 60.416 0 109.568-49.152 109.568-109.568 0-21.504-6.144-41.984-17.408-58.368 72.704-17.408 126.976-81.92 126.976-159.744 0-90.112-73.728-162.816-163.84-162.816z" />
<glyph unicode="&#xe946;" glyph-name="Ojo" d="M912.384 416.256c-83.968-138.24-237.568-231.424-400.384-231.424-161.792 0-316.416 94.208-400.384 231.424-5.12 9.216-9.216 20.48-9.216 31.744s4.096 21.504 9.216 31.744c83.968 138.24 238.592 231.424 400.384 231.424 162.816 0 316.416-93.184 400.384-231.424 5.12-9.216 9.216-20.48 9.216-31.744s-4.096-21.504-9.216-31.744zM689.152 609.792c18.432-30.72 27.648-66.56 27.648-102.4 0-112.64-92.16-204.8-204.8-204.8s-204.8 92.16-204.8 204.8c0 35.84 9.216 71.68 27.648 102.4-71.68-36.864-131.072-94.208-174.080-161.792 77.824-120.832 204.8-204.8 351.232-204.8s272.384 83.968 351.232 204.8c-44.032 67.584-103.424 124.928-174.080 161.792zM512 645.632c-76.8 0-139.264-62.464-139.264-139.264 0-12.288 10.24-21.504 21.504-21.504 12.288 0 21.504 10.24 21.504 21.504 0 52.224 43.008 95.232 95.232 95.232 12.288 0 21.504 10.24 21.504 21.504s-8.192 22.528-20.48 22.528z" />
<glyph unicode="&#xe947;" glyph-name="paperplane" d="M1009.376 954.88c-5.312 3.424-11.36 5.12-17.376 5.12-6.176 0-12.384-1.76-17.76-5.376l-960-640c-9.888-6.56-15.328-18.112-14.048-29.952 1.216-11.808 8.896-22.016 19.936-26.368l250.368-100.192 117.728-206.016c5.632-9.888 16.096-16 27.424-16.128 0.128 0 0.224 0 0.352 0 11.232 0 21.664 5.952 27.424 15.552l66.464 110.816 310.24-124.064c3.808-1.536 7.808-2.272 11.872-2.272 5.44 0 10.816 1.376 15.68 4.128 8.448 4.736 14.24 13.056 15.872 22.624l160 960c2.080 12.576-3.488 25.184-14.176 32.128zM100.352 295.136l741.6 494.432-539.2-577.184c-2.848 1.696-5.376 3.936-8.512 5.184l-193.888 77.568zM326.048 189.888c-0.064 0.128-0.16 0.192-0.224 0.32l606.176 648.8-516.768-805.184-89.184 156.064zM806.944 12.512l-273.312 109.312c-6.496 2.56-13.248 3.424-19.936 3.808l420.864 652.416-127.616-765.536z" />
<glyph unicode="&#xe948;" glyph-name="pause2" d="M128 832h320v-768h-320zM576 832h320v-768h-320z" />
<glyph unicode="&#xe949;" glyph-name="pen" d="M940.64 877.44c-52.64 52.576-121.952 82.56-190.272 82.56-57.632 0-110.688-21.376-149.44-60.064l-155.744-156.928c-0.48-0.448-1.024-0.736-1.504-1.216-0.256-0.256-0.416-0.608-0.672-0.832l0.064-0.064-330.528-333.088c-15.232-15.136-26.272-33.984-32.416-54.56l-75.168-272.256c-0.064-0.736-4.96-22.112-4.96-32.992 0-61.824 50.208-112 112.128-112 12.32 0 36.16 5.888 37.024 6.016l271.296 71.328c20.608 6.112 39.328 17.248 54.56 32.512l488.416 492.256c88.832 88.896 78.816 237.888-22.784 339.328zM512.448 198.56c-2.624 28.864-10.784 57.184-23.008 84.064l302.56 302.528c18.496-58.432 8.992-119.552-31.552-160.128-0.256-0.256-0.576-0.416-0.8-0.672l0.448-0.416-247.296-249.28c0 7.968 0.384 15.776-0.352 23.904zM473.376 311.808c-11.936 19.616-25.504 38.56-42.304 55.328-19.552 19.552-41.984 34.88-65.408 47.744l305.024 305.024c23.936-10.624 46.88-25.76 67.136-46.016 17.312-17.248 30.688-36.576 40.992-56.672l-305.44-305.408zM335.552 430.016c-29.632 11.936-60.672 18.752-91.776 19.168l246.496 248.384c37.728 36.8 92.672 47.392 146.784 33.984l-301.504-301.536zM133.344 4.064c-3.488-0.8-14.336-3.552-21.696-4.064-26.304 0.32-47.648 21.696-47.648 48 0.384 5.376 2.528 14.624 3.264 17.984l33.696 122.048c36.576 0.992 75.936-13.248 106.88-44.256 31.424-31.36 46.208-71.488 44.608-108.512l-119.104-31.2zM283.968 43.616c-0.768 42.944-18.24 87.616-53.504 122.816-33.344 33.376-76.992 52.64-120.512 54.368l31.872 115.424c2.304 7.68 6.88 15.264 12.512 21.888 64.192 45.952 162.912 32.384 231.488-36.256 72.544-72.512 83.744-178.752 27.872-242.176-3.712-1.952-7.456-3.808-11.488-4.992l-118.24-31.072zM918.112 583.296l-53.888-54.304c0 7.232 0.864 14.176 0.192 21.568-5.632 61.92-34.496 121.792-81.376 168.608-52.128 52.16-121.248 82.080-189.696 82.272l52.992 53.44c26.528 26.464 63.552 41.12 104.032 41.12 51.488 0 104.384-23.296 145.056-63.84 38.176-38.112 60.928-85.472 64.192-133.376 3.008-44.704-11.744-85.696-41.504-115.488z" />
<glyph unicode="&#xe94a;" glyph-name="Persona" d="M768-2.56h-512c-93.184 0-156.672 57.344-156.672 151.552 0 132.096 30.72 335.872 202.752 335.872 18.432 0 95.232-81.92 209.92-81.92s191.488 81.92 209.92 81.92c172.032 0 202.752-203.776 202.752-335.872 0-94.208-63.488-151.552-156.672-151.552zM512 448c-123.904 0-225.28 100.352-225.28 225.28s101.376 225.28 225.28 225.28c123.904 0 225.28-101.376 225.28-225.28s-101.376-225.28-225.28-225.28z" />
<glyph unicode="&#xe94b;" glyph-name="Personaje" d="M512 610.816c-88.064 0-159.744 71.68-159.744 159.744s71.68 159.744 159.744 159.744c88.064 0 159.744-71.68 159.744-159.744s-71.68-159.744-159.744-159.744zM512 860.672c-49.152 0-90.112-39.936-90.112-89.088s39.936-90.112 90.112-90.112c49.152 0 90.112 39.936 90.112 90.112 0 49.152-39.936 89.088-90.112 89.088zM704.512-34.304h-385.024l-35.84 438.272c0 114.688 117.76 173.056 234.496 173.056 132.096 0 224.256-69.632 224.256-169.984 0-76.8-32.768-396.288-33.792-409.6l-4.096-31.744zM382.976 35.328h258.048c8.192 83.968 30.72 311.296 30.72 371.712 0 78.848-96.256 100.352-153.6 100.352-79.872 0-164.864-34.816-164.864-100.352l29.696-371.712z" />
<glyph unicode="&#xe94c;" glyph-name="photo" d="M864 960h-704c-70.688 0-128-57.312-128-128v-768c0-70.688 57.312-128 128-128h704c70.688 0 128 57.312 128 128v768c0 70.688-57.312 128-128 128zM928 64c0-35.264-28.736-64-64-64h-704c-35.296 0-64 28.736-64 64v768c0 35.296 28.704 64 64 64h704c35.264 0 64-28.704 64-64v-768zM832 832h-640c-17.696 0-32-14.304-32-32v-576c0-17.696 14.304-32 32-32h640c17.696 0 32 14.304 32 32v576c0 17.696-14.304 32-32 32zM832 800v-443.808l-104 112.96c-6.112 6.912-14.816 10.848-24 10.848s-17.952-3.936-24-10.848l-83.328-94.4-252.672 286.4c-6.080 6.912-14.816 10.848-24 10.848s-17.92-3.936-24-10.848l-104-119.936v258.784h640zM192 492.8l128 147.2 276.672-313.632 88.384-102.368h-493.056v268.8zM727.68 224l-109.696 126.56 86.016 97.44 128-140.128v-83.872h-104.32zM640 544c52.992 0 96 42.976 96 96s-43.008 96-96 96c-53.056 0-96-42.976-96-96s42.944-96 96-96zM640 704c35.264 0 64-28.704 64-64s-28.736-64-64-64c-35.328 0-64 28.704-64 64s28.672 64 64 64z" />
<glyph unicode="&#xe94d;" glyph-name="play" d="M981.184 799.904c-143.616 20.64-302.336 32.096-469.184 32.096s-325.568-11.456-469.184-32.096c-27.52-107.712-42.816-226.752-42.816-351.904s15.264-244.16 42.816-351.904c143.648-20.64 302.336-32.096 469.184-32.096s325.568 11.456 469.184 32.096c27.52 107.712 42.816 226.752 42.816 351.904s-15.264 244.16-42.816 351.904zM384 256v384l320-192-320-192z" />
<glyph unicode="&#xe94e;" glyph-name="play3" d="M192 832l640-384-640-384z" />
<glyph unicode="&#xe94f;" glyph-name="plus" d="M992 511.008h-416.992v416.992c0 17.664-14.304 32-32 32h-62.016c-17.664 0-32-14.336-32-32v-416.992h-416.992c-17.664 0-32-14.304-32-32v-62.016c0-17.696 14.336-32 32-32h416.992v-416.992c0-17.696 14.336-32 32-32h62.016c17.696 0 32 14.304 32 32v416.992h416.992c17.696 0 32 14.304 32 32v62.016c0 17.664-14.304 32-32 32z" />
<glyph unicode="&#xe950;" glyph-name="practicantes" d="M619.328 445.824c-21.376-20.448-43.68-47.968-64.128-84.928-20.064 72.672-45.408 126.080-71.2 165.088 117.888 393.376-456.096 407.52-456.096 407.52s16.672-491.68 316.48-480.352c-0.608 32.896-5.664 66.112-12.8 97.408-4.768 20.288-10.304 39.648-15.936 57.696-19.232 59.296-40.864 101.44-40.864 101.44 21.76-29.312 41.152-57.344 58.272-83.552 58.848-90.592 90.912-160.928 105.792-198.016 36.8-79.168 69.856-209.408 69.856-421.984 0-24.224 19.712-43.648 43.648-43.648 24 0 43.488 19.424 43.488 43.648 0 68.8-3.264 130.144-9.376 184.896 14.016 66.688 34.88 114.080 56.64 147.616 14.176 27.264 40.512 73.728 75.808 121.44 31.616 42.176 70.496 85.376 114.496 116.096 0 0-90.176-99.84-96-197.632 248.992-12.928 258.688 378.976 258.688 378.976s-455.776-15.488-376.768-311.712v0z" />
<glyph unicode="&#xe951;" glyph-name="profecionalnv" d="M169.12 719.968v-386.112c0-0.608 0-1.376 0.16-1.952 1.344-23.776 22.016-68.928 90.944-68.928 63.904 0 88.128 43.040 91.68 65.984 0.128 1.664 1.024 3.264 1.024 4.896v386.112c12.448 3.808 22.496 16.224 22.496 31.2v35.2c0 17.888-15.104 32.992-33.152 32.992h-164.16c-17.888 0-31.328-15.136-31.328-32.992v-35.2c0-14.976 9.888-27.392 22.336-31.2zM179.168 774.848c0 6.048 4.288 9.76 10.368 9.76h141.376c6.208 0 12.128-3.68 12.128-9.76v-12.448c0-6.048-5.92-10.016-12.128-10.016h-0.448c-6.208 0-12.256-5.952-12.256-12.16v-406.368c0 0-5.632-38.432-58.432-38.432-56.32 0-58.272 38.432-58.272 38.432v406.368c0 6.208-5.312 12.16-11.392 12.16h-0.576c-6.080 0-10.368 3.968-10.368 10.016v12.448zM259.776 311.328c37.12 0 41.12 31.040 41.12 31.040v101.952h-82.080v-101.952c0 0 1.472-31.040 40.96-31.040zM422.592 719.968v-386.112c0-0.608 0.32-1.376 0.32-1.952 1.312-23.776 22.304-68.928 91.232-68.928 63.904 0 87.872 43.040 91.392 65.984 0.16 1.664 0.896 3.264 0.896 4.896v386.112c12.256 3.808 22.336 16.224 22.336 31.2v35.2c0 17.888-14.368 32.992-32.256 32.992h-164.32c-17.888 0-32.064-15.136-32.064-32.992v-35.2c0-14.976 10.048-27.392 22.464-31.2zM432.512 774.848c0 6.048 5.024 9.76 11.264 9.76h141.408c6.016 0 11.36-3.68 11.36-9.76v-12.448c0-6.048-5.344-10.016-11.36-10.016h-0.64c-6.048 0-10.496-5.952-10.496-12.16v-406.368c0 0-6.784-38.432-59.584-38.432-56.512 0-59.616 38.432-59.616 38.432v406.368c0 6.208-4.576 12.16-10.656 12.16h-0.608c-6.048 0-11.104 3.968-11.104 10.016v12.448zM514.432 311.328c36.96 0 42.272 31.040 42.272 31.040v101.952h-84.448v-101.952c0.032 0 2.688-31.040 42.176-31.040zM678.464 719.968v-386.112c0-0.608-0.192-1.376-0.192-1.952 1.504-23.776 22.176-68.928 91.104-68.928 63.776 0 86.816 43.040 90.368 65.984 0.16 1.664 0 3.264 0 4.896v386.112c14.816 3.808 24.864 16.224 24.864 31.2v35.2c0 17.888-15.392 32.992-33.312 32.992h-164.32c-17.888 0-31.040-15.136-31.040-32.992v-35.2c0.16-14.976 10.080-27.392 22.528-31.2zM688.352 774.848c0 6.048 4.16 9.76 10.208 9.76h141.376c6.016 0 9.92-3.68 9.92-9.76v-12.448c0-6.048-3.872-10.016-9.92-10.016h-0.576c-6.080 0-12-5.952-12-12.16v-406.368c0 0-5.664-38.432-58.272-38.432-56.512 0-58.432 38.432-58.432 38.432v406.368c0 6.208-5.6 12.16-11.648 12.16h-0.608c-6.048 0-10.048 3.968-10.048 10.016v12.448zM769.088 311.328c36.96 0 40.96 31.040 40.96 31.040v101.952h-82.080v-101.952c0.16 0 1.504-31.040 41.12-31.040zM874.688 501.344v-62.048h62.080v-240.96h-849.6v240.96h62.144v62.048h-121.728v-424.672h967.904l0.928 424.672z" />
<glyph unicode="&#xe952;" glyph-name="profesionalAp" d="M538.304 304.288h244.704v-52.16h-244.704v52.16zM592.832 352.16h190.176v52.192h-190.176v-52.192zM823.104 932.352h-513.216c-46.4 0-83.936-42.976-83.936-95.744v-610.784l49.952 73.312v537.472c0 24.8 15.52 45.792 34.016 45.792h513.216c18.304 0 33.856-20.992 33.856-45.792v-617.568c0-24.832-15.52-45.984-33.856-45.984h-434.656l-34.112-49.984h468.736c46.24 0 83.936 43.040 83.936 95.936v617.6c0 52.768-37.696 95.744-83.936 95.744v0zM275.872 219.040v80.096l70.336 103.008 23.36 34.112 26.016 38.112c1.792 3.584 3.84 6.848 6.784 10.080l1.344 1.728 0.288-0.096c2.368 2.176 4.864 4.576 7.84 6.624l131.2 90.752c9.024 6.208 16.832 9.312 23.072 9.312 12.416 0 17.888-12.096 12.704-33.856l-36.672-155.168c-0.736-3.552-2.208-6.496-3.552-9.472l0.48-0.448-1.504-2.208c-1.632-3.264-3.68-5.92-5.76-8.448l-26.88-39.328-116.448-170.816h-43.744l138.752 203.328c-1.792 0.864-3.552 1.312-5.184 2.496l-11.232 7.68c0 0-97.984-143.616-145.568-213.536h-11.616c-18.496 0.064-34.016 21.184-34.016 46.048v0zM429.888 468.32l83.040-56.736 32.32 136.576-115.36-79.84zM620.608 452.064h162.432v52.32h-162.432v-52.32zM289.632 126.368c6.496-1.952 13.152-3.296 20.256-3.296h0.864l34.144 49.984h-23.328c-10.528-15.2-30.016-43.904-31.936-46.688v0zM783.040 804.256h-310.304v-52.16h310.304v52.16zM620.608 552.128h162.432v52.16h-162.432v-52.16zM427.968 604.32h-77.152v-52.16h77.152v52.16zM783.040 704.352h-432.224v-52.16h432.224v52.16zM310.752 123.104h43.616l-90.88-133.12c-0.896-1.344-2.208-2.368-3.264-3.68-0.608-1.344-1.024-2.688-1.92-4-5.6-8.128-14.496-12.992-24.832-14.944-6.496-2.208-13.312-3.68-20.096-3.68-11.84 0-23.648 3.392-34.016 10.496l-35.456 24.096c-16.864 11.488-26.016 30.272-26.304 49.344-1.632 9.92-0.128 19.36 5.184 27.2 0.736 1.024 1.792 1.952 2.656 2.816 0.896 1.632 1.632 3.264 2.656 4.704l48.768 71.68 49.056 71.808v-6.784c0-44.928 27.2-82.304 63.68-92.672-0.448-0.608-5.92-8.608-5.92-8.608l15.968-10.944 11.104 16.288zM287.392 78.624l-85.408 58.368-32.64-47.712c9.472-1.952 19.36-5.792 28.384-11.968l35.456-24.256c9.184-6.208 16.416-14.016 21.568-22.144l32.64 47.712zM427.968 804.256h-77.152v-52.16h77.152v52.16z" />
<glyph unicode="&#xe953;" glyph-name="redCacao" d="M777.6 470.4c0 70.4-12.8 102.4-28.8 124.8-3.2 28.8-12.8 60.8-28.8 86.4-16 22.4-35.2 35.2-54.4 38.4-12.8 16-32 38.4-54.4 38.4-22.4 35.2-54.4 51.2-89.6 44.8-16-3.2-28.8-9.6-38.4-22.4-3.2-3.2-3.2-3.2-6.4-6.4s-6.4-6.4-6.4-9.6c-9.6 35.2-12.8 83.2 12.8 108.8 9.6 9.6 9.6 32 0 44.8s-25.6 19.2-35.2 6.4c-38.4-44.8-35.2-115.2-25.6-163.2-6.4 0-12.8 0-19.2 0-3.2 0-3.2 3.2-6.4 3.2-16 6.4-28.8 9.6-38.4 6.4v0c-3.2 0-3.2 0-6.4-3.2-12.8-3.2-25.6-16-32-32-41.6-6.4-60.8-41.6-70.4-70.4-6.4-22.4-9.6-48-9.6-67.2-6.4-9.6-12.8-25.6-19.2-51.2 0 0-12.8-64-9.6-105.6-12.8-51.2 9.6-115.2 25.6-147.2-3.2-67.2 9.6-99.2 22.4-121.6 3.2-28.8 9.6-57.6 25.6-83.2 12.8-22.4 35.2-35.2 51.2-38.4 12.8-12.8 28.8-38.4 51.2-38.4 19.2-35.2 51.2-51.2 86.4-44.8 16 3.2 28.8 9.6 38.4 19.2 3.2 3.2 3.2 3.2 6.4 6.4l3.2 3.2c-3.2 3.2-3.2 3.2-6.4 6.4 35.2-35.2 80-38.4 102.4-35.2 3.2 0 3.2-3.2 6.4-3.2 16-6.4 28.8-9.6 41.6-6.4v0c3.2 0 3.2 0 6.4 3.2 12.8 6.4 25.6 19.2 32 35.2 44.8 16 67.2 51.2 73.6 83.2 6.4 25.6 9.6 51.2 6.4 70.4 6.4 12.8 12.8 28.8 19.2 54.4 0 0 12.8 67.2 6.4 112 12.8 54.4-12.8 118.4-32 153.6zM428.8 739.2v0c-3.2-3.2-6.4-3.2-6.4-6.4 0 3.2 3.2 6.4 6.4 6.4zM473.6 41.6c-3.2 0-3.2-3.2-6.4-3.2-9.6-3.2-32-3.2-41.6 25.6-6.4 16-19.2 25.6-28.8 19.2-6.4-3.2-12.8 6.4-22.4 19.2-3.2 3.2-3.2 6.4-6.4 6.4l-3.2 3.2c-6.4 6.4-12.8 9.6-19.2 9.6-9.6 0-19.2 9.6-22.4 12.8-6.4 9.6-12.8 25.6-9.6 38.4 3.2 19.2-6.4 28.8-9.6 35.2-6.4 6.4-16 25.6-12.8 86.4 0 9.6-3.2 22.4-9.6 28.8-6.4 9.6-28.8 60.8-19.2 89.6 3.2 9.6 3.2 19.2 0 28.8-3.2 22.4 9.6 89.6 19.2 102.4 6.4 3.2 9.6 9.6 12.8 16s3.2 12.8 0 22.4c-6.4 12.8-12.8 80 51.2 92.8 6.4 3.2 12.8 9.6 16 19.2 3.2 3.2 3.2 9.6 6.4 12.8 6.4 0 19.2-3.2 22.4-6.4v0c-12.8-22.4-22.4-51.2-25.6-86.4-25.6-19.2-28.8-38.4-38.4-70.4l-3.2-9.6c-9.6-28.8-6.4-76.8 0-140.8 3.2-22.4 9.6-48 16-70.4 6.4-19.2 9.6-38.4 12.8-51.2 6.4-60.8 35.2-89.6 54.4-115.2 12.8-12.8 22.4-25.6 28.8-41.6 3.2-6.4 6.4-12.8 6.4-19.2 12.8-16 19.2-38.4 32-54.4v0zM761.6 339.2c-3.2-9.6-3.2-19.2 0-28.8 3.2-22.4-6.4-92.8-16-108.8-6.4-3.2-9.6-9.6-12.8-19.2-3.2-6.4-3.2-16 0-22.4 3.2-9.6 9.6-80-57.6-96-9.6-3.2-12.8-9.6-19.2-19.2-3.2-3.2-3.2-9.6-6.4-12.8-6.4 0-19.2 3.2-25.6 6.4s-9.6 3.2-16 3.2c-19.2-3.2-54.4 3.2-70.4 22.4-6.4 6.4-12.8 9.6-19.2 9.6s-22.4 35.2-25.6 51.2c-3.2 9.6-6.4 16-9.6 22.4-12.8 28.8-28.8 44.8-41.6 64-19.2 22.4-32 38.4-35.2 67.2-3.2 22.4-9.6 44.8-16 67.2-6.4 19.2-9.6 41.6-12.8 51.2-3.2 38.4-6.4 89.6-3.2 108.8l3.2 9.6c6.4 28.8 9.6 32 28.8 44.8 9.6 6.4 12.8 19.2 12.8 28.8-3.2 38.4 16 73.6 35.2 83.2 6.4 3.2 12.8 6.4 19.2 6.4 3.2 0 3.2 0 6.4 0 9.6 0 19.2 9.6 19.2 19.2 0 3.2 3.2 6.4 9.6 12.8 3.2 3.2 6.4 6.4 6.4 6.4 3.2 3.2 6.4 6.4 19.2 9.6 9.6 3.2 32 3.2 44.8-25.6 6.4-16 19.2-25.6 32-19.2 6.4 3.2 12.8-6.4 25.6-19.2 3.2-3.2 3.2-6.4 6.4-6.4l3.2-3.2c6.4-6.4 12.8-9.6 22.4-9.6 9.6 3.2 19.2-6.4 22.4-12.8 9.6-9.6 12.8-25.6 12.8-38.4 0-19.2 6.4-32 12.8-38.4s19.2-25.6 16-89.6c0-9.6 3.2-22.4 9.6-32 3.2-9.6 28.8-60.8 19.2-92.8zM707.2 227.2c-16-3.2-38.4 9.6-54.4 35.2-6.4 9.6-16 28.8-9.6 51.2 3.2 3.2 3.2 9.6 0 12.8-3.2 6.4-6.4 9.6-9.6 9.6-6.4 3.2-19.2 16-22.4 25.6 0 3.2-3.2 9.6 3.2 22.4 3.2 6.4 3.2 9.6 0 19.2-3.2 6.4-6.4 9.6-9.6 12.8-6.4 3.2-9.6 6.4-16 16-9.6 22.4-12.8 54.4-9.6 64 3.2 6.4 0 12.8-3.2 16-19.2 28.8-25.6 57.6-22.4 80 3.2 12.8 9.6 19.2 19.2 19.2 6.4 3.2 9.6 9.6 9.6 19.2-3.2 9.6-9.6 19.2-12.8 16-19.2-3.2-28.8-16-38.4-41.6-6.4-32 0-70.4 22.4-108.8-3.2-22.4 3.2-57.6 16-86.4 6.4-9.6 9.6-19.2 19.2-25.6-3.2-12.8 0-22.4 3.2-32 6.4-19.2 16-35.2 25.6-41.6-3.2-22.4 3.2-51.2 19.2-73.6 19.2-35.2 51.2-54.4 76.8-51.2 3.2 0 3.2 0 3.2 0 6.4 3.2 9.6 9.6 9.6 22.4-6.4 16-12.8 22.4-19.2 19.2zM537.6 291.2c-9.6 22.4-22.4 41.6-38.4 51.2-9.6 6.4-19.2 6.4-25.6 0-6.4-3.2-6.4-12.8-3.2-22.4s12.8-12.8 19.2-9.6c3.2 3.2 3.2 0 6.4 0 6.4-3.2 19.2-16 22.4-28.8 6.4-12.8 6.4-35.2 6.4-41.6-3.2-6.4-3.2-12.8 0-19.2s6.4-9.6 12.8-9.6c6.4 0 12.8-12.8 22.4-41.6 0-6.4 0-25.6-3.2-41.6-3.2-9.6 3.2-19.2 9.6-22.4 3.2-3.2 6.4-3.2 6.4-3.2 3.2 0 6.4 3.2 9.6 9.6 3.2 12.8 9.6 44.8 3.2 60.8-6.4 28.8-19.2 54.4-32 64-3.2 19.2-9.6 41.6-16 54.4z" />
</font>
</defs>
</svg>
